<svg xmlns="http://www.w3.org/2000/svg" viewBox="0 0 776 495.95"><defs><style>.cls-1{fill:#fff;}</style></defs><g id="Layer_2" data-name="Layer 2"><g id="Nanities_Logo" data-name="Nanities Logo"><path class="cls-1" d="M198.39,496a36.87,36.87,0,1,0-16-70c-2.54-3-5-5.94-7.42-9a271.64,271.64,0,0,1-49.58-235.6L103,171.94l-1.88-.79A297.71,297.71,0,0,0,156.5,435.56q3.81,4.76,7.85,9.37a36.86,36.86,0,0,0,34,51Zm10.77-36.87a10.77,10.77,0,1,1-10.77-10.77A10.79,10.79,0,0,1,209.16,459.08Zm18.59-351.39L187.09,67.08a268,268,0,0,0-31.37,42.12c-.05.11-.16.26-.21.37l-23.8-10-.57-.21c.05-.1.16-.26.21-.36a300.62,300.62,0,0,1,46.29-59.87l9.24-9.24,361.22,361,40.66,40.61a267.83,267.83,0,0,0,31.84-42.75l24.26,10.18A295.37,295.37,0,0,1,603,454.51L589,468.6l-59.29-59.24ZM666.52,322.88l2.67,1.09,2,.84,4,1.67A298,298,0,0,0,612,53.77c-.35-.39-.72-.78-1.07-1.18a36.48,36.48,0,0,0,3.58-15.72,36.91,36.91,0,1,0-22.31,33.86c.32.35.65.69,1,1A272,272,0,0,1,650.87,316.3Zm-99.61-286a10.77,10.77,0,1,1,10.77,10.77A10.78,10.78,0,0,1,566.91,36.87Zm-517.18,85q-5.15,13.5-9.24,27.48c-.71,2.47-1.41,4.95-2.07,7.43-.55,2.06-1.05,4.15-1.56,6.22a362.19,362.19,0,0,0,3.67,186.67q.94,3.14,1.88,6.26c1.41,4.6,2.92,9.13,4.54,13.67a23.79,23.79,0,1,1-26.44,4.67,386.41,386.41,0,0,1,4.71-261.53c.17-.45.32-.92.49-1.38.29-.8.63-1.57.93-2.36l1.08-2.72c.88-2.22,1.72-4.44,2.64-6.66l5-12,2.87,1.21,229.9,96.13,10.44,10.44,38.26,38.21ZM174,250a210.64,210.64,0,0,1,5.06-46.19l7,2.93,17.53,7.36a185.35,185.35,0,0,0-3.49,35.9c0,103.66,84.29,188,187.94,188a186.71,186.71,0,0,0,102.66-30.64L506,422.51l3.55,3.55A212.6,212.6,0,0,1,388.05,464C270,464,174,368,174,250Zm398.75,34.5a187.44,187.44,0,0,0,3.18-34.5c0-103.6-84.29-187.89-187.89-187.89a186.7,186.7,0,0,0-101.77,30l-7.36-7.3L267.38,73.24A213.35,213.35,0,0,1,388.05,36c118,0,214,96,214,214a210.5,210.5,0,0,1-4.75,44.73l-21.24-8.87Zm-65,29h-.06l-48.64-48.64,267.49,111.9v-.06A353.34,353.34,0,0,0,738.71,338a2.4,2.4,0,0,0,.15-.57,365.31,365.31,0,0,0,7.92-134.07c0-.23,0-.47-.08-.7-.53-4.1-1.17-8.18-1.84-12.25q-.51-3.12-1.08-6.21-.74-4-1.57-8.06c-.82-3.93-1.69-7.83-2.64-11.7-.26-1.06-.49-2.12-.76-3.17q-4.27-16.84-10.11-33A23.93,23.93,0,1,1,752.18,116s0,.08,0,.12c2.28,6.21,4.34,12.48,6.29,18.78.29.91.53,1.84.81,2.76,1.37,4.54,2.68,9.1,3.88,13.69.7,2.64,1.32,5.31,2,8s1.32,5.57,1.93,8.37q1.21,5.66,2.27,11.37c.27,1.5.54,3,.8,4.5a385.12,385.12,0,0,1-29.43,227.74l-16.46-6.9s-7.52-3.39-7.48-3.48Z"/></g></g></svg>