<svg xmlns="http://www.w3.org/2000/svg" viewBox="0 0 775.99 496.08"><defs><style>.cls-1{fill:#0984e3;}</style></defs><g id="Layer_2" data-name="Layer 2"><g id="Layer_1-2" data-name="Layer 1"><g id="Layer_2-2" data-name="Layer 2"><g id="Nanities_Logo" data-name="Nanities Logo"><path class="cls-1" d="M198.39,496.08a36.87,36.87,0,1,0-16-70c-2.54-3-5-5.94-7.42-9a271.63,271.63,0,0,1-49.58-235.6L103,172l-1.88-.79A297.71,297.71,0,0,0,156.5,435.64q3.81,4.75,7.85,9.37a36.86,36.86,0,0,0,34,51Zm10.77-36.87a10.77,10.77,0,1,1-10.77-10.77h0a10.8,10.8,0,0,1,10.77,10.72Zm18.59-351.39L187.09,67.16a268.06,268.06,0,0,0-31.37,42.12c-.05.11-.16.26-.21.37l-23.8-10-.57-.21c.05-.1.16-.26.21-.36a300.76,300.76,0,0,1,46.29-59.87L186.88,30,548.1,391l40.66,40.61a268.36,268.36,0,0,0,31.84-42.75L644.86,399A295.3,295.3,0,0,1,603,454.59l-14,14.09-59.29-59.24ZM666.52,323l2.67,1.09,2,.84,4,1.67A298,298,0,0,0,612,53.85c-.35-.39-.72-.78-1.07-1.18A36.8,36.8,0,1,0,592.2,70.81a13.48,13.48,0,0,0,1,1,272,272,0,0,1,57.67,244.57ZM566.91,37a10.77,10.77,0,1,1,10.77,10.77A10.77,10.77,0,0,1,566.91,37ZM49.73,122q-5.15,13.5-9.24,27.48c-.71,2.47-1.41,4.95-2.07,7.43-.55,2.06-1.05,4.15-1.56,6.22a362.16,362.16,0,0,0,3.67,186.67c.63,2.09,1.25,4.18,1.88,6.26,1.41,4.6,2.92,9.13,4.54,13.67a23.79,23.79,0,1,1-26.44,4.67,386.39,386.39,0,0,1,4.71-261.53c.17-.45.32-.92.49-1.38.29-.8.63-1.57.93-2.36l1.08-2.72c.88-2.22,1.72-4.44,2.64-6.66l5-12,2.87,1.21,229.9,96.13,10.44,10.44,38.26,38.21ZM174,250.08a211,211,0,0,1,5.06-46.19l7,2.93,17.53,7.36a184.88,184.88,0,0,0-3.49,35.9c0,103.66,84.29,188,187.94,188A186.76,186.76,0,0,0,490.7,407.44L506,422.59l3.55,3.55a212.57,212.57,0,0,1-121.5,37.94C270,464.08,174,368.08,174,250.08Zm398.75,34.5a187.51,187.51,0,0,0,3.18-34.5c0-103.6-84.29-187.89-187.89-187.89a186.74,186.74,0,0,0-101.77,30l-7.36-7.3L267.38,73.32A213.3,213.3,0,0,1,388.05,36.08c118,0,214,96,214,214a210.19,210.19,0,0,1-4.75,44.73l-21.24-8.87Zm-65,29h-.06l-48.64-48.64,267.49,111.9v-.06a354.26,354.26,0,0,0,12.17-38.7,2.65,2.65,0,0,0,.15-.57,365.33,365.33,0,0,0,7.92-134.07,2.1,2.1,0,0,0-.08-.7c-.53-4.1-1.17-8.18-1.84-12.25q-.51-3.12-1.08-6.21c-.49-2.67-1-5.35-1.57-8.06-.82-3.93-1.69-7.83-2.64-11.7-.26-1.06-.49-2.12-.76-3.17q-4.27-16.84-10.11-33a23.94,23.94,0,1,1,23.48-12.27v.12c2.28,6.21,4.34,12.48,6.29,18.78.29.91.53,1.84.81,2.76,1.37,4.54,2.68,9.1,3.88,13.69.7,2.64,1.32,5.31,2,8s1.32,5.57,1.93,8.37q1.21,5.65,2.27,11.37c.27,1.5.54,3,.8,4.5a385.1,385.1,0,0,1-29.43,227.74l-16.46-6.9s-7.52-3.39-7.48-3.48Z"/></g></g></g></g></svg>