<svg xmlns="http://www.w3.org/2000/svg" viewBox="0 0 664 668.51"><defs><style>.cls-1{fill:#fff;}</style></defs><g id="Layer_2" data-name="Layer 2"><g id="Satellite.im_icon" data-name="Satellite.im icon"><path class="cls-1" d="M379.64,99.79c-157,0-284.36,127.31-284.36,284.36a283,283,0,0,0,67.33,183.51v91.49a5.4,5.4,0,0,0,8.1,4.68l62.64-36.17a282.6,282.6,0,0,0,146.29,40.85C536.69,668.51,664,541.19,664,384.15S536.69,99.79,379.64,99.79Zm0,486.55C268.17,586.34,177.8,496,177.8,384.5s90.37-201.84,201.84-201.84S581.48,273,581.48,384.5,491.11,586.34,379.64,586.34Z"/><path class="cls-1" d="M135.31,67.66a67.66,67.66,0,1,0-67.65,67.65A67.65,67.65,0,0,0,135.31,67.66Z"/></g></g></svg>