<?xml version="1.0" standalone="no"?>
<!DOCTYPE svg PUBLIC "-//W3C//DTD SVG 20010904//EN"
 "http://www.w3.org/TR/2001/REC-SVG-20010904/DTD/svg10.dtd">
<svg version="1.0" xmlns="http://www.w3.org/2000/svg"
 width="512.000000pt" height="512.000000pt" viewBox="0 0 512.000000 512.000000"
 preserveAspectRatio="xMidYMid meet">
<metadata>
Created by potrace 1.16, written by Peter Selinger 2001-2019
</metadata>
<g transform="translate(0.000000,512.000000) scale(0.100000,-0.100000)"
fill="#a0a9cf" stroke="none">
<path d="M709 4891 c-58 -12 -147 -61 -184 -103 -84 -92 -116 -229 -81 -343 8
-27 14 -50 12 -52 -1 -2 -17 2 -35 8 -40 14 -138 6 -204 -17 -61 -21 -144 -96
-182 -166 -28 -49 -30 -60 -30 -158 0 -91 3 -111 25 -155 94 -191 338 -252
520 -130 l52 35 130 -115 c72 -63 133 -115 137 -115 3 1 27 36 54 80 68 114
153 224 262 338 l95 100 -107 93 c-59 52 -114 99 -122 106 -14 10 -14 13 1 30
9 10 30 45 45 78 67 143 13 343 -114 427 -79 51 -192 76 -274 59z"/>
<path d="M4250 4885 c-157 -44 -254 -174 -255 -340 0 -67 5 -90 28 -140 15
-33 35 -67 44 -77 9 -10 14 -19 12 -21 -2 -2 -57 -50 -121 -106 l-118 -104 95
-99 c109 -114 194 -224 262 -338 27 -44 51 -79 54 -80 4 0 65 52 137 115 l130
115 52 -35 c182 -122 416 -65 517 127 25 48 28 62 28 158 0 94 -3 110 -27 156
-34 65 -100 128 -166 160 -63 30 -173 42 -223 25 -18 -6 -34 -10 -35 -8 -2 2
4 25 12 52 21 67 14 184 -14 246 -71 153 -251 238 -412 194z"/>
<path d="M2314 4365 c-254 -40 -486 -127 -695 -260 -374 -240 -658 -653 -749
-1089 -34 -161 -40 -267 -40 -736 0 -453 0 -456 22 -500 20 -38 65 -77 303
-258 154 -117 324 -247 378 -288 l97 -74 0 -230 c0 -138 4 -240 11 -257 15
-40 48 -73 94 -94 38 -18 83 -19 823 -19 846 0 822 -1 880 53 45 42 47 53 52
306 l5 245 316 240 c459 349 438 332 460 379 17 39 19 71 19 497 0 250 -5 497
-10 548 -44 416 -228 789 -533 1080 -261 250 -574 401 -949 457 -118 18 -370
18 -484 0z m-37 -1730 c23 -26 23 -29 23 -331 l0 -305 -25 -24 -24 -25 -369 0
-369 0 -21 23 c-32 35 -35 66 -13 167 67 306 264 479 590 520 36 5 93 7 126 5
50 -3 64 -8 82 -30z m893 4 c252 -64 413 -234 471 -499 22 -101 19 -132 -13
-167 l-21 -23 -369 0 -369 0 -24 25 -25 24 0 303 c0 327 1 336 54 359 31 13
208 0 296 -22z m-692 -901 c8 -8 12 -57 12 -157 0 -184 2 -181 -124 -181 -91
0 -136 14 -136 42 0 6 43 78 96 160 76 117 101 148 118 148 12 0 27 -5 34 -12z
m308 -125 c110 -169 111 -173 83 -195 -17 -14 -40 -18 -114 -18 -128 0 -125
-5 -125 179 0 155 4 171 46 171 16 0 41 -31 110 -137z"/>
<path d="M714 1410 l-112 -100 -52 35 c-182 122 -416 65 -517 -127 -25 -48
-28 -62 -28 -158 0 -94 3 -110 27 -156 34 -65 100 -128 166 -160 63 -30 173
-42 223 -25 18 6 34 10 35 8 2 -2 -4 -25 -12 -52 -21 -67 -14 -184 14 -246 70
-152 243 -235 403 -195 164 42 263 170 264 341 0 67 -5 90 -28 140 -15 33 -35
67 -44 77 -9 10 -14 20 -12 21 49 38 329 292 327 298 -5 13 -520 399 -532 399
-6 -1 -61 -46 -122 -100z"/>
<path d="M4010 1313 c-140 -107 -256 -198 -258 -202 -2 -6 278 -261 327 -298
2 -1 -3 -11 -12 -21 -9 -10 -29 -44 -44 -77 -23 -50 -28 -73 -28 -140 1 -171
100 -299 264 -341 160 -40 333 43 403 195 28 62 35 179 14 246 -8 27 -14 50
-12 52 1 2 17 -2 35 -8 50 -17 160 -5 223 25 66 32 132 95 166 160 24 46 27
62 27 156 0 96 -3 110 -28 158 -59 112 -163 181 -287 190 -97 7 -191 -23 -257
-81 l-22 -20 -115 102 c-63 55 -121 101 -128 100 -7 0 -128 -89 -268 -196z"/>
</g>
</svg>
