<svg xmlns="http://www.w3.org/2000/svg" viewBox="0 0 188.53 237.43"><defs><style>.cls-1{fill:#275cfd;}.cls-2{fill:#f98fba;}</style></defs><g id="Layer_2" data-name="Layer 2"><g id="Layer_1-2" data-name="Layer 1"><path class="cls-1" d="M126.78,132.7c-3.54-6.75-10.73-10-16.38-7.31a9.65,9.65,0,0,0-5.09,5.87,15,15,0,0,0,1.23,11.62c2.78,5.3,7.06,8.22,11.66,8.22a12.12,12.12,0,0,0,5-1.13A9.24,9.24,0,0,0,128,144.4,15.2,15.2,0,0,0,126.78,132.7Zm-.41,11.13a7.45,7.45,0,0,1-3.92,4.55c-5.42,2.48-11,0-14.36-6.33A13.33,13.33,0,0,1,107,131.83a7.86,7.86,0,0,1,7.66-5.61c4,0,8.22,2.75,10.61,7.29A13.42,13.42,0,0,1,126.37,143.83Z"/><path class="cls-1" d="M69.46,135.37a8.9,8.9,0,0,0-5.93-4c-5.83-1.09-10.86,3.37-12.54,11.12-1,4.77-.35,9.5,1.82,12.63a7.4,7.4,0,0,0,5,3.31,11.84,11.84,0,0,0,1.44.09c5.37,0,10.06-4.49,11.69-11.41C72,142.68,71.44,138.41,69.46,135.37Zm-.22,11.31c-1.59,6.73-6.07,10.75-11.17,10a5.71,5.71,0,0,1-3.82-2.57c-1.87-2.71-2.46-7-1.55-11.26,1.34-6.19,4.82-9.92,9.08-9.92a6.91,6.91,0,0,1,1.42.14,7.21,7.21,0,0,1,4.8,3.26C69.71,139,70.17,142.74,69.24,146.68Z"/><path class="cls-2" d="M63.6,134.81c-2.55-.62-4.94,1.05-5.42,3.94-.44,2.63.67,4.11,3.25,4.55s5.13-.41,5.55-3C67.35,137.93,66.47,135.5,63.6,134.81Z"/><path class="cls-2" d="M65.73,145.7c-1.23-.75-2.87-.86-4.56-1.24-3.58-.8-5.73-2.4-6.85,1.36-1.29,4.36,1.67,8.88,4.4,9.28s6.11-1.76,7.6-4.65C67.56,148.05,67.16,146.56,65.73,145.7Z"/><path class="cls-2" d="M116.41,136.7c2-1.54,2.73-3.59,1.51-5.82a5,5,0,0,0-7.24-1.45,4.64,4.64,0,0,0-1,6.69C110.93,138,114.19,138.42,116.41,136.7Z"/><path class="cls-2" d="M116.19,138.28c-6.63,2.74-6,5.54-3.07,7.69,2.66,1.93,6.34,2.83,9.38.73,2.5-1.73,4.55-7.9.9-11.13C121.52,133.92,119.45,136.94,116.19,138.28Z"/><path class="cls-1" d="M171.59,94.53l-.72.17c-.41.1-.81.19-1.22.27,1.92-3.77,1.22-9.25-.6-13.77.34-.86.68-1.69,1-2.48l.47-1.08c1.63-3.78,3-7,3-11.42-.06-6.27-3.82-13.84-5.84-17.92-.27-.53-.51-1-.71-1.42-4-8.34-8.86-15-13.55-21.53-1.52-2.1-3-4.08-4.34-6.09a2.32,2.32,0,0,1-.18-.28c-.82-1.26-1.71-2.5-2.84-2.57a4.1,4.1,0,0,0-.5,0v-.15c0-.92,0-1.85.11-2.79a.89.89,0,0,0-.81-.94.87.87,0,0,0-.94.81c-.09,1.16-.13,2.32-.12,3.46,0,.54,0,1.08,0,1.61v0a95.7,95.7,0,0,0,2.28,15.38c.56,2.7,1.13,5.52,1.58,8.37.79,4.92,1.6,10.54,1.38,15.3a28.1,28.1,0,0,0,1.23,10.18,21.28,21.28,0,0,0,2,3.95c.2.32.39.64.59,1,.07.13.18.3.3.49a13.57,13.57,0,0,1,1.52,3l-.27.09a14.39,14.39,0,0,0-4.91,2.53,13.14,13.14,0,0,0-2.28,2.35,7,7,0,0,1,1.07-2.37l1-1.32-1.63-.06a12.49,12.49,0,0,0-10.74,5.56,9.81,9.81,0,0,0-.59,9.56.87.87,0,0,0,1.17.39.88.88,0,0,0,.4-1.18,8,8,0,0,1,.49-7.82,10.72,10.72,0,0,1,7.7-4.7,9.79,9.79,0,0,0-.71,5.75L146,87.2l1-2.15a12.33,12.33,0,0,1,3.64-4.94,14.4,14.4,0,0,1,5.6-2.61l.17,0c.84-.23,2.23-.45,3.7-.69,1.78-.28,3.61-.56,5-.93a20.94,20.94,0,0,0,1.34,3.8c.2.46.42,1,.65,1.46,2.6,5.84,2.59,11.82,0,14.56l-2,2.1,2.85-.64c.51-.12,1-.21,1.53-.32l1.1-.21c.7,2.35.38,5.46-1.47,7.18a7.14,7.14,0,0,1-4.77,1.87h-.1a.86.86,0,0,0-.87.86.87.87,0,0,0,.86.89h.1a8.91,8.91,0,0,0,6-2.34c2.7-2.51,2.86-6.92,1.65-9.82Zm-6.07-20.67A34.36,34.36,0,0,1,159.87,75c-1.31.2-2.53.41-3.45.62a15.27,15.27,0,0,0-1.73-3.5c-.1-.18-.19-.31-.26-.44-.2-.32-.4-.67-.6-1A20.35,20.35,0,0,1,152,67.11a26.5,26.5,0,0,1-1.13-9.51c.23-4.94-.6-10.67-1.4-15.67-.46-2.9-1-5.73-1.59-8.46a93,93,0,0,1-2.25-15.11c0-.09,0-.14,0-.14a.58.58,0,0,1,.33-.06c.19,0,.6.39,1.5,1.77a2.21,2.21,0,0,0,.21.32c1.4,2,2.84,4,4.36,6.13,4.65,6.41,9.45,13.07,13.39,21.26.21.41.45.9.72,1.45,2,3.94,5.6,11.28,5.66,17.15.05,4-1.23,7-2.85,10.71-.28.65-.57,1.31-.86,2a13.62,13.62,0,0,1-1.35-4.29l0-1.27Z"/><path class="cls-1" d="M9.93,41.52a.88.88,0,0,0-1,.73.87.87,0,0,0,.73,1,3.08,3.08,0,0,1,.9.3,8.31,8.31,0,0,1,1.31-1.27A5.13,5.13,0,0,0,9.93,41.52Zm0,0a.88.88,0,0,0-1,.73.87.87,0,0,0,.73,1,3.08,3.08,0,0,1,.9.3,8.31,8.31,0,0,1,1.31-1.27A5.13,5.13,0,0,0,9.93,41.52Zm0,0a.88.88,0,0,0-1,.73.87.87,0,0,0,.73,1,3.08,3.08,0,0,1,.9.3,8.31,8.31,0,0,1,1.31-1.27A5.13,5.13,0,0,0,9.93,41.52Zm0,0a.88.88,0,0,0-1,.73.87.87,0,0,0,.73,1,3.08,3.08,0,0,1,.9.3,8.31,8.31,0,0,1,1.31-1.27A5.13,5.13,0,0,0,9.93,41.52Zm0,0a.88.88,0,0,0-1,.73.87.87,0,0,0,.73,1,3.08,3.08,0,0,1,.9.3,8.31,8.31,0,0,1,1.31-1.27A5.13,5.13,0,0,0,9.93,41.52Zm0,0a.88.88,0,0,0-1,.73.87.87,0,0,0,.73,1,3.08,3.08,0,0,1,.9.3,8.31,8.31,0,0,1,1.31-1.27A5.13,5.13,0,0,0,9.93,41.52Zm0,0a.88.88,0,0,0-1,.73.87.87,0,0,0,.73,1,3.08,3.08,0,0,1,.9.3,8.31,8.31,0,0,1,1.31-1.27A5.13,5.13,0,0,0,9.93,41.52Zm0,0a.88.88,0,0,0-1,.73.87.87,0,0,0,.73,1,3.08,3.08,0,0,1,.9.3,8.31,8.31,0,0,1,1.31-1.27A5.13,5.13,0,0,0,9.93,41.52ZM115,186.12a.86.86,0,0,0-.88.86c0,5.63-1.91,10.12-5.07,12.54.25.2.5.41.73.63a5.58,5.58,0,0,1,.56.53c3.42-2.83,5.53-7.73,5.53-13.7A.86.86,0,0,0,115,186.12Zm-6.41,6.29c-1.88-.87-2.59-3.12-2.86-4.67-.18.23-.37.46-.56.67s-.32.34-.49.5a1.7,1.7,0,0,0-.19.19l-.2.17a7,7,0,0,0,3.57,4.73.87.87,0,0,0,1.16-.41A.9.9,0,0,0,108.61,192.41ZM108.46,180a.81.81,0,0,0-.15-.45.78.78,0,0,0-.26-.25l.06.48c0,.11,0,.21,0,.32s0,.33,0,.51v.07A.82.82,0,0,0,108.46,180Zm6.56,6.14a.86.86,0,0,0-.88.86c0,5.63-1.91,10.12-5.07,12.54.25.2.5.41.73.63a5.58,5.58,0,0,1,.56.53c3.42-2.83,5.53-7.73,5.53-13.7A.86.86,0,0,0,115,186.12Zm-6.41,6.29c-1.88-.87-2.59-3.12-2.86-4.67-.18.23-.37.46-.56.67s-.32.34-.49.5a1.7,1.7,0,0,0-.19.19l-.2.17a7,7,0,0,0,3.57,4.73.87.87,0,0,0,1.16-.41A.9.9,0,0,0,108.61,192.41ZM108.46,180a.81.81,0,0,0-.15-.45.78.78,0,0,0-.26-.25l.06.48c0,.11,0,.21,0,.32s0,.33,0,.51v.07A.82.82,0,0,0,108.46,180Zm6.56,6.14a.86.86,0,0,0-.88.86c0,5.63-1.91,10.12-5.07,12.54.25.2.5.41.73.63a5.58,5.58,0,0,1,.56.53c3.42-2.83,5.53-7.73,5.53-13.7A.86.86,0,0,0,115,186.12Zm-6.41,6.29c-1.88-.87-2.59-3.12-2.86-4.67-.18.23-.37.46-.56.67s-.32.34-.49.5a1.7,1.7,0,0,0-.19.19l-.2.17a7,7,0,0,0,3.57,4.73.87.87,0,0,0,1.16-.41A.9.9,0,0,0,108.61,192.41ZM108.46,180a.81.81,0,0,0-.15-.45.78.78,0,0,0-.26-.25l.06.48c0,.11,0,.21,0,.32s0,.33,0,.51v.07A.82.82,0,0,0,108.46,180Zm6.56,6.14a.86.86,0,0,0-.88.86c0,5.63-1.91,10.12-5.07,12.54.25.2.5.41.73.63a5.58,5.58,0,0,1,.56.53c3.42-2.83,5.53-7.73,5.53-13.7A.86.86,0,0,0,115,186.12Zm-6.41,6.29c-1.88-.87-2.59-3.12-2.86-4.67-.18.23-.37.46-.56.67s-.32.34-.49.5a1.7,1.7,0,0,0-.19.19l-.2.17a7,7,0,0,0,3.57,4.73.87.87,0,0,0,1.16-.41A.9.9,0,0,0,108.61,192.41ZM108.46,180a.81.81,0,0,0-.15-.45.78.78,0,0,0-.26-.25l.06.48c0,.11,0,.21,0,.32s0,.33,0,.51v.07A.82.82,0,0,0,108.46,180Zm6.56,6.14a.86.86,0,0,0-.88.86c0,5.63-1.91,10.12-5.07,12.54.25.2.5.41.73.63a5.58,5.58,0,0,1,.56.53c3.42-2.83,5.53-7.73,5.53-13.7A.86.86,0,0,0,115,186.12Zm-6.41,6.29c-1.88-.87-2.59-3.12-2.86-4.67-.18.23-.37.46-.56.67s-.32.34-.49.5a1.7,1.7,0,0,0-.19.19l-.2.17a7,7,0,0,0,3.57,4.73.87.87,0,0,0,1.16-.41A.9.9,0,0,0,108.61,192.41ZM108.46,180a.81.81,0,0,0-.15-.45.78.78,0,0,0-.26-.25l.06.48c0,.11,0,.21,0,.32s0,.33,0,.51v.07A.82.82,0,0,0,108.46,180Zm6.56,6.14a.86.86,0,0,0-.88.86c0,5.63-1.91,10.12-5.07,12.54.25.2.5.41.73.63a5.58,5.58,0,0,1,.56.53c3.42-2.83,5.53-7.73,5.53-13.7A.86.86,0,0,0,115,186.12Zm-6.41,6.29c-1.88-.87-2.59-3.12-2.86-4.67-.18.23-.37.46-.56.67s-.32.34-.49.5a1.7,1.7,0,0,0-.19.19l-.2.17a7,7,0,0,0,3.57,4.73.87.87,0,0,0,1.16-.41A.9.9,0,0,0,108.61,192.41ZM108.46,180a.81.81,0,0,0-.15-.45.78.78,0,0,0-.26-.25l.06.48c0,.11,0,.21,0,.32s0,.33,0,.51v.07A.82.82,0,0,0,108.46,180Zm6.56,6.14a.86.86,0,0,0-.88.86c0,5.63-1.91,10.12-5.07,12.54.25.2.5.41.73.63a5.58,5.58,0,0,1,.56.53c3.42-2.83,5.53-7.73,5.53-13.7A.86.86,0,0,0,115,186.12Zm-6.41,6.29c-1.88-.87-2.59-3.12-2.86-4.67-.18.23-.37.46-.56.67s-.32.34-.49.5a1.7,1.7,0,0,0-.19.19l-.2.17a7,7,0,0,0,3.57,4.73.87.87,0,0,0,1.16-.41A.9.9,0,0,0,108.61,192.41ZM108.46,180a.81.81,0,0,0-.15-.45.78.78,0,0,0-.26-.25l.06.48c0,.11,0,.21,0,.32s0,.33,0,.51v.07A.82.82,0,0,0,108.46,180Zm6.56,6.14a.86.86,0,0,0-.88.86c0,5.63-1.91,10.12-5.07,12.54.25.2.5.41.73.63a5.58,5.58,0,0,1,.56.53c3.42-2.83,5.53-7.73,5.53-13.7A.86.86,0,0,0,115,186.12Zm-6.41,6.29c-1.88-.87-2.59-3.12-2.86-4.67-.18.23-.37.46-.56.67s-.32.34-.49.5a1.7,1.7,0,0,0-.19.19l-.2.17a7,7,0,0,0,3.57,4.73.87.87,0,0,0,1.16-.41A.9.9,0,0,0,108.61,192.41ZM108.46,180a.81.81,0,0,0-.15-.45.78.78,0,0,0-.26-.25l.06.48c0,.11,0,.21,0,.32s0,.33,0,.51v.07A.82.82,0,0,0,108.46,180Zm6.56,6.14a.86.86,0,0,0-.88.86c0,5.63-1.91,10.12-5.07,12.54.25.2.5.41.73.63a5.58,5.58,0,0,1,.56.53c3.42-2.83,5.53-7.73,5.53-13.7A.86.86,0,0,0,115,186.12Zm-6.41,6.29c-1.88-.87-2.59-3.12-2.86-4.67-.18.23-.37.46-.56.67s-.32.34-.49.5a1.7,1.7,0,0,0-.19.19l-.2.17a7,7,0,0,0,3.57,4.73.87.87,0,0,0,1.16-.41A.9.9,0,0,0,108.61,192.41ZM108.46,180a.81.81,0,0,0-.15-.45.78.78,0,0,0-.26-.25l.06.48c0,.11,0,.21,0,.32s0,.33,0,.51v.07A.82.82,0,0,0,108.46,180Zm6.56,6.14a.86.86,0,0,0-.88.86c0,5.63-1.91,10.12-5.07,12.54.25.2.5.41.73.63a5.58,5.58,0,0,1,.56.53c3.42-2.83,5.53-7.73,5.53-13.7A.86.86,0,0,0,115,186.12Zm-6.41,6.29c-1.88-.87-2.59-3.12-2.86-4.67-.18.23-.37.46-.56.67s-.32.34-.49.5a1.7,1.7,0,0,0-.19.19l-.2.17a7,7,0,0,0,3.57,4.73.87.87,0,0,0,1.16-.41A.9.9,0,0,0,108.61,192.41Zm-.48-12.33c0,.16,0,.33,0,.51v.07a.82.82,0,0,0,.31-.68.81.81,0,0,0-.15-.45.78.78,0,0,0-.26-.25l.06.48C108.12,179.87,108.13,180,108.13,180.08Zm80.35-69.88a3.06,3.06,0,0,0-2.18-2.77,3.2,3.2,0,0,0-1.5.11,35.44,35.44,0,0,1-5.71.91c2.21-6.47,3.07-15.58,3.13-21.73.26-26.82-8.09-40.57-13.07-48.79l-.07-.11c-1.53-2.53-3.21-5-4.92-7.37h0c-1-1.44-2.05-2.84-3.08-4.25-2.9-3.94-5.84-7.95-9-11.81A103.51,103.51,0,0,0,142.59,4l-.17-.71a14.75,14.75,0,0,0-.55-1.89A2.62,2.62,0,0,0,138.62.14c-.91.31-1.41,1.35-1.74,2l0,.07c-3.16,5.85-7.06,11.75-11.2,18-2.74,4.15-5.57,8.44-8.27,12.85A151.65,151.65,0,0,0,110,46.59h0a98.57,98.57,0,0,0-6.76,17.87,11,11,0,0,0-1.64-.74,1.87,1.87,0,0,0-1-.12,1.67,1.67,0,0,0-1.26,1.11h0a2.35,2.35,0,0,0-.17.49A7,7,0,0,0,99,67.39c-1.37,0-2.74.09-4.09.2-1.77.13-3.48.32-5.16.61l-.57.08c-7.82-12.94-22.72-24.16-40-30.06l-.5-.17C34.55,33.34,18.5,31.89,2.2,33.87a2.69,2.69,0,0,0-1.48.51A1.89,1.89,0,0,0,0,35.91,2.85,2.85,0,0,0,1,38a6.26,6.26,0,0,0,1.59.87,9.17,9.17,0,0,1,.88.4c2.2,1.3,2.16,4.61,2.12,7.56v.8A26,26,0,0,0,9.1,60.87c.47.79,1,1.58,1.48,2.35a18,18,0,0,1,3,6.16,19.29,19.29,0,0,1-.39,7c-.17,1-.35,2-.47,3-.28,2.54-.29,7.79,2.71,14.71-1.24.21-2.4.4-3.14.56l-.93.2.27.9a15.92,15.92,0,0,1,.2,4.08v1.05c-.07,4.56,1.57,9.73,5.29,12.31l-.44.09-.73.12v.75a7.28,7.28,0,0,0,4.95,6.7l.72.2a19.87,19.87,0,0,1-2.87.26,3.7,3.7,0,0,0-1.42.25c-1.44.54-1.76,2.28-1.58,3.72.27,2.17,1.93,3.91,4.55,4.77a9,9,0,0,0,2,.35,1.41,1.41,0,0,0-.47.42c-.79,1-.24,2.29.6,3.08a6.24,6.24,0,0,0,2.65,1.48c0,.07,0,.17,0,.25a44.88,44.88,0,0,0,4,14.67c.2.41.4.83.62,1.26.39.79.81,1.55,1.24,2.3a51.94,51.94,0,0,0,19.63,18.83l-4.23-.5h0l-7.19-.83A2.85,2.85,0,0,0,37,172a2.88,2.88,0,0,0-1.07,1.91l-1.62,13.78a2.82,2.82,0,0,0,.59,2.1,2.86,2.86,0,0,0,1.91,1.07L47,192c0,.16-.09.33-.12.48a10.45,10.45,0,0,0-.22,2.41,10.77,10.77,0,0,0,4.16,8.21c2.64,2.13,5.53,3.12,10,3.41.52,0,1.07.07,1.65.07a27.87,27.87,0,0,0,4.81-.44,33.5,33.5,0,0,0,13.46-5.92A70.55,70.55,0,0,0,87.35,195a17.17,17.17,0,0,1-1,1.73c-.76,1.13-1.63,2.23-2.48,3.28a36.45,36.45,0,0,0-3.47,4.86,17.39,17.39,0,0,0-2.43,8.9,12.12,12.12,0,0,0-4.47.91,9.79,9.79,0,0,0-3.5,2.42,11.66,11.66,0,0,0-2.89,8.66,10,10,0,0,0,3.29,7.06,11,11,0,0,0,7.42,2.69l.82,0a25.37,25.37,0,0,0,9.61-2.87A30.71,30.71,0,0,0,103,234a7.4,7.4,0,0,0,.73.75,11.15,11.15,0,0,0,7.52,2.73l.75,0a15.31,15.31,0,0,0,10-4.24,14.26,14.26,0,0,0,8.39-8.06,18.67,18.67,0,0,0,1-3.15,9.69,9.69,0,0,0,5.38,1.6,10.91,10.91,0,0,0,7.69-3.14,9.6,9.6,0,0,0,2-10,4.81,4.81,0,0,0,1.1-1,4.9,4.9,0,0,0,1.12-2,5.16,5.16,0,0,0-1.58-5.32,5.28,5.28,0,0,0-3.43-1.31,5.19,5.19,0,0,0-3.92,1.79,5,5,0,0,0-1.1,2,4.8,4.8,0,0,0-.2,1.38,5.21,5.21,0,0,0,1.78,3.92,4.9,4.9,0,0,0,2,1.1,4.72,4.72,0,0,0,1.41.21,5.15,5.15,0,0,0,1.18-.15,7.85,7.85,0,0,1-1.61,8.15c-1.86,2-7.22,4.19-11.47.8a26.62,26.62,0,0,0-2.15-14.18c-.91-1.91-1.84-3.49-2.74-5a39.41,39.41,0,0,1-3.93-8.12,43.07,43.07,0,0,1-1.27-4.79c-.16-.73-.32-1.46-.51-2.21a9.68,9.68,0,0,0-3.6-5.9A104.52,104.52,0,0,0,132.66,175c.77-.3,1.55-.62,2.33-1l1.14-.5c.78-.35,1.55-.69,2.33-1.07,10.72-5.09,19.75-11.93,26.13-19.76a52.24,52.24,0,0,0,3.53-4.83c.86-1.3,1.64-2.64,2.35-4A48,48,0,0,0,176,125.48c.06-.57.09-1.14.12-1.73a6.67,6.67,0,0,0,2,.32,6.83,6.83,0,0,0,5.81-3.16c.6-1,.77-2.41-.25-3.15l-.2-.12a9.55,9.55,0,0,0,2.24-1.28A6.94,6.94,0,0,0,188.48,110.2Zm-44.94,99.27A3.47,3.47,0,1,1,147,206,3.48,3.48,0,0,1,143.54,209.47ZM103.25,66.54l1,.72.3-1.23a94.43,94.43,0,0,1,6.3-17.33c-.5,2.33-.48,4.29.55,4.95a10.71,10.71,0,0,1,2,1.46.41.41,0,0,1,.09.27s-.1.11-.57.07c-2-.16-4.49.34-5.06,1.6-.35.79.42,1.63,1,2.25l.18.19a.78.78,0,0,1,.25.69,1.07,1.07,0,0,1-.57.79,4.74,4.74,0,0,0-1.56,1.12,3.18,3.18,0,0,0-.56,3.39.39.39,0,0,1,0,.35.6.6,0,0,1-.28.29c-1.56.79-1.52,2.12-1.47,3.66v.08a4.43,4.43,0,0,1-1.48-1.09,6.61,6.61,0,0,1-1.75-3.07A9.64,9.64,0,0,1,103.25,66.54ZM48.6,39.88c16.65,5.67,31,16.37,38.72,28.76a58.3,58.3,0,0,0-11.89,3.94c-1.13-.33-2.21-.72-3.17-1.09a11.92,11.92,0,0,0-3.64-1c-.8-.42-1.33-1.06-1.35-1.4.26-.41,1.06-.57,1.71-.7s1.29-.25,1.53-.67a.73.73,0,0,0,0-.63,5.51,5.51,0,0,0-.91-1.41,5.44,5.44,0,0,1-1.31-2.35C68.15,62.12,70,61,70.46,60.82l.61-.29-.56-.37a26.94,26.94,0,0,0-5.5-3,1,1,0,0,1-.64-.55.35.35,0,0,1,0-.29c.15-.28.81-.48,1.39-.66,1-.3,2.4-.72,2.12-2-.32-1.13-1.85-1.28-3.62-1.48a9.64,9.64,0,0,1-3.62-.84,8.25,8.25,0,0,1-1.77-1.68l-.09-.11a66.93,66.93,0,0,0-7.87-7.66l-.58-.49a22.91,22.91,0,0,0-2.08-1.65Zm-25,92.8a1.2,1.2,0,0,1-.43-.73,3.78,3.78,0,0,1,.33-.19c.34-.15.86-.44,1.36-.73q0,1.26.06,2.49A4.19,4.19,0,0,1,23.61,132.68Zm1.33-4a11.37,11.37,0,0,1-4.09-.27c-1.14-.36-3.1-1.29-3.35-3.31-.1-.8,0-1.72.46-1.88a1.94,1.94,0,0,1,.78-.13,21.43,21.43,0,0,0,3.76-.39,17.35,17.35,0,0,0,3.32-.92A48.24,48.24,0,0,0,24.94,128.7Zm7.75,24.78c7-2.43,16-.53,20.44,8a20,20,0,0,1,2.16,11.85h0a1,1,0,0,0-.2-.14C45.26,168.41,37.54,161.62,32.69,153.48Zm5,20.63a1.08,1.08,0,0,1,.41-.73,1,1,0,0,1,.81-.23l23.29,2.74a1.05,1.05,0,0,1,.73.4,1.11,1.11,0,0,1,.23.81l-.2,1.73-25.47-3Zm47.77,8.32,1,0a28.6,28.6,0,0,0,.19,3.49h0c0,.13,0,.23,0,.36a31.62,31.62,0,0,1-15.27,6.76,29.58,29.58,0,0,1-4.51.34,9.11,9.11,0,0,0-.47-2.25,9.61,9.61,0,0,0-2.67-4l.18-1.52.83-7A87.41,87.41,0,0,0,85.44,182.43ZM103.83,186a8.38,8.38,0,0,1-5.36,4.55,11.75,11.75,0,0,1-6-.05,7.81,7.81,0,0,1-3.82-2.5,26.7,26.7,0,0,1-.48-6.94,12.19,12.19,0,0,1,1.69-6.21A7.25,7.25,0,0,1,97.77,172a8.34,8.34,0,0,1,4.35,3.3,9.44,9.44,0,0,1,1.46,3.39,9.24,9.24,0,0,1,.18,1.27,26.93,26.93,0,0,1,.07,3.5C103.81,184.26,103.8,185.12,103.83,186ZM37,189.11a1.07,1.07,0,0,1-.73-.41,1.11,1.11,0,0,1-.23-.8l1.1-9.36,25.47,3-.43,3.64-.1.82a9.6,9.6,0,0,0-1.94-.85,7.54,7.54,0,0,0-1.25-.28,9.72,9.72,0,0,0-2.9-.07c-4,.5-7,2.53-8.43,5.56Zm23.85,15.71c-4-.28-6.65-1.16-9-3a8.93,8.93,0,0,1-3.33-8.88c.71-3.46,3.58-5.82,7.67-6.36a8.32,8.32,0,0,1,3.41.29,7.79,7.79,0,0,1,4.1,11.94.88.88,0,0,0,.21,1.22.86.86,0,0,0,1.22-.21,9.52,9.52,0,0,0,1.66-4.59c.26,0,.53,0,.79,0a5.63,5.63,0,0,1,2.06,2.5,6.19,6.19,0,0,1,.16,4.07,5.57,5.57,0,0,1-1.29,2.36A25.43,25.43,0,0,1,60.86,204.82Zm18.79-6a33.22,33.22,0,0,1-9.91,4.92,4.68,4.68,0,0,0,.37-.66,6.28,6.28,0,0,0,.44-1.17,6.94,6.94,0,0,0-.19-4.56,6.09,6.09,0,0,0-1.61-2.25c1-.07,2-.17,3.06-.34A33.19,33.19,0,0,0,87,188.29,23.3,23.3,0,0,0,88,191.91,61.84,61.84,0,0,1,79.65,198.84Zm8.81,31.95-.39-.13-.36.2a24.09,24.09,0,0,1-9.21,2.86,9.39,9.39,0,0,1-7-2.24,8.18,8.18,0,0,1-2.71-5.83,9.94,9.94,0,0,1,2.42-7.39A9.17,9.17,0,0,1,78,215.49c3.69-.08,6.78,1.38,8.44,4a.88.88,0,0,0,1.21.27.9.9,0,0,0,.26-1.22,10.72,10.72,0,0,0-8.18-4.67,15.67,15.67,0,0,1,2.2-8.13,34.41,34.41,0,0,1,3.3-4.62c.87-1.1,1.78-2.21,2.58-3.4a15.81,15.81,0,0,0,1.57-2.91c.24.43.49.85.76,1.24s.45.63.68.92a13.49,13.49,0,0,0-7.4,10.61,9.06,9.06,0,0,0,2,7.12c2.41,2.92,6.55,4.68,11.66,5,.38,0,.75,0,1.12,0a15.54,15.54,0,0,0,5.49-.94l-.43.43a11.61,11.61,0,0,0-2.8,8.53,10.29,10.29,0,0,0,1.36,4.7A29.32,29.32,0,0,1,88.46,230.79ZM103,203.29l.85,0a11.06,11.06,0,0,0,5.79-2,11.61,11.61,0,0,1,1.36,7.07c-.71,6.86-6.14,11-13.83,10.57-4.82-.28-8.88-2-11.12-4.71a8.24,8.24,0,0,1-1.88-6.53,12.74,12.74,0,0,1,4.28-8.22.1.1,0,0,1,0,0,13.85,13.85,0,0,1,2.81-1.86.71.71,0,0,0,.07.09A15.2,15.2,0,0,0,103,203.29Zm60.27-51.65c-6.22,7.62-15.05,14.29-25.53,19.29l-.25.1a14.67,14.67,0,0,1-6.17-5.23,17.71,17.71,0,0,1-2.63-13.35A16.17,16.17,0,0,1,136.27,142a19.66,19.66,0,0,1,18.42-1.28,16.09,16.09,0,0,1,6.76,5.71,12.62,12.62,0,0,1,2,5C163.35,151.48,163.3,151.57,163.24,151.64ZM184.62,115a10.35,10.35,0,0,1-5.29,1.88l-6.2.67,9.13,1.57a1.75,1.75,0,0,1,.35.09,1.13,1.13,0,0,1-.21.82,5.08,5.08,0,0,1-6.66,1.7.06.06,0,0,1-.05,0l-.17-.05-.16,0h-.07l-.11,0-.16,0-.16.06a1,1,0,0,0-.13.09l-.12.14s-.05,0-.07.07l0,0-.06.17a1.22,1.22,0,0,0,0,.17.1.1,0,0,1,0,0c0,.8,0,1.6-.11,2.41a46.22,46.22,0,0,1-5.39,18.27c-.53,1-1.11,2-1.73,3a53.08,53.08,0,0,1-3.16,4.5,13.64,13.64,0,0,0-1.95-4.62,17.21,17.21,0,0,0-7-5.95,20.47,20.47,0,0,0-19.2,1.32,16.93,16.93,0,0,0-8,10.92,18,18,0,0,0,1.59,11.93,17.33,17.33,0,0,0,1.16,2,15.32,15.32,0,0,0,5.91,5.21c-1,.48-2.05.94-3.07,1.36l-1.49.62a104.12,104.12,0,0,1-17.82,5.31.7.7,0,0,0-.29.13.85.85,0,0,0-.39.9.86.86,0,0,0,.86.7h.17l.39-.09.06,0a7.5,7.5,0,0,1,4.34,5.69c.18.76.35,1.48.5,2.18a48.33,48.33,0,0,0,1.32,5,42.32,42.32,0,0,0,4.08,8.46c.88,1.5,1.79,3,2.66,4.89,2.89,6.09,2.6,13.59.83,17.82a12.55,12.55,0,0,1-7.49,7.14s0,0,0,0a909793789854.85,909793789854.85,0,0,0-.3.16h0a13.46,13.46,0,0,1-9,3.91,9.57,9.57,0,0,1-7-2.26,8.17,8.17,0,0,1-2.67-5.8,9.86,9.86,0,0,1,2.34-7.27,9.46,9.46,0,0,1,6.81-2.9c3.08-.11,6.79,1.07,8,4.75a.86.86,0,0,0,1.1.57.87.87,0,0,0,.57-1.09c-1.22-3.87-4.93-6.16-9.68-6a12,12,0,0,0-2.2.25,10.75,10.75,0,0,0-1.3.33,12,12,0,0,0,3.89-7.88,12.29,12.29,0,0,0-1.5-7.6l.15-.12c3.42-2.83,5.53-7.73,5.53-13.7a.88.88,0,0,0-1.75,0c0,5.63-1.91,10.12-5.07,12.54a9.46,9.46,0,0,1-5.35,2,13.09,13.09,0,0,1-10.65-4.59A18.13,18.13,0,0,1,91.56,195,18.32,18.32,0,0,1,89,189.36a9,9,0,0,0,2.57,1.57h0a6.78,6.78,0,0,0,.68.23,11.19,11.19,0,0,0,3.27.47,12.41,12.41,0,0,0,3.12-.4,9,9,0,0,0,5.27-3.89,12.93,12.93,0,0,0,.38,1.93,7,7,0,0,0,3.57,4.73.87.87,0,0,0,1.16-.41.9.9,0,0,0-.43-1.18c-1.88-.87-2.59-3.12-2.86-4.67a11.66,11.66,0,0,1-.16-1.27c-.06-1,0-2,0-3,0-.84,0-1.71,0-2.57l2,0a.89.89,0,0,0,.55-.23.82.82,0,0,0,.31-.68.81.81,0,0,0-.15-.45.78.78,0,0,0-.26-.25,1,1,0,0,0-.48-.14l-2.15,0c0-.28-.07-.55-.13-.83a10.89,10.89,0,0,0-1.4-3.5,10.07,10.07,0,0,0-5.62-4.51,9,9,0,0,0-9.84,3.51,13.57,13.57,0,0,0-2,6.9c-.38,0-.76,0-1.14-.07a84.38,84.38,0,0,1-20.44-3.77,2.82,2.82,0,0,0-2.5-2.74L56,173.4c0-.22.05-.43.07-.65h0a20.62,20.62,0,0,0-2.32-11.62c-4.68-9-14.17-10.9-21.49-8.28-.38-.66-.75-1.36-1.09-2.06-.2-.38-.39-.78-.58-1.17a43,43,0,0,1-3.81-14.1,48.11,48.11,0,0,1,4.57-25,.87.87,0,0,0-1.59-.73,55.43,55.43,0,0,0-3.36,9.34l-.07,0a6.91,6.91,0,0,1-4.93.12,5.58,5.58,0,0,1-3.67-4.32l.82-.19c.43-.09.86-.19,1.3-.27l3.32-.61L20,112.76c-4.5-1.51-6.49-7.17-6.42-11.79V99.91a26.36,26.36,0,0,0-.08-3.67c1.81-.33,4.68-.79,6.43-1a11.44,11.44,0,0,1,5.33.13,7.8,7.8,0,0,1,4.2,3.08l1.55,2.2,0-2.68A7.67,7.67,0,0,0,28.75,93a7.58,7.58,0,0,1,6.56,1.28,6.34,6.34,0,0,1,1.77,7.36.87.87,0,1,0,1.57.77A8.06,8.06,0,0,0,36.42,93a7.76,7.76,0,0,0-1-.67v-.06c-.28-2.32.45-6.35,1.27-9.5.15-.57.32-1.13.48-1.71a17.84,17.84,0,0,0,1-5.56,18.15,18.15,0,0,0-1.67-6.34L31.72,57a8.59,8.59,0,0,0-2.36-3.75,8.51,8.51,0,0,0-4.09-1.44l-.89-.15a15.35,15.35,0,0,1-8.87-5.37c-.24-.29-.47-.6-.7-.9a12.44,12.44,0,0,0-2.93-3.08,5.13,5.13,0,0,0-2-.76.88.88,0,0,0-1,.73.87.87,0,0,0,.73,1,3.08,3.08,0,0,1,.9.3,4.41,4.41,0,0,1,.82.56,12.72,12.72,0,0,0-1,6.8A26.39,26.39,0,0,0,13,59.16,74.28,74.28,0,0,0,16.72,66l.12.21a9.16,9.16,0,0,1,1.5,3.29,9.24,9.24,0,0,1-.46,3.64c-.09.36-.18.7-.26,1.06a16,16,0,0,0-.42,3.32,12.4,12.4,0,0,0,2.23,7.75A18.9,18.9,0,0,0,24,89.5a10.23,10.23,0,0,0,1,.55c.73.38,1.72.92,2.66,1.52a5.85,5.85,0,0,0-.91.34l-1.32.63,1.17.87a7.4,7.4,0,0,1,1.16,1.07,15.11,15.11,0,0,0-1.89-.82,13.35,13.35,0,0,0-6.14-.19l-2.47.38C15,88.9,14,83.72,14.47,79.63c.11-1,.29-2,.46-2.95a32.19,32.19,0,0,0,.59-4.83A12.78,12.78,0,0,0,15.3,69a15,15,0,0,0-2.09-4.92c-.37-.64-.77-1.24-1.17-1.86s-1-1.51-1.42-2.27a24.08,24.08,0,0,1-3.26-12.3v-.8c0-3.24.1-7.28-3-9.09-.37-.2-.74-.36-1.09-.51a4.75,4.75,0,0,1-1.17-.6,1.1,1.1,0,0,1-.38-.77c0-.12,0-.15.05-.16a1.48,1.48,0,0,1,.61-.14,106.13,106.13,0,0,1,42.78,3.18c.56.31,1.05.59,1.48.85A22.5,22.5,0,0,1,49.83,42l.59.5A67,67,0,0,1,58.2,50l.1.12A8.57,8.57,0,0,0,60.24,52a10.06,10.06,0,0,0,3.93,1c1.37.15,2.79.29,3,.91s-.38.78-1.6,1.14c-.8.24-1.56.47-1.84,1a1.1,1.1,0,0,0,0,.89,1.8,1.8,0,0,0,1.07,1,25.61,25.61,0,0,1,4.85,2.52c-.92.56-2.19,1.68-2,3A6.07,6.07,0,0,0,69,66.16a5.67,5.67,0,0,1,.82,1.23,3.08,3.08,0,0,1-1,.29c-.84.17-1.89.37-2.27,1.16l0,.11a2.29,2.29,0,0,0,1.13,1.83,1.67,1.67,0,0,0-.53.5A2.6,2.6,0,0,0,67,73.45c0,.09.08.2.12.29A3.31,3.31,0,0,0,66.25,75a.89.89,0,0,0,.09,1,.2.2,0,0,0,.08.08.52.52,0,0,0,.24.13h0a.86.86,0,0,0,.22,0,1.14,1.14,0,0,0,.3,0l1.54-.27a14.83,14.83,0,0,0,1.5,1.27,2.48,2.48,0,0,0-.59.29.75.75,0,0,0-.13.06,3,3,0,0,0-1.28,2,2.19,2.19,0,0,0,.45,1.76c.52.64,1.86,1,3.47,1a13.74,13.74,0,0,0,1.66-.11.87.87,0,0,0-.25-1.73A6.35,6.35,0,0,1,70,80.15a.49.49,0,0,1-.07-.39,1.23,1.23,0,0,1,.5-.78,4.48,4.48,0,0,1,2.31-.41L77,78.49l-1.79-.75h0l-2.12-.86c-1-.43-3.89-2.45-4.43-4a1,1,0,0,1-.06-.64,11.89,11.89,0,0,1,3,.9,25.19,25.19,0,0,0,6.84,1.79.89.89,0,0,0,.93-.82.87.87,0,0,0-.81-.93l-.09,0a55.76,55.76,0,0,1,8.26-2.61h0A52.3,52.3,0,0,1,95,69.33c1.42-.11,2.85-.17,4.27-.2,0,.09,0,.16.06.27a20.39,20.39,0,0,0,2.45,5.25h-.08a1.85,1.85,0,0,0-1.85,1.57,3.28,3.28,0,0,0,.67,2.39,6.46,6.46,0,0,0,4,2.61l.17.27a24.68,24.68,0,0,0,1.52,2.25c3.61,4.65,8.94,8.46,12.95,9.25l.18,0a.87.87,0,0,0,.17-1.73c-3.59-.71-8.6-4.33-11.92-8.6-.51-.67-1-1.36-1.42-2.11l-.58-.93-.39-.06A4.82,4.82,0,0,1,102,77.7a2,2,0,0,1-.46-1.1c0-.13.07-.19.17-.2a3,3,0,0,1,1.17.34,1,1,0,0,0,1.22-.13c.52-.56.15-1.32-.23-1.91A21.3,21.3,0,0,1,101,68.93l-.09-.35h0a6.3,6.3,0,0,1-.13-2.95.5.5,0,0,1,.07-.21,7.27,7.27,0,0,0,3,4.75,2.06,2.06,0,0,0,1.11.46.57.57,0,0,0,.32-.08.63.63,0,0,0,.32-.61v-.17c0-1.58,0-2.42,1.07-3a1.27,1.27,0,0,0,.64-.67,1.15,1.15,0,0,0,0-1,2.46,2.46,0,0,1,.44-2.56,3.94,3.94,0,0,1,1.33-.93,1.88,1.88,0,0,0,1-1.38,1.44,1.44,0,0,0-.46-1.31l-.15-.17c-.33-.35-1-1.1-.86-1.43C109,56.58,111,56,113,56.2c.64,0,1.07-.09,1.27-.45a1,1,0,0,0-.11-1,9.28,9.28,0,0,0-2.25-1.7c-.89-.55-.63-3.07.25-6.07.21-.71.46-1.46.74-2.23,1.77-3.45,3.77-7,6-10.68,2.68-4.37,5.5-8.65,8.23-12.8C131.27,14.93,135.19,9,138.41,3l.05-.11c.13-.25.5-1,.74-1.15,0,0,.86-.16,1,.3a11.05,11.05,0,0,1,.47,1.64c.08.29.15.63.25,1l0,0a.48.48,0,0,0,.08.16l.1.15s0,0,0,0a98.49,98.49,0,0,1,9,9.77c3.31,4,6.39,8.23,9.42,12.35,2.06,2.8,4.17,5.68,6.11,8.65q.93,1.4,1.8,2.82l.07.12c4.89,8.06,13.08,21.54,12.82,47.86-.06,6.23-1,15.58-3.28,21.87-.76,0-1.54,0-2.33,0a.85.85,0,0,0-.9.85.88.88,0,0,0,.85.9,40.16,40.16,0,0,0,10.42-1.09,1.85,1.85,0,0,1,.72-.09c.43.07.72.71.8,1.28A5.17,5.17,0,0,1,184.62,115ZM20.07,69.18a11,11,0,0,0-1.74-4L18.21,65a73.19,73.19,0,0,1-3.6-6.63,25,25,0,0,1-2.5-7.69,11.59,11.59,0,0,1,.59-5.24c.24.3.48.62.71.93l.73,1a17.11,17.11,0,0,0,9.9,6c.31.06.63.1.94.15a7.1,7.1,0,0,1,3.29,1.1,7.09,7.09,0,0,1,1.83,3L35,69.75a16.85,16.85,0,0,1,1.54,5.73,16.6,16.6,0,0,1-1,5c-.18.59-.35,1.16-.5,1.75a38.47,38.47,0,0,0-1.4,9.2,9.56,9.56,0,0,0-3.73-.4s-.05-.08-.09-.1a27.45,27.45,0,0,0-4.06-2.47c-.39-.21-.69-.35-.83-.45a16.74,16.74,0,0,1-4.1-3.89c-1.81-2.42-2.36-5.93-1.51-9.63.07-.33.16-.67.25-1A10.91,10.91,0,0,0,20.07,69.18Zm48.06,6-1.07.2c-.11,0-.17,0-.17,0a.46.46,0,0,1,0-.24,2.64,2.64,0,0,1,.57-.82A6.09,6.09,0,0,0,68.13,75.23ZM108.46,180a.81.81,0,0,0-.15-.45.78.78,0,0,0-.26-.25l.06.48c0,.11,0,.21,0,.32s0,.33,0,.51v.07A.82.82,0,0,0,108.46,180Zm.15,12.43c-1.88-.87-2.59-3.12-2.86-4.67-.18.23-.37.46-.56.67s-.32.34-.49.5a1.7,1.7,0,0,0-.19.19l-.2.17a7,7,0,0,0,3.57,4.73.87.87,0,0,0,1.16-.41A.9.9,0,0,0,108.61,192.41Zm6.41-6.29a.86.86,0,0,0-.88.86c0,5.63-1.91,10.12-5.07,12.54.25.2.5.41.73.63a5.58,5.58,0,0,1,.56.53c3.42-2.83,5.53-7.73,5.53-13.7A.86.86,0,0,0,115,186.12ZM108.46,180a.81.81,0,0,0-.15-.45.78.78,0,0,0-.26-.25l.06.48c0,.11,0,.21,0,.32s0,.33,0,.51v.07A.82.82,0,0,0,108.46,180Zm.15,12.43c-1.88-.87-2.59-3.12-2.86-4.67-.18.23-.37.46-.56.67s-.32.34-.49.5a1.7,1.7,0,0,0-.19.19l-.2.17a7,7,0,0,0,3.57,4.73.87.87,0,0,0,1.16-.41A.9.9,0,0,0,108.61,192.41Zm6.41-6.29a.86.86,0,0,0-.88.86c0,5.63-1.91,10.12-5.07,12.54.25.2.5.41.73.63a5.58,5.58,0,0,1,.56.53c3.42-2.83,5.53-7.73,5.53-13.7A.86.86,0,0,0,115,186.12ZM108.46,180a.81.81,0,0,0-.15-.45.78.78,0,0,0-.26-.25l.06.48c0,.11,0,.21,0,.32s0,.33,0,.51v.07A.82.82,0,0,0,108.46,180Zm.15,12.43c-1.88-.87-2.59-3.12-2.86-4.67-.18.23-.37.46-.56.67s-.32.34-.49.5a1.7,1.7,0,0,0-.19.19l-.2.17a7,7,0,0,0,3.57,4.73.87.87,0,0,0,1.16-.41A.9.9,0,0,0,108.61,192.41Zm6.41-6.29a.86.86,0,0,0-.88.86c0,5.63-1.91,10.12-5.07,12.54.25.2.5.41.73.63a5.58,5.58,0,0,1,.56.53c3.42-2.83,5.53-7.73,5.53-13.7A.86.86,0,0,0,115,186.12ZM108.46,180a.81.81,0,0,0-.15-.45.78.78,0,0,0-.26-.25l.06.48c0,.11,0,.21,0,.32s0,.33,0,.51v.07A.82.82,0,0,0,108.46,180Zm.15,12.43c-1.88-.87-2.59-3.12-2.86-4.67-.18.23-.37.46-.56.67s-.32.34-.49.5a1.7,1.7,0,0,0-.19.19l-.2.17a7,7,0,0,0,3.57,4.73.87.87,0,0,0,1.16-.41A.9.9,0,0,0,108.61,192.41Zm6.41-6.29a.86.86,0,0,0-.88.86c0,5.63-1.91,10.12-5.07,12.54.25.2.5.41.73.63a5.58,5.58,0,0,1,.56.53c3.42-2.83,5.53-7.73,5.53-13.7A.86.86,0,0,0,115,186.12ZM108.46,180a.81.81,0,0,0-.15-.45.78.78,0,0,0-.26-.25l.06.48c0,.11,0,.21,0,.32s0,.33,0,.51v.07A.82.82,0,0,0,108.46,180Zm.15,12.43c-1.88-.87-2.59-3.12-2.86-4.67-.18.23-.37.46-.56.67s-.32.34-.49.5a1.7,1.7,0,0,0-.19.19l-.2.17a7,7,0,0,0,3.57,4.73.87.87,0,0,0,1.16-.41A.9.9,0,0,0,108.61,192.41Zm6.41-6.29a.86.86,0,0,0-.88.86c0,5.63-1.91,10.12-5.07,12.54.25.2.5.41.73.63a5.58,5.58,0,0,1,.56.53c3.42-2.83,5.53-7.73,5.53-13.7A.86.86,0,0,0,115,186.12ZM108.46,180a.81.81,0,0,0-.15-.45.78.78,0,0,0-.26-.25l.06.48c0,.11,0,.21,0,.32s0,.33,0,.51v.07A.82.82,0,0,0,108.46,180Zm.15,12.43c-1.88-.87-2.59-3.12-2.86-4.67-.18.23-.37.46-.56.67s-.32.34-.49.5a1.7,1.7,0,0,0-.19.19l-.2.17a7,7,0,0,0,3.57,4.73.87.87,0,0,0,1.16-.41A.9.9,0,0,0,108.61,192.41Zm6.41-6.29a.86.86,0,0,0-.88.86c0,5.63-1.91,10.12-5.07,12.54.25.2.5.41.73.63a5.58,5.58,0,0,1,.56.53c3.42-2.83,5.53-7.73,5.53-13.7A.86.86,0,0,0,115,186.12ZM108.46,180a.81.81,0,0,0-.15-.45.78.78,0,0,0-.26-.25l.06.48c0,.11,0,.21,0,.32s0,.33,0,.51v.07A.82.82,0,0,0,108.46,180Zm.15,12.43c-1.88-.87-2.59-3.12-2.86-4.67-.18.23-.37.46-.56.67s-.32.34-.49.5a1.7,1.7,0,0,0-.19.19l-.2.17a7,7,0,0,0,3.57,4.73.87.87,0,0,0,1.16-.41A.9.9,0,0,0,108.61,192.41Zm6.41-6.29a.86.86,0,0,0-.88.86c0,5.63-1.91,10.12-5.07,12.54.25.2.5.41.73.63a5.58,5.58,0,0,1,.56.53c3.42-2.83,5.53-7.73,5.53-13.7A.86.86,0,0,0,115,186.12ZM108.46,180a.81.81,0,0,0-.15-.45.78.78,0,0,0-.26-.25l.06.48c0,.11,0,.21,0,.32s0,.33,0,.51v.07A.82.82,0,0,0,108.46,180Zm.15,12.43c-1.88-.87-2.59-3.12-2.86-4.67-.18.23-.37.46-.56.67s-.32.34-.49.5a1.7,1.7,0,0,0-.19.19l-.2.17a7,7,0,0,0,3.57,4.73.87.87,0,0,0,1.16-.41A.9.9,0,0,0,108.61,192.41Zm6.41-6.29a.86.86,0,0,0-.88.86c0,5.63-1.91,10.12-5.07,12.54.25.2.5.41.73.63a5.58,5.58,0,0,1,.56.53c3.42-2.83,5.53-7.73,5.53-13.7A.86.86,0,0,0,115,186.12ZM108.46,180a.81.81,0,0,0-.15-.45.78.78,0,0,0-.26-.25l.06.48c0,.11,0,.21,0,.32s0,.33,0,.51v.07A.82.82,0,0,0,108.46,180Zm.15,12.43c-1.88-.87-2.59-3.12-2.86-4.67-.18.23-.37.46-.56.67s-.32.34-.49.5a1.7,1.7,0,0,0-.19.19l-.2.17a7,7,0,0,0,3.57,4.73.87.87,0,0,0,1.16-.41A.9.9,0,0,0,108.61,192.41Zm6.41-6.29a.86.86,0,0,0-.88.86c0,5.63-1.91,10.12-5.07,12.54.25.2.5.41.73.63a5.58,5.58,0,0,1,.56.53c3.42-2.83,5.53-7.73,5.53-13.7A.86.86,0,0,0,115,186.12ZM9.93,41.52a.88.88,0,0,0-1,.73.87.87,0,0,0,.73,1,3.08,3.08,0,0,1,.9.3,8.31,8.31,0,0,1,1.31-1.27A5.13,5.13,0,0,0,9.93,41.52Zm0,0a.88.88,0,0,0-1,.73.87.87,0,0,0,.73,1,3.08,3.08,0,0,1,.9.3,8.31,8.31,0,0,1,1.31-1.27A5.13,5.13,0,0,0,9.93,41.52Zm0,0a.88.88,0,0,0-1,.73.87.87,0,0,0,.73,1,3.08,3.08,0,0,1,.9.3,8.31,8.31,0,0,1,1.31-1.27A5.13,5.13,0,0,0,9.93,41.52Zm0,0a.88.88,0,0,0-1,.73.87.87,0,0,0,.73,1,3.08,3.08,0,0,1,.9.3,8.31,8.31,0,0,1,1.31-1.27A5.13,5.13,0,0,0,9.93,41.52Zm0,0a.88.88,0,0,0-1,.73.87.87,0,0,0,.73,1,3.08,3.08,0,0,1,.9.3,8.31,8.31,0,0,1,1.31-1.27A5.13,5.13,0,0,0,9.93,41.52Zm0,0a.88.88,0,0,0-1,.73.87.87,0,0,0,.73,1,3.08,3.08,0,0,1,.9.3,8.31,8.31,0,0,1,1.31-1.27A5.13,5.13,0,0,0,9.93,41.52Zm0,0a.88.88,0,0,0-1,.73.87.87,0,0,0,.73,1,3.08,3.08,0,0,1,.9.3,8.31,8.31,0,0,1,1.31-1.27A5.13,5.13,0,0,0,9.93,41.52Zm0,0a.88.88,0,0,0-1,.73.87.87,0,0,0,.73,1,3.08,3.08,0,0,1,.9.3,8.31,8.31,0,0,1,1.31-1.27A5.13,5.13,0,0,0,9.93,41.52Zm0,0a.88.88,0,0,0-1,.73.87.87,0,0,0,.73,1,3.08,3.08,0,0,1,.9.3,8.31,8.31,0,0,1,1.31-1.27A5.13,5.13,0,0,0,9.93,41.52Z"/><path class="cls-2" d="M111.53,230.89a3,3,0,0,1-1.36,1.84,3.06,3.06,0,0,1-1.6.47,2,2,0,0,1-.65-.09,3,3,0,0,1-1.61-.94,2.63,2.63,0,0,1-.59-2,3.39,3.39,0,0,1,.07-.52,3.19,3.19,0,0,1,1.14-1.87,2.68,2.68,0,0,1,2.23-.47A3.06,3.06,0,0,1,111.53,230.89Z"/><path class="cls-2" d="M111,225.78a1.1,1.1,0,0,1-1.11.78,3.24,3.24,0,0,1-.56-.07,1.22,1.22,0,0,1-.8-.63,1.3,1.3,0,0,1-.08-1.09A1.34,1.34,0,0,1,110,224a1.28,1.28,0,0,1,.82.65A1.35,1.35,0,0,1,111,225.78Z"/><path class="cls-2" d="M107.66,225.63a1.42,1.42,0,0,1-1.37,1.39h-.1a1.06,1.06,0,0,1-.75-.28,1.3,1.3,0,0,1,.86-2.24,1.24,1.24,0,0,1,1,.27A1.15,1.15,0,0,1,107.66,225.63Z"/><path class="cls-2" d="M113.65,227.58a1.17,1.17,0,0,1-.69.67,1.48,1.48,0,0,1-.46.08,1.28,1.28,0,0,1-.61-.15,1.18,1.18,0,0,1-.81-1.06,1.91,1.91,0,0,1,0-.32,1.41,1.41,0,0,1,.82-.94,1.13,1.13,0,0,1,1,0,1.64,1.64,0,0,1,.22.14A1.32,1.32,0,0,1,113.65,227.58Z"/><path class="cls-2" d="M76.7,229.87a2.72,2.72,0,0,1-1.56.74l-.5,0-.43,0a2.77,2.77,0,0,1-2.39-2.54,2.47,2.47,0,0,1,.45-2,3.18,3.18,0,0,1,4.32-.6,2.79,2.79,0,0,1,1,1.9A2.94,2.94,0,0,1,76.7,229.87Z"/><path class="cls-2" d="M75.69,222.85c0,1-1,1.16-1.36,1.2H74.2a1.21,1.21,0,0,1-.83-.34,1.28,1.28,0,0,1-.42-1,1.33,1.33,0,0,1,1.25-1.24,1.3,1.3,0,0,1,1,.36A1.39,1.39,0,0,1,75.69,222.85Z"/><path class="cls-2" d="M72.51,224.57a1.42,1.42,0,0,1-.78.74,1.08,1.08,0,0,1-.44.08,1.21,1.21,0,0,1-.5-.1h0a1.22,1.22,0,0,1-.65-.69,1.37,1.37,0,0,1,.1-1.19,1.48,1.48,0,0,1,.4-.43,1.2,1.2,0,0,1,1-.19,1.25,1.25,0,0,1,.83.74A1.34,1.34,0,0,1,72.51,224.57Z"/><path class="cls-2" d="M79,223.77a1.19,1.19,0,0,1-.43.88,1.2,1.2,0,0,1-.74.25l-.2,0a1.72,1.72,0,0,1-1.14-.63,1.17,1.17,0,0,1-.18-.88,1.41,1.41,0,0,1,1.58-1.1A1.34,1.34,0,0,1,79,223.77Z"/><path class="cls-1" d="M87.58,154.13H87.5a3.55,3.55,0,0,0-3.5,3.36.86.86,0,0,0,.86.88h0a.88.88,0,0,0,.88-.86,1.85,1.85,0,0,1,1.79-1.63h0a2.76,2.76,0,0,1,2.34,1.6.89.89,0,0,0,1.18.4.88.88,0,0,0,.39-1.18A4.51,4.51,0,0,0,87.58,154.13Z"/><path class="cls-2" d="M36.5,75.48a16.6,16.6,0,0,1-1,5c-.18.59-.35,1.16-.5,1.75a38.47,38.47,0,0,0-1.4,9.2,9.56,9.56,0,0,0-3.73-.4s-.05-.08-.09-.1a27.45,27.45,0,0,0-4.06-2.47c-.39-.21-.69-.35-.83-.45a16.74,16.74,0,0,1-4.1-3.89c-1.81-2.42-2.36-5.93-1.51-9.63.07-.33.16-.67.25-1a10.91,10.91,0,0,0,.49-4.34,11,11,0,0,0-1.74-4L18.21,65a73.19,73.19,0,0,1-3.6-6.63,25,25,0,0,1-2.5-7.69,11.59,11.59,0,0,1,.59-5.24c.24.3.48.62.71.93l.73,1a17.11,17.11,0,0,0,9.9,6c.31.06.63.1.94.15a7.1,7.1,0,0,1,3.29,1.1,7.09,7.09,0,0,1,1.83,3L35,69.75A16.85,16.85,0,0,1,36.5,75.48Z"/><path class="cls-1" d="M113.58,55.38s-.1.11-.57.07c-2-.16-4.49.34-5.06,1.6-.35.79.42,1.63,1,2.25l.18.19a.78.78,0,0,1,.25.69,1.07,1.07,0,0,1-.57.79,4.74,4.74,0,0,0-1.56,1.12,3.18,3.18,0,0,0-.56,3.39.39.39,0,0,1,0,.35.6.6,0,0,1-.28.29c-1.56.79-1.52,2.12-1.47,3.66v.08a4.43,4.43,0,0,1-1.48-1.09,6.61,6.61,0,0,1-1.75-3.07,9.64,9.64,0,0,1,1.55.84l1,.72.3-1.23a94.43,94.43,0,0,1,6.3-17.33c-.5,2.33-.48,4.29.55,4.95a10.71,10.71,0,0,1,2,1.46A.41.41,0,0,1,113.58,55.38Z"/><path class="cls-1" d="M87.32,68.64a58.3,58.3,0,0,0-11.89,3.94c-1.13-.33-2.21-.72-3.17-1.09a11.92,11.92,0,0,0-3.64-1c-.8-.42-1.33-1.06-1.35-1.4.26-.41,1.06-.57,1.71-.7s1.29-.25,1.53-.67a.73.73,0,0,0,0-.63,5.51,5.51,0,0,0-.91-1.41,5.44,5.44,0,0,1-1.31-2.35C68.15,62.12,70,61,70.46,60.82l.61-.29-.56-.37a26.94,26.94,0,0,0-5.5-3,1,1,0,0,1-.64-.55.35.35,0,0,1,0-.29c.15-.28.81-.48,1.39-.66,1-.3,2.4-.72,2.12-2-.32-1.13-1.85-1.28-3.62-1.48a9.64,9.64,0,0,1-3.62-.84,8.25,8.25,0,0,1-1.77-1.68l-.09-.11a66.93,66.93,0,0,0-7.87-7.66l-.58-.49a22.91,22.91,0,0,0-2.08-1.65l.36.13C65.25,45.55,79.62,56.25,87.32,68.64Z"/><path class="cls-1" d="M68.13,75.23l-1.07.2c-.11,0-.17,0-.17,0a.46.46,0,0,1,0-.24,2.64,2.64,0,0,1,.57-.82A6.09,6.09,0,0,0,68.13,75.23Z"/><path class="cls-1" d="M147,206a3.47,3.47,0,1,1-3.46-3.46A3.47,3.47,0,0,1,147,206Z"/><path class="cls-2" d="M171.78,66.24c.05,4-1.23,7-2.85,10.71-.28.65-.57,1.31-.86,2a13.62,13.62,0,0,1-1.35-4.29l0-1.27-1.18.47A34.36,34.36,0,0,1,159.87,75c-1.31.2-2.53.41-3.45.62a15.27,15.27,0,0,0-1.73-3.5c-.1-.18-.19-.31-.26-.44-.2-.32-.4-.67-.6-1A20.35,20.35,0,0,1,152,67.11a26.5,26.5,0,0,1-1.13-9.51c.23-4.94-.6-10.67-1.4-15.67-.46-2.9-1-5.73-1.59-8.46a93,93,0,0,1-2.25-15.11c0-.09,0-.14,0-.14a.58.58,0,0,1,.33-.06c.19,0,.6.39,1.5,1.77a2.21,2.21,0,0,0,.21.32c1.4,2,2.84,4,4.36,6.13,4.65,6.41,9.45,13.07,13.39,21.26.21.41.45.9.72,1.45C168.08,53,171.72,60.37,171.78,66.24Z"/><rect class="cls-2" x="37.23" y="177.31" width="25.63" height="2.74" transform="translate(21.26 -4.63) rotate(6.72)"/></g></g></svg>