<svg xmlns="http://www.w3.org/2000/svg" viewBox="0 0 167.84 321.2"><defs><style>.cls-1{fill:#f38fba;}.cls-2{fill:#4664ae;}.cls-3{fill:#71ccd9;}.cls-4{fill:#86c54d;}.cls-5{fill:#fff;}</style></defs><g id="Layer_2" data-name="Layer 2"><g id="Layer_1-2" data-name="Layer 1"><path class="cls-1" d="M80.75,39.31l0-1.66a.35.35,0,0,0-.14-.3l-1.17-.74-4.27-2.72a.15.15,0,0,0-.2,0L69.63,37.5a.37.37,0,0,0-.12.29l0,5.6,0,3.52,0,8.7a.42.42,0,0,0,.11.29l5.76,5.36a.18.18,0,0,0,.26,0l5.61-5.5a.42.42,0,0,0,.11-.3Zm0,0,0-1.66a.35.35,0,0,0-.14-.3l-1.17-.74-4.27-2.72a.15.15,0,0,0-.2,0L69.63,37.5a.37.37,0,0,0-.12.29l0,5.6,0,3.52,0,8.7a.42.42,0,0,0,.11.29l5.76,5.36a.18.18,0,0,0,.26,0l5.61-5.5a.42.42,0,0,0,.11-.3ZM88,33.51A2,2,0,0,0,87,31.85l-11-6a2.26,2.26,0,0,0-2.17,0L62.94,32.16a1.94,1.94,0,0,0-1,1.68l-.32,28a2,2,0,0,0,.84,1.61l11.71,8.39a2.22,2.22,0,0,0,2.61,0l11.49-8.69a2,2,0,0,0,.8-1.63ZM69,56.45a1.18,1.18,0,0,1-.35-.85l.1-17.81a1.13,1.13,0,0,1,.43-.9l5.29-3.61a.9.9,0,0,1,1.06,0L81,36.73a1.11,1.11,0,0,1,.47.89L82,55.43a1.12,1.12,0,0,1-.33.85l-5.62,5.51a.92.92,0,0,1-.65.27.94.94,0,0,1-.64-.25Zm6.53,4.8,5.61-5.5a.42.42,0,0,0,.11-.3l-.51-16.14,0-1.66a.35.35,0,0,0-.14-.3l-1.17-.74-4.27-2.72a.15.15,0,0,0-.2,0L69.63,37.5a.37.37,0,0,0-.12.29l0,5.6,0,3.52,0,8.7a.42.42,0,0,0,.11.29l5.76,5.36A.18.18,0,0,0,75.54,61.25Z"/><path class="cls-2" d="M127.82,207.52c0-.48.6-.88,1.36-.65s1.25,1.33,1.63,2.16c1,2.09,1.87,10.48-7.33,14.64-3,1.38-9.17,1.41-14-1.94a8.63,8.63,0,0,1-2-2.16c-.41-.59-.81-1.28-.42-2a.86.86,0,0,1,.89-.51"/><ellipse class="cls-1" cx="132.44" cy="213.99" rx="1.44" ry="1.55" transform="translate(-14.09 9.39) rotate(-3.86)"/><path class="cls-1" d="M135.43,206.59c-2.09-8.7-9.57-14.6-17.69-14.6v1.12h0V192h0a17.24,17.24,0,0,0-3.94.47c-9.51,2.3-15.25,12.34-12.82,22.43,2.1,8.7,9.57,14.6,17.69,14.6a17.24,17.24,0,0,0,3.94-.47C132.12,226.72,137.86,216.68,135.43,206.59Zm-3,12.48a4.45,4.45,0,0,0-3.25-3.9,4.72,4.72,0,0,0-5.67,3.52,4.16,4.16,0,0,0,3,5.34,4.11,4.11,0,0,0,2.16-.09,15.28,15.28,0,0,1-6.46,3.38,15.62,15.62,0,0,1-3.53.42c-7.41,0-14.14-5.58-16-13.26a17.71,17.71,0,0,1,1-11.47,1.09,1.09,0,0,0,0,.17c-1.86,7.12,2,14.31,8.52,16a11.34,11.34,0,0,0,2.89.37,12,12,0,0,0,6.52-2,13.86,13.86,0,0,0,5.85-8.22c1.66-6.35-1.2-12.74-6.48-15.27A17.29,17.29,0,0,1,133.73,207,17.58,17.58,0,0,1,132.39,219.07Z"/><path class="cls-2" d="M43.75,207.52c0-.48-.6-.88-1.36-.65s-1.25,1.33-1.63,2.16c-1,2.09-1.88,10.48,7.33,14.64,3,1.38,9.17,1.41,14-1.94a8.63,8.63,0,0,0,2-2.16c.41-.59.81-1.28.42-2a.86.86,0,0,0-.89-.51"/><ellipse class="cls-1" cx="39.12" cy="213.99" rx="1.55" ry="1.44" transform="translate(-177.01 238.64) rotate(-86.14)"/><path class="cls-1" d="M57.77,192.46a17.24,17.24,0,0,0-3.94-.47c-8.12,0-15.6,5.9-17.69,14.6C33.7,216.68,39.44,226.72,49,229a17.17,17.17,0,0,0,3.94.47c8.11,0,15.59-5.9,17.69-14.6C73,204.8,67.28,194.76,57.77,192.46Zm11.12,22c-1.85,7.68-8.58,13.26-16,13.26a15.62,15.62,0,0,1-3.53-.42,15.16,15.16,0,0,1-6.46-3.38,4.11,4.11,0,0,0,2.16.09,4.16,4.16,0,0,0,3-5.34,4.72,4.72,0,0,0-5.67-3.52,4.45,4.45,0,0,0-3.25,3.9A17.58,17.58,0,0,1,37.84,207a17.29,17.29,0,0,1,12.75-12.89c-5.28,2.54-8.14,8.92-6.48,15.27A13.86,13.86,0,0,0,50,217.6a12,12,0,0,0,6.52,2,11.46,11.46,0,0,0,2.89-.37,11.74,11.74,0,0,0,7.43-6,13.85,13.85,0,0,0,1.09-10,1.09,1.09,0,0,1,0-.17A17.71,17.71,0,0,1,68.89,214.48Z"/><path class="cls-2" d="M88,33.51A2,2,0,0,0,87,31.85l-11-6a2.26,2.26,0,0,0-2.17,0L62.94,32.16a1.94,1.94,0,0,0-1,1.68l-.32,28a2,2,0,0,0,.84,1.61l11.71,8.39a2.22,2.22,0,0,0,2.61,0l11.49-8.69a2,2,0,0,0,.8-1.63Zm-.82,28.21L75.72,70.41a.48.48,0,0,1-.54,0L63.47,62a.22.22,0,0,1-.11-.17l.32-28a.24.24,0,0,1,.13-.19l10.85-6.26a.46.46,0,0,1,.23-.06.4.4,0,0,1,.22,0l11,6a.27.27,0,0,1,.15.19l1,28A.24.24,0,0,1,87.21,61.72Z"/><path class="cls-2" d="M81.45,37.62a1.11,1.11,0,0,0-.47-.89l-5.44-3.46a.9.9,0,0,0-1.06,0l-5.29,3.61a1.13,1.13,0,0,0-.43.9l-.1,17.81a1.18,1.18,0,0,0,.35.85l5.76,5.36a.94.94,0,0,0,.64.25.92.92,0,0,0,.65-.27l5.62-5.51a1.12,1.12,0,0,0,.33-.85Zm-.3,18.13-5.61,5.5a.18.18,0,0,1-.26,0L69.52,55.9a.42.42,0,0,1-.11-.29l0-6.87V46.91l0-3.52,0-5.6a.37.37,0,0,1,.12-.29l5.29-3.61a.15.15,0,0,1,.2,0l4.27,2.72,1.17.74a.35.35,0,0,1,.14.3l0,1.66,0,1.21,0,.6.45,14.33A.42.42,0,0,1,81.15,55.75Z"/><path class="cls-2" d="M84.41,59.22a.38.38,0,0,1-.28-.12l-2-2.23a.38.38,0,0,1,0-.53.39.39,0,0,1,.53,0l2,2.23a.38.38,0,0,1,0,.53A.38.38,0,0,1,84.41,59.22Z"/><path class="cls-2" d="M85.8,60.8a.37.37,0,0,1-.29-.13l-.41-.47a.37.37,0,1,1,.56-.49l.42.47a.37.37,0,0,1,0,.53A.36.36,0,0,1,85.8,60.8Z"/><path class="cls-2" d="M67.21,58.15a.35.35,0,0,1-.25-.1.38.38,0,0,1,0-.53l.89-1a.38.38,0,0,1,.57.49l-.9,1A.39.39,0,0,1,67.21,58.15Z"/><path class="cls-2" d="M64.88,60.8a.38.38,0,0,1-.25-.09.38.38,0,0,1,0-.53l1.17-1.33a.38.38,0,0,1,.57.49l-1.17,1.33A.37.37,0,0,1,64.88,60.8Z"/><path class="cls-2" d="M81.81,37.09a.37.37,0,0,1-.31-.17.35.35,0,0,1,.11-.51l2.51-1.64a.38.38,0,1,1,.41.63L82,37A.34.34,0,0,1,81.81,37.09Z"/><path class="cls-2" d="M66.63,35.92a.36.36,0,0,1-.2-.06L65,34.93a.38.38,0,0,1,.41-.63l1.43.93a.38.38,0,0,1,.11.52A.39.39,0,0,1,66.63,35.92Z"/><path class="cls-2" d="M68.22,37a.36.36,0,0,1-.2-.06l-.56-.37a.35.35,0,0,1-.11-.51.36.36,0,0,1,.51-.12l.57.37a.38.38,0,0,1,.11.52A.37.37,0,0,1,68.22,37Z"/><path class="cls-2" d="M75.47,69.33a.38.38,0,0,1-.38-.37V63.38a.38.38,0,0,1,.75,0V69A.38.38,0,0,1,75.47,69.33Z"/><path class="cls-2" d="M75,30.31h0a.37.37,0,0,1-.37-.38V28a.39.39,0,0,1,.38-.38h0a.37.37,0,0,1,.37.38v2A.38.38,0,0,1,75,30.31Z"/><path class="cls-2" d="M74.94,32.43h0a.37.37,0,0,1-.37-.38v-.8a.38.38,0,0,1,.38-.37h0a.37.37,0,0,1,.37.38v.8A.38.38,0,0,1,74.94,32.43Z"/><path class="cls-2" d="M75,5.91a.37.37,0,0,1-.37-.36L74.45.39A.39.39,0,0,1,74.81,0a.36.36,0,0,1,.39.36l.19,5.16a.39.39,0,0,1-.36.39Z"/><path class="cls-2" d="M86.94,8.26l-.15,0a.37.37,0,0,1-.2-.49l2.08-5a.38.38,0,0,1,.7.29L87.28,8A.38.38,0,0,1,86.94,8.26Z"/><path class="cls-2" d="M63.69,8.61a.38.38,0,0,1-.36-.25L61.42,3a.38.38,0,0,1,.71-.25L64,8.11a.37.37,0,0,1-.23.48Z"/><path class="cls-2" d="M100.41,16.15a.39.39,0,0,1-.25-.1.38.38,0,0,1,0-.53L103.26,12a.37.37,0,1,1,.55.5L100.69,16A.39.39,0,0,1,100.41,16.15Z"/><path class="cls-2" d="M50.37,15.69a.34.34,0,0,1-.28-.13l-2.61-3A.37.37,0,1,1,48,12l2.61,3a.37.37,0,0,1,0,.53A.36.36,0,0,1,50.37,15.69Z"/><path class="cls-2" d="M109.84,34.12a.38.38,0,0,1-.36-.27.38.38,0,0,1,.25-.47l3.91-1.21a.38.38,0,0,1,.47.25.38.38,0,0,1-.25.47L110,34.1Z"/><path class="cls-1" d="M151.09,156.58l.87-.08a16.88,16.88,0,0,1-.81,1.83,27.62,27.62,0,0,0-6.08,1,13.4,13.4,0,0,0-3.84,2,6.63,6.63,0,0,0-2.31,2.68,3.88,3.88,0,0,0-.26,1h-.13a1,1,0,0,1-.29,0l-.22-.06-.5-.12-.56-.16h0a4.87,4.87,0,0,1,.34-1.21s0-.05,0-.08l-1.18-2.89a1.6,1.6,0,0,0-.27-.51c-.11-.08-.44,0-.86.17a5.51,5.51,0,0,0-2.47,2.49l0,0-.06,0c-.2-.11-.38-.23-.57-.35l-.07,0-.2-.13c-.15-.1-.3-.2-.45-.32l-.09-.06a7.36,7.36,0,0,1,3.16-3.09,2.51,2.51,0,0,1,2.69,0,2.82,2.82,0,0,1,.84,1.24l.72,1.77a10.6,10.6,0,0,1,1.68-1.55,15.4,15.4,0,0,1,4.35-2.26c.42-.13.85-.24,1.27-.34a15.76,15.76,0,0,0-4.16-8,32.15,32.15,0,0,0-3.71-3.19,39.36,39.36,0,0,1-3.52-3,37,37,0,0,1-5-6.59c-5.27-8.23-10.36-16.73-15.13-25.27l-.19-.34c-1-1.79-2-3.6-3.16-5.3l0-.11c.1-.32.2-.63.31-.93s.22-.62.34-.91l0-.09.45.63a2.38,2.38,0,0,1,1.14.36l.11.08C121.48,111.54,130,119,137,127.24a94.69,94.69,0,0,1,8.32,11.5l.32.53c1.44,2.33,2.94,4.75,3.2,7.66a20.87,20.87,0,0,1,0,2.85,22.69,22.69,0,0,0,0,2.33,10.39,10.39,0,0,0,1.3,4.56Z"/><path class="cls-3" d="M153.9,145h0c0,1.29-.07,2.54-.19,3.74a79,79,0,0,0-6.83-12.08c-4.76-7.36-11.53-14.93-20.72-23.17-3.19-2.86-6.75-5.6-10.19-8.24-1.23-1-2.48-1.91-3.72-2.88a16.35,16.35,0,0,1,.86-1.55c1.31,1,2.63,2,3.93,3,3.46,2.67,7,5.42,10.29,8.33,9.3,8.34,16.18,16,21,23.52A102.55,102.55,0,0,1,153.9,145Z"/><path class="cls-3" d="M46.7,100.32,36.65,110.71c-2.43,2.52-4.91,5.08-7.22,7.71A108.28,108.28,0,0,0,11.8,146c.07-1.63.22-3.32.45-5.05a110.21,110.21,0,0,1,15.86-23.65c2.34-2.66,4.84-5.24,7.25-7.74L45,99.59a.53.53,0,0,1,.12,0A9.94,9.94,0,0,1,46.7,100.32Z"/><path class="cls-2" d="M46.3,286.39c-.21,0-.42,0-.63.05a1,1,0,0,0,0,.17,12.2,12.2,0,0,1-1.74-.18c0-.08,0-.17,0-.25a5,5,0,0,1-1.46-.76,5.16,5.16,0,0,1,2.35-9.24,5.17,5.17,0,0,1,5.84,4.37A5.16,5.16,0,0,1,46.3,286.39Z"/><path class="cls-1" d="M47.38,103.41c-1.65,3.86-3.48,8.44-5.26,12.87-1.23,3.09-2.45,6.12-3.57,8.82-.51,1.24-1.14,2.86-1.85,4.64-2.23,5.67-5,12.72-6.61,14.93a18,18,0,0,1-3.7,3.37A24.64,24.64,0,0,0,24.06,150a12.91,12.91,0,0,0-4.13,8.26,22.66,22.66,0,0,1,6.24,4.61,17.91,17.91,0,0,1,2.07-6.68l.41-.75.76.39A10.49,10.49,0,0,1,34.86,166c-.59.43-1.19.84-1.79,1.2a.94.94,0,0,1-.08-.6,8.69,8.69,0,0,0-3.63-8.82A20.64,20.64,0,0,0,27.67,165l-.24,2.19-1.33-1.76a20,20,0,0,0-10.23-6.93,10.66,10.66,0,0,0-2.85-.3c-.16-.56-.31-1.14-.43-1.74a14.93,14.93,0,0,1,2.79.15,31.82,31.82,0,0,0-.08-6.33l0-.46c-.29-3.71,1.06-7,2.26-9.87,3.25-7.86,15.74-22.82,17.6-24.78.89-.94,1.81-2,2.78-3.19.76-.9,1.53-1.82,2.32-2.71.24-.26.48-.55.71-.85A12.06,12.06,0,0,1,42.25,107a2.49,2.49,0,0,1,2-.72c.51-1.23,1-2.43,1.49-3.56a.88.88,0,1,1,1.61.69Z"/><path class="cls-2" d="M116.19,47.85h0l-4.68,0a.37.37,0,0,1-.37-.37.43.43,0,0,1,.38-.38l4.68,0a.37.37,0,0,1,.37.38A.38.38,0,0,1,116.19,47.85Z"/><path class="cls-2" d="M102.91,152.67v1.75h-.19a5.47,5.47,0,0,0-4.14,1.76c-.37.41-.73,1-.59,1.42a.87.87,0,0,1-.55,1.11.88.88,0,0,1-1.11-.56l0-.15a34.1,34.1,0,0,0-7.72-1.66.28.28,0,0,1-.12,0,47.68,47.68,0,0,0-6.64-.38,51.56,51.56,0,0,0-7.47.83.35.35,0,0,1-.21.1,35.2,35.2,0,0,0-8.71,2,1,1,0,0,1-.44.08,1.24,1.24,0,0,1-.73-.23,1,1,0,0,1-.34-1c.21-1.39,3.26-3.34,3.61-3.56l.22-.12c.37-.19.64-.36.67-.72,0-.12-.14-.25-.35-.41a7.37,7.37,0,0,0-3.87-1.43,1,1,0,0,1-.88-.5,1,1,0,0,1,.23-1,3.65,3.65,0,0,1,1.52-.71c.86-.27,1.84-.58,2.1-1.33a1.75,1.75,0,0,0-.09-1.32c-.06-.08-.16-.18-.25-.29a4.94,4.94,0,0,1-.34-.39,2,2,0,0,1,.06-1.92,34.44,34.44,0,0,0,2.16-7.85,80.39,80.39,0,0,0-5.39-17h1.91c4,9.59,6,17.78,6,24.78a3.82,3.82,0,0,1,2.49-1,1.56,1.56,0,0,1,1,.41,1.48,1.48,0,0,1,.38.74,10.36,10.36,0,0,1,0,5,6.55,6.55,0,0,1,3.19-.4,1.85,1.85,0,0,1,1,.41,1.89,1.89,0,0,1,.55,1,4.89,4.89,0,0,1-1.31,4.28l-.06.06c1.17-.13,2.28-.21,3.35-.24,1.3,0,2.6,0,3.82.1a8.4,8.4,0,0,1-2.2-3.33,3.07,3.07,0,0,1,.31-2.83l.21-.29.35-.06a4.86,4.86,0,0,1,3.38,1.16,97.39,97.39,0,0,1,1.58-29.78H91c-.11.56-.22,1.11-.32,1.66.14,1,.3,2,.49,3,.6,3,1.51,6.05,2.39,9,1.43,4.71,2.89,9.57,3.1,14.57l1-.15a.84.84,0,0,1,1.06.81,4.26,4.26,0,0,1-.6,2.85,2.59,2.59,0,0,1,1.66,1.38,1.81,1.81,0,0,1,0,1,7,7,0,0,1,2.92-.56Z"/><path class="cls-4" d="M102.37,156.14a4.06,4.06,0,0,0,.54-1.5v4.78l-.85.2a.88.88,0,0,1-.94-1.33A24.09,24.09,0,0,0,102.37,156.14Z"/><path class="cls-2" d="M115.71,64.79h-.11l-4.19-1.32a.37.37,0,0,1-.24-.47.38.38,0,0,1,.47-.25l4.19,1.32a.37.37,0,0,1-.12.73Z"/><path class="cls-2" d="M37.82,36.12h0l-5.09-.72a.36.36,0,0,1-.31-.42.37.37,0,0,1,.42-.32l5.08.71a.38.38,0,0,1,0,.75Z"/><path class="cls-2" d="M32.74,49.54a.38.38,0,0,1-.38-.34.39.39,0,0,1,.34-.41l6.17-.54a.38.38,0,0,1,.4.34.37.37,0,0,1-.34.41l-6.16.54Z"/><path class="cls-2" d="M38.42,65.06a.38.38,0,0,1-.36-.24.37.37,0,0,1,.23-.48l4.51-1.67a.37.37,0,0,1,.48.22.36.36,0,0,1-.22.48L38.55,65Z"/><path class="cls-2" d="M139.12,167a2.78,2.78,0,0,1-.46-2h-.13l-.51-.11-.5-.12-.56-.16a4.52,4.52,0,0,0,.75,3.5.88.88,0,1,0,1.41-1.05Zm-5.67,2.53c-1.57-1.26-1.68-4-1.38-5.63a5,5,0,0,1,.49-1.39l0,0-.06,0c-.2-.11-.38-.23-.57-.35l-.07,0-.2-.13c-.15-.1-.3-.2-.45-.32l-.09-.06a7.5,7.5,0,0,0-.74,2c-.46,2.39,0,5.7,2,7.32a.89.89,0,0,0,.55.2.88.88,0,0,0,.55-1.56Zm-24.34-68.91a.88.88,0,0,0-1.24,1.24,25.37,25.37,0,0,1,3.08,3.82l0-.11c.1-.32.2-.63.31-.93s.22-.62.34-.91l0-.09A26.12,26.12,0,0,0,109.11,100.66Zm-1.53,57a2.38,2.38,0,0,0-2.59-.53l-1.33.32.27-.5a5.51,5.51,0,0,0,.74-2.35,1.71,1.71,0,0,0-1.76-1.93v1.75h0a.47.47,0,0,1,0,.12.34.34,0,0,1,0,.1,4.06,4.06,0,0,1-.54,1.5,24.09,24.09,0,0,1-1.25,2.15.88.88,0,0,0,.94,1.33l.85-.2.27-.06,2.23-.53a1.74,1.74,0,0,1,.82-.06.65.65,0,0,1-.06.42,3.2,3.2,0,0,1-1.06,1.28.87.87,0,0,0-.27,1.2.85.85,0,0,0,.74.41A.84.84,0,0,0,106,162a4.94,4.94,0,0,0,1.72-2A2.15,2.15,0,0,0,107.58,157.66ZM139.12,167a2.78,2.78,0,0,1-.46-2h-.13a1,1,0,0,1-.29,0l-.22-.06-.5-.12-.56-.16a4.52,4.52,0,0,0,.75,3.5.88.88,0,1,0,1.41-1.05Zm-5.67,2.53c-1.57-1.26-1.68-4-1.38-5.63a5,5,0,0,1,.49-1.39l0,0-.06,0c-.2-.11-.38-.23-.57-.35l-.07,0-.2-.13c-.15-.1-.3-.2-.45-.32l-.09-.06a7.5,7.5,0,0,0-.74,2c-.46,2.39,0,5.7,2,7.32a.89.89,0,0,0,.55.2.88.88,0,0,0,.55-1.56Zm-24.34-68.91a.88.88,0,0,0-1.24,1.24,25.37,25.37,0,0,1,3.08,3.82l0-.11c.1-.32.2-.63.31-.93s.22-.62.34-.91l0-.09A26.12,26.12,0,0,0,109.11,100.66Zm-1.53,57a2.38,2.38,0,0,0-2.59-.53l-1.33.32.27-.5a5.51,5.51,0,0,0,.74-2.35,1.71,1.71,0,0,0-1.76-1.93v1.75h0a.47.47,0,0,1,0,.12.34.34,0,0,1,0,.1,4.06,4.06,0,0,1-.54,1.5,24.09,24.09,0,0,1-1.25,2.15.88.88,0,0,0,.94,1.33l.85-.2.27-.06,2.23-.53a1.74,1.74,0,0,1,.82-.06.65.65,0,0,1-.06.42,3.2,3.2,0,0,1-1.06,1.28.87.87,0,0,0-.27,1.2.85.85,0,0,0,.74.41A.84.84,0,0,0,106,162a4.94,4.94,0,0,0,1.72-2A2.15,2.15,0,0,0,107.58,157.66Zm-74.51,9.55a.85.85,0,0,0,.59.44.87.87,0,0,0,1-.67c.07-.32.12-.64.16-1C34.27,166.44,33.67,166.85,33.07,167.21ZM139.12,167a2.78,2.78,0,0,1-.46-2h-.13a1,1,0,0,1-.29,0l-.22-.06-.5-.12-.56-.16a4.52,4.52,0,0,0,.75,3.5.88.88,0,1,0,1.41-1.05Zm-5.67,2.53c-1.57-1.26-1.68-4-1.38-5.63a5,5,0,0,1,.49-1.39l0,0-.06,0c-.2-.11-.38-.23-.57-.35l-.07,0-.2-.13c-.15-.1-.3-.2-.45-.32l-.09-.06a7.5,7.5,0,0,0-.74,2c-.46,2.39,0,5.7,2,7.32a.89.89,0,0,0,.55.2.88.88,0,0,0,.55-1.56Zm-24.34-68.91a.88.88,0,0,0-1.24,1.24,25.37,25.37,0,0,1,3.08,3.82l0-.11c.1-.32.2-.63.31-.93s.22-.62.34-.91l0-.09A26.12,26.12,0,0,0,109.11,100.66Zm-1.53,57a2.38,2.38,0,0,0-2.59-.53l-1.33.32.27-.5a5.51,5.51,0,0,0,.74-2.35,1.71,1.71,0,0,0-1.76-1.93v1.75h0a.47.47,0,0,1,0,.12.34.34,0,0,1,0,.1,4.06,4.06,0,0,1-.54,1.5,24.09,24.09,0,0,1-1.25,2.15.88.88,0,0,0,.94,1.33l.85-.2.27-.06,2.23-.53a1.74,1.74,0,0,1,.82-.06.65.65,0,0,1-.06.42,3.2,3.2,0,0,1-1.06,1.28.87.87,0,0,0-.27,1.2.85.85,0,0,0,.74.41A.84.84,0,0,0,106,162a4.94,4.94,0,0,0,1.72-2A2.15,2.15,0,0,0,107.58,157.66Zm-74.51,9.55a.85.85,0,0,0,.59.44.87.87,0,0,0,1-.67c.07-.32.12-.64.16-1C34.27,166.44,33.67,166.85,33.07,167.21ZM139.12,167a2.78,2.78,0,0,1-.46-2h-.13a1,1,0,0,1-.29,0l-.22-.06-.5-.12-.56-.16a4.52,4.52,0,0,0,.75,3.5.88.88,0,1,0,1.41-1.05Zm-5.67,2.53c-1.57-1.26-1.68-4-1.38-5.63a5,5,0,0,1,.49-1.39l0,0-.06,0c-.2-.11-.38-.23-.57-.35l-.07,0-.2-.13c-.15-.1-.3-.2-.45-.32l-.09-.06a7.5,7.5,0,0,0-.74,2c-.46,2.39,0,5.7,2,7.32a.89.89,0,0,0,.55.2.88.88,0,0,0,.55-1.56Zm-24.34-68.91a.88.88,0,0,0-1.24,1.24,25.37,25.37,0,0,1,3.08,3.82l0-.11c.1-.32.2-.63.31-.93s.22-.62.34-.91l0-.09A26.12,26.12,0,0,0,109.11,100.66Zm-1.53,57a2.38,2.38,0,0,0-2.59-.53l-1.33.32.27-.5a5.51,5.51,0,0,0,.74-2.35,1.71,1.71,0,0,0-1.76-1.93v1.75h0a.47.47,0,0,1,0,.12.34.34,0,0,1,0,.1,4.06,4.06,0,0,1-.54,1.5,24.09,24.09,0,0,1-1.25,2.15.88.88,0,0,0,.94,1.33l.85-.2.27-.06,2.23-.53a1.74,1.74,0,0,1,.82-.06.65.65,0,0,1-.06.42,3.2,3.2,0,0,1-1.06,1.28.87.87,0,0,0-.27,1.2.85.85,0,0,0,.74.41A.84.84,0,0,0,106,162a4.94,4.94,0,0,0,1.72-2A2.15,2.15,0,0,0,107.58,157.66Zm-74.51,9.55a.85.85,0,0,0,.59.44.87.87,0,0,0,1-.67c.07-.32.12-.64.16-1C34.27,166.44,33.67,166.85,33.07,167.21Zm134.1,20.86a3.35,3.35,0,0,0-3.27-1.43h-.23a12.56,12.56,0,0,1-1.76-.16,9.16,9.16,0,0,0,5.35-7.07l.18-.92-.94-.12a25.27,25.27,0,0,1-3-.62c-.68-.17-1.29-.32-1.82-.42a34.3,34.3,0,0,0,1.06-8.58,49.89,49.89,0,0,0-1.94-11.27,2.09,2.09,0,0,0-1-1.5,2.14,2.14,0,0,0-1.07-.12l-1.07.1a35.54,35.54,0,0,0-3.74-11h0a102.55,102.55,0,0,0-5.56-9.28c-4.83-7.49-11.71-15.18-21-23.52-3.25-2.91-6.83-5.66-10.29-8.33-1.3-1-2.62-2-3.93-3-2.62-2.06-5.21-4.19-7.58-6.41-.7-.66-1.38-1.34-2.06-2-1-1-2.12-2.13-3.28-3.12a2.23,2.23,0,0,0-1.91-.65c-.73.17-1.22.78-1.46,1.81s-.37,1.84-.52,2.73-.24,1.48-.4,2.22a50.93,50.93,0,0,1-1.78,5.94,136.32,136.32,0,0,0-4.9,17.84,97.39,97.39,0,0,0-1.58,29.78,4.86,4.86,0,0,0-3.38-1.16l-.35.06-.21.29a3.07,3.07,0,0,0-.31,2.83,8.4,8.4,0,0,0,2.2,3.33c-1.22-.09-2.52-.13-3.82-.1-1.07,0-2.18.11-3.35.24l.06-.06a4.89,4.89,0,0,0,1.31-4.28,1.89,1.89,0,0,0-.55-1,1.85,1.85,0,0,0-1-.41,6.55,6.55,0,0,0-3.19.4,10.36,10.36,0,0,0,0-5,1.48,1.48,0,0,0-.38-.74,1.56,1.56,0,0,0-1-.41,3.82,3.82,0,0,0-2.49,1c0-7-2-15.19-6-24.78q-2.75-6.51-6.73-13.9c-1.46-2.72-3-5.53-3.11-8.51,0-.21,0-.43,0-.65,0-1.55-.07-3.48-1.59-4.52l-.61-.42L45,99.59l-9.62,9.94c-2.41,2.5-4.91,5.08-7.25,7.74a110.21,110.21,0,0,0-15.86,23.65c-.79,1.59-1.55,3.19-2.26,4.82A75.87,75.87,0,0,0,5.88,157.1c-.58.05-1.14.08-1.66.08a2.39,2.39,0,0,0-1.33.31A2,2,0,0,0,2,159.56a18.55,18.55,0,0,1,.35,2.49,40.07,40.07,0,0,0,1.9,9.42.59.59,0,0,0,0,.13,42.59,42.59,0,0,0,1.08,8.65l-.79.57a2.34,2.34,0,0,0-.55.52,2.09,2.09,0,0,0,.19,2.37,15.15,15.15,0,0,0,1.31,1.72,3.76,3.76,0,0,0-2.95-.77C.67,185.1,0,187.19,0,189a6.79,6.79,0,0,0,.62,3.08,5.61,5.61,0,0,0,3.56,2.68l.32.08-.25.11a2.68,2.68,0,0,0-1.44,1.21,2.4,2.4,0,0,0-.15,1.26A6.23,6.23,0,0,0,5.56,202a6.17,6.17,0,0,0,3.22.89c.21,0,.42,0,.63,0a40.33,40.33,0,0,0-1.53,14.07A45.6,45.6,0,0,0,10,228.33c.27.8.55,1.6.85,2.38,4.24,11,12.85,20.46,24.94,27.5q.36.23.72.42a92.13,92.13,0,0,0,27.35,9.89,47.26,47.26,0,0,1-3.57,10.63c-.86,2-1.75,4.07-2.49,6.32a21.89,21.89,0,0,0-.49,12.86,10.63,10.63,0,0,1-7.87-1.81c-2.73-2-4-5.37-3.78-9.91a1,1,0,0,1,0-.17c.21,0,.42,0,.63-.05a5.16,5.16,0,0,0,4.37-5.84,5.17,5.17,0,0,0-5.84-4.37,5.16,5.16,0,0,0-2.35,9.24,5,5,0,0,0,1.46.76c0,.08,0,.17,0,.25-.24,5.16,1.28,9.13,4.48,11.5a11.86,11.86,0,0,0,7.16,2.27,15.18,15.18,0,0,0,2.28-.18,26.27,26.27,0,0,0,1.31,3A141.2,141.2,0,0,0,69,319.15a4.87,4.87,0,0,0,1.27,1.37,3.81,3.81,0,0,0,1.93.65l.92,0a14,14,0,0,0,6.38-1.48,3.32,3.32,0,0,0,1.62-1.94,4.1,4.1,0,0,0-.29-2.67c-.48-1.23-1.1-3-1.49-4.36a33.3,33.3,0,0,0,5.18-.52l.12,0c.17,0,.34-.06.5-.09.59.47,1.37,1.21,2.2,2a26.86,26.86,0,0,0,4.91,4.1,4.71,4.71,0,0,0,1.55.47,7.77,7.77,0,0,0,.88.06,4.42,4.42,0,0,0,1.9-.37c2.77-1.38,4.67-3.45,5.1-5.53a3.2,3.2,0,0,0-1.77-3.24,14.89,14.89,0,0,1-3.67-4.26,17.42,17.42,0,0,0,2.54-14.66,10.67,10.67,0,0,0,2.88-2.95,26.53,26.53,0,0,0,4-17.16,86.1,86.1,0,0,0,27.49-10.2c.55-.33,1.1-.66,1.64-1,12.19-7.65,20.43-17.92,23.83-29.69.08-.29.16-.57.24-.87A44.76,44.76,0,0,0,160.26,214a45.63,45.63,0,0,0-1.37-9.76,9.78,9.78,0,0,0,1.53.14,4.74,4.74,0,0,0,2.69-.7A4.41,4.41,0,0,0,165,199a4.36,4.36,0,0,0-1.67-2.22,7,7,0,0,0,1.23-.64,6.66,6.66,0,0,0,2.95-3.45A5.59,5.59,0,0,0,167.17,188.07ZM43.53,284a3.4,3.4,0,0,1,1.55-6.1,2.7,2.7,0,0,1,.49,0,3.41,3.41,0,1,1-2,6.14ZM85.06,150.41a1.89,1.89,0,0,1-.09-.91,5.77,5.77,0,0,1,3.11,2.36l2.23,3.85-.61-4.41a93.3,93.3,0,0,1,.58-28.23l.15.82c.61,3.06,1.53,6.11,2.42,9,1.45,4.81,2.94,9.78,3.08,14.83a.37.37,0,0,0,.14.29.4.4,0,0,0,.32.07,10.61,10.61,0,0,1,1.37-.24h.18a.44.44,0,0,1,0,.18,3.47,3.47,0,0,1-.76,2.7.37.37,0,0,0-.07.35.35.35,0,0,0,.25.25c.75.22,1.46.5,1.67,1.07a1.52,1.52,0,0,1-.29,1.33A6.74,6.74,0,0,0,97.3,155a3.73,3.73,0,0,0-1.07,2.19,34.1,34.1,0,0,0-7.39-1.58.87.87,0,0,0-.35-1.4A7.12,7.12,0,0,1,85.06,150.41Zm-15.72-3.79-.47,5.73L71,147a4.19,4.19,0,0,1,2.41-2.38A8.85,8.85,0,0,1,72.3,151l1.41,1A4.85,4.85,0,0,1,78,150.38l.08,0a.43.43,0,0,1,0,0,3.14,3.14,0,0,1-.9,2.71A8.51,8.51,0,0,1,73.61,155,.89.89,0,0,0,73,156a1.63,1.63,0,0,0,.09.19,34.69,34.69,0,0,0-7.88,1.91.5.5,0,0,1-.45,0s-.09-.08-.06-.27c.11-.76,2-2.24,3.27-3.05l.16-.09a1.67,1.67,0,0,0,1.08-1.32,1.25,1.25,0,0,0-.65-1.07,8.11,8.11,0,0,0-4.25-1.57.85.85,0,0,1-.26-.06.34.34,0,0,1,.08-.17A3.67,3.67,0,0,1,65.3,150c1-.3,2.2-.69,2.58-1.79a2.46,2.46,0,0,0-.2-2,3.85,3.85,0,0,0-.3-.34l-.28-.32c-.19-.28,0-.75.15-1.21a35.07,35.07,0,0,0,1.81-5.93A38.12,38.12,0,0,1,69.34,146.62ZM36.65,256.68c-11.71-6.82-20.07-16-24.16-26.6a.42.42,0,0,0,0-.1,18.94,18.94,0,0,1,15.12-7.44,18.55,18.55,0,0,1,18.77,18.27,18.08,18.08,0,0,1-9.6,15.92Zm47.68,51.8-.13,0c-1.29.2-2.44.38-3.66.46a13.54,13.54,0,0,1-8.83-3.25,6.86,6.86,0,0,1-2.38-5.4c.3-5.54,5.15-8.71,13.33-8.71h.11c4.35,0,7.91,1.28,10,3.55a6.94,6.94,0,0,1,1.93,5.27,7.64,7.64,0,0,1-1.07,3.49A17.31,17.31,0,0,1,84.33,308.48Zm14.67.67a1.59,1.59,0,0,1,.92,1.37c-.32,1.56-1.88,3.17-4.17,4.31A3.53,3.53,0,0,1,94,315a2.75,2.75,0,0,1-1-.27,25.85,25.85,0,0,1-4.52-3.82l-1.33-1.26a17.94,17.94,0,0,0,7.93-4.72A14.56,14.56,0,0,0,99,309.15Zm-3.64-7.78a8.68,8.68,0,0,0,.12-.91,7.59,7.59,0,0,0-2.13-5.82c-2.26-2.43-6-3.77-10.57-3.79h-.12c-8.63,0-13.76,3.43-14.08,9.42a7.66,7.66,0,0,0,2.62,6,10.89,10.89,0,0,0,2.14,1.56c-.48-.2-.8-.36-.81-.36a.87.87,0,1,0-.77,1.57,17.66,17.66,0,0,0,5.36,1.66l.34,0c.38,1.43,1.13,3.61,1.69,5.05.36.91.32,1.31.26,1.47a1.62,1.62,0,0,1-.84,1,12.42,12.42,0,0,1-6.3,1.21,2,2,0,0,1-1.09-.37,3.08,3.08,0,0,1-.78-.88,139.72,139.72,0,0,1-9.68-15.93A20.15,20.15,0,0,1,59.47,286c.72-2.17,1.59-4.2,2.44-6.17a49.45,49.45,0,0,0,3.68-11c.84.15,1.69.3,2.55.43A32.83,32.83,0,0,0,69.7,283a.88.88,0,0,0,1.66-.56,30.55,30.55,0,0,1-1.27-5.24A15.81,15.81,0,0,0,79.52,280h.38A12.11,12.11,0,0,0,87,277.88a16.41,16.41,0,0,1-2.66,6.76c-2.49,3.51-7.65,5.07-11.28,3.42a8.23,8.23,0,0,1-4-3.62,23.25,23.25,0,0,1-2.42-11.32.89.89,0,0,0-.85-.9h0a.87.87,0,0,0-.87.85,24.55,24.55,0,0,0,2.64,12.21,10,10,0,0,0,4.79,4.37,9.54,9.54,0,0,0,4,.83,11.85,11.85,0,0,0,9.47-4.83c.34-.49.65-1,.93-1.48,1,3,2.92,5.2,5.21,5.81a8,8,0,0,0,5.23-.39A15.51,15.51,0,0,1,95.36,301.37ZM77.5,263h0a.88.88,0,0,0,.88-.84,10.69,10.69,0,0,0-.06-2,3.91,3.91,0,0,0-.28-1,13.19,13.19,0,0,1,3.56,0,4.32,4.32,0,0,1,.35,2.58.88.88,0,0,0,.71,1l.15,0a.89.89,0,0,0,.87-.73,6.25,6.25,0,0,0-.11-2.51,4.8,4.8,0,0,1,1.27.58,4.56,4.56,0,0,1,1.84,2.06c.84,2.23,1.24,6.65.94,10.28-.11,1.45-.24,2.87-.44,4.26-1.55,1.56-4.15,2.48-7.32,2.55-4,.1-7.94-1.21-9.94-3.22a30.88,30.88,0,0,1,.16-8.37,12.62,12.62,0,0,1,1-3.46,8.42,8.42,0,0,1,4.67-4.43l.61-.2a2.66,2.66,0,0,1,.28.87,8.38,8.38,0,0,1,0,1.67A.87.87,0,0,0,77.5,263Zm22.66,21.76c-1.94,2.91-4.93,4.25-7.78,3.5-2.15-.57-3.93-3.26-4.5-6.72A23.09,23.09,0,0,0,89,276.92a12,12,0,0,0,7.26,2.34,14.68,14.68,0,0,0,1.75-.11,11.33,11.33,0,0,0,5.42-2.14A22.39,22.39,0,0,1,100.16,284.79Zm3.43-9a9.93,9.93,0,0,1-5.71,2.56A11.45,11.45,0,0,1,89.07,276c.14-1.13.23-2.28.33-3.45a33.28,33.28,0,0,0-.68-9.85,6.29,6.29,0,0,1,3.06-3l.11,0a2.4,2.4,0,0,1,.29,1,8.79,8.79,0,0,1-.07,1.68.88.88,0,0,0,.78,1H93a.88.88,0,0,0,.87-.78,10.35,10.35,0,0,0,.08-2,4.69,4.69,0,0,0-.3-1.24,8.78,8.78,0,0,1,3.29.19,4.45,4.45,0,0,1,.43,2.66.87.87,0,0,0,.72,1h.14a.87.87,0,0,0,.87-.74,6.33,6.33,0,0,0-.06-2.17c1.53.79,4.26,2.86,4.78,7.67A29.4,29.4,0,0,1,103.59,275.84Zm30.21-19.93a18,18,0,0,1-8.23-15.1,18.55,18.55,0,0,1,18.77-18.27,18.89,18.89,0,0,1,12.52,4.69C153.58,238.58,145.61,248.5,133.8,255.91Zm32-63.73a4.9,4.9,0,0,1-2.2,2.49,5.23,5.23,0,0,1-2.51.86l-2.84.48,2.37,1.2c2,1,2.53,1.77,2.65,2.25a2.7,2.7,0,0,1-1.19,2.77c-.85.6-2.73.44-4.15,0a.87.87,0,0,0-1.1.56.89.89,0,0,0,0,.51h0A44.66,44.66,0,0,1,158.51,214a43,43,0,0,1-1.41,12.35.08.08,0,0,0,0,0,19.75,19.75,0,0,0-12.75-4.64,19.3,19.3,0,0,0-19.52,19,18.72,18.72,0,0,0,8.27,15.53l-.91.55a84.16,84.16,0,0,1-26.77,10,10.66,10.66,0,0,0-14.23-8.72,8,8,0,0,0-3.26,2.56,6.85,6.85,0,0,0-2.09-2.05,8.34,8.34,0,0,0-3.59-1.19,14.23,14.23,0,0,0-7.09.67,10.24,10.24,0,0,0-5.68,5.35,14.67,14.67,0,0,0-1.09,3.92c0,.05,0,.09,0,.14a92.23,92.23,0,0,1-30.85-10.37,18.81,18.81,0,0,0,9.58-16.36,19.3,19.3,0,0,0-19.52-19,19.7,19.7,0,0,0-15.41,7.34c-.16-.45-.33-.89-.48-1.34a43.62,43.62,0,0,1-2-11A38.81,38.81,0,0,1,11.5,202h0a.83.83,0,0,0,0-.58.86.86,0,0,0-1.13-.5,4.38,4.38,0,0,1-5.95-3.65.79.79,0,0,1,0-.35,1.76,1.76,0,0,1,.57-.34c.41-.19.81-.34,1.19-.48a8,8,0,0,0,2-1l2.15-1.64-2.7.07a10.3,10.3,0,0,1-3-.43,3.87,3.87,0,0,1-2.47-1.8A4.83,4.83,0,0,1,1.75,189c0-1.17.37-2.44,1.19-2.63.55-.12,1.17.27,1.88.72a11.14,11.14,0,0,0,1.07.63,6.71,6.71,0,0,0,3.84.74,4,4,0,0,0,.49.17,9.74,9.74,0,0,0,2.3.27,9.47,9.47,0,0,0,3.83-.77.87.87,0,1,0-.74-1.58,8,8,0,0,1-5,.38,9.32,9.32,0,0,1-5-4.16c-.16-.24-.2-.41-.23-.41l.14-.11a15.46,15.46,0,0,1,4.1-2.39q.63.59,1.35,1.14a.87.87,0,0,0,.53.18.91.91,0,0,0,.7-.34.88.88,0,0,0-.17-1.23c-6.63-5.07-7.49-13.31-8-17.73a16.57,16.57,0,0,0-.4-2.73.41.41,0,0,1,.13-.18,1.46,1.46,0,0,1,.38,0,40.35,40.35,0,0,0,4.29-.34,42.13,42.13,0,0,1,4.51-.37,10.66,10.66,0,0,1,2.85.3,20,20,0,0,1,10.23,6.93l1.33,1.76.24-2.19a20.64,20.64,0,0,1,1.69-7.23A8.69,8.69,0,0,1,33,166.61a.94.94,0,0,0,.08.6.85.85,0,0,0,.59.44.87.87,0,0,0,1-.67c.07-.32.12-.64.16-1a10.49,10.49,0,0,0-5.45-10.22l-.76-.39-.41.75a17.91,17.91,0,0,0-2.07,6.68,22.66,22.66,0,0,0-6.24-4.61A12.91,12.91,0,0,1,24.06,150,24.64,24.64,0,0,1,26.39,148a18,18,0,0,0,3.7-3.37c1.61-2.21,4.38-9.26,6.61-14.93.71-1.78,1.34-3.4,1.85-4.64,1.12-2.7,2.34-5.73,3.57-8.82,1.78-4.43,3.61-9,5.26-12.87a.88.88,0,1,0-1.61-.69c-.48,1.13-1,2.33-1.49,3.56a2.49,2.49,0,0,0-2,.72,12.06,12.06,0,0,0-1.31,1.44c-.23.3-.47.59-.71.85-.79.89-1.56,1.81-2.32,2.71-1,1.16-1.89,2.25-2.78,3.19-1.86,2-14.35,16.92-17.6,24.78-1.2,2.89-2.55,6.16-2.26,9.87l0,.46a31.82,31.82,0,0,1,.08,6.33,14.93,14.93,0,0,0-2.79-.15c-1.4,0-2.85.2-4.28.37l-.57.06a76.65,76.65,0,0,1,3.85-10.47l.21-.47a108.28,108.28,0,0,1,17.63-27.55c2.31-2.63,4.79-5.19,7.22-7.71L46.7,100.32l6.56-6.77a6.83,6.83,0,0,1,.37,2.55c0,.24,0,.47,0,.7.15,3.37,1.76,6.37,3.36,9.32q3.73,6.9,6.32,13a80.39,80.39,0,0,1,5.39,17A34.44,34.44,0,0,1,66.55,144a2,2,0,0,0-.06,1.92,4.94,4.94,0,0,0,.34.39c.09.11.19.21.25.29a1.75,1.75,0,0,1,.09,1.32c-.26.75-1.24,1.06-2.1,1.33a3.65,3.65,0,0,0-1.52.71,1,1,0,0,0-.23,1,1,1,0,0,0,.88.5,7.37,7.37,0,0,1,3.87,1.43c.21.16.36.29.35.41,0,.36-.3.53-.67.72l-.22.12c-.35.22-3.4,2.17-3.61,3.56a1,1,0,0,0,.34,1,1.24,1.24,0,0,0,.73.23,1,1,0,0,0,.44-.08,35.2,35.2,0,0,1,8.71-2,.35.35,0,0,0,.21-.1,51.56,51.56,0,0,1,7.47-.83,47.68,47.68,0,0,1,6.64.38.28.28,0,0,0,.12,0A34.1,34.1,0,0,1,96.3,158l0,.15a.88.88,0,0,0,1.11.56.87.87,0,0,0,.55-1.11c-.14-.42.22-1,.59-1.42a5.47,5.47,0,0,1,4.14-1.76h.2a.47.47,0,0,1,0,.12.34.34,0,0,1,0,.1,4.06,4.06,0,0,1-.54,1.5,24.09,24.09,0,0,1-1.25,2.15.88.88,0,0,0,.94,1.33l.85-.2.27-.06,2.23-.53a1.74,1.74,0,0,1,.82-.06.65.65,0,0,1-.06.42,3.2,3.2,0,0,1-1.06,1.28.87.87,0,0,0-.27,1.2.85.85,0,0,0,.74.41A.84.84,0,0,0,106,162a4.94,4.94,0,0,0,1.72-2,2.15,2.15,0,0,0-.18-2.25,2.38,2.38,0,0,0-2.59-.53l-1.33.32.27-.5a5.51,5.51,0,0,0,.74-2.35,1.71,1.71,0,0,0-1.76-1.93h-.16a7,7,0,0,0-2.92.56,1.81,1.81,0,0,0,0-1,2.59,2.59,0,0,0-1.66-1.38,4.26,4.26,0,0,0,.6-2.85.84.84,0,0,0-1.06-.81l-1,.15c-.21-5-1.67-9.86-3.1-14.57-.88-2.93-1.79-6-2.39-9-.19-.94-.35-1.93-.49-3,.1-.55.21-1.1.32-1.66a134.9,134.9,0,0,1,4.77-17.27,53.4,53.4,0,0,0,1.84-6.14c.17-.77.29-1.54.42-2.31s.29-1.76.49-2.61c.07-.32.15-.46.15-.5a1.68,1.68,0,0,1,.38.27c1.11.94,2.16,2,3.18,3,.69.69,1.39,1.39,2.1,2.06,2.49,2.33,5.19,4.54,7.92,6.68,1.24,1,2.49,1.93,3.72,2.88,3.44,2.64,7,5.38,10.19,8.24,9.19,8.24,16,15.81,20.72,23.17a79,79,0,0,1,6.83,12.08v0a30,30,0,0,1,2.18,7.39l-3.93.37-.87.08-1,.09a10.39,10.39,0,0,1-1.3-4.56,22.69,22.69,0,0,1,0-2.33,20.87,20.87,0,0,0,0-2.85c-.26-2.91-1.76-5.33-3.2-7.66l-.32-.53a94.69,94.69,0,0,0-8.32-11.5c-7-8.27-15.49-15.7-23.61-22.49l-.11-.08a2.38,2.38,0,0,0-1.14-.36l-.45-.63a26.12,26.12,0,0,0-2.55-3,.88.88,0,0,0-1.24,1.24,25.37,25.37,0,0,1,3.08,3.82c1.15,1.7,2.16,3.51,3.16,5.3l.19.34c4.77,8.54,9.86,17,15.13,25.27a37,37,0,0,0,5,6.59,39.36,39.36,0,0,0,3.52,3,32.15,32.15,0,0,1,3.71,3.19,15.76,15.76,0,0,1,4.16,8c-.42.1-.85.21-1.27.34a15.4,15.4,0,0,0-4.35,2.26,10.6,10.6,0,0,0-1.68,1.55l-.72-1.77a2.82,2.82,0,0,0-.84-1.24,2.51,2.51,0,0,0-2.69,0,7.36,7.36,0,0,0-3.16,3.09,7.5,7.5,0,0,0-.74,2c-.46,2.39,0,5.7,2,7.32a.89.89,0,0,0,.55.2.88.88,0,0,0,.55-1.56c-1.57-1.26-1.68-4-1.38-5.63a5,5,0,0,1,.49-1.39,5.51,5.51,0,0,1,2.47-2.49c.42-.21.75-.25.86-.17a1.6,1.6,0,0,1,.27.51l1.18,2.89s0,.05,0,.08a4.87,4.87,0,0,0-.34,1.21h0a4.52,4.52,0,0,0,.75,3.5.88.88,0,1,0,1.41-1.05,2.78,2.78,0,0,1-.46-2,3.88,3.88,0,0,1,.26-1,6.63,6.63,0,0,1,2.31-2.68,13.4,13.4,0,0,1,3.84-2,27.62,27.62,0,0,1,6.08-1h.1l7.62-.71H159a1.52,1.52,0,0,1,.1.32A48.46,48.46,0,0,1,161,168.79a29.7,29.7,0,0,1-1.27,9l-.58,1.3,1.42-.07a14.46,14.46,0,0,1,2.53.49c.71.18,1.48.37,2.22.51a7.7,7.7,0,0,1-7.23,5.66l-.55,0-.55.88.25.45c.46.82,5.54,1.47,6.42,1.47H164c.8,0,1.36,0,1.74.61A3.88,3.88,0,0,1,165.83,192.18ZM6.31,175.75a19,19,0,0,0,2,2.73,11.59,11.59,0,0,0-1.43.75A34.11,34.11,0,0,1,6.31,175.75Zm10.74-25.59,0-.46c-.25-3.29,1-6.36,2.13-9.06C22.31,133,34.57,118.32,36.4,116.4c.93-1,1.86-2.1,2.85-3.27.74-.89,1.51-1.8,2.29-2.67.25-.28.51-.6.76-.91a11.28,11.28,0,0,1,1.08-1.22l.08,0c-1,2.4-2,4.89-3,7.35-1.24,3.08-2.45,6.11-3.56,8.8-.52,1.24-1.16,2.87-1.87,4.67-2.07,5.28-4.92,12.51-6.4,14.54a16.81,16.81,0,0,1-3.34,3,27.72,27.72,0,0,0-2.5,2.06,14.51,14.51,0,0,0-4.56,8.78c-.39-.16-.79-.3-1.19-.43A33,33,0,0,0,17.05,150.16Zm130,2.05a12.51,12.51,0,0,0,1.18,4.68l-.72.11a17.63,17.63,0,0,0-4.61-8.82,36.2,36.2,0,0,0-3.9-3.37,36.56,36.56,0,0,1-3.37-2.83,36.13,36.13,0,0,1-4.73-6.29c-5.26-8.2-10.33-16.67-15.08-25.19l-.19-.34-1.31-2.31c7.41,6.26,15,13.05,21.3,20.53a91.39,91.39,0,0,1,8.16,11.28l.33.53c1.4,2.26,2.72,4.4,2.95,6.9a20.82,20.82,0,0,1,0,2.62C147,150.53,147,151.37,147.06,152.21Zm-114,15a.85.85,0,0,0,.59.44.87.87,0,0,0,1-.67c.07-.32.12-.64.16-1C34.27,166.44,33.67,166.85,33.07,167.21Zm74.51-9.55a2.38,2.38,0,0,0-2.59-.53l-1.33.32.27-.5a5.51,5.51,0,0,0,.74-2.35,1.71,1.71,0,0,0-1.76-1.93v1.75h0a.47.47,0,0,1,0,.12.34.34,0,0,1,0,.1,4.06,4.06,0,0,1-.54,1.5,24.09,24.09,0,0,1-1.25,2.15.88.88,0,0,0,.94,1.33l.85-.2.27-.06,2.23-.53a1.74,1.74,0,0,1,.82-.06.65.65,0,0,1-.06.42,3.2,3.2,0,0,1-1.06,1.28.87.87,0,0,0-.27,1.2.85.85,0,0,0,.74.41A.84.84,0,0,0,106,162a4.94,4.94,0,0,0,1.72-2A2.15,2.15,0,0,0,107.58,157.66Zm1.53-57a.88.88,0,0,0-1.24,1.24,25.37,25.37,0,0,1,3.08,3.82l0-.11c.1-.32.2-.63.31-.93s.22-.62.34-.91l0-.09A26.12,26.12,0,0,0,109.11,100.66Zm24.34,68.91c-1.57-1.26-1.68-4-1.38-5.63a5,5,0,0,1,.49-1.39l0,0-.06,0c-.2-.11-.38-.23-.57-.35l-.07,0-.2-.13c-.15-.1-.3-.2-.45-.32l-.09-.06a7.5,7.5,0,0,0-.74,2c-.46,2.39,0,5.7,2,7.32a.89.89,0,0,0,.55.2.88.88,0,0,0,.55-1.56Zm5.67-2.53a2.78,2.78,0,0,1-.46-2h-.13a1,1,0,0,1-.29,0l-.22-.06-.5-.12-.56-.16a4.52,4.52,0,0,0,.75,3.5.88.88,0,1,0,1.41-1.05Zm-106,.17a.85.85,0,0,0,.59.44.87.87,0,0,0,1-.67c.07-.32.12-.64.16-1C34.27,166.44,33.67,166.85,33.07,167.21Zm74.51-9.55a2.38,2.38,0,0,0-2.59-.53l-1.33.32.27-.5a5.51,5.51,0,0,0,.74-2.35,1.71,1.71,0,0,0-1.76-1.93v1.75h0a.47.47,0,0,1,0,.12.34.34,0,0,1,0,.1,4.06,4.06,0,0,1-.54,1.5,24.09,24.09,0,0,1-1.25,2.15.88.88,0,0,0,.94,1.33l.85-.2.27-.06,2.23-.53a1.74,1.74,0,0,1,.82-.06.65.65,0,0,1-.06.42,3.2,3.2,0,0,1-1.06,1.28.87.87,0,0,0-.27,1.2.85.85,0,0,0,.74.41A.84.84,0,0,0,106,162a4.94,4.94,0,0,0,1.72-2A2.15,2.15,0,0,0,107.58,157.66Zm1.53-57a.88.88,0,0,0-1.24,1.24,25.37,25.37,0,0,1,3.08,3.82l0-.11c.1-.32.2-.63.31-.93s.22-.62.34-.91l0-.09A26.12,26.12,0,0,0,109.11,100.66Zm24.34,68.91c-1.57-1.26-1.68-4-1.38-5.63a5,5,0,0,1,.49-1.39l0,0-.06,0c-.2-.11-.38-.23-.57-.35l-.07,0-.2-.13c-.15-.1-.3-.2-.45-.32l-.09-.06a7.5,7.5,0,0,0-.74,2c-.46,2.39,0,5.7,2,7.32a.89.89,0,0,0,.55.2.88.88,0,0,0,.55-1.56Zm5.67-2.53a2.78,2.78,0,0,1-.46-2h-.13a1,1,0,0,1-.29,0l-.22-.06-.5-.12-.56-.16a4.52,4.52,0,0,0,.75,3.5.88.88,0,1,0,1.41-1.05Zm-106,.17a.85.85,0,0,0,.59.44.87.87,0,0,0,1-.67c.07-.32.12-.64.16-1C34.27,166.44,33.67,166.85,33.07,167.21Zm74.51-9.55a2.38,2.38,0,0,0-2.59-.53l-1.33.32.27-.5a5.51,5.51,0,0,0,.74-2.35,1.71,1.71,0,0,0-1.76-1.93v1.75h0a.47.47,0,0,1,0,.12.34.34,0,0,1,0,.1,4.06,4.06,0,0,1-.54,1.5,24.09,24.09,0,0,1-1.25,2.15.88.88,0,0,0,.94,1.33l.85-.2.27-.06,2.23-.53a1.74,1.74,0,0,1,.82-.06.65.65,0,0,1-.06.42,3.2,3.2,0,0,1-1.06,1.28.87.87,0,0,0-.27,1.2.85.85,0,0,0,.74.41A.84.84,0,0,0,106,162a4.94,4.94,0,0,0,1.72-2A2.15,2.15,0,0,0,107.58,157.66Zm1.53-57a.88.88,0,0,0-1.24,1.24,25.37,25.37,0,0,1,3.08,3.82l0-.11c.1-.32.2-.63.31-.93s.22-.62.34-.91l0-.09A26.12,26.12,0,0,0,109.11,100.66Zm24.34,68.91c-1.57-1.26-1.68-4-1.38-5.63a5,5,0,0,1,.49-1.39l0,0-.06,0c-.2-.11-.38-.23-.57-.35l-.07,0-.2-.13c-.15-.1-.3-.2-.45-.32l-.09-.06a7.5,7.5,0,0,0-.74,2c-.46,2.39,0,5.7,2,7.32a.89.89,0,0,0,.55.2.88.88,0,0,0,.55-1.56Zm5.67-2.53a2.78,2.78,0,0,1-.46-2h-.13a1,1,0,0,1-.29,0l-.22-.06-.5-.12-.56-.16a4.52,4.52,0,0,0,.75,3.5.88.88,0,1,0,1.41-1.05Zm-106,.17a.85.85,0,0,0,.59.44.87.87,0,0,0,1-.67c.07-.32.12-.64.16-1C34.27,166.44,33.67,166.85,33.07,167.21Zm74.51-9.55a2.38,2.38,0,0,0-2.59-.53l-1.33.32.27-.5a5.51,5.51,0,0,0,.74-2.35,1.71,1.71,0,0,0-1.76-1.93v1.75h0a.47.47,0,0,1,0,.12.34.34,0,0,1,0,.1,4.06,4.06,0,0,1-.54,1.5,24.09,24.09,0,0,1-1.25,2.15.88.88,0,0,0,.94,1.33l.85-.2.27-.06,2.23-.53a1.74,1.74,0,0,1,.82-.06.65.65,0,0,1-.06.42,3.2,3.2,0,0,1-1.06,1.28.87.87,0,0,0-.27,1.2.85.85,0,0,0,.74.41A.84.84,0,0,0,106,162a4.94,4.94,0,0,0,1.72-2A2.15,2.15,0,0,0,107.58,157.66Zm1.53-57a.88.88,0,0,0-1.24,1.24,25.37,25.37,0,0,1,3.08,3.82l0-.11c.1-.32.2-.63.31-.93s.22-.62.34-.91l0-.09A26.12,26.12,0,0,0,109.11,100.66Zm24.34,68.91c-1.57-1.26-1.68-4-1.38-5.63a5,5,0,0,1,.49-1.39l0,0-.06,0c-.2-.11-.38-.23-.57-.35l-.07,0-.2-.13c-.15-.1-.3-.2-.45-.32l-.09-.06a7.5,7.5,0,0,0-.74,2c-.46,2.39,0,5.7,2,7.32a.89.89,0,0,0,.55.2.88.88,0,0,0,.55-1.56Zm5.67-2.53a2.78,2.78,0,0,1-.46-2h-.13a1,1,0,0,1-.29,0l-.22-.06-.5-.12-.56-.16a4.52,4.52,0,0,0,.75,3.5.88.88,0,1,0,1.41-1.05Z"/><path class="cls-2" d="M83.37,234.88c-2.52-.45-8.54-2.2-9.76-8.58a.87.87,0,0,0-1.71.33c1,5.24,5.07,8.88,11.16,10l.16,0a.88.88,0,0,0,.15-1.74Z"/><path class="cls-2" d="M98.63,225.6a.88.88,0,0,0-1,.72,10.14,10.14,0,0,1-8.49,8.48.87.87,0,0,0,.16,1.73h.17a12,12,0,0,0,9.88-9.91A.87.87,0,0,0,98.63,225.6Z"/><path class="cls-2" d="M135.43,206.59c-2.09-8.7-9.57-14.6-17.69-14.6v1.12h0V192h0a17.24,17.24,0,0,0-3.94.47c-9.51,2.3-15.25,12.34-12.82,22.43,2.1,8.7,9.57,14.6,17.69,14.6a17.24,17.24,0,0,0,3.94-.47C132.12,226.72,137.86,216.68,135.43,206.59Zm-3,12.48a15.7,15.7,0,0,1-3.73,4.87,15.28,15.28,0,0,1-6.46,3.38,15.62,15.62,0,0,1-3.53.42c-7.41,0-14.14-5.58-16-13.26a17.71,17.71,0,0,1,1-11.47c0,.06,5.56-11.72,17.25-8.9A17.29,17.29,0,0,1,133.73,207,17.58,17.58,0,0,1,132.39,219.07Z"/><path class="cls-2" d="M57.77,192.46a17.24,17.24,0,0,0-3.94-.47c-8.12,0-15.6,5.9-17.69,14.6C33.7,216.68,39.44,226.72,49,229a17.17,17.17,0,0,0,3.94.47c8.11,0,15.59-5.9,17.69-14.6C73,204.8,67.28,194.76,57.77,192.46Zm11.12,22c-1.85,7.68-8.58,13.26-16,13.26a15.62,15.62,0,0,1-3.53-.42,15.16,15.16,0,0,1-6.46-3.38A17.11,17.11,0,0,1,37.84,207a17.29,17.29,0,0,1,12.75-12.89c12-2.53,17.26,9,17.25,8.9A17.71,17.71,0,0,1,68.89,214.48Z"/><path class="cls-5" d="M80.75,39.31l-11.29,7.6,0-3.52,9.91-6.78,1.17.74a.35.35,0,0,1,.14.3Z"/><polygon class="cls-5" points="80.84 42.35 69.45 50 69.46 48.49 80.8 40.94 80.84 42.35"/></g></g></svg>