<svg xmlns="http://www.w3.org/2000/svg" viewBox="0 0 371.15 528.95"><defs><style>.cls-1{fill:#f98fba;}.cls-2{fill:#275cfd;}.cls-3{fill:#00e779;}</style></defs><g id="Layer_2" data-name="Layer 2"><g id="Layer_1-2" data-name="Layer 1"><path class="cls-1" d="M152.43,102.78c-.26-1.75,1.26-3.16,3-3.41a3.26,3.26,0,0,1,3.76,2.47,3,3,0,0,1-2.75,3.76C154.34,105.69,152.68,104.53,152.43,102.78Z"/><path class="cls-1" d="M200.39,125.58a5.21,5.21,0,0,1-4.53,4.51,5.52,5.52,0,0,1-5.42-4.43c-.33-2.13.29-3,1.61-3,.8,0,1.85.69,3.12.69,1.65,0,2.82-.77,3.67-.75C200.12,122.6,200.73,123.74,200.39,125.58Z"/><path class="cls-1" d="M180.1,130.07c-.38.4-1.84,1.87-2.45,2.45-3.1,3-9.68,10.53-14.35,10.53a3.59,3.59,0,0,1-1.59-.35c-4.58-2.21-4.77-15.74-2-22.71a.86.86,0,0,1,.82-.5h.07c3.23.2,14.11,4.16,19.45,9.2A1,1,0,0,1,180.1,130.07Z"/><path class="cls-2" d="M225.91,52.39V54.2c-1.71.46-3.46.95-5.26,1.51a4.26,4.26,0,0,1-3.16,2.11,12.81,12.81,0,0,1-2.15.15c-.39,0-.78,0-1.15,0l-.89.33s-1,.36-2.53,1.1c-.15.2-.29.41-.43.62s-.33.51-.49.73a14,14,0,0,0-1.6,3.15,2.11,2.11,0,0,1-.53.85,2,2,0,0,1-.77.37l-.45.14a14.84,14.84,0,0,0-2.36.88,5.39,5.39,0,0,0-1.59,1.14l.56.13A7.61,7.61,0,0,1,205,68a1.88,1.88,0,0,1,1.22,2.09,1.12,1.12,0,0,1-1.28.8l-.43-.05a13.24,13.24,0,0,0-3.43-.14c0,.1.2.21.41.35a2.44,2.44,0,0,1,.52.39,1.34,1.34,0,0,1,.07,1.74,1.88,1.88,0,0,1,.21.38c.62,1.54-.76,3.88-2,4.9a5.72,5.72,0,0,1-3.18,1.1h0a.88.88,0,0,1,0-1.75,3.94,3.94,0,0,0,2.08-.69c1.12-1,1.65-2.65,1.44-2.92,0,0-.12-.06-.37-.05,0,0-1.74.14-2.34.22l-1.71.24.82-1.53a5.81,5.81,0,0,0,.67-3.86,2,2,0,0,0-.54-.86c-.17.26-.38.58-.65.93a18.73,18.73,0,0,1-4.9,4.27h0l-.07,0-.17,0-.09,0h-.06l-.08,0h0l-.17,0-.07,0h0a54,54,0,0,0-9.18-3.51s0,0-.05,0h-.06a.71.71,0,0,1-.09-.07l-.15-.1a.64.64,0,0,1-.1-.13.34.34,0,0,1-.09-.14.44.44,0,0,1,0-.15.51.51,0,0,1,0-.17.5.5,0,0,1,0-.17.37.37,0,0,1,0-.11s0,0,0-.06,0,0,0-.06l.31-.7c.83-1.87,1.95-4.39,1.81-6.5a5.31,5.31,0,0,0-2,1.9l-1.64,2.73v-1a12,12,0,0,1-1.26-.12,1.88,1.88,0,0,1-1.32-.7.86.86,0,0,1-.12-.74,1.33,1.33,0,0,1,.47-.65c.2-.16.41-.31.62-.46a3.55,3.55,0,0,0,1.41-1.48.12.12,0,0,0,0-.07l-.11,0-1.37-.47c-.57-.19-.85-.59-.72-1a.88.88,0,0,1,.61-.53,12.81,12.81,0,0,1,1.62-.41c0-.34-.05-.67-.08-1a3.67,3.67,0,0,0-.49-.89,6.19,6.19,0,0,0-1.1-1,5.1,5.1,0,0,1-1.46-1.43c-.73-1.25-.38-2.74-.07-4.05l.07-.31c.37-1.6.6-3.79-.08-7.92-.47-1.54-.95-2.93-1.38-4.13V33.2a81.34,81.34,0,0,1,6.46,27.63,6.9,6.9,0,0,1,1.48-.92,1.44,1.44,0,0,1,1.68.14,1.51,1.51,0,0,1,.42.9c.41,2.61-.83,5.52-1.8,7.69A55.58,55.58,0,0,1,191,71.71,66,66,0,0,1,195.87,67a2.19,2.19,0,0,1,.14-.27l.34-.87.56.26a58.3,58.3,0,0,1,15.78-9.52A119,119,0,0,1,225.91,52.39Z"/><path class="cls-1" d="M156,110.89a5.69,5.69,0,0,1-6.44.71,5.17,5.17,0,0,1-1.62-6.55c1-1.91,2-2.24,3.09-1.49.66.47,1,1.64,2.05,2.39,1.33,1,2.79,1.08,3.45,1.6C157.56,108.33,157.45,109.69,156,110.89Z"/><path class="cls-1" d="M243.4,91.88c-.27.57-5.52,11.82-10.67,15.82a15.72,15.72,0,0,1-4.25.7c.15-.21.29-.43.44-.66,0,0,2.13-3.6,3.8-7.17A35.65,35.65,0,0,1,229.43,99,16.35,16.35,0,0,0,223.81,97a18.2,18.2,0,0,0-5.72-.06c0-.58,0-1.17,0-1.77A18.88,18.88,0,0,1,221.7,95a.47.47,0,0,1,0-.17,24.69,24.69,0,0,0,1.12-4.18c.61-3.12,1.19-6.07,5.61-9.68a252.76,252.76,0,0,0,22.22-18.33l.09-.07a5.39,5.39,0,0,1,2.94-1.21.88.88,0,1,1,0,1.75,2.15,2.15,0,0,0-.84.22,3.17,3.17,0,0,1,.75,1.89c.11,1.09-.47,2.56-1.28,4.59L251.5,72C249.87,76.25,246.05,86.15,243.4,91.88Z"/><path class="cls-3" d="M258.88,62.24c-.79,2.91-1.73,6.22-2.85,10.06-2,7.66-7.4,20-11.11,28.05h0a40.69,40.69,0,0,1-3.15,2.59c3.54-7.54,10.34-22.54,12.58-31.12,1.3-4.47,2.36-8.21,3.23-11.43A9.41,9.41,0,0,1,258.88,62.24Z"/><path class="cls-1" d="M152.29,19.8c0,.08-1.12,15.21-2.13,28.51-.79,9.89-3.74,11.71-5.9,13l-.45.28A12.13,12.13,0,0,1,145,64c-.51.33-1,.64-1.54.93-1.43-4.23-5.43-6.62-7.39-7.55-1.54-.79-3.27-1.88-4.24-2.51A43.86,43.86,0,0,1,128.71,59a15.69,15.69,0,0,0-2.78,5.16,13.76,13.76,0,0,1-2.31-8h0c.45-5.3,5.23-13.79,14.94-26.55,6-8.49,10.09-10.29,11.94-10.64a6.24,6.24,0,0,0-.16-1,16.48,16.48,0,0,1,1.66-.51A8.74,8.74,0,0,1,152.29,19.8Z"/><path class="cls-1" d="M191.51,119.12c-.25-1.74,1.26-3.15,3-3.41a3.27,3.27,0,0,1,3.76,2.47,3,3,0,0,1-2.74,3.76C193.42,122,191.76,120.87,191.51,119.12Z"/><path class="cls-2" d="M152.36,66.2l-.3-1.47-.88.15a13.72,13.72,0,0,0-5.49,1.73A11.61,11.61,0,0,0,145,64a12.13,12.13,0,0,0-1.23-2.41l.45-.28c2.16-1.32,5.11-3.14,5.9-13,1-13.3,2.13-28.43,2.13-28.51a8.74,8.74,0,0,0-.29-2.28,2.76,2.76,0,0,0-.81-1.43,2,2,0,0,0-1.52-.47.88.88,0,0,0-.78,1,.86.86,0,0,0,1,.77.25.25,0,0,1,.19,0,1.34,1.34,0,0,1,.3.63,6.24,6.24,0,0,1,.16,1c-1.85.35-6,2.15-11.94,10.64-9.71,12.76-14.49,21.25-14.94,26.55h0a7.39,7.39,0,0,0,0,.8,12.72,12.72,0,0,0,1.13,5.47,13,13,0,0,0-.78,7.2A12.05,12.05,0,0,0,125.09,73l-1,.06a22.48,22.48,0,0,1-3.22,0,1.43,1.43,0,0,0-1.24.54,1.52,1.52,0,0,0-.28,1.36,15.36,15.36,0,0,1,.63,3,5.25,5.25,0,0,0,5.11,4.87h.06a.87.87,0,0,0,0-1.74,3.52,3.52,0,0,1-3.48-3.3,15.49,15.49,0,0,0-.58-3,27,27,0,0,0,3.07-.07,11.35,11.35,0,0,1,2.33,0l2.21.32-1.41-1.74a10.39,10.39,0,0,1-1.44-9.21h0A15.69,15.69,0,0,1,128.71,59a43.86,43.86,0,0,0,3.16-4.13c1,.63,2.7,1.72,4.24,2.51,2,.93,6,3.32,7.39,7.55a9.83,9.83,0,0,1,.53,3.56L144,71.29l1.65-2.22c1.1-1.49,2.9-1.94,5.07-2.33.33,2.07.56,3.88-.79,5.83a.88.88,0,0,0,1.44,1C153.14,71,152.74,68.54,152.36,66.2Zm-9-6.35c-.21.12-.41.25-.6.38a18.53,18.53,0,0,0-5.86-4.39c-2.13-1.09-4.77-2.87-4.79-2.88l-.77-.52-.48.79a41.06,41.06,0,0,1-3.49,4.69,20.68,20.68,0,0,0-1.62,2.4,13.48,13.48,0,0,1-.41-3.31c0-7.09,11-21.56,14.64-26.34,5.36-7.6,9-9.43,10.49-9.86-.27,3.66-1.19,16.16-2,27.36C147.69,57.18,145.18,58.72,143.35,59.85Z"/><path class="cls-2" d="M253.71,61.34a5.39,5.39,0,0,0-2.94,1.21l-.09.07A252.76,252.76,0,0,1,228.46,81c-4.42,3.61-5,6.56-5.61,9.68a24.69,24.69,0,0,1-1.12,4.18.47.47,0,0,0,0,.17,18.88,18.88,0,0,0-3.59.16,10.83,10.83,0,0,0-1.11.21c0-.14,0-.26.06-.41.07-.59.11-1.1.14-1.58a15,15,0,0,1,.17-1.58l.19-1.06-1.08,0-.62,0a16.37,16.37,0,0,0-3.29,0,5,5,0,0,0-4.43,5.1.88.88,0,1,0,1.75,0,3.23,3.23,0,0,1,2.86-3.36,15,15,0,0,1,2.77,0l-.06.79c0,.46-.07.94-.14,1.51-.32,2.91-1.57,3.44-1.57,3.44a.87.87,0,0,0-.59,1.08.88.88,0,0,0,.84.63,1,1,0,0,0,.24,0,4,4,0,0,0,2.27-2.55,9.63,9.63,0,0,1,1.58-.4,18.2,18.2,0,0,1,5.72.06A16.35,16.35,0,0,1,229.43,99a35.65,35.65,0,0,0,3.29,1.53c-1.67,3.57-3.79,7.16-3.8,7.17-.15.23-.29.45-.44.66a10,10,0,0,1-7.6,4.63,3.09,3.09,0,0,0-.52.07l-2.09.52,1.87,1.08a24.16,24.16,0,0,1,2.82,2.16,11.94,11.94,0,0,1-2.46,2.06,2.84,2.84,0,0,1-3.13-.38.88.88,0,1,0-1.3,1.18,4.45,4.45,0,0,0,3.19,1.26,4.23,4.23,0,0,0,2.13-.55,13.14,13.14,0,0,0,3.48-3.18l.44-.63-.57-.52c-.05,0-.91-.83-1.9-1.62a12.11,12.11,0,0,0,7.34-5.47,6.54,6.54,0,0,0,2.55-1.31c5.15-4,10.4-15.25,10.67-15.82,2.65-5.73,6.47-15.63,8.1-19.86l.86-2.23c.81-2,1.39-3.5,1.28-4.59a3.17,3.17,0,0,0-.75-1.89,2.15,2.15,0,0,1,.84-.22.88.88,0,1,0,0-1.75Zm-3,7.81-.87,2.24c-1.63,4.21-5.43,14.08-8.06,19.75-1.95,4.23-6.43,12.21-10,15.11.87-1.58,2-3.74,2.94-5.84l.4-.9-.94-.29a25.13,25.13,0,0,1-4-1.74,18.13,18.13,0,0,0-6.16-2.24l-.61-.09a25.26,25.26,0,0,0,1.1-4.18c.58-2.93,1.08-5.46,5-8.63A252.41,252.41,0,0,0,251.23,64.5a.47.47,0,0,1,.34,0,1.3,1.3,0,0,1,.33.9A13,13,0,0,1,250.74,69.15Z"/><path class="cls-2" d="M116.66,138.05a4.49,4.49,0,0,0-3.31-1,.86.86,0,0,0-.84.9.85.85,0,0,0,.9.84,3.12,3.12,0,0,1,2,.49c.09.09.08.12.09.11a1.83,1.83,0,0,1-2,1.59.88.88,0,0,0,0,1.75h.06a3.56,3.56,0,0,0,3.71-3.24A1.9,1.9,0,0,0,116.66,138.05Z"/><path class="cls-2" d="M182.79,171.51a4.61,4.61,0,0,0,2.22,2.65.84.84,0,0,0,.46.13.87.87,0,0,0,.45-1.62,3,3,0,0,1-1.41-1.52c0-.13,0-.15,0-.14a1.85,1.85,0,0,1,2.54-.23.87.87,0,1,0,1-1.44,3.57,3.57,0,0,0-4.93.62A2,2,0,0,0,182.79,171.51Z"/><path class="cls-2" d="M160.51,98.41c-3.26-2.67-8.54-1.62-12.57,2.49a9.82,9.82,0,0,0-3.1,7.09,7.05,7.05,0,0,0,2.34,5.08,6.75,6.75,0,0,0,4.53,1.58,11.77,11.77,0,0,0,8.17-3.84,9.65,9.65,0,0,0,3.06-7.31A7,7,0,0,0,160.51,98.41Zm-1.16,11.87c-4.33,4.34-9.25,4.39-11.67,2.23a6.33,6.33,0,0,1-2.09-4.55,9.09,9.09,0,0,1,2.88-6.53,11.3,11.3,0,0,1,7.74-3.74A5.92,5.92,0,0,1,160,99a6.24,6.24,0,0,1,2.16,4.54A9,9,0,0,1,159.35,110.28Z"/><path class="cls-2" d="M195.64,113a6.94,6.94,0,0,0-5.25,2.08,9.7,9.7,0,0,0-2.71,7.45c.25,6.59,4.2,10.21,7.79,10.28h.13a7,7,0,0,0,5-2.14,9.75,9.75,0,0,0,2.54-7.3C203,117.6,199.84,113.23,195.64,113Zm4.46,17.14a6.25,6.25,0,0,1-4.62,1.92c-3.24-.06-6.82-3.43-7-9.56a9,9,0,0,1,2.49-6.88,6.21,6.21,0,0,1,4.67-1.87c3.8.23,6.68,4.28,6.83,9.64A9,9,0,0,1,200.1,130.12Z"/><path class="cls-2" d="M118.31,237a3.67,3.67,0,1,0,3.66,3.67A3.67,3.67,0,0,0,118.31,237Zm0,6.58a2.92,2.92,0,1,1,2.91-2.91A2.91,2.91,0,0,1,118.31,243.62Z"/><path class="cls-2" d="M106.81,230c-8.09-1.14-21.16,3.1-24.91,16.05a5.49,5.49,0,0,0,.66,5,5,5,0,0,0,4,2h.2c1.52,0,3.27-.41,5-4,3.4-5.89,7.06-8.39,13.07-8.92a13.37,13.37,0,0,1,1.57,0c.43,0,.83,0,1.1,0,2.7-.24,4.31-2.11,4.31-5C111.82,232.46,109.81,230.42,106.81,230Zm.63,9.32c-.25,0-.62,0-1,0a14.66,14.66,0,0,0-1.64,0c-6.28.56-10.11,3.17-13.66,9.31-1.67,3.34-3.18,3.58-4.56,3.56a4.32,4.32,0,0,1-3.39-1.66,4.88,4.88,0,0,1-.54-4.33c3.25-11.24,13.77-15.69,21.55-15.69a18.67,18.67,0,0,1,2.54.17c2.65.38,4.36,2.08,4.36,4.33C111.07,237.56,109.75,239.11,107.44,239.32Z"/><path class="cls-2" d="M132.41,252.49a28.75,28.75,0,1,0-28.75,29.44h.71a28.72,28.72,0,0,0,28-29.43Zm-9.19,19.32A27,27,0,1,1,103,226.2h.66a27,27,0,0,1,19.53,45.62Z"/><path class="cls-2" d="M133.51,221.88a43.24,43.24,0,1,0-29.86,74.54h1.07a43.25,43.25,0,0,0,28.79-74.53Zm.2,59.93a41.49,41.49,0,1,1-31-70.1h1a41.49,41.49,0,0,1,30,70.11Z"/><path class="cls-2" d="M370.94,425c-1.11-16.19-6.47-32-15.92-46.85-11.6-18.3-29.46-35.33-53.07-50.64l26.93-19.46-48.94.83,22.47-16.27-54.5,4c-.24-3.66-2.9-4.56-3-4.58-1.07-.45-2.26-.89-3.41-1.31-2.6-1-5.26-2-6.56-3,.75-3.05,1.15-5.23,1.32-6.21,4.29-1.07,34-8,63.12-1.18a1.85,1.85,0,0,0,1.92-2.88c-4.82-6.81-17.24-23.39-28.28-30-14.36-7.44-60.7-16.32-74.23-17.27a234.39,234.39,0,0,0-43.52-31.86c.54-.19.95-.35,1.21-.46a21.36,21.36,0,0,0,10.58,0c7.14-2.2,8.12-7.9,8.21-8.54.73-5.07-2.63-7.47-6-8a8.8,8.8,0,0,0-4.3.47c1-8.41-3.61-15.52-4.64-17,0-.73.05-1.76.05-2.77,6.27,7.09,12,12.94,12,13,2.82,2.94,9.09,8.61,15.54,8.61a10.19,10.19,0,0,0,5.34-1.48,12.59,12.59,0,0,0,5.63-9.47,3.94,3.94,0,0,0,.55-3.53l-.11-.24a3.68,3.68,0,0,0-2.34-1.41c.06-1.39-.11-3.1-1.27-3.52l-.27-.09-.28.08s-1.68.5-3.78,1a31.45,31.45,0,0,0-7.38-1.74,38.45,38.45,0,0,1-4.15-.78,49,49,0,0,1-15.76-7.35,87.88,87.88,0,0,0,23.17,3.36,48.54,48.54,0,0,0,8.16-.63c11.88-2.07,19.45-8.79,21.24-18.6a8.45,8.45,0,0,0,3.38.7,4.74,4.74,0,0,0,2.54-.61,2.4,2.4,0,0,0,.8-3l-.08-.17c-.37-.58-.78-1.16-1.18-1.73-.15-.19-.29-.39-.42-.58a8.16,8.16,0,0,0,5.11-.62,4.32,4.32,0,0,0,2.19-3.34,2.16,2.16,0,0,0-1.05-2l-.1-.06a30.07,30.07,0,0,1-4.09-2.12c6.69-2.45,12.36-8.13,17.31-17.34.17-.35,1.72-3.52,3.78-8h0C248.63,92.28,254,80,256,72.3c1.12-3.84,2.06-7.15,2.85-10.06,1.22-4.48,2.09-8,2.73-11,.45-1.08,1.73-5.71.37-7.87a2.38,2.38,0,0,0-2.11-1.15h0c-.95,0-1.89.52-3.43,1.39a53,53,0,0,1-7.55,3.59,87.55,87.55,0,0,1-9.9,2.33c-3.88.78-8.27,1.65-13.05,2.9a119,119,0,0,0-13.22,4.24,58.3,58.3,0,0,0-15.78,9.52l-.56-.26-.34.87a2.19,2.19,0,0,0-.14.27A66,66,0,0,0,191,71.71a55.58,55.58,0,0,0-7.91-3.07c1-2.17,2.21-5.08,1.8-7.69a1.51,1.51,0,0,0-.42-.9,1.44,1.44,0,0,0-1.68-.14,6.9,6.9,0,0,0-1.48.92,81.34,81.34,0,0,0-6.46-27.63c-.23-.54-.37-.83-.38-.85-.75-1.73-1.52-3.47-2.28-5.19-3.31-7.5-6.44-14.58-7.91-19.47a20,20,0,0,1-.46-3.93c-.05-1.4-.09-2.41-1.53-3.43-2.5-1.47-6,2.28-8.8,5.3l-1,1.09c-11,11.07-25.95,26.23-35.06,48.2-7.43,18.22-5.08,30.86-4,34.73a9,9,0,0,1-2.92-1.3c-1.32-1-2.47-1.39-3.42-1a2.65,2.65,0,0,0-1.45,2.12A14.36,14.36,0,0,0,109.11,99c-1.5.07-2.52.15-2.55.15a1.29,1.29,0,0,0-.92.54,4,4,0,0,0-.22,2.78c1,4,4.39,5.11,7.16,5.11a8.69,8.69,0,0,0,1-.06c-.72,6.16,2.27,15,7.44,21.72,5,6.45,12.84,12.09,20.27,16.18-9.17-2.48-15.28-4.59-18.2-6.3-3.87-2.36-9.31-5.54-12.64-6.37a15.73,15.73,0,0,0-1.8-2.42,1.91,1.91,0,0,0-1.52-.6,2,2,0,0,0-1.48.77c-.41.51-.93,1.19-1.35,1.78l-2.09-.09a2.11,2.11,0,0,0-1.85.91,5.79,5.79,0,0,0-1.12,3.58,16.46,16.46,0,0,0,0,7.34c.16.9,2,8.86,16.42,8.86h1.06c.93.1,12.24,1.3,23.18,1.7a61.24,61.24,0,0,1-6.76,4.19c-6.28,3.34-10.45,8.18-12.08,14a21.56,21.56,0,0,0-.11,10.9c-.48.15-1.2.35-2.08.54-4.67-1.23-9.86-2.34-14.37-3.16a10.91,10.91,0,0,1-2.45-9.34,10.14,10.14,0,0,1,.18-1,4.09,4.09,0,0,0,.6.07H103a5.48,5.48,0,0,0,5.47-5.37,5.48,5.48,0,0,0-5.38-5.58H103a5.31,5.31,0,0,0-1.84.32,5.48,5.48,0,0,0-2.1,9,5.63,5.63,0,0,0,1.56,1.11c-.06.26-.11.52-.15.77a13.13,13.13,0,0,0,1.57,9.65l-2.1-.34a163.69,163.69,0,0,0-38.72-1.5c-4.16.34-8.33.87-12.39,1.58a124.84,124.84,0,0,0-35,11.31,71.24,71.24,0,0,0-12.09,7.41l-.22.18-.07.29c-.06.21-5.24,21.83,4.79,51.46,1.23,3.63,2.64,7.22,4.18,10.69,10.05,22.81,27,44,50.4,63.09C66,329.24,81.9,340,104.54,349.05a206,206,0,0,0,22.18,7.4c8.06,11.25,39.49,45.89,53.3,54.27,11.36,6,32,7.94,40.32,8.52h.13a1.84,1.84,0,0,0,1.31-3.13c-20.83-21.23-30.41-50-31.81-54.46.79-.65,2.54-2.16,4.89-4.43a53.34,53.34,0,0,1,6.61,4.64l1.38,1.07a5.88,5.88,0,0,0,3.5,1.09,7.72,7.72,0,0,0,3.7-1c1.13-.69,2.25-1.46,3.36-2.29l10,43.8,10-25.85,17,40.94,8-31.3,22,29.29L277.86,394c26.1,10.58,42.69,24.5,49.31,41.37a47.4,47.4,0,0,1-1.47,37.43C311,505.6,262.82,525.83,202.89,524.23a1.15,1.15,0,0,0-1.19,1.08,1.12,1.12,0,0,0,1,1.2l1.87.21A297.29,297.29,0,0,0,239.78,529a221.26,221.26,0,0,0,36.8-2.94c39.92-6.8,68.47-24.86,84.85-53.66C361.55,472.15,372.83,452.61,370.94,425ZM100.3,167.87a3.68,3.68,0,0,1-1-2.65,3.73,3.73,0,0,1,3.72-3.66h.07a3.76,3.76,0,0,1,2.62,1.14,3.73,3.73,0,0,1-5.37,5.17ZM240.92,292.36c1.13.41,2.31.85,3.42,1.31,0,0,2.14.72,1.8,4.29,0,.06-.17,6-4.4,17.62a110.87,110.87,0,0,0-12.87-9.53,126.39,126.39,0,0,0,5.63-16.54A33.79,33.79,0,0,0,240.92,292.36Zm8.61,32.24c1.1,1,2.39,2.13,3.82,3.38,8.24,7.27,20.69,18.26,29.61,28.65h0c-11.39-1.37-50.17-10.89-70.41-22.32-19.63-11.18-37.83-35.08-42.12-43.16-.42-.79-1.53-2.89-.7-4.21a2.28,2.28,0,0,1,2.17-1.28,13.8,13.8,0,0,1,2.19.27c6.62,1.08,24.95,5.26,52.21,20.63C233.66,310.71,241.37,317.46,249.53,324.6Zm22.67-75.67c11,6.6,24,24.25,27.71,29.49a.1.1,0,0,1,0,.12c0,.06-.08,0-.1,0-29.22-6.8-59,0-63.82,1.16-8.88-19-21.81-34.88-35.13-47.67C216.47,233.66,258.74,242,272.2,248.93Zm-122-73.42a7,7,0,0,0-3.91-4.58c-1.51-.65-4.05-1-7.56,1a17.86,17.86,0,0,0-2.33,1.71,11.51,11.51,0,0,1,.18-2.07,10.06,10.06,0,0,1,4.85-7.15,13.15,13.15,0,0,1,10.94-.72c7.21,2.48,10.51,7.52,9.29,14.19a8.91,8.91,0,0,1-4.27,6.07c-2.63,1.55-6,1.8-9.67.75A10.4,10.4,0,0,0,150.19,175.51Zm30.21-11.16c1,.21,2.17.4,3.39.58,2.54.39,5.41.84,7.16,1.72l.3.15.31-.08c1.54-.4,2.89-.77,3.61-1a7.6,7.6,0,0,1,.05,2.39l-.11,1,1,0a2.18,2.18,0,0,1,1.73.61,2.13,2.13,0,0,1-.38,1.93l-.27.26v.37a10.86,10.86,0,0,1-4.8,8.3c-4.48,2.69-10.56.83-16.93-5.09a8.24,8.24,0,0,1,.89-8A7.47,7.47,0,0,1,180.4,164.35Zm14.78-8.27a43.62,43.62,0,0,1-6.06.57c-2.87-6.78.49-15.27,7.73-19.18,6.49-3.5,13.11-3.34,18.32.39C213.87,147.48,206.68,154.07,195.18,156.08Zm24.19-100a3.62,3.62,0,0,1-2,1,8,8,0,0,1-1.14.12C217.27,56.82,218.33,56.46,219.37,56.12Zm-10,3.91-.17.25a14.81,14.81,0,0,0-1.69,3.31,1.5,1.5,0,0,1-.32.56,1.44,1.44,0,0,1-.5.23l-.45.14a14.26,14.26,0,0,0-2.48.92,5.33,5.33,0,0,0-2.17,1.78l-.24.37.39.18a6.17,6.17,0,0,0,1.16.34,7.55,7.55,0,0,1,1.69.54,1.18,1.18,0,0,1,.81,1.23c0,.07-.08.3-.47.24l-.42,0c-2.3-.28-3.56-.34-4,0a.56.56,0,0,0-.23.38c-.11.6.39.92.75,1.16a2.19,2.19,0,0,1,.39.28.59.59,0,0,1,0,.72,2.35,2.35,0,0,0-1.33-.28l-1,.08a6.3,6.3,0,0,0,.19-3.8,3.73,3.73,0,0,0-.9-1.49A64.56,64.56,0,0,1,209.41,60ZM179.56,63.1v1.49a9.9,9.9,0,0,1-1.26-.14,1.11,1.11,0,0,1-.71-.35.16.16,0,0,1,0-.13c0-.09.13-.18.23-.27s.38-.29.58-.44a6.3,6.3,0,0,0,1.17-1C179.56,62.53,179.56,62.82,179.56,63.1Zm-.06-2.74-1.37-.47a.75.75,0,0,1-.18-.08l.07,0a11.54,11.54,0,0,1,1.43-.37C179.47,59.73,179.49,60.05,179.5,60.36ZM177,50.16a15.37,15.37,0,0,0,.37-3.82A73.53,73.53,0,0,1,179.15,56a8.56,8.56,0,0,0-1-.85A4.5,4.5,0,0,1,176.91,54c-.58-1-.27-2.26,0-3.49Zm-54.56,78c-4.26-5.52-7-12.56-7.18-18a15.45,15.45,0,0,1,6-6,12.68,12.68,0,0,1,10.22-1,16.14,16.14,0,0,1,9.47,8.51,16.67,16.67,0,0,1,1,11.73,13.57,13.57,0,0,1-7.33,8.65,12,12,0,0,1-8.36.36A41.75,41.75,0,0,1,122.44,128.2Zm-5.54,23h-.12c-14.38.42-15.72-7.11-15.77-7.42l0-.12a15.41,15.41,0,0,1,0-6.63l0-.15,0-.15a4.07,4.07,0,0,1,.81-2.56.37.37,0,0,1,.34-.15l3.08.14.27-.43c.41-.64,1.13-1.57,1.53-2.06a.24.24,0,0,1,.2-.11.23.23,0,0,1,.18.07,15.48,15.48,0,0,1,1.73,2.41l.2.34.39.08c3.06.62,9,4.14,11.76,5.81a9,9,0,0,1-.34,8.41,6.32,6.32,0,0,1-2.63,2.69Zm5.9,22.1c1.49-5.34,5.37-9.8,11.21-12.91a56.82,56.82,0,0,0,8.69-5.65l1.69,0h0a.88.88,0,0,0,0-1.75c-9.16-.13-19.69-1.05-24.65-1.53a7.61,7.61,0,0,0,2.06-2.44,10.06,10.06,0,0,0,.8-8.13c4,2.19,12.62,4.95,25.68,8.19l.83.21.46.19.82-.69-.27-1.05-.46-.11a83.19,83.19,0,0,1-22.33-14.12,15.13,15.13,0,0,0,2.8.29,11.31,11.31,0,0,0,4.78-1,14.32,14.32,0,0,0,7.73-9.12,17.44,17.44,0,0,0-1-12.25,16.72,16.72,0,0,0-9.92-8.92,13.42,13.42,0,0,0-10.82,1,16.43,16.43,0,0,0-5.61,5.13,13.41,13.41,0,0,1,.25-2v0a.75.75,0,0,0,0-.15,1.33,1.33,0,0,0,0-.2h0a.31.31,0,0,0,0-.1.72.72,0,0,0-.09-.2.57.57,0,0,0-.11-.11.46.46,0,0,0-.12-.12.89.89,0,0,0-.17-.08l-.13,0h-.38c-.25.06-6.18,1.35-7.36-3.53a5,5,0,0,1-.09-1.22c.64,0,2.2-.14,4.06-.21l2.17-.09-1.63-1.45s-4.56-4.1-4.33-9.53c0-.17.15-.57.37-.66s.54-.14,1.71.79c.12.08,2.88,2,5.29,1.69l1.08-.14-.38-1c-.05-.13-4.92-13.75,3.62-34.68,9-21.65,23.83-36.67,34.69-47.65.32-.33.67-.71,1-1.12,1.73-1.86,5.34-5.75,6.57-5,.66.47.68.7.73,2a21.6,21.6,0,0,0,.52,4.31c1.51,5.06,4.66,12.19,8,19.74.76,1.72,1.53,3.45,2.29,5.2,0,0,.88,1.86,2,4.87.43,1.2.91,2.59,1.38,4.13.68,4.13.45,6.32.08,7.92l-.07.31c-.31,1.31-.66,2.8.07,4.05a5.1,5.1,0,0,0,1.46,1.43,6.19,6.19,0,0,1,1.1,1,3.67,3.67,0,0,1,.49.89c0,.34.06.67.08,1a12.81,12.81,0,0,0-1.62.41.88.88,0,0,0-.61.53c-.13.41.15.81.72,1l1.37.47.11,0a.12.12,0,0,1,0,.07,3.55,3.55,0,0,1-1.41,1.48c-.21.15-.42.3-.62.46a1.33,1.33,0,0,0-.47.65.86.86,0,0,0,.12.74,1.88,1.88,0,0,0,1.32.7,12,12,0,0,0,1.26.12v1l1.64-2.73a5.31,5.31,0,0,1,2-1.9c.14,2.11-1,4.63-1.81,6.5l-.31.7s0,0,0,.06,0,0,0,.06a.37.37,0,0,0,0,.11.5.5,0,0,0,0,.17.51.51,0,0,0,0,.17.44.44,0,0,0,0,.15.34.34,0,0,0,.09.14.64.64,0,0,0,.1.13l.15.1a.71.71,0,0,0,.09.07h.06s0,0,.05,0a54,54,0,0,1,9.18,3.51h0l.07,0,.17,0h0l.08,0h.06l.09,0,.17,0,.07,0h0a18.73,18.73,0,0,0,4.9-4.27c.27-.35.48-.67.65-.93a2,2,0,0,1,.54.86,5.81,5.81,0,0,1-.67,3.86l-.82,1.53,1.71-.24c.6-.08,2.34-.22,2.34-.22.25,0,.35,0,.37.05.21.27-.32,1.95-1.44,2.92a3.94,3.94,0,0,1-2.08.69.88.88,0,0,0,0,1.75h0a5.72,5.72,0,0,0,3.18-1.1c1.19-1,2.57-3.36,2-4.9a1.88,1.88,0,0,0-.21-.38,1.34,1.34,0,0,0-.07-1.74,2.44,2.44,0,0,0-.52-.39c-.21-.14-.37-.25-.41-.35a13.24,13.24,0,0,1,3.43.14l.43.05a1.12,1.12,0,0,0,1.28-.8A1.88,1.88,0,0,0,205,68a7.61,7.61,0,0,0-1.84-.6l-.56-.13a5.39,5.39,0,0,1,1.59-1.14,14.84,14.84,0,0,1,2.36-.88l.45-.14a2,2,0,0,0,.77-.37,2.11,2.11,0,0,0,.53-.85,14,14,0,0,1,1.6-3.15c.16-.22.33-.47.49-.73s.28-.42.43-.62c1.55-.74,2.49-1.09,2.53-1.1l.89-.33c.37,0,.76,0,1.15,0a12.81,12.81,0,0,0,2.15-.15,4.26,4.26,0,0,0,3.16-2.11c1.8-.56,3.55-1.05,5.26-1.51,4.91-1.3,9.42-2.2,13.39-3a84.83,84.83,0,0,0,10.16-2.41,54.19,54.19,0,0,0,7.8-3.7,7.8,7.8,0,0,1,2.59-1.17.58.58,0,0,1,.64.33c.84,1.33,0,5.32-.51,6.29l-.06.2c-.58,2.71-1.33,5.81-2.35,9.65-.87,3.22-1.93,7-3.23,11.43-2.24,8.58-9,23.58-12.58,31.12-1.3,2.78-2.16,4.55-2.19,4.61-5.16,9.6-10.84,15-17.85,17l-1.53.42,1.17,1.07a23.34,23.34,0,0,0,5.77,3.35.47.47,0,0,1,.18.42,2.54,2.54,0,0,1-1.29,1.85c-2.33,1.26-5.79,0-5.83-.05l-2.05-.78,1,2a18.32,18.32,0,0,0,1.66,2.6c.37.51.74,1,1.07,1.56s0,.78-.16.87c-1,.67-3.95.16-4.64-.46l0,0c.05-.42.1-.83.12-1.26a.87.87,0,0,0-.82-.92.92.92,0,0,0-.93.83c0,.34-.06.67-.09,1-5.4-3.67-12.16-3.76-18.77-.19-7.48,4-11,12.77-8.17,19.86a82.29,82.29,0,0,1-28-4.74l-1.72-.65-1.53-.57a.87.87,0,1,0-.63,1.63l1.55.58.28.11a.71.71,0,0,0,.09.07,39.86,39.86,0,0,1,4.73,3.33,50.13,50.13,0,0,0,16.07,7.6,8.75,8.75,0,0,0-3.38,3,9.12,9.12,0,0,0-1.43,7.3c-.2-.21-.41-.41-.62-.62s-6.6-6.77-13.34-14.5c0-.06,0-.15,0-.2a.87.87,0,0,0-1.74.18c.09.81.07,4.21,0,5.73l0,.32.2.25a24.48,24.48,0,0,1,1.82,3,15.63,15.63,0,0,0-8-5.6,13.92,13.92,0,0,0-11.57.79,10.84,10.84,0,0,0-5.21,7.66,11.2,11.2,0,0,0-.16,2.87c-1.71,1.64-3.49,4-3.54,6.88a.86.86,0,0,0,.85.89h0a.88.88,0,0,0,.88-.86c.08-4.39,5.67-7.74,5.72-7.77,2.3-1.3,4.32-1.6,6-.88a5.27,5.27,0,0,1,2.89,3.38c1.36,5.91-4.58,10-4.71,10a8.4,8.4,0,0,1-6.67,1.73.87.87,0,1,0-.4,1.7,8.27,8.27,0,0,0,1.8.17,10,10,0,0,0,6.3-2.18,14.37,14.37,0,0,0,2.35-2.05,16.14,16.14,0,0,0,4.77.77,11.35,11.35,0,0,0,5.83-1.5,9.69,9.69,0,0,0,4.63-6.58,14.08,14.08,0,0,0,.09-4.7A19.87,19.87,0,0,1,163,183l-.4,1.93,1.7-1A8.1,8.1,0,0,1,169,183c1.59.26,5.23,1.37,4.56,6-.08.53-.89,5.22-7,7.1a19.3,19.3,0,0,1-9.82-.06l-.34-.11-.31.14c-.2.09-20,8.94-31.42-7.81A19.88,19.88,0,0,1,122.8,173.25Zm-9.17,11.47A15.11,15.11,0,0,1,108,183.5C109.85,183.87,111.75,184.28,113.63,184.72ZM3,200.25C5.09,198.66,21,187,48.6,182.17A74.76,74.76,0,0,1,7.68,250C-1.34,222.93,2.46,202.86,3,200.25Zm4.91,50.43A75.54,75.54,0,0,0,49.35,182c3.8-.65,7.7-1.15,11.6-1.48,0,.75.07,1.53.09,2.36a82.47,82.47,0,0,1-49.23,77.72C10.38,257.4,9.08,254.06,7.93,250.68ZM220.55,417.44a.08.08,0,0,1-.09.05c-6.42-.44-28.25-2.35-39.58-8.29-13-7.87-41.86-39.44-51.46-52a180.43,180.43,0,0,0,44.51,5.78q7.29,0,14.4-.66C189.9,367.24,199.61,396,220.55,417.44ZM188.61,360.5c-26.72,2.54-55.56-2-83.42-13.08-22.43-8.93-38.13-19.58-43.31-24-23.08-18.79-39.81-39.68-49.76-62.11A83.23,83.23,0,0,0,61.79,182.9c0-.85,0-1.63-.1-2.4a162.07,162.07,0,0,1,38,1.51c1.24.19,2.59.41,4,.67a12.32,12.32,0,0,0,1.34,1.18,16.21,16.21,0,0,0,9.24,2.63,24,24,0,0,0,4.64-.47c1.09.29,2.16.59,3.17.89a18.26,18.26,0,0,0,1.15,2.3,24.08,24.08,0,0,0,20.79,11,34.46,34.46,0,0,0,9-1.25c17.81,9.89,61,37.48,81.61,81.91a115.52,115.52,0,0,1-7.26,24.26l-.21-.12c-27.49-15.51-46.07-19.73-52.77-20.83-2.41-.42-4.49-.78-6.13,1.81-1.38,2.18.09,4.93.63,6,4.3,8.11,22.37,31.84,42,43.39A122.06,122.06,0,0,1,188.61,360.5Zm20.54,1a5.11,5.11,0,0,1-5.26,0l-1.35-1a60.29,60.29,0,0,0-6.37-4.54,127.1,127.1,0,0,0,16.22-19.72,128.38,128.38,0,0,0,15,6.86C221.31,351.7,215.35,357.75,209.15,361.54ZM359.92,471.47c-16.12,28.34-44.26,46.11-83.63,52.81-24.44,4.16-47.57,3-61.77,1.73,24.34-.51,46.88-4.7,65.76-12.26,23.13-9.26,39.39-23.19,47-40.27a49.14,49.14,0,0,0,1.51-38.8c-6.92-17.63-24.3-32.06-51.64-42.9l-1.35-.53L278,411.5l-20.36-27.13L250,414.12,233.34,374l-9.5,24.59-8.9-39A76.32,76.32,0,0,0,229,343.73c20.32,7.79,45,13.59,53.72,14.64H283a1.7,1.7,0,0,0,1.52-.91,1.74,1.74,0,0,0-.21-2c-9-10.5-21.48-21.53-29.76-28.84l-3.82-3.38c-2.54-2.23-5-4.42-7.51-6.51,4-11,4.63-17,4.71-18.41l48.51-3.54-22,15.91,48.93-.83-24.5,17.71,1.08.69c29.86,19.14,66.11,51.46,69.26,96.74C371.07,452.12,360,471.27,359.92,471.47Z"/><path class="cls-2" d="M180,128.69c-5.34-5-16.22-9-19.45-9.2h-.07a.86.86,0,0,0-.82.5c-2.76,7-2.57,20.5,2,22.71a3.59,3.59,0,0,0,1.59.35c4.67,0,11.25-7.57,14.35-10.53.61-.58,2.07-2.05,2.45-2.45A1,1,0,0,0,180,128.69Zm-3.6,2.56c-.52.5-1.11,1.1-1.79,1.79-2.86,2.89-8.17,8.26-11.35,8.26a1.84,1.84,0,0,1-.83-.17c-3.09-1.5-3.82-12.85-1.4-19.82,3.4.55,12.34,4,17.2,8.13C177.68,130,176.85,130.86,176.44,131.25Z"/><path class="cls-1" d="M142.12,176.68a1.27,1.27,0,0,1-.62.18h-.14a.93.93,0,0,1-.66-.41,1.08,1.08,0,0,1-.12-.78,1,1,0,0,1,.46-.72,1.13,1.13,0,0,1,1.49.37A1,1,0,0,1,142.12,176.68Z"/><path class="cls-1" d="M145,174.78a.88.88,0,0,1-.25.74,1.21,1.21,0,0,1-.7.36h-.17a1,1,0,0,1-1-.81,1.13,1.13,0,0,1,.94-1.21A1.12,1.12,0,0,1,145,174.78Z"/><path class="cls-1" d="M146.86,178.72a2.19,2.19,0,0,1-2.23,2.33h-.31a2.75,2.75,0,0,1-1.89-.68,2,2,0,0,1-.65-1.56,2.3,2.3,0,0,1,2.27-2.27,2.71,2.71,0,0,1,2.07.61A2.17,2.17,0,0,1,146.86,178.72Z"/><path class="cls-1" d="M147.42,175.8a1,1,0,0,1-.91.54,1.22,1.22,0,0,1-.45-.08,1,1,0,0,1-.64-1.28,1.14,1.14,0,0,1,1.41-.6A1.14,1.14,0,0,1,147.42,175.8Z"/><path class="cls-1" d="M168.53,185.77a1.19,1.19,0,0,1-.73.49l-.26,0a1.13,1.13,0,0,1-.6-.17.9.9,0,0,1-.39-.56,1.13,1.13,0,0,1,.14-.77,1.07,1.07,0,0,1,.69-.52,1,1,0,0,1,.78.16,1.19,1.19,0,0,1,.5.68A.89.89,0,0,1,168.53,185.77Z"/><path class="cls-1" d="M171.18,185.6a.9.9,0,0,1-.4.56,1.13,1.13,0,0,1-.87.15,1.13,1.13,0,0,1-.74-.49.9.9,0,0,1-.14-.67,1.13,1.13,0,0,1,1.29-.82,1,1,0,0,1,.69.5A1,1,0,0,1,171.18,185.6Z"/><path class="cls-1" d="M170.75,190.31a1.94,1.94,0,0,1-1.77.95,3.33,3.33,0,0,1-.86-.11,2.61,2.61,0,0,1-1.66-1.31,1.88,1.88,0,0,1,0-1.68,2.35,2.35,0,0,1,1.42-1.18,2.43,2.43,0,0,1,1.92.19,2.21,2.21,0,0,1,.91,3.14Z"/><path class="cls-1" d="M172.82,187.61a.84.84,0,0,1-.66.28h0a1.08,1.08,0,0,1-.72-.3,1,1,0,0,1-.17-1.42,1.14,1.14,0,0,1,1.53-.08A1.12,1.12,0,0,1,172.82,187.61Z"/><path class="cls-2" d="M123.49,232.39a28.74,28.74,0,1,0-19.84,49.55h.7a28.74,28.74,0,0,0,19.14-49.54ZM91.1,248.7c-1.67,3.34-3.17,3.59-4.57,3.57a4.37,4.37,0,0,1-3.39-1.67,4.88,4.88,0,0,1-.53-4.33c3.25-11.24,13.77-15.69,21.54-15.69a18.67,18.67,0,0,1,2.54.17c2.65.38,4.37,2.08,4.37,4.33,0,2.49-1.33,4-3.63,4.25-.26,0-.63,0-1,0s-1.15,0-1.64,0C98.47,240,94.65,242.56,91.1,248.7Zm27.19-5.07a2.92,2.92,0,1,1,2.92-2.91A2.91,2.91,0,0,1,118.29,243.63Z"/><path class="cls-2" d="M335.61,391c-13.1-22.07-43-44.9-48.39-47.95l11.66-3.38-26.29-7.57,20.9-9.26-34.06-5.42,11.13-8.15-24.74-.54a51.19,51.19,0,0,0,2-10.31l8.08-.59-2.38-1.58-5.67.41a5.26,5.26,0,0,0-1.92-4,3.7,3.7,0,0,0-1-.6c-1.08-.45-2.27-.89-3.42-1.31-2.6-1-5.26-2-6.56-3,.27-1.08.49-2.05.67-2.9,0-.16.07-.31.1-.45l-1.57-1c-.05.23-.1.48-.15.74-.45,2.09-1.15,5-2.21,8.6-.75,2.54-1.69,5.38-2.84,8.44-.5,1.32-1,2.69-1.62,4.08l-.2-.12q-3.47-1.95-6.73-3.68l-1,1.48c2.21,1.16,4.5,2.4,6.85,3.73a101.81,101.81,0,0,1,14.85,10.8l.36.3,1,.84c1.67,1.42,3.36,2.89,5.06,4.37l2,1.73c1.1,1,2.39,2.12,3.81,3.37,8.24,7.28,20.7,18.27,29.62,28.66h0c-7.75-.94-28.23-5.66-46.9-12.19h0c-1.17-.41-2.33-.82-3.49-1.25l-.36-.13c-1.1-.41-2.2-.82-3.28-1.24l-.26-.1c-.71-.29-1.43-.56-2.13-.85a119.26,119.26,0,0,1-14-6.56,80.48,80.48,0,0,1-9.68-6.56l-1,1.45a85.32,85.32,0,0,0,9,6.16c-1.54,2.31-3.1,4.48-4.66,6.51-1.82,2.37-3.63,4.55-5.36,6.52a125.27,125.27,0,0,1-9.21,9.46l1.5,1q.8-.74,1.71-1.62a47.08,47.08,0,0,1,6,4.17l.61.47c.48.37.93.73,1.39,1.07a5.85,5.85,0,0,0,3.49,1.09,7.73,7.73,0,0,0,3.71-1c1.12-.69,2.24-1.46,3.35-2.29l3,13.21,1.34-2-2.83-12.38a58.31,58.31,0,0,0,5.75-5.4L224,374.33l9-15.56,12.85,24.68,5.36-23,22.4,22.3-2.85-15.3c27,4.86,51.51,26.74,51.51,26.74C335,404.64,342,415.05,345.9,424.3,346.48,414.32,340.3,398.84,335.61,391Zm-92.45-74.17c.29-.77.55-1.52.81-2.25a22.56,22.56,0,0,1-.79,2.27Z"/><path class="cls-2" d="M108.46,165.39a5.48,5.48,0,0,1-5.47,5.37h-.11a4.09,4.09,0,0,1-.6-.07,10.14,10.14,0,0,0-.18,1,7.72,7.72,0,0,1-1.65-.75c0-.25.09-.51.15-.77A5.63,5.63,0,0,1,99,169.09a5.47,5.47,0,0,1-.61-6.83,7.12,7.12,0,0,1,2.71-2.13,5.31,5.31,0,0,1,1.84-.32h.1a5.48,5.48,0,0,1,5.38,5.58Z"/></g></g></svg>