<svg xmlns="http://www.w3.org/2000/svg" viewBox="0 0 466.97 528.95"><defs><style>.cls-1{fill:#f98fba;}.cls-2{fill:#275cfd;}.cls-3{fill:#00e779;}</style></defs><g id="Layer_2" data-name="Layer 2"><g id="Layer_1-2" data-name="Layer 1"><path class="cls-1" d="M228.64,102.78c-.26-1.75,1.26-3.16,3-3.41a3.26,3.26,0,0,1,3.76,2.47,3,3,0,0,1-2.75,3.76C230.55,105.69,228.89,104.53,228.64,102.78Z"/><path class="cls-1" d="M276.6,125.58a5.21,5.21,0,0,1-4.53,4.51,5.52,5.52,0,0,1-5.42-4.43c-.33-2.13.29-3,1.61-3,.8,0,1.85.69,3.12.69,1.65,0,2.82-.77,3.67-.75C276.33,122.6,276.94,123.74,276.6,125.58Z"/><path class="cls-1" d="M256.31,130.07c-.38.4-1.84,1.87-2.45,2.45-3.1,3-9.68,10.53-14.35,10.53a3.59,3.59,0,0,1-1.59-.35c-4.58-2.21-4.77-15.74-2-22.71a.86.86,0,0,1,.82-.5h.07c3.23.2,14.11,4.16,19.45,9.2A1,1,0,0,1,256.31,130.07Z"/><path class="cls-2" d="M302.12,52.39V54.2c-1.71.46-3.46.95-5.26,1.51a4.26,4.26,0,0,1-3.16,2.11,12.81,12.81,0,0,1-2.15.15c-.39,0-.78,0-1.15,0l-.89.33s-1,.36-2.53,1.1c-.15.2-.29.41-.43.62s-.33.51-.49.73a14,14,0,0,0-1.6,3.15,2.11,2.11,0,0,1-.53.85,2,2,0,0,1-.77.37l-.45.14a14.84,14.84,0,0,0-2.36.88,5.39,5.39,0,0,0-1.59,1.14l.56.13a7.61,7.61,0,0,1,1.84.6,1.88,1.88,0,0,1,1.22,2.09,1.12,1.12,0,0,1-1.28.8l-.43-.05a13.24,13.24,0,0,0-3.43-.14c0,.1.2.21.41.35a2.44,2.44,0,0,1,.52.39,1.34,1.34,0,0,1,.07,1.74,1.88,1.88,0,0,1,.21.38c.62,1.54-.76,3.88-1.95,4.9a5.72,5.72,0,0,1-3.18,1.1h0a.88.88,0,0,1,0-1.75,3.94,3.94,0,0,0,2.08-.69c1.12-1,1.65-2.65,1.44-2.92,0,0-.12-.06-.37-.05,0,0-1.74.14-2.34.22l-1.71.24.82-1.53a5.81,5.81,0,0,0,.67-3.86,2,2,0,0,0-.54-.86c-.17.26-.38.58-.65.93a18.73,18.73,0,0,1-4.9,4.27h0l-.07,0-.17,0-.09,0h-.06l-.08,0h0l-.17,0-.07,0h0a54,54,0,0,0-9.18-3.51s0,0-.05,0h-.06a.71.71,0,0,1-.09-.07l-.15-.1a.64.64,0,0,1-.1-.13.34.34,0,0,1-.09-.14.44.44,0,0,1,0-.15.51.51,0,0,1,0-.17.5.5,0,0,1,0-.17.37.37,0,0,1,0-.11s0,0,0-.06,0,0,0-.06l.31-.7c.83-1.87,1.95-4.39,1.81-6.5a5.31,5.31,0,0,0-2,1.9l-1.64,2.73v-1a12,12,0,0,1-1.26-.12,1.88,1.88,0,0,1-1.32-.7.86.86,0,0,1-.12-.74,1.33,1.33,0,0,1,.47-.65c.2-.16.41-.31.62-.46a3.55,3.55,0,0,0,1.41-1.48.12.12,0,0,0,0-.07l-.11,0-1.37-.47c-.57-.19-.85-.59-.72-1a.88.88,0,0,1,.61-.53,12.81,12.81,0,0,1,1.62-.41c0-.34-.05-.67-.08-1a3.67,3.67,0,0,0-.49-.89,6.19,6.19,0,0,0-1.1-1,5.1,5.1,0,0,1-1.46-1.43c-.73-1.25-.38-2.74-.07-4.05l.07-.31c.37-1.6.6-3.79-.08-7.92-.47-1.54-1-2.93-1.38-4.13V33.2a81.34,81.34,0,0,1,6.46,27.63,6.9,6.9,0,0,1,1.48-.92,1.44,1.44,0,0,1,1.68.14,1.51,1.51,0,0,1,.42.9c.41,2.61-.83,5.52-1.8,7.69a55.58,55.58,0,0,1,7.91,3.07A66,66,0,0,1,272.08,67a2.19,2.19,0,0,1,.14-.27l.34-.87.56.26a58.3,58.3,0,0,1,15.78-9.52A119,119,0,0,1,302.12,52.39Z"/><path class="cls-1" d="M232.22,110.89a5.69,5.69,0,0,1-6.44.71,5.17,5.17,0,0,1-1.62-6.55c1-1.91,2-2.24,3.09-1.49.66.47,1,1.64,2.05,2.39,1.33,1,2.79,1.08,3.45,1.6C233.77,108.33,233.66,109.69,232.22,110.89Z"/><path class="cls-1" d="M319.61,91.88c-.27.57-5.52,11.82-10.67,15.82a15.72,15.72,0,0,1-4.25.7c.15-.21.29-.43.44-.66,0,0,2.13-3.6,3.8-7.17A35.65,35.65,0,0,1,305.64,99,16.35,16.35,0,0,0,300,97a18.2,18.2,0,0,0-5.72-.06c0-.58,0-1.17,0-1.77a18.88,18.88,0,0,1,3.59-.16.47.47,0,0,1,0-.17,24.69,24.69,0,0,0,1.12-4.18c.61-3.12,1.19-6.07,5.61-9.68a252.76,252.76,0,0,0,22.22-18.33l.09-.07a5.39,5.39,0,0,1,2.94-1.21.88.88,0,1,1,0,1.75,2.15,2.15,0,0,0-.84.22,3.17,3.17,0,0,1,.75,1.89c.11,1.09-.47,2.56-1.28,4.59L327.71,72C326.08,76.25,322.26,86.15,319.61,91.88Z"/><path class="cls-3" d="M335.09,62.24c-.79,2.91-1.73,6.22-2.85,10.06-2,7.66-7.4,20-11.11,28.05h0A40.69,40.69,0,0,1,318,103c3.54-7.54,10.34-22.54,12.58-31.12,1.3-4.47,2.36-8.21,3.23-11.43A9.41,9.41,0,0,1,335.09,62.24Z"/><path class="cls-1" d="M228.5,19.8c0,.08-1.12,15.21-2.13,28.51-.79,9.89-3.74,11.71-5.9,13l-.45.28A12.13,12.13,0,0,1,221.25,64c-.51.33-1,.64-1.54.93-1.43-4.23-5.43-6.62-7.39-7.55-1.54-.79-3.27-1.88-4.24-2.51A43.86,43.86,0,0,1,204.92,59a15.69,15.69,0,0,0-2.78,5.16,13.76,13.76,0,0,1-2.31-8h0c.45-5.3,5.23-13.79,14.94-26.55,6-8.49,10.09-10.29,11.94-10.64a6.24,6.24,0,0,0-.16-1,16.48,16.48,0,0,1,1.66-.51A8.74,8.74,0,0,1,228.5,19.8Z"/><path class="cls-1" d="M267.72,119.12c-.25-1.74,1.26-3.15,3-3.41a3.27,3.27,0,0,1,3.76,2.47,3,3,0,0,1-2.74,3.76C269.63,122,268,120.87,267.72,119.12Z"/><path class="cls-2" d="M228.56,66.2l-.3-1.47-.88.15a13.72,13.72,0,0,0-5.49,1.73,11.61,11.61,0,0,0-.65-2.58A12.13,12.13,0,0,0,220,61.62l.45-.28c2.16-1.32,5.11-3.14,5.9-13,1-13.3,2.13-28.43,2.13-28.51a8.74,8.74,0,0,0-.29-2.28,2.76,2.76,0,0,0-.81-1.43,2,2,0,0,0-1.52-.47.88.88,0,0,0-.78,1,.86.86,0,0,0,1,.77.25.25,0,0,1,.19,0,1.34,1.34,0,0,1,.3.63,6.24,6.24,0,0,1,.16,1c-1.85.35-6,2.15-11.94,10.64-9.71,12.76-14.49,21.25-14.94,26.55h0a7.39,7.39,0,0,0,0,.8,12.72,12.72,0,0,0,1.13,5.47,13,13,0,0,0-.78,7.2A12.05,12.05,0,0,0,201.29,73l-1,.06a22.48,22.48,0,0,1-3.22,0,1.43,1.43,0,0,0-1.24.54,1.52,1.52,0,0,0-.28,1.36,15.36,15.36,0,0,1,.63,3,5.25,5.25,0,0,0,5.11,4.87h.06a.87.87,0,0,0,.05-1.74,3.52,3.52,0,0,1-3.48-3.3,15.49,15.49,0,0,0-.58-3,27,27,0,0,0,3.07-.07,11.35,11.35,0,0,1,2.33,0l2.21.32-1.41-1.74a10.39,10.39,0,0,1-1.44-9.21h0A15.69,15.69,0,0,1,204.91,59a43.86,43.86,0,0,0,3.16-4.13c1,.63,2.7,1.72,4.24,2.51,2,.93,6,3.32,7.39,7.55a9.83,9.83,0,0,1,.53,3.56l-.07,2.77,1.65-2.22c1.1-1.49,2.9-1.94,5.07-2.33.33,2.07.56,3.88-.79,5.83a.88.88,0,1,0,1.44,1C229.34,71,228.94,68.54,228.56,66.2Zm-9-6.35c-.21.12-.41.25-.6.38a18.53,18.53,0,0,0-5.86-4.39C211,54.75,208.32,53,208.3,53l-.77-.52-.48.79a41.06,41.06,0,0,1-3.49,4.69,20.68,20.68,0,0,0-1.62,2.4,13.48,13.48,0,0,1-.41-3.31c0-7.09,11-21.56,14.64-26.34,5.36-7.6,9-9.43,10.49-9.86-.27,3.66-1.19,16.16-2,27.36C223.89,57.18,221.38,58.72,219.55,59.85Z"/><path class="cls-2" d="M329.91,61.34A5.39,5.39,0,0,0,327,62.55l-.09.07A252.76,252.76,0,0,1,304.66,81c-4.42,3.61-5,6.56-5.61,9.68a24.69,24.69,0,0,1-1.12,4.18.47.47,0,0,0,0,.17,18.88,18.88,0,0,0-3.59.16,10.83,10.83,0,0,0-1.11.21c0-.14,0-.26.06-.41.07-.59.11-1.1.14-1.58a15,15,0,0,1,.17-1.58l.19-1.06-1.08,0-.62,0a16.37,16.37,0,0,0-3.29,0,5,5,0,0,0-4.43,5.1.88.88,0,1,0,1.75,0A3.23,3.23,0,0,1,289,92.46a15,15,0,0,1,2.77,0l-.06.79c0,.46-.07.94-.14,1.51-.32,2.91-1.57,3.44-1.57,3.44a.87.87,0,0,0-.59,1.08.88.88,0,0,0,.84.63,1,1,0,0,0,.24,0,4,4,0,0,0,2.27-2.55,9.63,9.63,0,0,1,1.58-.4A18.2,18.2,0,0,1,300,97,16.35,16.35,0,0,1,305.63,99a35.65,35.65,0,0,0,3.29,1.53c-1.67,3.57-3.79,7.16-3.8,7.17-.15.23-.29.45-.44.66a10,10,0,0,1-7.6,4.63,3.09,3.09,0,0,0-.52.07l-2.09.52,1.87,1.08a24.16,24.16,0,0,1,2.82,2.16,11.94,11.94,0,0,1-2.46,2.06,2.84,2.84,0,0,1-3.13-.38.88.88,0,1,0-1.3,1.18,4.45,4.45,0,0,0,3.19,1.26,4.23,4.23,0,0,0,2.13-.55,13.14,13.14,0,0,0,3.48-3.18l.44-.63-.57-.52c-.05,0-.91-.83-1.9-1.62a12.11,12.11,0,0,0,7.34-5.47,6.54,6.54,0,0,0,2.55-1.31c5.15-4,10.4-15.25,10.67-15.82,2.65-5.73,6.47-15.63,8.1-19.86l.86-2.23c.81-2,1.39-3.5,1.28-4.59a3.17,3.17,0,0,0-.75-1.89,2.15,2.15,0,0,1,.84-.22.88.88,0,1,0,0-1.75Zm-3,7.81-.87,2.24c-1.63,4.21-5.43,14.08-8.06,19.75-1.95,4.23-6.43,12.21-10,15.11.87-1.58,2-3.74,2.94-5.84l.4-.9-.94-.29a25.13,25.13,0,0,1-3.95-1.74,18.13,18.13,0,0,0-6.16-2.24l-.61-.09a25.26,25.26,0,0,0,1.1-4.18c.58-2.93,1.08-5.46,5-8.63A252.41,252.41,0,0,0,327.43,64.5a.47.47,0,0,1,.34,0,1.3,1.3,0,0,1,.33.9A13,13,0,0,1,326.94,69.15Z"/><path class="cls-2" d="M192.87,138.05a4.49,4.49,0,0,0-3.31-1,.86.86,0,0,0-.84.9.85.85,0,0,0,.9.84,3.12,3.12,0,0,1,2,.49c.09.09.08.12.09.11a1.83,1.83,0,0,1-2,1.59.88.88,0,0,0,0,1.75h.06a3.56,3.56,0,0,0,3.71-3.24A1.9,1.9,0,0,0,192.87,138.05Z"/><path class="cls-2" d="M259,171.51a4.61,4.61,0,0,0,2.22,2.65.84.84,0,0,0,.46.13.87.87,0,0,0,.45-1.62,3,3,0,0,1-1.41-1.52c0-.13,0-.15,0-.14a1.85,1.85,0,0,1,2.54-.23.87.87,0,1,0,1-1.44,3.57,3.57,0,0,0-4.93.62A2,2,0,0,0,259,171.51Z"/><path class="cls-2" d="M236.71,98.41c-3.26-2.67-8.54-1.62-12.57,2.49A9.82,9.82,0,0,0,221,108a7.05,7.05,0,0,0,2.34,5.08,6.75,6.75,0,0,0,4.53,1.58,11.77,11.77,0,0,0,8.17-3.84,9.65,9.65,0,0,0,3.06-7.31A7,7,0,0,0,236.71,98.41Zm-1.16,11.87c-4.33,4.34-9.25,4.39-11.67,2.23a6.33,6.33,0,0,1-2.09-4.55,9.09,9.09,0,0,1,2.88-6.53,11.3,11.3,0,0,1,7.74-3.74,5.92,5.92,0,0,1,3.83,1.3,6.24,6.24,0,0,1,2.16,4.54A9,9,0,0,1,235.55,110.28Z"/><path class="cls-2" d="M271.84,113a6.94,6.94,0,0,0-5.25,2.08,9.7,9.7,0,0,0-2.71,7.45c.25,6.59,4.2,10.21,7.79,10.28h.13a7,7,0,0,0,5-2.14,9.75,9.75,0,0,0,2.54-7.3C279.21,117.6,276,113.23,271.84,113Zm4.46,17.14a6.25,6.25,0,0,1-4.62,1.92c-3.24-.06-6.82-3.43-7.05-9.56a9,9,0,0,1,2.49-6.88,6.21,6.21,0,0,1,4.67-1.87c3.8.23,6.68,4.28,6.83,9.64A9,9,0,0,1,276.3,130.12Z"/><path class="cls-2" d="M194.51,237a3.67,3.67,0,1,0,3.66,3.67A3.67,3.67,0,0,0,194.51,237Zm0,6.58a2.92,2.92,0,1,1,2.91-2.91A2.91,2.91,0,0,1,194.51,243.62Z"/><path class="cls-2" d="M183,230c-8.09-1.14-21.16,3.1-24.91,16.05a5.49,5.49,0,0,0,.66,5,5,5,0,0,0,4,2h.2c1.52,0,3.27-.41,5-4,3.4-5.89,7.06-8.39,13.07-8.92a13.37,13.37,0,0,1,1.57,0c.43,0,.83,0,1.1,0,2.7-.24,4.31-2.11,4.31-5C188,232.46,186,230.42,183,230Zm.63,9.32c-.25,0-.62,0-1,0a14.66,14.66,0,0,0-1.64,0c-6.28.56-10.11,3.17-13.66,9.31-1.67,3.34-3.18,3.58-4.56,3.56a4.32,4.32,0,0,1-3.39-1.66,4.88,4.88,0,0,1-.54-4.33c3.25-11.24,13.77-15.69,21.55-15.69a18.67,18.67,0,0,1,2.54.17c2.65.38,4.36,2.08,4.36,4.33C187.27,237.56,186,239.11,183.64,239.32Z"/><path class="cls-2" d="M208.61,252.49a28.75,28.75,0,1,0-28.75,29.44h.71a28.72,28.72,0,0,0,28-29.43Zm-9.19,19.32a27,27,0,1,1-20.19-45.61h.66a27,27,0,0,1,19.53,45.62Z"/><path class="cls-2" d="M209.71,221.88a43.24,43.24,0,1,0-29.86,74.54h1.07a43.25,43.25,0,0,0,28.79-74.53Zm.2,59.93a41.49,41.49,0,1,1-31-70.1h1a41.49,41.49,0,0,1,30,70.11Z"/><path class="cls-2" d="M447.14,425c-1.11-16.19-6.47-32-15.92-46.85-11.6-18.3-29.46-35.33-53.07-50.64l26.93-19.46-48.94.83,22.47-16.27-54.5,4c-.24-3.66-2.9-4.56-3-4.58-1.07-.45-2.26-.89-3.41-1.31-2.6-1-5.26-2-6.56-3,.75-3.05,1.15-5.23,1.32-6.21,4.29-1.07,34-8,63.12-1.18a1.85,1.85,0,0,0,1.92-2.88c-4.82-6.81-17.24-23.39-28.28-30-14.36-7.44-60.7-16.32-74.23-17.27a234.39,234.39,0,0,0-43.52-31.86c.54-.19.95-.35,1.21-.46a21.36,21.36,0,0,0,10.58,0c7.14-2.2,8.12-7.9,8.21-8.54.73-5.07-2.63-7.47-6-8a8.8,8.8,0,0,0-4.3.47c1-8.41-3.61-15.52-4.64-17,0-.73,0-1.76,0-2.77,6.27,7.09,12,12.94,12,13,2.82,2.94,9.09,8.61,15.54,8.61a10.19,10.19,0,0,0,5.34-1.48,12.59,12.59,0,0,0,5.63-9.47,3.94,3.94,0,0,0,.55-3.53l-.11-.24a3.68,3.68,0,0,0-2.34-1.41c.06-1.39-.11-3.1-1.27-3.52l-.27-.09-.28.08s-1.68.5-3.78,1a31.45,31.45,0,0,0-7.38-1.74,38.45,38.45,0,0,1-4.15-.78,49,49,0,0,1-15.76-7.35,87.88,87.88,0,0,0,23.17,3.36,48.54,48.54,0,0,0,8.16-.63c11.88-2.07,19.45-8.79,21.24-18.6a8.45,8.45,0,0,0,3.38.7,4.74,4.74,0,0,0,2.54-.61,2.4,2.4,0,0,0,.8-3l-.08-.17c-.37-.58-.78-1.16-1.18-1.73-.15-.19-.29-.39-.42-.58a8.16,8.16,0,0,0,5.11-.62,4.32,4.32,0,0,0,2.19-3.34,2.16,2.16,0,0,0-1.05-2l-.1-.06a30.07,30.07,0,0,1-4.09-2.12c6.69-2.45,12.36-8.13,17.31-17.34.17-.35,1.72-3.52,3.78-8h0c3.71-8.07,9.11-20.39,11.11-28,1.12-3.84,2.06-7.15,2.85-10.06,1.22-4.48,2.09-8,2.73-11,.45-1.08,1.73-5.71.37-7.87a2.38,2.38,0,0,0-2.11-1.15h0c-1,0-1.89.52-3.43,1.39a53,53,0,0,1-7.55,3.59,87.55,87.55,0,0,1-9.9,2.33c-3.88.78-8.27,1.65-13.05,2.9a119,119,0,0,0-13.22,4.24,58.3,58.3,0,0,0-15.78,9.52l-.56-.26-.34.87a2.19,2.19,0,0,0-.14.27,66,66,0,0,0-4.91,4.68,55.58,55.58,0,0,0-7.91-3.07c1-2.17,2.21-5.08,1.8-7.69a1.51,1.51,0,0,0-.42-.9,1.44,1.44,0,0,0-1.68-.14,6.9,6.9,0,0,0-1.48.92A81.34,81.34,0,0,0,251,33.2c-.23-.54-.37-.83-.38-.85-.75-1.73-1.52-3.47-2.28-5.19-3.31-7.5-6.44-14.58-7.91-19.47A20,20,0,0,1,240,3.76c0-1.4-.09-2.41-1.53-3.43-2.5-1.47-6,2.28-8.8,5.3l-1,1.09C217.68,17.79,202.68,33,193.57,54.92c-7.43,18.22-5.08,30.86-4,34.73a9,9,0,0,1-2.92-1.3c-1.32-1-2.47-1.39-3.42-1a2.65,2.65,0,0,0-1.45,2.12A14.36,14.36,0,0,0,185.31,99c-1.5.07-2.52.15-2.55.15a1.29,1.29,0,0,0-.92.54,4,4,0,0,0-.22,2.78c1,4,4.39,5.11,7.16,5.11a8.69,8.69,0,0,0,1-.06c-.72,6.16,2.27,15,7.44,21.72,5,6.45,12.84,12.09,20.27,16.18-9.17-2.48-15.28-4.59-18.2-6.3-3.87-2.36-9.31-5.54-12.64-6.37a15.73,15.73,0,0,0-1.8-2.42,1.91,1.91,0,0,0-1.52-.6,2,2,0,0,0-1.48.77c-.41.51-.93,1.19-1.35,1.78l-2.09-.09a2.11,2.11,0,0,0-1.85.91,5.79,5.79,0,0,0-1.12,3.58,16.46,16.46,0,0,0,0,7.34c.16.9,2,8.86,16.42,8.86H193c.93.1,12.24,1.3,23.18,1.7a61.24,61.24,0,0,1-6.76,4.19c-6.28,3.34-10.45,8.18-12.08,14a21.56,21.56,0,0,0-.11,10.9c-.48.15-1.2.35-2.08.54-4.67-1.23-9.86-2.34-14.37-3.16a10.84,10.84,0,0,1-2.5-9c.05-.43.13-.88.23-1.35a4.09,4.09,0,0,0,.6.07h.11a5.48,5.48,0,0,0,5.47-5.37,5.48,5.48,0,0,0-5.38-5.58h-.1a5.48,5.48,0,0,0-3.94,9.28,5.63,5.63,0,0,0,1.56,1.11c-.08.36-.15.71-.2,1.05a13,13,0,0,0,1.62,9.37l-2.1-.34a163.69,163.69,0,0,0-38.72-1.5c-4.16.34-8.33.87-12.39,1.58a124.84,124.84,0,0,0-35,11.31,71.24,71.24,0,0,0-12.09,7.41l-.22.18-.07.29c-.06.21-5.24,21.83,4.79,51.46,1.23,3.63,2.64,7.22,4.18,10.69,10,22.81,27,44,50.4,63.09,5.24,4.45,21.14,15.24,43.78,24.26a206,206,0,0,0,22.18,7.4c8.06,11.25,39.49,45.89,53.3,54.27,11.36,6,32,7.94,40.32,8.52h.13a1.84,1.84,0,0,0,1.31-3.13c-20.83-21.23-30.41-50-31.81-54.46.79-.65,2.54-2.16,4.89-4.43a53.34,53.34,0,0,1,6.61,4.64l1.38,1.07a5.88,5.88,0,0,0,3.5,1.09,7.72,7.72,0,0,0,3.7-1c1.13-.69,2.25-1.46,3.36-2.29l10,43.8,10-25.85,17,40.94,8-31.3,22,29.29L354.06,394c26.1,10.58,42.69,24.5,49.31,41.37a47.4,47.4,0,0,1-1.47,37.43C387.23,505.6,339,525.83,279.09,524.23a1.15,1.15,0,0,0-1.19,1.08,1.12,1.12,0,0,0,1,1.2l1.87.21A297.29,297.29,0,0,0,316,529a221.26,221.26,0,0,0,36.8-2.94c39.92-6.8,68.47-24.86,84.85-53.66C437.75,472.15,449,452.61,447.14,425ZM176.5,167.87a3.68,3.68,0,0,1-1-2.65,3.73,3.73,0,0,1,3.72-3.66h.07a3.76,3.76,0,0,1,2.62,1.14,3.73,3.73,0,0,1-5.37,5.17ZM317.12,292.36c1.13.41,2.31.85,3.42,1.31,0,0,2.14.72,1.8,4.29,0,.06-.17,6-4.4,17.62a110.87,110.87,0,0,0-12.87-9.53,126.39,126.39,0,0,0,5.63-16.54A33.79,33.79,0,0,0,317.12,292.36Zm8.61,32.24c1.1,1,2.39,2.13,3.82,3.38,8.24,7.27,20.69,18.26,29.61,28.65h0c-11.39-1.37-50.17-10.89-70.41-22.32-19.63-11.18-37.83-35.08-42.12-43.16-.42-.79-1.53-2.89-.7-4.21a2.28,2.28,0,0,1,2.17-1.28,13.8,13.8,0,0,1,2.19.27c6.62,1.08,25,5.26,52.21,20.63C309.86,310.71,317.57,317.46,325.73,324.6Zm22.67-75.67c11,6.6,24,24.25,27.71,29.49a.1.1,0,0,1,0,.12c0,.06-.08,0-.1,0-29.22-6.8-59,0-63.82,1.16-8.88-19-21.81-34.88-35.13-47.67C292.67,233.66,334.94,242,348.4,248.93Zm-122-73.42a7,7,0,0,0-3.91-4.58c-1.51-.65-4-1-7.56,1a17.86,17.86,0,0,0-2.33,1.71,11.51,11.51,0,0,1,.18-2.07,10.06,10.06,0,0,1,4.85-7.15,13.15,13.15,0,0,1,10.94-.72c7.21,2.48,10.51,7.52,9.29,14.19a8.91,8.91,0,0,1-4.27,6.07c-2.63,1.55-6,1.8-9.67.75A10.4,10.4,0,0,0,226.39,175.51Zm30.21-11.16c1,.21,2.17.4,3.39.58,2.54.39,5.41.84,7.16,1.72l.3.15.31-.08c1.54-.4,2.89-.77,3.61-1a7.6,7.6,0,0,1,.05,2.39l-.11,1,1,0a2.18,2.18,0,0,1,1.73.61,2.13,2.13,0,0,1-.38,1.93l-.27.26v.37a10.86,10.86,0,0,1-4.8,8.3c-4.48,2.69-10.56.83-16.93-5.09a8.24,8.24,0,0,1,.89-8A7.47,7.47,0,0,1,256.6,164.35Zm14.78-8.27a43.62,43.62,0,0,1-6.06.57c-2.87-6.78.49-15.27,7.73-19.18,6.49-3.5,13.11-3.34,18.32.39C290.07,147.48,282.88,154.07,271.38,156.08Zm24.19-100a3.62,3.62,0,0,1-2,1,8,8,0,0,1-1.14.12C293.47,56.82,294.53,56.46,295.57,56.12Zm-10,3.91-.17.25a14.81,14.81,0,0,0-1.69,3.31,1.5,1.5,0,0,1-.32.56,1.44,1.44,0,0,1-.5.23l-.45.14a14.26,14.26,0,0,0-2.48.92,5.33,5.33,0,0,0-2.17,1.78l-.24.37.39.18a6.17,6.17,0,0,0,1.16.34,7.55,7.55,0,0,1,1.69.54,1.18,1.18,0,0,1,.81,1.23c0,.07-.08.3-.47.24l-.42,0c-2.3-.28-3.56-.34-4,0a.56.56,0,0,0-.23.38c-.11.6.39.92.75,1.16a2.19,2.19,0,0,1,.39.28.59.59,0,0,1,0,.72,2.35,2.35,0,0,0-1.33-.28l-1,.08a6.3,6.3,0,0,0,.19-3.8,3.73,3.73,0,0,0-.9-1.49A64.56,64.56,0,0,1,285.61,60ZM255.76,63.1v1.49a9.9,9.9,0,0,1-1.26-.14,1.11,1.11,0,0,1-.71-.35.16.16,0,0,1,0-.13c0-.09.13-.18.23-.27s.38-.29.58-.44a6.3,6.3,0,0,0,1.17-1C255.76,62.53,255.76,62.82,255.76,63.1Zm-.06-2.74-1.37-.47a.75.75,0,0,1-.18-.08l.07,0a11.54,11.54,0,0,1,1.43-.37C255.67,59.73,255.69,60.05,255.7,60.36Zm-2.5-10.2a15.37,15.37,0,0,0,.37-3.82A73.53,73.53,0,0,1,255.35,56a8.56,8.56,0,0,0-1-.85A4.5,4.5,0,0,1,253.11,54c-.58-1-.27-2.26,0-3.49Zm-54.56,78c-4.26-5.52-7-12.56-7.18-18a15.45,15.45,0,0,1,6-6,12.68,12.68,0,0,1,10.22-1,16.14,16.14,0,0,1,9.47,8.51,16.67,16.67,0,0,1,1,11.73,13.57,13.57,0,0,1-7.33,8.65,12,12,0,0,1-8.36.36A41.75,41.75,0,0,1,198.64,128.2Zm-5.54,23H193c-14.38.42-15.72-7.11-15.77-7.42l0-.12a15.41,15.41,0,0,1,0-6.63l0-.15,0-.15a4.07,4.07,0,0,1,.81-2.56.37.37,0,0,1,.34-.15l3.08.14.27-.43c.41-.64,1.13-1.57,1.53-2.06a.24.24,0,0,1,.2-.11.23.23,0,0,1,.18.07,15.48,15.48,0,0,1,1.73,2.41l.2.34.39.08c3.06.62,9,4.14,11.76,5.81a9,9,0,0,1-.34,8.41,6.32,6.32,0,0,1-2.63,2.69Zm5.9,22.1c1.49-5.34,5.37-9.8,11.21-12.91a56.82,56.82,0,0,0,8.69-5.65l1.69,0h0a.88.88,0,0,0,0-1.75c-9.16-.13-19.69-1.05-24.65-1.53A7.61,7.61,0,0,0,198,149a10.06,10.06,0,0,0,.8-8.13c4,2.19,12.62,4.95,25.68,8.19l.83.21.46.19.82-.69-.27-1.05-.46-.11a83.19,83.19,0,0,1-22.33-14.12,15.13,15.13,0,0,0,2.8.29,11.31,11.31,0,0,0,4.78-1,14.32,14.32,0,0,0,7.73-9.12,17.44,17.44,0,0,0-1-12.25,16.72,16.72,0,0,0-9.92-8.92,13.42,13.42,0,0,0-10.82,1,16.43,16.43,0,0,0-5.61,5.13,13.41,13.41,0,0,1,.25-2v0a.75.75,0,0,0,0-.15,1.33,1.33,0,0,0,0-.2h0a.31.31,0,0,0,0-.1.72.72,0,0,0-.09-.2.57.57,0,0,0-.11-.11.46.46,0,0,0-.12-.12.89.89,0,0,0-.17-.08l-.13,0h-.38c-.25.06-6.18,1.35-7.36-3.53a5,5,0,0,1-.09-1.22c.64,0,2.2-.14,4.06-.21l2.17-.09-1.63-1.45c-.05,0-4.56-4.1-4.33-9.53,0-.17.15-.57.37-.66s.54-.14,1.71.79c.12.08,2.88,2,5.29,1.69L192,91.3l-.38-1c0-.13-4.92-13.75,3.62-34.68,9-21.65,23.83-36.67,34.69-47.65.32-.33.67-.71,1.05-1.12,1.73-1.86,5.34-5.75,6.57-5,.66.47.68.7.73,2a21.6,21.6,0,0,0,.52,4.31c1.51,5.06,4.66,12.19,8,19.74.76,1.72,1.53,3.45,2.29,5.2,0,0,.88,1.86,2,4.87.43,1.2.91,2.59,1.38,4.13.68,4.13.45,6.32.08,7.92l-.07.31c-.31,1.31-.66,2.8.07,4.05a5.1,5.1,0,0,0,1.46,1.43,6.19,6.19,0,0,1,1.1,1,3.67,3.67,0,0,1,.49.89c0,.34.06.67.08,1a12.81,12.81,0,0,0-1.62.41.88.88,0,0,0-.61.53c-.13.41.15.81.72,1l1.37.47.11,0a.12.12,0,0,1,0,.07,3.55,3.55,0,0,1-1.41,1.48c-.21.15-.42.3-.62.46a1.33,1.33,0,0,0-.47.65.86.86,0,0,0,.12.74,1.88,1.88,0,0,0,1.32.7,12,12,0,0,0,1.26.12v1l1.64-2.73a5.31,5.31,0,0,1,2-1.9c.14,2.11-1,4.63-1.81,6.5l-.31.7s0,0,0,.06,0,0,0,.06a.37.37,0,0,0,0,.11.5.5,0,0,0,0,.17.51.51,0,0,0,0,.17.44.44,0,0,0,0,.15.34.34,0,0,0,.09.14.64.64,0,0,0,.1.13l.15.1a.71.71,0,0,0,.09.07h.06s0,0,.05,0A54,54,0,0,1,267,73.56h0l.07,0,.17,0h0l.08,0h.06l.09,0,.17,0,.07,0h0a18.73,18.73,0,0,0,4.9-4.27c.27-.35.48-.67.65-.93a2,2,0,0,1,.54.86,5.81,5.81,0,0,1-.67,3.86l-.82,1.53,1.71-.24c.6-.08,2.34-.22,2.34-.22.25,0,.35,0,.37.05.21.27-.32,1.95-1.44,2.92a3.94,3.94,0,0,1-2.08.69.88.88,0,0,0,0,1.75h0a5.72,5.72,0,0,0,3.18-1.1c1.19-1,2.57-3.36,1.95-4.9a1.88,1.88,0,0,0-.21-.38,1.34,1.34,0,0,0-.07-1.74,2.44,2.44,0,0,0-.52-.39c-.21-.14-.37-.25-.41-.35a13.24,13.24,0,0,1,3.43.14l.43.05a1.12,1.12,0,0,0,1.28-.8A1.88,1.88,0,0,0,281.15,68a7.61,7.61,0,0,0-1.84-.6l-.56-.13a5.39,5.39,0,0,1,1.59-1.14,14.84,14.84,0,0,1,2.36-.88l.45-.14a2,2,0,0,0,.77-.37,2.11,2.11,0,0,0,.53-.85,14,14,0,0,1,1.6-3.15c.16-.22.33-.47.49-.73s.28-.42.43-.62c1.55-.74,2.49-1.09,2.53-1.1l.89-.33c.37,0,.76,0,1.15,0a12.81,12.81,0,0,0,2.15-.15,4.26,4.26,0,0,0,3.16-2.11c1.8-.56,3.55-1.05,5.26-1.51,4.91-1.3,9.42-2.2,13.39-3a84.83,84.83,0,0,0,10.16-2.41,54.19,54.19,0,0,0,7.8-3.7,7.8,7.8,0,0,1,2.59-1.17.58.58,0,0,1,.64.33c.84,1.33,0,5.32-.51,6.29l-.06.2c-.58,2.71-1.33,5.81-2.35,9.65-.87,3.22-1.93,7-3.23,11.43-2.24,8.58-9,23.58-12.58,31.12-1.3,2.78-2.16,4.55-2.19,4.61-5.16,9.6-10.84,15-17.85,17l-1.53.42,1.17,1.07a23.34,23.34,0,0,0,5.77,3.35.47.47,0,0,1,.18.42,2.54,2.54,0,0,1-1.29,1.85c-2.33,1.26-5.79,0-5.83-.05l-2.05-.78,1,2a18.32,18.32,0,0,0,1.66,2.6c.37.51.74,1,1.07,1.56s0,.78-.16.87c-1,.67-3.95.16-4.64-.46l0,0c.05-.42.1-.83.12-1.26a.87.87,0,0,0-.82-.92.92.92,0,0,0-.93.83c0,.34-.06.67-.09,1-5.4-3.67-12.16-3.76-18.77-.19-7.48,4-11,12.77-8.17,19.86a82.29,82.29,0,0,1-28-4.74l-1.72-.65-1.53-.57a.87.87,0,1,0-.63,1.63l1.55.58.28.11a.71.71,0,0,0,.09.07,39.86,39.86,0,0,1,4.73,3.33,50.13,50.13,0,0,0,16.07,7.6,8.75,8.75,0,0,0-3.38,3,9.12,9.12,0,0,0-1.43,7.3c-.2-.21-.41-.41-.62-.62s-6.6-6.77-13.34-14.5c0-.06,0-.15,0-.2a.87.87,0,0,0-1.74.18c.09.81.07,4.21,0,5.73l0,.32.2.25a24.48,24.48,0,0,1,1.82,3,15.63,15.63,0,0,0-8-5.6,13.92,13.92,0,0,0-11.57.79,10.84,10.84,0,0,0-5.21,7.66,11.2,11.2,0,0,0-.16,2.87c-1.71,1.64-3.49,4-3.54,6.88a.86.86,0,0,0,.85.89h0a.88.88,0,0,0,.88-.86c.08-4.39,5.67-7.74,5.72-7.77,2.3-1.3,4.32-1.6,6-.88a5.27,5.27,0,0,1,2.89,3.38c1.36,5.91-4.58,10-4.71,10a8.4,8.4,0,0,1-6.67,1.73.87.87,0,1,0-.4,1.7,8.27,8.27,0,0,0,1.8.17,10,10,0,0,0,6.3-2.18,14.37,14.37,0,0,0,2.35-2.05,16.14,16.14,0,0,0,4.77.77,11.35,11.35,0,0,0,5.83-1.5,9.69,9.69,0,0,0,4.63-6.58,14.08,14.08,0,0,0,.09-4.7,19.87,19.87,0,0,1,.52,9.67l-.4,1.93,1.7-1a8.1,8.1,0,0,1,4.71-.95c1.59.26,5.23,1.37,4.56,6-.08.53-.89,5.22-7,7.1a19.3,19.3,0,0,1-9.82-.06l-.34-.11-.31.14c-.2.09-20,8.94-31.42-7.81A19.88,19.88,0,0,1,199,173.25Zm-9.17,11.47a15.11,15.11,0,0,1-5.63-1.22C186.05,183.87,188,184.28,189.83,184.72ZM79.22,200.25c2.07-1.59,17.93-13.22,45.58-18.08A74.76,74.76,0,0,1,83.88,250C74.86,222.93,78.66,202.86,79.22,200.25Zm4.91,50.43A75.54,75.54,0,0,0,125.55,182c3.8-.65,7.7-1.15,11.6-1.48,0,.75.07,1.53.09,2.36A82.47,82.47,0,0,1,88,260.64C86.58,257.4,85.28,254.06,84.13,250.68ZM296.75,417.44a.08.08,0,0,1-.09.05c-6.42-.44-28.25-2.35-39.58-8.29-13-7.87-41.86-39.44-51.46-52a180.43,180.43,0,0,0,44.51,5.78q7.29,0,14.4-.66C266.1,367.24,275.81,396,296.75,417.44ZM264.81,360.5c-26.72,2.54-55.56-2-83.42-13.08-22.43-8.93-38.13-19.58-43.31-24C115,304.65,98.27,283.76,88.32,261.33A83.23,83.23,0,0,0,138,182.9c0-.85-.05-1.63-.1-2.4a162.07,162.07,0,0,1,38,1.51c1.24.19,2.59.41,4,.67a12.32,12.32,0,0,0,1.34,1.18,16.21,16.21,0,0,0,9.24,2.63,24,24,0,0,0,4.64-.47c1.09.29,2.16.59,3.17.89a18.26,18.26,0,0,0,1.15,2.3,24.08,24.08,0,0,0,20.79,11,34.46,34.46,0,0,0,9-1.25c17.81,9.89,61,37.48,81.61,81.91a115.52,115.52,0,0,1-7.26,24.26l-.21-.12c-27.49-15.51-46.07-19.73-52.77-20.83-2.41-.42-4.49-.78-6.13,1.81-1.38,2.18.09,4.93.63,6,4.3,8.11,22.37,31.84,42,43.39A122.06,122.06,0,0,1,264.81,360.5Zm20.54,1a5.11,5.11,0,0,1-5.26,0l-1.35-1a60.29,60.29,0,0,0-6.37-4.54,127.1,127.1,0,0,0,16.22-19.72,128.38,128.38,0,0,0,15,6.86C297.51,351.7,291.55,357.75,285.35,361.54ZM436.12,471.47c-16.12,28.34-44.26,46.11-83.63,52.81-24.44,4.16-47.57,3-61.77,1.73,24.34-.51,46.88-4.7,65.76-12.26,23.13-9.26,39.39-23.19,47-40.27a49.14,49.14,0,0,0,1.51-38.8c-6.92-17.63-24.3-32.06-51.64-42.9l-1.35-.53,2.16,20.25-20.36-27.13-7.59,29.75L309.54,374,300,398.58l-8.9-39a76.32,76.32,0,0,0,14.08-15.84c20.32,7.79,45,13.59,53.72,14.64h.21a1.7,1.7,0,0,0,1.52-.91,1.74,1.74,0,0,0-.21-2C351.49,345,339,334,330.7,326.67l-3.82-3.38c-2.54-2.23-5-4.42-7.51-6.51,4-11,4.63-17,4.71-18.41l48.51-3.54-22,15.91,48.93-.83L375,327.62l1.08.69c29.86,19.14,66.11,51.46,69.26,96.74C447.27,452.12,436.24,471.27,436.12,471.47Z"/><path class="cls-2" d="M90.25,97.49a10.22,10.22,0,1,0,10.22,10.22A10.23,10.23,0,0,0,90.25,97.49Zm0,19A8.77,8.77,0,1,1,99,107.71,8.78,8.78,0,0,1,90.25,116.48Z"/><path class="cls-2" d="M77.25,336.39a69.43,69.43,0,1,0,69.43,69.43A69.51,69.51,0,0,0,77.25,336.39Zm58.79,36a5.68,5.68,0,0,1-.57,1.49c-1.67,2.93-5.93,3.47-8.7,2.12-.54-.26-1.09-.6-1.62-.92-1.49-.9-3-1.84-4.78-1.54a7,7,0,0,0-3.47,2.15c-.39.36-.79.73-1.19,1a8.22,8.22,0,0,1-8.89.64,5.4,5.4,0,0,1-1.8-1.57,8,8,0,0,1-.86-2c-.14-.4-.28-.8-.45-1.19-.81-1.88-2.75-3.62-4.87-3.28A6.4,6.4,0,0,0,97,370l-.63.29a7.83,7.83,0,0,1-7.61-.87c-1.27-.93-4.16-3.43-3.73-6.56.12-.9.58-1.15.72-1.21a.77.77,0,0,1,.31-.05,9.89,9.89,0,0,1,.83,1.41,5.75,5.75,0,0,0,2.19,2.68,8.33,8.33,0,0,0,5.22.74,4.1,4.1,0,0,0,2.29-1,4.9,4.9,0,0,0,1-2,5.18,5.18,0,0,1,.7-1.56c.87-1.12,2.59-1.18,3.91-.74a13.39,13.39,0,0,1,2.44,1.19,18.69,18.69,0,0,0,1.72.91,5,5,0,0,0,4.86,0,4,4,0,0,0,1.64-3.5,6.39,6.39,0,0,0-1.42-3.55c-.27-.36-.57-.7-.87-1a12.11,12.11,0,0,1-1.21-1.53,3,3,0,0,1-.38-2.81c.56-1.11,2.08-1.43,3.33-1.36a9.1,9.1,0,0,1,4.43,1.51A68.21,68.21,0,0,1,136,372.35ZM87.61,338.93c1.74.27,3.46.62,5.16,1a2.9,2.9,0,0,0-1.53,1.83c-.11.33-.19.67-.28,1a7.67,7.67,0,0,1-.32,1.12,1,1,0,0,1-.3.45c-.3.16-.76-.18-.9-.29A5.38,5.38,0,0,1,87.61,338.93Zm-28.69,1.75a67.24,67.24,0,0,1,15.17-2.46,14.49,14.49,0,0,0-4.5,2.67c-2.75,2.44-4.59,7-2.6,10.74a14.2,14.2,0,0,0,3,3.49,10.7,10.7,0,0,1,3.16,4c.78,2.18.06,4.45-.7,6.85-.68,2.15-1.38,4.37-1,6.59.47,2.5,3.25,3.53,5.48,4.36a11.88,11.88,0,0,1,2.05.89.78.78,0,0,1,.17.53,1.28,1.28,0,0,1-.45.85,3.4,3.4,0,0,1-1.87.55,15,15,0,0,1-6.13-.42,6.4,6.4,0,0,1-4.25-3.89c-.65-2,0-4,.67-6.25s1.41-4.53.64-6.76c-.7-2.05-2.55-3.69-5.51-4.89-.39-.16-.78-.3-1.17-.45a14.59,14.59,0,0,1-3.38-1.61c-3-2.15-4.06-6.95-2.25-10.69A11.2,11.2,0,0,1,58.92,340.68ZM36.36,351.93a15.59,15.59,0,0,0,3.27,11.45c.58.7,1.23,1.35,1.86,2a22.41,22.41,0,0,1,2.22,2.45,11.45,11.45,0,0,1,1.55,10.43,22.91,22.91,0,0,1-2.11,4.05,17,17,0,0,0-2.68,6.13,6.65,6.65,0,0,0,.06,2.6c.8,3.39,3.76,4.61,6.63,5.8,2,.84,4.15,1.71,5.43,3.36,1.61,2.06,1.6,4.72,1.6,7.54a21,21,0,0,0,.48,5.6c1.08,3.9,4.46,6.69,6.92,8.45a20.86,20.86,0,0,0,3.6,2c2.08,1,4,1.91,5.21,3.89A8.26,8.26,0,0,1,71.51,433a1.24,1.24,0,0,1-1,.92.9.9,0,0,1-.94-.36c-2.6-4-4.55-4.54-6.81-5.19l-1-.3a27.68,27.68,0,0,0-3-.7c-2.27-.45-4.42-.87-5.79-2.74a20.26,20.26,0,0,1-2.63-6.33c-.87-3-1.77-6.12-4.29-8a10.88,10.88,0,0,0-5.38-2.36c-2.87-.54-8.1-2.11-10.81-6.6-2.07-3.45-2.34-8.15-.78-14l.23-.85c.7-2.54,1.42-5.17.62-7.7a13.24,13.24,0,0,0-3.66-5.08c-.63-.63-1.28-1.29-1.84-2A14.3,14.3,0,0,1,21.89,367,68.11,68.11,0,0,1,36.36,351.93ZM15.92,434.4a20.8,20.8,0,0,0,6.28,2.48,42.46,42.46,0,0,0,6,.68,27.08,27.08,0,0,1,8.5,1.44,8.93,8.93,0,0,1,2.19,1.37c2.45,1.94,4.36,5.16,4.53,6.84a1.35,1.35,0,0,1-.12.85,2.36,2.36,0,0,1-2.65-.62,8.72,8.72,0,0,1-1.14-1.39,11.49,11.49,0,0,0-1-1.3,8.94,8.94,0,0,0-5.25-2.38,34.16,34.16,0,0,0-6-.2,40.59,40.59,0,0,1-4.93-.08,14.86,14.86,0,0,1-2.51-.49A69.37,69.37,0,0,1,15.92,434.4Zm61.33,39.1a67.23,67.23,0,0,1-34.7-9.6,16.7,16.7,0,0,1-3.34-4,18.6,18.6,0,0,0-1.35-1.8,20.81,20.81,0,0,1-1.44-1.92c-.36-.6-.35-1-.18-1.2s.41-.12.69.06c.46.29.91.62,1.37.95a13.56,13.56,0,0,0,3.53,2c2.14.73,4.37.24,6.53-.24s4.46-1,6.45-.09c1.76.78,2.35,2.77,3,4.87a14,14,0,0,0,1.61,4c1.51,2.2,4.44,2.91,8.47,2.06l1.54-.35a22,22,0,0,1,5.19-.87,7.79,7.79,0,0,1,4.63,2.41,19.57,19.57,0,0,0,2.16,1.7,10.07,10.07,0,0,0,4.06,1.5A67.06,67.06,0,0,1,77.25,473.5Zm12.19-1.12c-2.69.12-5.24,0-7.65-1.53a17.75,17.75,0,0,1-2.07-1.63,8.53,8.53,0,0,0-5-2.6,22.74,22.74,0,0,0-5.44.89l-1.53.35c-2.58.54-6,.69-7.69-1.76a13.33,13.33,0,0,1-1.51-3.75c-.64-2.17-1.31-4.41-3.39-5.33s-4.6-.46-6.91,0c-2.06.45-4.19.92-6.13.26a12.87,12.87,0,0,1-3.33-1.93c-.47-.35-.94-.68-1.41-1a1.27,1.27,0,0,0-1.62,0c-.37.37-.54,1.12.07,2.13a23.38,23.38,0,0,0,1.49,2,15.27,15.27,0,0,1,1.29,1.71,15.46,15.46,0,0,0,1.36,2,68,68,0,0,1-19.48-19.7,15.69,15.69,0,0,0,1.84.31,42.12,42.12,0,0,0,5,.08,33.41,33.41,0,0,1,5.83.19A8.27,8.27,0,0,1,38,445.27a12.09,12.09,0,0,1,1,1.22A10.14,10.14,0,0,0,40.17,448a3.66,3.66,0,0,0,2.39,1,2.21,2.21,0,0,0,1.24-.36l.08-.08a1.9,1.9,0,0,0,.33-1.44c-.22-2.1-2.43-5.46-4.82-7.34A9.3,9.3,0,0,0,37,438.3a27.71,27.71,0,0,0-8.74-1.49,42.21,42.21,0,0,1-5.93-.67,20.17,20.17,0,0,1-7-3,67.58,67.58,0,0,1-4.71-15.36c1.94,4,4.1,7.84,7.55,9.39a28,28,0,0,0,7,1.79l1.19.2A80,80,0,0,1,40,432.8c3.57,1.31,8.12,3.24,11.52,6.64.89.9,1.72,1.91,2.52,2.88a23.42,23.42,0,0,0,4.68,4.7c3.29,2.22,7.32,2.57,11.22,2.91a29.77,29.77,0,0,1,8.95,1.69c3.94,1.64,7.24,5.47,10.44,9.16,1.54,1.79,3,3.47,4.49,4.9a24.56,24.56,0,0,0,5.65,4.06A68.3,68.3,0,0,1,89.44,472.38Zm11.06-3a22.33,22.33,0,0,1-6.17-4.25,65.14,65.14,0,0,1-4.44-4.84c-3.26-3.76-6.62-7.65-10.72-9.37A30.66,30.66,0,0,0,70,449.18c-4-.34-7.73-.67-10.86-2.78a22.93,22.93,0,0,1-4.52-4.55c-.81-1-1.65-2-2.57-2.94-3.51-3.5-8.15-5.48-11.8-6.81a80.23,80.23,0,0,0-13.72-3.66l-1.2-.2a27.8,27.8,0,0,1-6.81-1.73c-3.75-1.68-6-6.4-8.09-10.95l-.19-.42a68.27,68.27,0,0,1-.66-9.32,67.41,67.41,0,0,1,4.83-25.07A25.49,25.49,0,0,0,17,384.31a29.4,29.4,0,0,1,3.88,5.53c1.76,3.41,1.67,8.56,1.58,14-.12,6.91-.25,14.05,3.44,18.4,3.28,3.87,8.67,5.88,13.88,7.82,1.92.72,3.74,1.39,5.42,2.15A40.44,40.44,0,0,1,56.66,440l.55.54a15.44,15.44,0,0,0,3.57,2.85c2.84,1.45,6.06.93,9.16.43a21.16,21.16,0,0,1,6.75-.37c5,.85,9.58,2.76,12.49,5.25,7.35,6.28,14.4,8.48,20.89,8.48a37.28,37.28,0,0,0,15.08-3.57A67.93,67.93,0,0,1,100.5,469.38Zm26.05-17.26c-10,4.78-22.88,7.94-36.88-4-3-2.57-7.7-4.55-12.85-5.42a22,22,0,0,0-7,.37c-3.12.5-6.07,1-8.7-.36A14.18,14.18,0,0,1,57.74,440l-.56-.54a41,41,0,0,0-11.64-7.89c-1.7-.77-3.53-1.45-5.47-2.18-5.12-1.9-10.41-3.87-13.56-7.59-3.51-4.14-3.39-11.14-3.27-17.91.09-5.55.18-10.79-1.66-14.37a30,30,0,0,0-4-5.67,20.59,20.59,0,0,1-2.82-4,67.2,67.2,0,0,1,6.57-12.09,15.19,15.19,0,0,0,2.55,4.44c.59.71,1.25,1.37,1.89,2,1.48,1.49,2.88,2.9,3.48,4.78.73,2.32,0,4.83-.63,7.27l-.23.86c-1.62,6-1.33,10.94.86,14.56,2.86,4.75,8.32,6.39,11.32,7a10.23,10.23,0,0,1,5.06,2.23c2.32,1.75,3.15,4.61,4,7.63A20.77,20.77,0,0,0,52.42,425c1.54,2.1,3.83,2.55,6.25,3a25.07,25.07,0,0,1,2.88.69l1,.3c2.19.64,3.93,1.14,6.38,4.88a1.58,1.58,0,0,0,1.34.72,1.61,1.61,0,0,0,.37,0,2,2,0,0,0,1.57-1.5,8.88,8.88,0,0,0-1.19-5.84c-1.29-2.18-3.45-3.2-5.54-4.18A22.38,22.38,0,0,1,62,421.17c-2.36-1.7-5.61-4.38-6.62-8.05a20.1,20.1,0,0,1-.46-5.4c0-2.82,0-5.74-1.76-8-1.41-1.81-3.61-2.71-5.73-3.59-2.82-1.17-5.48-2.27-6.19-5.28a6.14,6.14,0,0,1,0-2.31,16.51,16.51,0,0,1,2.58-5.86A23.07,23.07,0,0,0,46,378.49a12,12,0,0,0-1.65-11.13A23,23,0,0,0,42,364.83c-.62-.62-1.25-1.26-1.81-1.93a14.78,14.78,0,0,1-3-11.64,67.33,67.33,0,0,1,20-10.09,11.62,11.62,0,0,0-2.38,3.25c-2,4.13-.9,9.24,2.5,11.64a15,15,0,0,0,3.55,1.69l1.14.44c2.75,1.12,4.47,2.61,5.09,4.44.69,2,0,4.09-.65,6.3s-1.39,4.49-.67,6.71A7.2,7.2,0,0,0,70.53,380a12.79,12.79,0,0,0,4,.58c.84,0,1.65-.06,2.4-.13a4.1,4.1,0,0,0,2.28-.71,2,2,0,0,0,.72-1.39,1.44,1.44,0,0,0-.42-1.14,10.33,10.33,0,0,0-2.28-1c-2-.77-4.61-1.72-5-3.8s.29-4.16,1-6.22c.76-2.42,1.56-4.91.68-7.33a11.25,11.25,0,0,0-3.35-4.27,13.4,13.4,0,0,1-2.87-3.3c-1.81-3.36-.09-7.57,2.44-9.82a15.8,15.8,0,0,1,6.61-3.3h.55a67.62,67.62,0,0,1,9.61.69A6.15,6.15,0,0,0,89,344.65a2,2,0,0,0,1.19.5,1.09,1.09,0,0,0,.54-.14,1.55,1.55,0,0,0,.64-.83,8,8,0,0,0,.35-1.22c.08-.31.15-.63.26-.94a2.21,2.21,0,0,1,1.16-1.41,3.27,3.27,0,0,1,1.46,0,5.7,5.7,0,0,0,1.1.08,67.56,67.56,0,0,1,18.09,8.17,10,10,0,0,0-1.34-.18c-1.92-.12-3.43.55-4,1.78a3.65,3.65,0,0,0,.42,3.53,11.51,11.51,0,0,0,1.28,1.63c.28.33.57.66.83,1a5.78,5.78,0,0,1,1.27,3.13,3.28,3.28,0,0,1-1.31,2.85c-1.43,1-3.37.26-4.13-.09a17.56,17.56,0,0,1-1.66-.88,13.88,13.88,0,0,0-2.57-1.25c-1.57-.52-3.64-.42-4.74,1a5.89,5.89,0,0,0-.83,1.78,4.21,4.21,0,0,1-.85,1.72,3.35,3.35,0,0,1-1.88.78,7.57,7.57,0,0,1-4.75-.66,5.12,5.12,0,0,1-1.87-2.37,10.35,10.35,0,0,0-1-1.58,1.11,1.11,0,0,0-1.12-.12,2.16,2.16,0,0,0-1.19,1.8c-.46,3.4,2.33,6,4,7.26a8.63,8.63,0,0,0,8.36,1c.22-.09.43-.2.65-.3a6,6,0,0,1,1.6-.59c1.75-.26,3.37,1.22,4.07,2.84.16.37.3.75.43,1.14a8.86,8.86,0,0,0,1,2.14,6,6,0,0,0,2,1.8,8.75,8.75,0,0,0,4.3,1.11,8.84,8.84,0,0,0,5.42-1.81c.43-.33.84-.71,1.24-1.08a6.3,6.3,0,0,1,3.09-2c1.47-.25,2.83.57,4.26,1.44a18.55,18.55,0,0,0,1.68.95c3.14,1.54,7.78.92,9.68-2.42a7.75,7.75,0,0,0,.44-1,67.82,67.82,0,0,1,5.33,12.5v.47c0,2.11,0,4.28-1.16,6.14a3.93,3.93,0,0,1-1.33,1.3c-3.08,1.82-6.24-1.42-8.39-3.62a6.86,6.86,0,0,0-3.77-2.08c-3.47-.61-5.23,1.91-6.93,4.34-1.2,1.72-2.44,3.49-4.27,4.12-2.49.85-5.17-.75-6.55-1.79-.58-.43-1.13-.89-1.69-1.36a17.52,17.52,0,0,0-4.42-3A10.17,10.17,0,0,0,94,391.49,22.72,22.72,0,0,0,91.16,394a21.49,21.49,0,0,1-2.63,2.33c-2.89,2.05-7.56,2.36-9.9-.45a11.34,11.34,0,0,1-1.78-3.64,13.06,13.06,0,0,0-1.69-3.61c-1.86-2.5-5.12-3.37-8.07-3.89l-.72-.13c-2.66-.45-5.41-.93-7.44-2.59a10.24,10.24,0,0,1-3.3-6.14,1.8,1.8,0,0,0-1.54-1.33,1.58,1.58,0,0,0-1.64,1c-.42.9.27,3.84.59,4.69a17.17,17.17,0,0,0,2.48,4.14A14.56,14.56,0,0,1,58,388.73a14.08,14.08,0,0,1,.2,5.47c-.33,3.33-.65,6.48,4,9.11a12,12,0,0,0,3.8,1.32c3.51.63,8.32,1.5,9.77,5a10.17,10.17,0,0,1,.42,4.47,10.58,10.58,0,0,0,.52,4.87c1.26,2.88,4.37,3.87,7.37,4.82,2.66.84,5.41,1.71,6.83,3.88a11,11,0,0,1,1.14,2.67,13.58,13.58,0,0,0,1,2.51c1.82,3.2,5.66,4.25,8.69,4.2a29.37,29.37,0,0,0,8-1.72c1-.3,1.93-.6,2.9-.86a5.12,5.12,0,0,1,2.31-.14c2.59.47,3.28,2.76,4,5.19a21.08,21.08,0,0,0,1,2.77c1.59,3.41,5.44,5.54,9.56,5.54.25,0,.5,0,.75,0Q128.52,450,126.55,452.12Zm4.39-5.16c-3.86.45-8.48-1.18-10.27-5a19.36,19.36,0,0,1-.93-2.66c-.76-2.54-1.54-5.17-4.58-5.72a6,6,0,0,0-2.64.15c-1,.27-2,.57-2.94.88a29,29,0,0,1-7.82,1.68c-3.5.06-6.66-1.42-8-3.82a12.5,12.5,0,0,1-1-2.37,11.35,11.35,0,0,0-1.22-2.85c-1.57-2.39-4.45-3.3-7.23-4.18-3-.95-5.79-1.84-6.92-4.41a10,10,0,0,1-.45-4.54,10.8,10.8,0,0,0-.48-4.79c-1.6-3.86-6.85-4.81-10.32-5.43a11.13,11.13,0,0,1-3.57-1.23c-4.2-2.39-3.93-5.17-3.61-8.39a14.47,14.47,0,0,0-.22-5.76,15.23,15.23,0,0,0-2.64-4.61A16.82,16.82,0,0,1,53.74,380c-.39-1.05-.85-3.58-.61-4.11s.49-.65.87-.59a1.1,1.1,0,0,1,.9.72,11,11,0,0,0,3.55,6.59c2.19,1.78,5,2.27,7.79,2.74l.72.13c2.8.49,5.89,1.31,7.6,3.6a12.12,12.12,0,0,1,1.58,3.41,12.38,12.38,0,0,0,1.91,3.87c2.61,3.13,7.75,2.83,10.91.58a21.61,21.61,0,0,0,2.72-2.4,21.7,21.7,0,0,1,2.7-2.38,9.41,9.41,0,0,1,8.71-1.14,16.91,16.91,0,0,1,4.23,2.87c.57.47,1.13.94,1.72,1.38,1.5,1.13,4.43,2.87,7.25,1.9,2.06-.71,3.37-2.59,4.64-4.4,1.63-2.34,3.18-4.54,6.18-4a6.3,6.3,0,0,1,3.42,1.91c2.12,2.18,5.66,5.81,9.25,3.7a4.77,4.77,0,0,0,1.58-1.55,8.93,8.93,0,0,0,1.25-4.49,67.2,67.2,0,0,1,2,11.52,6.49,6.49,0,0,1-5.69,1.11,13.22,13.22,0,0,1-4.74-3.12l-.89-.77c-2.45-2.09-4.62-3-6.62-2.66-2.17.32-4.06,2-5.8,5l-.51.91c-1,1.9-2.12,3.86-3.9,5a7.6,7.6,0,0,1-6.74.33,22.7,22.7,0,0,1-2.5-1.28c-1.83-1-3.71-2.1-5.85-1.81a9.57,9.57,0,0,0-4.28,2.16,13.21,13.21,0,0,1-2.92,1.78,8.8,8.8,0,0,1-5.55,0,2.56,2.56,0,0,0-2.53.69,2.53,2.53,0,0,0-.64,2.49,16,16,0,0,0,5.43,7.65,11.18,11.18,0,0,0,4.4,2.4c3.17.73,6.41-.73,9.16-2.27l.57-.32c2.52-1.42,5.14-2.87,7.93-2.85,3.44,0,6.43,2.37,8.32,4.33a10.6,10.6,0,0,1,2.59,3.85,13.08,13.08,0,0,1,.44,4.09,17.83,17.83,0,0,0,.25,3.49c.85,4.05,4.86,7.33,9.33,7.64l.79,0a11.69,11.69,0,0,0,2.41-.26A68.21,68.21,0,0,1,130.94,447Zm12.27-26a5.32,5.32,0,0,0-.57-1.11c-.78-1.09-2.89-3.61-5.79-3.37a8,8,0,0,0-1.56.33,10.58,10.58,0,0,1-1.08.26,5,5,0,0,1-5.74-5.69,3.88,3.88,0,0,1,1.59-2.55,2.36,2.36,0,0,1,1.86-.43,5,5,0,0,1,2.18,1.42c.21.19.41.38.63.56a7.88,7.88,0,0,0,5,1.95h.06a8.12,8.12,0,0,0,5-1.86A68.35,68.35,0,0,1,143.21,421Zm-3.45-9.38h-.06a7.19,7.19,0,0,1-4.49-1.77l-.6-.54a5.56,5.56,0,0,0-2.53-1.6,3.14,3.14,0,0,0-2.45.54,4.78,4.78,0,0,0-1.91,3.05,5.73,5.73,0,0,0,6.61,6.55,11.08,11.08,0,0,0,1.17-.28,7.38,7.38,0,0,1,1.42-.31c2.49-.22,4.4,2.07,5.11,3.07a4.85,4.85,0,0,1,.53,1.07,6.4,6.4,0,0,0,.37.8,67,67,0,0,1-5.38,14.34,11.25,11.25,0,0,1-3.58.36c-4.15-.29-7.87-3.32-8.65-7.05a16.91,16.91,0,0,1-.24-3.34,13.82,13.82,0,0,0-.48-4.33,11.33,11.33,0,0,0-2.76-4.13c-2.86-2.95-5.92-4.53-8.85-4.56h-.1c-3,0-5.63,1.5-8.21,2.95l-.57.32c-2.76,1.54-5.71,2.87-8.62,2.19a10.24,10.24,0,0,1-4.1-2.25,15.17,15.17,0,0,1-5.18-7.28,1.77,1.77,0,0,1,.45-1.75,1.81,1.81,0,0,1,1.8-.5,9.51,9.51,0,0,0,6,0,13.23,13.23,0,0,0,3.1-1.88,9,9,0,0,1,3.94-2c1.88-.25,3.58.71,5.38,1.73a23.28,23.28,0,0,0,2.59,1.31,8.23,8.23,0,0,0,7.41-.39c2-1.21,3.08-3.26,4.17-5.23.16-.31.33-.61.5-.91,1.62-2.85,3.34-4.38,5.26-4.66s3.75.55,6,2.49l.87.76a13.88,13.88,0,0,0,5,3.28,7.21,7.21,0,0,0,6-1c.14,1.71.22,3.43.22,5.18,0,1.16,0,2.32-.09,3.47A7,7,0,0,1,139.76,411.57Z"/><path class="cls-2" d="M466.19,252.75l-5.63-3.05a.79.79,0,0,1-.39-.59l-.67-6.36a1.51,1.51,0,0,0-2.53-.93l-4.64,4.41a.76.76,0,0,1-.68.19l-6.25-1.32a1.5,1.5,0,0,0-1.67,2.12l2.75,5.77a.75.75,0,0,1,0,.7l-3.19,5.54a1.5,1.5,0,0,0,.05,1.59,1.48,1.48,0,0,0,1.45.65l6.34-.84a.76.76,0,0,1,.66.25l4.28,4.74a1.46,1.46,0,0,0,1.11.5,1.52,1.52,0,0,0,.42-.06,1.49,1.49,0,0,0,1.07-1.17l1.16-6.29a.76.76,0,0,1,.43-.55l5.84-2.61a1.48,1.48,0,0,0,.89-1.31A1.5,1.5,0,0,0,466.19,252.75Zm-.41,2-5.84,2.6a1.54,1.54,0,0,0-.87,1.1l-1.16,6.29a.75.75,0,0,1-1.3.37l-4.29-4.75a1.5,1.5,0,0,0-1.31-.48l-6.34.84a.75.75,0,0,1-.73-.33.73.73,0,0,1,0-.79l3.19-5.55a1.51,1.51,0,0,0,.05-1.4l-2.75-5.77a.73.73,0,0,1,.08-.79.74.74,0,0,1,.75-.27l6.26,1.32a1.52,1.52,0,0,0,1.35-.38l4.63-4.4a.71.71,0,0,1,.78-.16.72.72,0,0,1,.49.62l.68,6.36a1.49,1.49,0,0,0,.78,1.17l5.62,3a.76.76,0,0,1-.05,1.35Z"/><path class="cls-2" d="M96.08,23.41a1.13,1.13,0,0,0-.89-1.82H90.92a.38.38,0,0,1-.31-.16L88.2,17.9a1.12,1.12,0,0,0-1.09-.49,1.16,1.16,0,0,0-.92.77l-1.33,4.05a.37.37,0,0,1-.25.25l-4.09,1.2a1.15,1.15,0,0,0-.8.89,1.14,1.14,0,0,0,.45,1.11l3.45,2.51a.41.41,0,0,1,.15.32l-.12,4.27a1.14,1.14,0,0,0,.6,1,1.25,1.25,0,0,0,.53.13,1.09,1.09,0,0,0,.66-.22l3.46-2.49a.37.37,0,0,1,.35-.05l4,1.43a1.13,1.13,0,0,0,1.45-1.41l-1.31-4.06a.4.4,0,0,1,.06-.35Zm-3.38,4L94,31.43a.4.4,0,0,1-.1.39.37.37,0,0,1-.39.08l-4-1.43a1.11,1.11,0,0,0-1,.15L85,33.11a.38.38,0,0,1-.6-.31l.12-4.27a1.12,1.12,0,0,0-.46-.94l-3.45-2.52a.38.38,0,0,1-.15-.37.39.39,0,0,1,.27-.3l4.09-1.2a1.15,1.15,0,0,0,.76-.73l1.33-4.06a.35.35,0,0,1,.3-.25h.06a.37.37,0,0,1,.31.17L90,21.84a1.12,1.12,0,0,0,.93.49h4.26a.36.36,0,0,1,.34.22.35.35,0,0,1,0,.39l-2.6,3.38A1.11,1.11,0,0,0,92.7,27.37Z"/><path class="cls-2" d="M316.32,170.24a.74.74,0,0,0-.65-.46l-2.17-.14-1.13-1.86a.76.76,0,0,0-1.35.12l-.8,2-2.12.49a.77.77,0,0,0-.31,1.33l1.68,1.39-.18,2.16a.73.73,0,0,0,.36.71.7.7,0,0,0,.39.11.78.78,0,0,0,.41-.12l1.84-1.16,2,.84a.8.8,0,0,0,.3.06.74.74,0,0,0,.49-.18.77.77,0,0,0,.24-.77l-.55-2.11L316.2,171A.74.74,0,0,0,316.32,170.24Zm-2.11,1.94a.73.73,0,0,0-.16.69l.53,2.11-2-.85a.79.79,0,0,0-.7.06L310,175.35l.19-2.16a.77.77,0,0,0-.27-.65l-1.68-1.39,2.12-.5a.72.72,0,0,0,.53-.46l.81-2,1.12,1.86a.8.8,0,0,0,.61.37l2.17.14Z"/><path class="cls-2" d="M71.14,275.61a.66.66,0,0,0-.45-.56l-1.61-.53-.46-1.68a.68.68,0,0,0-1.2-.22l-1,1.36-1.74-.08a.72.72,0,0,0-.62.36.69.69,0,0,0,0,.72l1,1.36L64.47,278a.69.69,0,0,0,.15.71.67.67,0,0,0,.69.18l1.61-.52,1.36,1.09a.68.68,0,0,0,.42.15.66.66,0,0,0,.3-.07.69.69,0,0,0,.39-.6v-1.69l1.45-1A.66.66,0,0,0,71.14,275.61Zm-2.16,1a.69.69,0,0,0-.31.56v1.64l-1.3-1a.66.66,0,0,0-.42-.15.69.69,0,0,0-.2,0l-1.53.47.56-1.51a.67.67,0,0,0-.08-.63l-.92-1.31,1.6.07a.7.7,0,0,0,.58-.27l1-1.28.43,1.54a.69.69,0,0,0,.44.47l1.51.52Z"/><path class="cls-2" d="M260.59,460.29a.71.71,0,0,0-.56-.47l-1.68-.21-.78-1.58a.72.72,0,0,0-1.23,0l-.72,1.54-1.74.25a.68.68,0,0,0-.55.47.69.69,0,0,0,.17.7l1.24,1.16-.3,1.73a.69.69,0,0,0,.27.67.71.71,0,0,0,.41.13.61.61,0,0,0,.32-.08l1.49-.81,1.55.81a.65.65,0,0,0,.72-.05.67.67,0,0,0,.27-.67l-.31-1.67,1.25-1.22A.68.68,0,0,0,260.59,460.29Zm-2,1.38a.69.69,0,0,0-.19.61l.31,1.62-1.47-.77a.61.61,0,0,0-.32-.08.71.71,0,0,0-.32.07l-1.43.76.27-1.6a.67.67,0,0,0-.2-.6l-1.16-1.14,1.6-.23a.67.67,0,0,0,.52-.37l.72-1.46.71,1.46a.69.69,0,0,0,.52.37l1.6.23Z"/><path class="cls-2" d="M28.68,83.93l-1-.31,0-1.16a.69.69,0,0,0-.39-.63.68.68,0,0,0-.72.1l-.8.75-1-.61a.68.68,0,0,0-1,.7L24,83.83l-1,.54a.67.67,0,0,0-.35.65.66.66,0,0,0,.45.58l1,.31,0,1.16a.66.66,0,0,0,.38.63.59.59,0,0,0,.29.07.72.72,0,0,0,.44-.16l.79-.75,1,.61a.68.68,0,0,0,.74,0,.67.67,0,0,0,.28-.68l-.25-1.06,1-.55a.66.66,0,0,0,.35-.64A.67.67,0,0,0,28.68,83.93ZM27.4,85.05a.68.68,0,0,0-.34.72l.23,1-.89-.55a.66.66,0,0,0-.79.06l-.75.64,0-1a.67.67,0,0,0-.45-.66L23.51,85l.87-.46a.66.66,0,0,0,.34-.72l-.18-1,.84.52a.68.68,0,0,0,.79-.06l.75-.65,0,1a.68.68,0,0,0,.45.66l.93.32Z"/><path class="cls-2" d="M434.05,71.14a1.15,1.15,0,0,0-.77-2l-3-.13a.38.38,0,0,1-.37-.29l-.79-2.9a1.14,1.14,0,0,0-.94-.83,1.11,1.11,0,0,0-1.14.52l-1.61,2.54a.41.41,0,0,1-.44.17l-2.9-.77a1.15,1.15,0,0,0-1.31,1.65l1.39,2.66a.39.39,0,0,1-.07.47L420,74.41a1.13,1.13,0,0,0-.26,1.23,1.14,1.14,0,0,0,1,.73l3,.12a.42.42,0,0,1,.37.29l.79,2.9a1.13,1.13,0,0,0,.93.84H426a1.14,1.14,0,0,0,1-.53l1.6-2.54a.41.41,0,0,1,.44-.18l2.91.77a1.15,1.15,0,0,0,1.31-1.64l-1.39-2.67a.37.37,0,0,1,.07-.46Zm-2.85,3,1.4,2.66a.4.4,0,0,1-.05.44.39.39,0,0,1-.41.14l-2.9-.77a1.14,1.14,0,0,0-1.27.5l-1.61,2.53a.41.41,0,0,1-.39.19.4.4,0,0,1-.33-.29l-.79-2.9a1.14,1.14,0,0,0-1.06-.85l-3-.12a.41.41,0,0,1-.36-.25.4.4,0,0,1,.09-.43l2.12-2.14a1.15,1.15,0,0,0,.2-1.34l-1.4-2.66a.4.4,0,0,1,0-.43.43.43,0,0,1,.31-.15h.11l2.9.76a1.15,1.15,0,0,0,1.27-.49l1.6-2.54a.38.38,0,0,1,.4-.18.41.41,0,0,1,.33.29l.79,2.9a1.14,1.14,0,0,0,1.06.84l3,.13a.4.4,0,0,1,.27.68l-2.12,2.13A1.15,1.15,0,0,0,431.2,74.09Z"/><path class="cls-2" d="M20.84,219.56a1.51,1.51,0,0,0-1-2.57l-4.41-.18a.76.76,0,0,1-.7-.56L13.56,212a1.51,1.51,0,0,0-2.74-.41L8.46,215.3a.75.75,0,0,1-.84.33l-4.26-1.12a1.51,1.51,0,0,0-1.73,2.16l2.05,3.91a.76.76,0,0,1-.13.89L.44,224.6a1.48,1.48,0,0,0-.33,1.62,1.5,1.5,0,0,0,1.34,1l4.41.18a.75.75,0,0,1,.7.56l1.16,4.26A1.5,1.5,0,0,0,9,233.27l.23,0a1.49,1.49,0,0,0,1.27-.7l2.36-3.73a.77.77,0,0,1,.84-.33l4.26,1.12a1.51,1.51,0,0,0,1.73-2.16l-2-3.91a.76.76,0,0,1,.13-.89Zm-3.91,4.37L19,227.84a.73.73,0,0,1-.08.83.74.74,0,0,1-.79.26l-4.26-1.12a1.5,1.5,0,0,0-1.66.65l-2.36,3.73A.77.77,0,0,1,8.45,232l-1.16-4.26a1.52,1.52,0,0,0-1.4-1.11l-4.41-.18A.72.72,0,0,1,.81,226a.74.74,0,0,1,.16-.82L4.08,222a1.5,1.5,0,0,0,.26-1.77l-2-3.9a.72.72,0,0,1,.08-.83.73.73,0,0,1,.58-.29.76.76,0,0,1,.21,0l4.26,1.12a1.5,1.5,0,0,0,1.66-.65L11.45,212a.77.77,0,0,1,.76-.35.75.75,0,0,1,.62.56L14,216.44a1.53,1.53,0,0,0,1.4,1.12l4.41.18a.72.72,0,0,1,.67.48.74.74,0,0,1-.16.81l-3.11,3.14A1.52,1.52,0,0,0,16.93,223.93Z"/><path class="cls-2" d="M214.46,436.59l-2.55-1.1a.34.34,0,0,1-.2-.34l.28-2.75a1.09,1.09,0,0,0-.55-1.06,1.06,1.06,0,0,0-1.18.07L208,433.07a.35.35,0,0,1-.4,0l-2.25-1.62a1.09,1.09,0,0,0-1.72,1l.33,2.75a.36.36,0,0,1-.2.35l-2.52,1.14a1.09,1.09,0,0,0,0,2l2.54,1.09a.35.35,0,0,1,.21.35l-.28,2.75a1.09,1.09,0,0,0,.55,1.06,1.13,1.13,0,0,0,.53.14,1,1,0,0,0,.65-.22l2.22-1.65a.33.33,0,0,1,.4,0l2.25,1.61a1.08,1.08,0,0,0,1.71-1l-.32-2.75a.32.32,0,0,1,.2-.34l2.52-1.14a1.09,1.09,0,0,0,0-2Zm-.3,1.31L211.64,439a1.09,1.09,0,0,0-.63,1.12l.32,2.75a.34.34,0,0,1-.17.33.31.31,0,0,1-.36,0l-2.25-1.61a1.08,1.08,0,0,0-1.29,0L205,443.26a.34.34,0,0,1-.53-.3l.27-2.76a1.06,1.06,0,0,0-.65-1.1l-2.54-1.1a.33.33,0,0,1-.2-.31.32.32,0,0,1,.19-.31l2.53-1.14a1.07,1.07,0,0,0,.63-1.11l-.32-2.75a.31.31,0,0,1,.16-.33.32.32,0,0,1,.18-.05.3.3,0,0,1,.19.06l2.25,1.62a1.08,1.08,0,0,0,1.28,0L210.7,432a.33.33,0,0,1,.37,0,.34.34,0,0,1,.17.33l-.27,2.75a1.08,1.08,0,0,0,.65,1.11l2.54,1.1a.32.32,0,0,1,.2.31A.33.33,0,0,1,214.16,437.9Z"/><path class="cls-2" d="M437.31,160.34c-2.47-2.71-7.63-4-15.31-3.92-.19-.27-.39-.54-.59-.8a18,18,0,0,0-25-3.23c-5.8-2.37-9.76-3-12.07-3.11-4.44-.2-7.45,1.84-8.2,5.59-.41,2.06.34,4.23,2.3,6.54-3.71,1.88-5.27,4.94-4.27,8.46,1.25,4.43,7.14,6.74,18.71,7.21a1.19,1.19,0,0,0,.08.16c.36.51.58.78,1,1.33l.24.26a17.55,17.55,0,0,0,23.37,2.55A46.57,46.57,0,0,0,428,182.8c3.76,0,6.61-.81,7.84-2.68,1.37-2.1,2.08-5.39-1.93-9.44,2.83-1.58,4.69-3.42,4.91-5.47A6,6,0,0,0,437.31,160.34ZM397.25,154A16.24,16.24,0,0,1,420,156.7q.29.36.54.72a20.54,20.54,0,0,1,2.85,6.27,14.37,14.37,0,0,1,.43,3.92c0,.4,0,.87,0,1.24a83.74,83.74,0,0,1-17.12,2.73l-.7,0h-.68L404,171a96.79,96.79,0,0,1-12.81-6.66A16.06,16.06,0,0,1,397.25,154Zm-10.05,7.67c-.35-.26-.69-.53-1-.79,1.32-.24,2.74-.44,4.23-.59-.12.3-.25.59-.35.89A28.52,28.52,0,0,0,387.2,161.64Zm2.39,1.34c0,.1,0,.21,0,.32l-.37-.25Zm-5.09-3.57c-.55-.51-1.06-1-1.5-1.5l-.13-.14c-1-1.12-1.89-2.21-1.44-3.08.26-.52,1.56-.84,3.17-.76a31.65,31.65,0,0,1,8.44,1.8,17,17,0,0,0-1.78,2.7A50.52,50.52,0,0,0,384.5,159.41Zm-8.6,10c-1-3.59,1.51-5.59,3.8-6.64l0,0q.42.42.9.84l-.09,0c-.91.41-3.68,1.67-3.5,3.79.53,6,12.17,6.06,17.76,6.08.85,0,1.52,0,1.85,0h.12c1.25.61,2.56,1.24,3.93,1.87C385.26,175.68,377.12,173.73,375.9,169.4Zm5.44-4.22c.28-.13.46-.21.81-.34a60.85,60.85,0,0,0,7.44,4.89,17.64,17.64,0,0,0,.48,1.9c-4.93-.25-11-1.15-11.27-4.38C378.78,167.05,378.9,166.29,381.34,165.18Zm10.33,5.71,1.58.84-1.36,0a.5.5,0,0,0,0-.17Zm8.72,10.53a16.19,16.19,0,0,1-4.81-3.77l-.22-.23-.22-.28c.78,0,1.59,0,2.42,0,2.13,0,4.4,0,6.84-.15h0a87.88,87.88,0,0,0,10.93,3.77A16.19,16.19,0,0,1,400.39,181.42Zm34-2.26c-2.55,3.88-17.66,1.6-31.7-4.79C385.29,166.45,377,160,377.91,155.21c.73-3.65,3.88-4.28,6.4-4.18a34.35,34.35,0,0,1,10.62,2.63c-.23.22-.44.44-.65.66a34,34,0,0,0-9.6-2.14c-1.43-.07-4,.07-4.81,1.71-1,2,.68,3.92,1.7,5.05l.13.14c3.9,4.34,11.76,9.27,21.56,13.53A98.68,98.68,0,0,0,413,176.3l0,0A50.77,50.77,0,0,0,427.63,179h.11c2.19,0,5.14-.22,6-1.92,1-2-.81-4-2.28-5.23l.8-.36C435.18,174.28,435.92,176.84,434.4,179.16Zm-16.89-3.38c1.35-.23,2.71-.5,4-.79a14.79,14.79,0,0,1-1.1,1.47C419.49,176.27,418.51,176,417.51,175.78Zm4.88,1a16.24,16.24,0,0,0,1.52-2.39h0a54.06,54.06,0,0,0,5.71-1.78c1.38,1.1,3.1,2.65,2.57,3.68-.11.23-.78,1-4.51,1h-.09A34.91,34.91,0,0,1,422.39,176.82ZM437.1,165c-.42,3.8-10.79,8-23.65,9.59-1.37-.44-2.77-.93-4.21-1.47,9.08-.79,16.75-2.59,21.79-5.15,2-1,4.56-2.55,4.56-4.49,0-2.75-3.68-3.49-5.45-3.84a40.4,40.4,0,0,0-6.65-.72c-.14-.27-.28-.54-.42-.78,6.48,0,11,1.19,12.94,3.36A4.22,4.22,0,0,1,437.1,165Zm-11.67-.11c-.07-.49-.17-1-.3-1.58a13.19,13.19,0,0,0-.82-2.61,37.46,37.46,0,0,1,5.48.65c1.74.35,4,.95,4,2.13,0,.26-.26,1.23-3.65,2.95-.35.18-.71.35-1.08.52C428,166.28,426.77,165.59,425.43,164.91Zm1.66,2.89-1,.35-.49-.28a2.35,2.35,0,0,0,0-.27c0-.21,0-.42,0-.63C426.12,167.25,426.61,167.52,427.09,167.8Z"/><path class="cls-2" d="M256.24,128.69c-5.34-5-16.22-9-19.45-9.2h-.07a.86.86,0,0,0-.82.5c-2.76,7-2.57,20.5,2,22.71a3.59,3.59,0,0,0,1.59.35c4.67,0,11.25-7.57,14.35-10.53.61-.58,2.07-2.05,2.45-2.45A1,1,0,0,0,256.24,128.69Zm-3.6,2.56c-.52.5-1.11,1.1-1.79,1.79-2.86,2.89-8.17,8.26-11.35,8.26a1.84,1.84,0,0,1-.83-.17c-3.09-1.5-3.82-12.85-1.4-19.82,3.4.55,12.34,4,17.2,8.13C253.88,130,253.05,130.86,252.64,131.25Z"/><path class="cls-1" d="M218.33,176.68a1.27,1.27,0,0,1-.62.18h-.14a.89.89,0,0,1-.65-.41,1.08,1.08,0,0,1-.13-.78,1,1,0,0,1,.46-.72,1.13,1.13,0,0,1,1.49.37A1,1,0,0,1,218.33,176.68Z"/><path class="cls-1" d="M221.25,174.78a.88.88,0,0,1-.25.74,1.21,1.21,0,0,1-.7.36h-.17a1,1,0,0,1-1-.81,1.13,1.13,0,0,1,.94-1.21A1.12,1.12,0,0,1,221.25,174.78Z"/><path class="cls-1" d="M223.07,178.72a2.19,2.19,0,0,1-2.23,2.33h-.31a2.75,2.75,0,0,1-1.89-.68,2,2,0,0,1-.65-1.56,2.3,2.3,0,0,1,2.27-2.27,2.71,2.71,0,0,1,2.07.61A2.17,2.17,0,0,1,223.07,178.72Z"/><path class="cls-1" d="M223.63,175.8a1,1,0,0,1-.91.54,1.22,1.22,0,0,1-.45-.08,1,1,0,0,1-.64-1.28,1.14,1.14,0,0,1,1.41-.6A1.14,1.14,0,0,1,223.63,175.8Z"/><path class="cls-1" d="M244.74,185.77a1.19,1.19,0,0,1-.73.49l-.26,0a1.13,1.13,0,0,1-.6-.17.9.9,0,0,1-.39-.56,1.13,1.13,0,0,1,.14-.77,1.07,1.07,0,0,1,.69-.52,1,1,0,0,1,.78.16,1.19,1.19,0,0,1,.5.68A.89.89,0,0,1,244.74,185.77Z"/><path class="cls-1" d="M247.39,185.6a.9.9,0,0,1-.4.56,1.13,1.13,0,0,1-.87.15,1.13,1.13,0,0,1-.74-.49.9.9,0,0,1-.14-.67,1.13,1.13,0,0,1,1.29-.82,1,1,0,0,1,.69.5A1,1,0,0,1,247.39,185.6Z"/><path class="cls-1" d="M247,190.31a1.94,1.94,0,0,1-1.77.95,3.33,3.33,0,0,1-.86-.11,2.61,2.61,0,0,1-1.66-1.31,1.88,1.88,0,0,1,0-1.68,2.35,2.35,0,0,1,1.42-1.18,2.43,2.43,0,0,1,1.92.19,2.21,2.21,0,0,1,.91,3.14Z"/><path class="cls-1" d="M249,187.61a.84.84,0,0,1-.66.28h-.05a1.08,1.08,0,0,1-.72-.3,1,1,0,0,1-.17-1.42,1.14,1.14,0,0,1,1.53-.08A1.12,1.12,0,0,1,249,187.61Z"/><path class="cls-2" d="M199.7,232.39a28.74,28.74,0,1,0-19.84,49.55h.7a28.74,28.74,0,0,0,19.14-49.54ZM167.31,248.7c-1.67,3.34-3.17,3.59-4.57,3.57a4.37,4.37,0,0,1-3.39-1.67,4.88,4.88,0,0,1-.53-4.33c3.25-11.24,13.77-15.69,21.54-15.69a18.67,18.67,0,0,1,2.54.17c2.65.38,4.37,2.08,4.37,4.33,0,2.49-1.33,4-3.63,4.25-.26,0-.63,0-1,0s-1.15,0-1.64,0C174.68,240,170.86,242.56,167.31,248.7Zm27.19-5.07a2.92,2.92,0,1,1,2.92-2.91A2.91,2.91,0,0,1,194.5,243.63Z"/><path class="cls-2" d="M411.82,391c-13.1-22.07-43-44.9-48.39-47.95l11.66-3.38-26.29-7.57,20.9-9.26-34.06-5.42,11.13-8.15L322,308.69a51.19,51.19,0,0,0,2-10.31l8.08-.59-2.38-1.58-5.67.41a5.26,5.26,0,0,0-1.92-4,3.7,3.7,0,0,0-1-.6c-1.08-.45-2.27-.89-3.42-1.31-2.6-1-5.26-2-6.56-3,.27-1.08.49-2.05.67-2.9,0-.16.07-.31.1-.45l-1.57-1c-.05.23-.1.48-.15.74-.45,2.09-1.15,5-2.21,8.6-.75,2.54-1.69,5.38-2.84,8.44-.5,1.32-1,2.69-1.62,4.08l-.2-.12q-3.46-1.95-6.73-3.68l-1,1.48c2.21,1.16,4.5,2.4,6.85,3.73a101.81,101.81,0,0,1,14.85,10.8l.36.3,1,.84c1.67,1.42,3.36,2.89,5.06,4.37l2,1.73c1.1,1,2.39,2.12,3.81,3.37,8.24,7.28,20.7,18.27,29.62,28.66h0c-7.75-.94-28.23-5.66-46.9-12.19h0c-1.17-.41-2.33-.82-3.49-1.25l-.36-.13c-1.1-.41-2.2-.82-3.28-1.24l-.26-.1c-.71-.29-1.43-.56-2.13-.85a119.26,119.26,0,0,1-14-6.56,80.48,80.48,0,0,1-9.68-6.56l-1,1.45a85.32,85.32,0,0,0,9,6.16c-1.54,2.31-3.1,4.48-4.66,6.51-1.82,2.37-3.63,4.55-5.36,6.52a125.27,125.27,0,0,1-9.21,9.46l1.5,1q.8-.74,1.71-1.62a47.08,47.08,0,0,1,6,4.17l.61.47c.48.37.93.73,1.39,1.07a5.85,5.85,0,0,0,3.49,1.09,7.73,7.73,0,0,0,3.71-1c1.12-.69,2.24-1.46,3.35-2.29l3,13.21,1.34-2-2.83-12.38a58.31,58.31,0,0,0,5.75-5.4l3.35,20.16,9-15.56,12.85,24.68,5.36-23,22.4,22.3L347,367.45c27,4.86,51.51,26.74,51.51,26.74,12.77,10.45,19.77,20.86,23.64,30.11C422.69,414.32,416.51,398.84,411.82,391Zm-92.45-74.17c.29-.77.55-1.52.81-2.25a22.56,22.56,0,0,1-.79,2.27Z"/><path class="cls-2" d="M184.66,165.39a5.48,5.48,0,0,1-5.47,5.37h-.11a4.09,4.09,0,0,1-.6-.07c-.1.47-.18.92-.23,1.35a7.38,7.38,0,0,1-1.65-.79c.05-.34.12-.69.2-1.05a5.63,5.63,0,0,1-1.56-1.11,5.48,5.48,0,0,1,3.94-9.28h.1a5.48,5.48,0,0,1,5.38,5.58Z"/></g></g></svg>