<svg xmlns="http://www.w3.org/2000/svg" viewBox="0 0 201.25 264.43"><defs><style>.cls-1{fill:#9fd189;}.cls-2{fill:#f38fba;}.cls-3{fill:#4664ae;}</style></defs><g id="Layer_2" data-name="Layer 2"><g id="Layer_1-2" data-name="Layer 1"><path class="cls-1" d="M35.57,146.58l-1.54,1c-.39-.33-.79-.69-1.21-1.06A66.07,66.07,0,0,1,21.54,134.2,99,99,0,0,1,4.77,96.36C4,92.72,3.58,89.58,3.24,86.87l1.64-1c.34,2.85.8,6.22,1.6,10.15a97.22,97.22,0,0,0,16.43,37.1,65.37,65.37,0,0,0,11,12Z"/><path class="cls-1" d="M26.37,73.51,25,73.32l.89-.56Z"/><path class="cls-2" d="M54.36,120.6a.86.86,0,0,1-1.23.13,6.72,6.72,0,0,1-2-3,17.31,17.31,0,0,0-11.62-.41,16.24,16.24,0,0,0-4.89,2.22l-.36.35-.48-.14a7.07,7.07,0,0,0-3.06.08,1.5,1.5,0,0,0-.69.28c-.15.18-.11.64.11,1.15a13,13,0,0,0,1.35,2.3,13.87,13.87,0,0,1,1.69,3.08,12.34,12.34,0,0,1,.4,1.62c.09.4.17.81.29,1.2,1,3.48,4.74,5.48,6.86,6.36l1.57.66-1.44.89a29.56,29.56,0,0,0-2.41,3.67l.39.19c.9.43,2,.94,3.09,1.39l-1.82,1.13c-.73-.32-1.41-.65-2-.94-.45-.22-.85-.41-1.19-.56l-.81-.36.37-.81A34.89,34.89,0,0,1,39,137a17.8,17.8,0,0,1-3.25-2,6,6,0,0,0-2.19.25,9.73,9.73,0,0,1-2.17.34,3.53,3.53,0,0,1-1.58-.35,5.27,5.27,0,0,1-1.72-1.56c-9.66-12-15.61-24.3-17.68-36.55a23.56,23.56,0,0,0-.76-2.86c-.7-2.27-1.3-4.24-.24-5.3a2.82,2.82,0,0,1,.91-.64l-.13-.14a42.44,42.44,0,0,0-3.68-3.28l1.57-1a43.68,43.68,0,0,1,3.35,3c.65.66,1.28,1.33,1.91,2s1.54,1.65,2.34,2.42a68.61,68.61,0,0,0,8.12,6.4,64.18,64.18,0,0,1,8.85,7.08,15.65,15.65,0,0,1,3.58,5.08,20.69,20.69,0,0,1,.94,3.44c.09.45.18.9.29,1.35s.24.92.39,1.39c.41-.15.8-.29,1.14-.39a19.12,19.12,0,0,1,11.64,0,25.87,25.87,0,0,1-.26-2.74,1.27,1.27,0,0,1,.14-.74l1.79,2.88a11.45,11.45,0,0,0,.28,1.44,5.47,5.47,0,0,0,1.69,2.82A.87.87,0,0,1,54.36,120.6Z"/><path class="cls-1" d="M61.71,116.92a6.12,6.12,0,0,1,0,2l-2.23-3.17s0,0,0,0l0,0-.13-.18-2.6-3.7a7.11,7.11,0,0,1,.89.29A6.41,6.41,0,0,1,61.71,116.92Z"/><path class="cls-3" d="M97.58,92.52c-1.2.33-2.39.69-3.56,1.08l-.37.12h0l-.27.09h0C87.59,95.46,83.08,97,79.83,99.1a2.9,2.9,0,0,1-1.46.59,1.26,1.26,0,0,1-.61-.16c-1-.61-.17-2.73.56-4.6l.31-.82a.43.43,0,0,0,0-.33.3.3,0,0,0-.22-.06,8.85,8.85,0,0,0-2.5.8c-.39.18-.8.36-1.29.54l-.43.16c-.76.31-1.63.66-2.22.07a2,2,0,0,1,.27-2.65.29.29,0,0,0,.1-.25.42.42,0,0,0-.15-.31A74.34,74.34,0,0,0,47.42,78.39,113.17,113.17,0,0,0,30.2,74.12h0l-1.81-2.58q2,.08,3.93.21c.24,0,26.66,1,51.22,16.41a2.38,2.38,0,0,1,1.09-2,1.5,1.5,0,0,1,1.53.16,3.33,3.33,0,0,1,.83.75c.43-1.74,1.12-3.26,2.23-3.41,1.36-.19,2.06,1.49,2.33,2.12a39.9,39.9,0,0,0,2.61,5.89c.78-.25,1.57-.49,2.37-.71Z"/><path class="cls-3" d="M130.21,50.37a5.24,5.24,0,0,0,.14,2.87c.13.29.4.36.9.47a2.41,2.41,0,0,1,1.53.76c.64.51.26,1.51-.11,2.49a7.78,7.78,0,0,0-.39,1.23.82.82,0,0,0,0,.35c.06.1.29.08.6,0a2.82,2.82,0,0,1,.48,0,2,2,0,0,1,1.82,2,5.28,5.28,0,0,1-.6,2.38l-.05.1a43.57,43.57,0,0,0-2.76,11.32c-.07.52-.15,1.79.61,2.33l.11.08a1.42,1.42,0,0,1,.44.39c.39.6-.09,1.29-.29,1.59a4.65,4.65,0,0,0-1.15,2.93,3.38,3.38,0,0,1,2.14.12,1.28,1.28,0,0,1,.78.87l0,.09,0,.08c-.17.75-.87,1.09-1.5,1.38s-1,.52-1,.89.57.85,1.15,1.17c.85.47,1.56,1.35,1.13,2.18l-.12.23-.26,0c-.55-.08-1.17-.19-1.79-.3l-1-.17a2.48,2.48,0,0,1,0,1.25c-.19.92-1.64,1.89-1.65,1.9a.84.84,0,0,1-.48.14.87.87,0,0,1-.48-1.6,3.8,3.8,0,0,0,.93-.89.6.6,0,0,0-.45-.71,1.84,1.84,0,0,0-1,.07,8.43,8.43,0,0,0-2.29,1l-2.47,1.59,1.19-2.68a6.12,6.12,0,0,0,.75-2.8,2.51,2.51,0,0,0-.23-.81,38.4,38.4,0,0,1-5.26,5.18.87.87,0,0,1-1.1-1.36c.3-.24.59-.5.89-.76l-.57.15a27,27,0,0,1-5.76,1,5,5,0,0,1-1.4-.17l-.14,0-.07-.13a1.2,1.2,0,0,0-.08-.18l-.43-.66,4-20a142.5,142.5,0,0,1,20.16-39.76l1.92.39-.23.3c-1,2.33-1.81,5-2.48,7.08l-1.8,5.69A59.13,59.13,0,0,0,130.21,50.37Z"/><path class="cls-2" d="M185.22,88.22l-4.49,2.59a15.73,15.73,0,0,0-2.09.74,11.27,11.27,0,0,0-3.82,2.67l-3.17,1.83-.11-.19-.51-3a1.64,1.64,0,0,1,0-.18h-.09a5.1,5.1,0,0,0-1.17,0l-.92-1.6a6.54,6.54,0,0,1,2.25-.18,1.91,1.91,0,0,1,1.08.39,2,2,0,0,1,.61,1.24l.19,1.13A11.83,11.83,0,0,1,176,91a39.52,39.52,0,0,0-5-5.92,40,40,0,0,1-5.4-6.49c-2.05-3.33-3.05-7.14-4-10.83-.19-.73-.38-1.45-.58-2.18a184.94,184.94,0,0,0-7.73-21.33l-.2-.51a33.65,33.65,0,0,1-1.87-5.44l1.61-.93c.07.39.16.79.26,1.18a1.92,1.92,0,0,1,1-.05A3.33,3.33,0,0,1,155.85,40c4.05,5.27,7.49,10.45,11.13,15.93,1.21,1.82,2.42,3.65,3.67,5.5,5.42,8,10.78,17.55,9.92,27.66A30.48,30.48,0,0,1,185.22,88.22Z"/><path class="cls-1" d="M186.83,87.29l-1.61.93a64.12,64.12,0,0,0-5.13-16.67,72.43,72.43,0,0,0-4.34-7.69c-6-9.59-12.54-19.31-20.45-27.89l1.55-.89c7.89,8.6,14.42,18.3,20.39,27.86a76.17,76.17,0,0,1,4.44,7.87A66,66,0,0,1,186.83,87.29Z"/><path class="cls-3" d="M98,259a5.42,5.42,0,1,1-9.38-3.69,6.44,6.44,0,0,1-.17-2.63h1.79a4.88,4.88,0,0,0-.07,1.47A5.41,5.41,0,0,1,98,259Z"/><path class="cls-2" d="M117.84,257.68a.05.05,0,0,0,0,0h0Z"/><path class="cls-2" d="M121.57,251.54a1.29,1.29,0,0,1-.51.1,1.34,1.34,0,0,1-.59-.13,1.24,1.24,0,0,1-.65-.74,1.4,1.4,0,0,1,.88-1.71,1.17,1.17,0,0,1,1,.1,1.46,1.46,0,0,1,.75,1C122.6,251.06,122.07,251.34,121.57,251.54Z"/><path class="cls-2" d="M122.83,249.21a1.44,1.44,0,0,1,.23-1.14,1.31,1.31,0,0,1,.91-.58,1.32,1.32,0,0,1,1.38,2,1.23,1.23,0,0,1-.88.56,2.73,2.73,0,0,1-.37,0A1.18,1.18,0,0,1,122.83,249.21Z"/><path class="cls-2" d="M125.51,256.87a2.83,2.83,0,0,1-.41,0,3.09,3.09,0,0,1-1.84-.64,3,3,0,0,1-1.2-2,3,3,0,0,1,.65-2.2,3.12,3.12,0,0,1,2.1-1.18,2.74,2.74,0,0,1,2.21.7,3.21,3.21,0,0,1,1,2A2.77,2.77,0,0,1,125.51,256.87Z"/><path class="cls-2" d="M126.18,249.25a1.25,1.25,0,0,1,.48-.84,1.37,1.37,0,0,1,1-.19,1.35,1.35,0,0,1,1.16,1.42,1.33,1.33,0,0,1-.51,1,1.08,1.08,0,0,1-.67.22.78.78,0,0,1-.22,0A1.47,1.47,0,0,1,126.18,249.25Z"/><path class="cls-2" d="M129.84,245.08v1.33a8.2,8.2,0,0,0-.94-1.33Z"/><path class="cls-2" d="M129.84,254.83v2.88h-2.66A8.54,8.54,0,0,0,129.84,254.83Z"/><path class="cls-2" d="M155.71,250.48a1.19,1.19,0,0,1-.76-.26,1.2,1.2,0,0,1-.45-.9,1.37,1.37,0,0,1,1.15-1.53,1.4,1.4,0,0,1,1.6,1.12,1.16,1.16,0,0,1-.18.91,1.72,1.72,0,0,1-1.16.65Z"/><path class="cls-2" d="M157.86,248.39a1.5,1.5,0,0,1,.49-1.07,1.38,1.38,0,0,1,2.32.91,1.35,1.35,0,0,1-.43,1.05,1.27,1.27,0,0,1-.85.35h-.13C158.92,249.58,157.89,249.47,157.86,248.39Z"/><path class="cls-2" d="M161.67,253.72a2.8,2.8,0,0,1-2.88,2.61l-.5,0a3,3,0,0,1-2.55-3.3,2.86,2.86,0,0,1,3.3-2.51,3.06,3.06,0,0,1,2.18,1.19A2.57,2.57,0,0,1,161.67,253.72Z"/><path class="cls-2" d="M161,250.14a1.41,1.41,0,0,1,0-1,1.28,1.28,0,0,1,.85-.75,1.19,1.19,0,0,1,1.07.19,1.36,1.36,0,0,1,.51,1.66,1.26,1.26,0,0,1-.66.7,1.23,1.23,0,0,1-.53.11,1.12,1.12,0,0,1-.45-.08A1.43,1.43,0,0,1,161,250.14Z"/><path class="cls-2" d="M163.69,245.08v.49a5.36,5.36,0,0,0-.34-.49Z"/><path class="cls-2" d="M163.69,254.83v2.46h-2.4A8.52,8.52,0,0,0,163.69,254.83Z"/><path class="cls-3" d="M171.65,96.05l-.11-.19.6,3.47,1.16-2.77a8.25,8.25,0,0,1,1.52-2.34Zm-5.87-.5a5.47,5.47,0,0,1,4-2.8l-.92-1.6a7,7,0,0,0-3.62,11.38.87.87,0,0,0,1.23.08.88.88,0,0,0,.08-1.24A5.42,5.42,0,0,1,165.78,95.55ZM152.62,34.43a.88.88,0,0,0-1.75-.15,13.48,13.48,0,0,0,.33,4.06l1.61-.93A10.66,10.66,0,0,1,152.62,34.43Zm19,61.62-.11-.19.6,3.47,1.16-2.77a8.25,8.25,0,0,1,1.52-2.34Zm-5.87-.5a5.47,5.47,0,0,1,4-2.8l-.92-1.6a7,7,0,0,0-3.62,11.38.87.87,0,0,0,1.23.08.88.88,0,0,0,.08-1.24A5.42,5.42,0,0,1,165.78,95.55ZM152.62,34.43a.88.88,0,0,0-1.75-.15,13.48,13.48,0,0,0,.33,4.06l1.61-.93A10.66,10.66,0,0,1,152.62,34.43Zm47.19,84.9a7.51,7.51,0,0,0,.44-8.14,3.93,3.93,0,0,0-2.5-1.85,3.67,3.67,0,0,0-2.18.32c.12-.38.23-.76.34-1.13a1.82,1.82,0,0,0-.11-1.56,1.72,1.72,0,0,0-1.37-.7h-.1l-.89-.18a25,25,0,0,0-3.7-.58A11.31,11.31,0,0,0,191,97.41a20.12,20.12,0,0,0-1.07-3.12,13.57,13.57,0,0,1-1.16-4,2.37,2.37,0,0,0-.62-1.66,1.84,1.84,0,0,0-1.13-.49c0-.28-.09-.55-.14-.83a66,66,0,0,0-5.15-16.48,76.17,76.17,0,0,0-4.44-7.87c-6-9.56-12.5-19.26-20.39-27.86a95.57,95.57,0,0,0-16.35-14.4,2.09,2.09,0,0,0-2.12-.32,2.35,2.35,0,0,0-1.2,2.17v.33c0,.64,0,1.88-.09,2.48-.65.83-1.3,1.67-1.94,2.53A142.5,142.5,0,0,0,115,67.63a157.38,157.38,0,0,0-4.53,16.68,7.38,7.38,0,0,0-2.18-1.06l-.94-.28-.17,1a21.46,21.46,0,0,0-.16,4.79A83.86,83.86,0,0,0,96.52,91c-.8.22-1.59.46-2.37.71a39.9,39.9,0,0,1-2.61-5.89c-.27-.63-1-2.31-2.33-2.12-1.11.15-1.8,1.67-2.23,3.41a3.33,3.33,0,0,0-.83-.75,1.5,1.5,0,0,0-1.53-.16,2.38,2.38,0,0,0-1.09,2C59,72.71,32.55,71.76,32.31,71.75q-2-.14-3.93-.21c-9.62-.39-19.15.16-20,.21a13.76,13.76,0,0,1-3.58-.91c-1.56-.56-3-1.09-4.31,0l-.18.22c-1,1.73.81,4.79,1.15,5.35.74,1.35,1,3.93,1.45,7.49.11.91.22,1.89.35,2.92.34,2.71.79,5.85,1.53,9.49A99,99,0,0,0,21.54,134.2a66.07,66.07,0,0,0,11.28,12.28c.42.37.82.73,1.21,1.06.76.68,1.47,1.29,2.14,1.88,1.38,1.2,2.61,2.27,3.68,3.29a27.43,27.43,0,0,1-3.85.53c-1.46.09-3.68.24-4.61,2a3.89,3.89,0,0,0,.23,3.62,8.83,8.83,0,0,0,6.77,4.4,13.22,13.22,0,0,0,3.14,0c-.4.27-.81.56-1.21.86a3.33,3.33,0,0,0-1.11,1.24c-.67,1.47.48,3,1.9,3.69,2.9,1.41,7.84,0,10.32-1.43,8.46,21.56,29.62,33.43,61.4,34.49a21.37,21.37,0,0,0-6,5,36,36,0,0,0-2.35,3.42,124.19,124.19,0,0,1-14.07,19,14.6,14.6,0,0,0-4.26-.38,6.49,6.49,0,0,0-4.36,1.85A7.72,7.72,0,0,0,79.65,235a10.46,10.46,0,0,0-.26,4.57,5.56,5.56,0,0,0,2.85,3.94,8.34,8.34,0,0,0,3.6.58h.09c1.54,0,3.38-.09,5.17-.18l3.33-.13h.24a5.54,5.54,0,0,0,2.08-.31,5.91,5.91,0,0,0,1.76-1.24c5.78-5.22,8.65-13.73,11.18-21.24.19-.57.37-1.12.56-1.67-.09,1-.19,2-.32,3a74.78,74.78,0,0,1-1.76,8.15c-.4,1.57-.82,3.19-1.17,4.81a33.35,33.35,0,0,0-.83,9.86,27.2,27.2,0,0,0-7.43-.2,13.47,13.47,0,0,0-7.92,3.17,8,8,0,0,0-2.42,4.64,6.44,6.44,0,0,0,.17,2.63,5.42,5.42,0,1,0,1.55-1.16,4.88,4.88,0,0,1,.07-1.47A6.16,6.16,0,0,1,92,249.33a11.9,11.9,0,0,1,6.92-2.71,25.3,25.3,0,0,1,7.47.29,19.77,19.77,0,0,0,.45,2c1.43,4.88,5,8.65,9.28,9.7a10.14,10.14,0,0,0,6.27,2.35,10.29,10.29,0,0,0,6.92-2.69,41.4,41.4,0,0,0,16-.66,1.81,1.81,0,0,1,.55-.08.86.86,0,0,1,.26.11l.25.11,1.19.51a26.52,26.52,0,0,0,6.15,2.06,15.6,15.6,0,0,0,2.74.22,10.29,10.29,0,0,0,.51-20.57,20.12,20.12,0,0,0-8.35-19.1c-.47-.32-1-.62-1.44-.92a21.27,21.27,0,0,1-2.33-1.61,20.48,20.48,0,0,1-4.25-5.78l-.45-.77a55.58,55.58,0,0,0,6.23,2.94,28.85,28.85,0,0,0,10.47,2,29.36,29.36,0,0,0,8.85-1.39c6.84-2.18,11.91-6.67,14.28-12.64,1.9-4.78,1.77-10.1-.34-13.88a17.44,17.44,0,0,0-3.34-4.33c15.53-12,23.16-27.88,20.94-43.69a49.47,49.47,0,0,0-2.92-11.05,6.5,6.5,0,0,0,3.42-1.14,4,4,0,0,0,1.26-5.09A4,4,0,0,0,197,122,14.66,14.66,0,0,0,199.81,119.33ZM90.1,256.29l.11-.09a3.53,3.53,0,1,1-.11.09Zm21.75-170c4.08-20.27,12.47-40.1,23.3-55.36-.57,1.59-1.07,3.17-1.5,4.52l-1.8,5.69a60,60,0,0,0-2.38,9.15,5.84,5.84,0,0,0,.2,3.29,1.7,1.7,0,0,0,1.43.9,1.77,1.77,0,0,1,1.12.53l.08.09c.23.16-.1,1-.33,1.63a7.73,7.73,0,0,0-.43,1.38,1.28,1.28,0,0,0,.09.86c.32.52.91.45,1.35.39a2.31,2.31,0,0,1,.37,0c.59,0,1,.67,1.08,1.28a4.81,4.81,0,0,1-.54,2l0,.1A44,44,0,0,0,131,74.22c-.11.82-.14,2.29.91,3l.14.1a.7.7,0,0,1,.22.17c.12.18-.17.6-.28.76a5.38,5.38,0,0,0-1.29,3.89v.62l.55-.29a2.67,2.67,0,0,1,2-.07.69.69,0,0,1,.33.28c-.14.34-.59.56-1.06.79-.66.31-1.4.67-1.47,1.5-.08,1,.93,1.55,1.54,1.89.35.19.81.57.86.93l-1.41-.25c-.52-.09-1.05-.18-1.55-.25a2.49,2.49,0,0,0-1.08-.75,3.3,3.3,0,0,0-2,0,6.34,6.34,0,0,0-.74.23,5.15,5.15,0,0,0,.12-1.58,4.18,4.18,0,0,0-.94-2.26,1.2,1.2,0,0,0-.63-.45,1.28,1.28,0,0,0-1.42.55,36.33,36.33,0,0,1-3.39,3.63c-.54.11-1.15.26-1.8.43-2.27.57-5.08,1.27-6.64.89-.08-.18-.23-.53-.39-.95ZM32.22,73.5c.27,0,27.25,1,51.78,17l1.75,1.14-.41-2.05a4.2,4.2,0,0,1,0-1.7,5.69,5.69,0,0,1,1.32,1.93l1.27,2.53.38-2.81a12.58,12.58,0,0,1,1.12-4,4.06,4.06,0,0,1,.49.88,39.49,39.49,0,0,0,3,6.7c-5.73,1.65-10.24,3.2-13.55,5.35-.36.23-.92.59-1.25.4s.5-2.76.87-3.69c.12-.3.23-.59.31-.83a1,1,0,0,0-1-1.39,9.22,9.22,0,0,0-2.7.86c-.37.16-.77.34-1.24.51l-.45.18c-.58.23-1.17.47-1.39.25-.6-.67.25-1.6.26-1.61a1.06,1.06,0,0,0,.31-.81,1.19,1.19,0,0,0-.41-.85,75,75,0,0,0-25-13.83,115.57,115.57,0,0,0-17.29-4.3Zm23.64,99.41a14.1,14.1,0,0,1,2.07-3.26c3.55-4.11,9.48-6.25,15.44-5.57a19.49,19.49,0,0,1,15,9.95,16.84,16.84,0,0,1-1.17,17.68,14.48,14.48,0,0,1-3.85,3.49C70.86,190.64,61.58,183.15,55.86,172.91ZM97.28,241a2.92,2.92,0,0,1-2.64,1h-.25c-1,0-2.18.08-3.37.14-1.8.08-3.66.19-5.18.17a6.91,6.91,0,0,1-2.84-.41,3.76,3.76,0,0,1-1.89-2.71,8.68,8.68,0,0,1,.24-3.8,6,6,0,0,1,1.68-3,4.77,4.77,0,0,1,3.3-1.37,11.66,11.66,0,0,1,2.7.15.87.87,0,0,0,1.26,1.2c.55-.56,1.1-1.15,1.64-1.74a7.21,7.21,0,0,0,4.43,6.19,10.18,10.18,0,0,0,3.87.9A22.94,22.94,0,0,1,97.28,241Zm80.9-51.35c1.85,3.33,1.94,8.08.23,12.39a18.33,18.33,0,0,1-3.94,6.05,5.83,5.83,0,0,1-3.3,0,9.61,9.61,0,0,1-7-5.69,7.3,7.3,0,0,0,.75-1,8.53,8.53,0,0,0,6.76-.12.88.88,0,0,0,.4-1.17.87.87,0,0,0-1.17-.4,7.15,7.15,0,0,1-7.91-1.58,10.15,10.15,0,0,1-2.66-8.2,9,9,0,0,1,.88-3.23c1.51-2.92,5.35-4.53,8.93-3.74C173.25,183.57,176.18,186,178.18,189.61Zm-14.83,10.93c-.84,1.38-3.24,3.91-9.74,4.74-5.75.74-10.78,0-14.94-2.18,0,0-2-1-4.09-1.89A92.46,92.46,0,0,0,159,194.53a10.85,10.85,0,0,0,2.73,4.78A9,9,0,0,0,163.35,200.54ZM177,181.65a19,19,0,0,1-6.12-3.92,19.58,19.58,0,0,1-4.86-19.59,15.14,15.14,0,0,1,5.07-7.5,16.88,16.88,0,0,1,6.53-3.15,20.56,20.56,0,0,1,11.81.78,15.42,15.42,0,0,1,5.94,4C193.64,163,187.29,173.19,177,181.65ZM195.57,141a37.52,37.52,0,0,1,0,10.37,16.43,16.43,0,0,0-5.83-3.79,21.23,21.23,0,0,0-12.21-.82,17.73,17.73,0,0,0-6.85,3.3,15.79,15.79,0,0,0-5.32,7.86,20.32,20.32,0,0,0,5.05,20.35,19.37,19.37,0,0,0,6,3.92c-.46.37-.93.74-1.41,1.1a11.9,11.9,0,0,0-4.46-2.1c-4.33-1-9,1-10.86,4.65a10.55,10.55,0,0,0-1.07,3.87,12.74,12.74,0,0,0,.07,3.09,92,92,0,0,1-30.89,7.35.88.88,0,0,0,.06,1.75h.06l2-.18a1,1,0,0,0,.17,0c.71-.13,4.42,1.19,7.74,2.93a24.6,24.6,0,0,0,11.56,2.66,35.75,35.75,0,0,0,4.42-.29c5.27-.68,8.18-2.47,9.77-4A10.39,10.39,0,0,0,171,208.8a8.05,8.05,0,0,0,1.93.25c.19,0,.38,0,.56,0a22.7,22.7,0,0,1-8.25,4.6,27.09,27.09,0,0,1-18.16-.55c-2.32-.9-7.31-3.17-9.59-5.32h0a11.74,11.74,0,0,0-2.1-1.94.88.88,0,0,0-1.22.21.87.87,0,0,0,.21,1.22c2.09,1.48,3.4,3.76,4.78,6.17a22.46,22.46,0,0,0,4.64,6.24,23,23,0,0,0,2.54,1.75c.46.29.92.58,1.37.88A18.33,18.33,0,0,1,155.25,240a10.33,10.33,0,0,0-6.43,3.37.87.87,0,0,0,1.31,1.16,8.55,8.55,0,0,1,13.22.56,5.36,5.36,0,0,1,.34.49,8.51,8.51,0,0,1,0,9.26,8.51,8.51,0,0,1-7.17,3.92,12.83,12.83,0,0,1-2.44-.2,24.88,24.88,0,0,1-5.75-1.93c-.41-.18-.81-.36-1.21-.52L147,256a2.27,2.27,0,0,0-.75-.26,3,3,0,0,0-1.24.11,39.43,39.43,0,0,1-14.22.78,10.26,10.26,0,0,0-2.93-14.77,17.58,17.58,0,0,0,6,1.08,14.39,14.39,0,0,0,3.73-.47c8.1-2.15,11.24-6.88,9.59-14.45s-7.54-11.88-15.82-11.88c-6.11,0-12.27,4.55-12.27,14.7a11,11,0,0,0,4.55,8.73,14.43,14.43,0,0,0,1.84,1.18,10.55,10.55,0,0,0-3-.44,10.19,10.19,0,0,0-6.08,2,.88.88,0,0,0-.19,1.22.87.87,0,0,0,1.22.19,8.55,8.55,0,0,1,11.54,1.36,8.2,8.2,0,0,1,.94,1.33,8.54,8.54,0,0,1,0,8.42,8.26,8.26,0,0,1-12,2.88.05.05,0,0,1,0,0,5.26,5.26,0,0,1-.67-.54L117,257l-.24-.06c-3.71-.82-6.94-4.17-8.21-8.53-1-3.47-1-7.53.17-12.78.34-1.59.76-3.2,1.15-4.75a73.49,73.49,0,0,0,1.8-8.34c.17-1.19.28-2.4.38-3.57.29-3.19.56-6.2,1.83-8.94a.87.87,0,0,0-.43-1.16.89.89,0,0,0-1.16.42c-.18.39-.33.77-.48,1.16a92,92,0,0,0-3.77,10c-2,5.83-4,11.8-7.25,16.52a8.71,8.71,0,0,1-4.12-.81,6.59,6.59,0,0,1-4-6.31A128.39,128.39,0,0,0,106,211.52a33.12,33.12,0,0,1,2.24-3.26,20.37,20.37,0,0,1,8.65-6.09h0a.59.59,0,0,0,.17-.1l.12-.08s.06-.09.1-.13a1.1,1.1,0,0,0,.09-.14.58.58,0,0,0,0-.14,1.33,1.33,0,0,0,0-.19v0a.9.9,0,0,0,0-.16.77.77,0,0,0,0-.15h0a1.08,1.08,0,0,0-.11-.18,1.05,1.05,0,0,0-.07-.11,1.67,1.67,0,0,0-.16-.12l-.11-.07a1084565600716.3,1084565600716.3,0,0,1-.34-.08h0c-12.38-.08-23.19-1.76-32.33-4.95a14.76,14.76,0,0,0,3.55-3.36,17.59,17.59,0,0,0,1.25-18.48,20.32,20.32,0,0,0-15.61-10.35c-6.21-.69-12.37,1.54-16.09,5.83a14.79,14.79,0,0,0-2,3A47.78,47.78,0,0,1,52.67,166l-.46-1.24-1,.9c-1.41,1.32-6.86,3.09-9.38,1.87-.66-.32-1.26-1-1.07-1.4a1.89,1.89,0,0,1,.57-.56c.57-.43,1.15-.82,1.7-1.19a10.89,10.89,0,0,0,2.58-2.08l1.56-2.11-2.52.75a17,17,0,0,1-6,.61,7.23,7.23,0,0,1-5.47-3.47,2.25,2.25,0,0,1-.23-2c.44-.83,1.75-1,3.18-1.08a29.82,29.82,0,0,0,8.13-1.69.88.88,0,1,0-.59-1.65c-.6.22-1.2.41-1.81.58-1.28-1.31-2.79-2.61-4.54-4.13l-1.74-1.51L34,145.14a65.37,65.37,0,0,1-11-12A97.22,97.22,0,0,1,6.48,96c-.8-3.93-1.26-7.3-1.6-10.15-.09-.73-.17-1.43-.25-2.1-.45-3.9-.75-6.48-1.68-8.17-.73-1.19-1.36-2.83-1.19-3.48.45-.28,1.08-.1,2.43.39a15.24,15.24,0,0,0,4.1,1h.12c.09,0,7.26-.45,15.54-.33.36,0,.71.09,1.06.15l1.36.19c1.3.19,2.58.39,3.82.61h0a113.17,113.17,0,0,1,17.22,4.27A74.34,74.34,0,0,1,72.21,92.08a.42.42,0,0,1,.15.31.29.29,0,0,1-.1.25A2,2,0,0,0,72,95.29c.59.59,1.46.24,2.22-.07l.43-.16c.49-.18.9-.36,1.29-.54a8.85,8.85,0,0,1,2.5-.8.3.3,0,0,1,.22.06.43.43,0,0,1,0,.33l-.31.82c-.73,1.87-1.56,4-.56,4.6a1.26,1.26,0,0,0,.61.16,2.9,2.9,0,0,0,1.46-.59c3.25-2.1,7.76-3.64,13.51-5.29h0l.27-.09h0L94,93.6c1.17-.39,2.36-.75,3.56-1.08a81.63,81.63,0,0,1,10.47-2.17l.79-.11,0-1a28,28,0,0,1,0-3.88,3.79,3.79,0,0,1,1.5,1.25l.73,1.11.43.66a1.2,1.2,0,0,1,.08.18l.07.13.14,0a5,5,0,0,0,1.4.17,27,27,0,0,0,5.76-1l.57-.15c-.3.26-.59.52-.89.76a.87.87,0,0,0,1.1,1.36,38.4,38.4,0,0,0,5.26-5.18,2.51,2.51,0,0,1,.23.81,6.12,6.12,0,0,1-.75,2.8l-1.19,2.68,2.47-1.59a8.43,8.43,0,0,1,2.29-1,1.84,1.84,0,0,1,1-.07.6.6,0,0,1,.45.71,3.8,3.8,0,0,1-.93.89.87.87,0,0,0,.48,1.6.84.84,0,0,0,.48-.14s1.46-1,1.65-1.9a2.48,2.48,0,0,0,0-1.25l1,.17c.62.11,1.24.22,1.79.3l.26,0,.12-.23c.43-.83-.28-1.71-1.13-2.18-.58-.32-1.19-.7-1.15-1.17s.42-.58,1-.89,1.33-.63,1.5-1.38l0-.08,0-.09a1.28,1.28,0,0,0-.78-.87,3.38,3.38,0,0,0-2.14-.12,4.65,4.65,0,0,1,1.15-2.93c.2-.3.68-1,.29-1.59a1.42,1.42,0,0,0-.44-.39l-.11-.08c-.76-.54-.68-1.81-.61-2.33A43.57,43.57,0,0,1,134.53,63l.05-.1a5.28,5.28,0,0,0,.6-2.38,2,2,0,0,0-1.82-2,2.82,2.82,0,0,0-.48,0c-.31,0-.54.06-.6,0a.82.82,0,0,1,0-.35,7.78,7.78,0,0,1,.39-1.23c.37-1,.75-2,.11-2.49a2.41,2.41,0,0,0-1.53-.76c-.5-.11-.77-.18-.9-.47a5.24,5.24,0,0,1-.14-2.87,59.13,59.13,0,0,1,2.35-9l1.8-5.69c.67-2.09,1.51-4.75,2.48-7.08l.23-.3c.51-.68,1-1.37,1.55-2l.14-.18,0-.22a25.78,25.78,0,0,0,.14-3v-.32c0-.24.07-.55.21-.63s.13,0,.37.19A94.73,94.73,0,0,1,155.3,36c7.91,8.58,14.47,18.3,20.45,27.89a72.43,72.43,0,0,1,4.34,7.69,64.12,64.12,0,0,1,5.13,16.67,30.48,30.48,0,0,0-4.65.83c.86-10.11-4.5-19.64-9.92-27.66-1.25-1.85-2.46-3.68-3.67-5.5-3.64-5.48-7.08-10.66-11.13-15.93A3.33,3.33,0,0,0,154,38.54a1.92,1.92,0,0,0-1,.05c-.1-.39-.19-.79-.26-1.18a10.66,10.66,0,0,1-.19-3,.88.88,0,0,0-1.75-.15,13.48,13.48,0,0,0,.33,4.06,33.65,33.65,0,0,0,1.87,5.44l.2.51A184.94,184.94,0,0,1,161,65.62c.2.73.39,1.45.58,2.18.95,3.69,1.95,7.5,4,10.83a40,40,0,0,0,5.4,6.49A39.52,39.52,0,0,1,176,91a11.83,11.83,0,0,0-3,2.69l-.19-1.13a2,2,0,0,0-.61-1.24,1.91,1.91,0,0,0-1.08-.39,6.54,6.54,0,0,0-2.25.18,7,7,0,0,0-3.62,11.38.87.87,0,0,0,1.23.08.88.88,0,0,0,.08-1.24,5.22,5.22,0,0,1,3.23-8.62,5.1,5.1,0,0,1,1.17,0H171a1.64,1.64,0,0,0,0,.18l.51,3,.6,3.47,1.16-2.77a8.25,8.25,0,0,1,1.52-2.34,11.27,11.27,0,0,1,3.82-2.67,15.73,15.73,0,0,1,2.09-.74,30.23,30.23,0,0,1,5.59-.94,1.54,1.54,0,0,1,.56,0,1.86,1.86,0,0,1,.1.62,15.34,15.34,0,0,0,1.28,4.45,20,20,0,0,1,1,2.87,9.52,9.52,0,0,1-1.89,8.08l-1.5,1.82,2.32-.4a14.7,14.7,0,0,1,4.91.48l.91.18.23,0h0l0,.09c-.35,1.2-1.25,4.37-2.66,5.7a10.13,10.13,0,0,1-6.41,2.46.88.88,0,0,0,.07,1.75h.08l.49,0A49.16,49.16,0,0,1,195.57,141ZM124,239a10.16,10.16,0,0,1-4.26-8.13c0-6.94,3.56-14,11.52-14S144.8,221,146.36,228.2s-1.41,11.54-9.05,13.57A16.08,16.08,0,0,1,124,239ZM178.77,89.62c-.28.1-.56.21-.83.33s-.31.16-.47.24a39.53,39.53,0,0,0-5.23-6.28,38.84,38.84,0,0,1-5.17-6.2c-1.92-3.1-2.87-6.79-3.8-10.35-.19-.73-.38-1.47-.58-2.2a187,187,0,0,0-7.8-21.54l-.21-.5c-.37-.92-.76-1.87-1.1-2.86h0c.29.07.62.49.84.78,4,5.22,7.43,10.38,11.05,15.83,1.21,1.82,2.43,3.66,3.68,5.51C174.58,70.33,179.92,79.79,178.77,89.62Zm15.58,32.2-2,1.44,2.51.14s.59,0,.85.08a3.31,3.31,0,0,1,1.92.92,2.24,2.24,0,0,1-.82,2.74,5.46,5.46,0,0,1-3.06.83,52.65,52.65,0,0,0-6-10.34,10.41,10.41,0,0,0,5-2.56,9.34,9.34,0,0,0,1.92-3l.3-.17.18-.1a3.9,3.9,0,0,1,2.28-.76,2.24,2.24,0,0,1,1.34,1.08,5.85,5.85,0,0,1-.42,6.21A22.54,22.54,0,0,1,194.35,121.82ZM152.62,34.43a.88.88,0,0,0-1.75-.15,13.48,13.48,0,0,0,.33,4.06l1.61-.93A10.66,10.66,0,0,1,152.62,34.43Zm13.16,61.12a5.47,5.47,0,0,1,4-2.8l-.92-1.6a7,7,0,0,0-3.62,11.38.87.87,0,0,0,1.23.08.88.88,0,0,0,.08-1.24A5.42,5.42,0,0,1,165.78,95.55Zm5.87.5-.11-.19.6,3.47,1.16-2.77a8.25,8.25,0,0,1,1.52-2.34Zm-19-61.62a.88.88,0,0,0-1.75-.15,13.48,13.48,0,0,0,.33,4.06l1.61-.93A10.66,10.66,0,0,1,152.62,34.43Zm13.16,61.12a5.47,5.47,0,0,1,4-2.8l-.92-1.6a7,7,0,0,0-3.62,11.38.87.87,0,0,0,1.23.08.88.88,0,0,0,.08-1.24A5.42,5.42,0,0,1,165.78,95.55Zm5.87.5-.11-.19.6,3.47,1.16-2.77a8.25,8.25,0,0,1,1.52-2.34Zm-19-61.62a.88.88,0,0,0-1.75-.15,13.48,13.48,0,0,0,.33,4.06l1.61-.93A10.66,10.66,0,0,1,152.62,34.43Zm13.16,61.12a5.47,5.47,0,0,1,4-2.8l-.92-1.6a7,7,0,0,0-3.62,11.38.87.87,0,0,0,1.23.08.88.88,0,0,0,.08-1.24A5.42,5.42,0,0,1,165.78,95.55Zm5.87.5-.11-.19.6,3.47,1.16-2.77a8.25,8.25,0,0,1,1.52-2.34Z"/><path class="cls-3" d="M61.71,116.92a6.41,6.41,0,0,0-4.14-4.76,7.11,7.11,0,0,0-.89-.29,14,14,0,0,0-5.13-.28,1.31,1.31,0,0,0-1,.55.41.41,0,0,0-.05.09,1.27,1.27,0,0,0-.14.74,25.87,25.87,0,0,0,.26,2.74,19.12,19.12,0,0,0-11.64,0c-.34.1-.73.24-1.14.39-.15-.47-.28-.93-.39-1.39s-.2-.9-.29-1.35a20.69,20.69,0,0,0-.94-3.44,15.65,15.65,0,0,0-3.58-5.08,64.18,64.18,0,0,0-8.85-7.08,68.61,68.61,0,0,1-8.12-6.4c-.8-.77-1.59-1.61-2.34-2.42s-1.26-1.35-1.91-2a43.68,43.68,0,0,0-3.35-3l-.89-.71a.87.87,0,0,0-1.06,1.39l.38.3a42.44,42.44,0,0,1,3.68,3.28l.13.14a2.82,2.82,0,0,0-.91.64c-1.06,1.06-.46,3,.24,5.3a23.56,23.56,0,0,1,.76,2.86c2.07,12.25,8,24.54,17.68,36.55a5.27,5.27,0,0,0,1.72,1.56,3.53,3.53,0,0,0,1.58.35,9.73,9.73,0,0,0,2.17-.34,6,6,0,0,1,2.19-.25A17.8,17.8,0,0,0,39,137a34.89,34.89,0,0,0-2.52,4.12l-.37.81.81.36c.34.15.74.34,1.19.56.61.29,1.29.62,2,.94a23,23,0,0,0,4.36,1.52,8.63,8.63,0,0,0,1.81.19,7.36,7.36,0,0,0,6.27-3.12.87.87,0,0,0-1.48-.93c-1.33,2.1-4.17,2.59-6.24,2.15a17.43,17.43,0,0,1-2.9-.94c-1.11-.45-2.19-1-3.09-1.39l-.39-.19a29.56,29.56,0,0,1,2.41-3.67l1.44-.89-1.57-.66c-2.12-.88-5.83-2.88-6.86-6.36-.12-.39-.2-.8-.29-1.2a12.34,12.34,0,0,0-.4-1.62,13.87,13.87,0,0,0-1.69-3.08,13,13,0,0,1-1.35-2.3c-.22-.51-.26-1-.11-1.15a1.5,1.5,0,0,1,.69-.28,7.07,7.07,0,0,1,3.06-.08l.48.14.36-.35a16.24,16.24,0,0,1,4.89-2.22,17.31,17.31,0,0,1,11.62.41,6.72,6.72,0,0,0,2,3,.86.86,0,0,0,1.23-.13.87.87,0,0,0-.13-1.23,5.47,5.47,0,0,1-1.69-2.82,11.45,11.45,0,0,1-.28-1.44c-.08-.6-.12-1.21-.16-1.82a11,11,0,0,1,4.82.5,5.28,5.28,0,0,1,2.36,1.78l.13.18,0,0s0,0,0,0a3.51,3.51,0,0,1,.54,1.39,7.27,7.27,0,0,1-.84,3.87.88.88,0,0,0,.46,1.15.83.83,0,0,0,.34.07.89.89,0,0,0,.81-.53,12.78,12.78,0,0,0,.92-2.78A6.12,6.12,0,0,0,61.71,116.92ZM33.77,118a9.12,9.12,0,0,0-3.44.15,2.83,2.83,0,0,0-1.65.86,2.79,2.79,0,0,0-.18,3,15.14,15.14,0,0,0,1.52,2.6,8.54,8.54,0,0,1,1.83,4.07c.09.46.19.91.32,1.35A9.23,9.23,0,0,0,34,133.31l-.88.19a4.12,4.12,0,0,1-2.57.12,3.68,3.68,0,0,1-1.14-1.08c-9.34-11.61-15.32-24-17.31-35.75a27.57,27.57,0,0,0-.81-3.08c-.35-1.11-1-3.17-.69-3.55.46-.46.81-.4,1.7.25l0,0c.67.72,1.35,1.45,2.07,2.14a69.18,69.18,0,0,0,8.33,6.56A64.3,64.3,0,0,1,31.37,106a14,14,0,0,1,3.2,4.5,19.13,19.13,0,0,1,.84,3.15c.1.47.2.93.31,1.4s.28,1.07.45,1.61A12.14,12.14,0,0,0,33.77,118Z"/><path class="cls-3" d="M103.71,147a9.76,9.76,0,0,0-6.11-5.78c.49-.21,1-.44,1.46-.68a1.06,1.06,0,0,1,.35-.14c.25,0,.48.18.83.51a2,2,0,0,0,1.4.74,1.66,1.66,0,0,0,1.1-.6,4.08,4.08,0,0,0,1-3,.36.36,0,0,0-.41-.34.36.36,0,0,0-.34.4,3.32,3.32,0,0,1-.84,2.44,1,1,0,0,1-.59.36,1.6,1.6,0,0,1-.84-.52,1.84,1.84,0,0,0-1.43-.73,2.19,2.19,0,0,0-.65.23,23,23,0,0,1-2.75,1.2,24.5,24.5,0,0,1-5.86,1.31l-.21,0,0,0h0a25.93,25.93,0,0,1-2.9.14h0a.37.37,0,0,0-.37.37.38.38,0,0,0,.37.38h.33c.47,0,.94,0,1.42-.05a15.41,15.41,0,0,0-5,7.89,15.14,15.14,0,0,0,.49,9.81,9.7,9.7,0,0,0,6.3,5.84,8.59,8.59,0,0,0,2.29.31c5,0,9.84-4.19,11.51-10.32A15.09,15.09,0,0,0,103.71,147Zm-1.2,9.35c-1.68,6.14-6.91,10.08-11.66,8.78a8,8,0,0,1-5.15-4.83,14,14,0,0,1,4.76-16.19,26.62,26.62,0,0,0,6-1.37l.46.11a7.92,7.92,0,0,1,5.14,4.83A13.37,13.37,0,0,1,102.51,156.32Z"/><path class="cls-3" d="M151.77,133.9a.38.38,0,0,0,.08-.51.37.37,0,0,0-.52-.09,6.42,6.42,0,0,1-.85.48l0,0h0l-.17.08a5.91,5.91,0,0,1-2.65.53l-.3,0a6.2,6.2,0,0,1-3.78-1.82.37.37,0,1,0-.54.52,6.85,6.85,0,0,0,3.27,1.86c-4.74,2.7-6.43,9.62-3.72,16,2.29,5.36,7,8.75,11.59,8.75a8.79,8.79,0,0,0,3.45-.7h0c5.42-2.31,7.48-9.68,4.6-16.43C160.11,137.78,156,134.44,151.77,133.9Zm5.09,23.48c-4.52,1.93-10.24-1.27-12.74-7.13s-.87-12.08,3.55-14.07a7.88,7.88,0,0,0,3.11-.61c3.93.1,7.83,3.17,9.76,7.68C163,149.11,161.39,155.44,156.86,157.38Z"/><path class="cls-3" d="M125.54,160.24a6.18,6.18,0,0,0-4.78,6.68.86.86,0,0,0,.86.75h.13a.87.87,0,0,0,.74-1,4.2,4.2,0,0,1,8.24-1.56.88.88,0,0,0,1.71-.41A6.17,6.17,0,0,0,125.54,160.24Z"/><path class="cls-3" d="M108,137.55c-.26-.9-.5-1.83-.73-2.77a.36.36,0,0,0-.45-.28.38.38,0,0,0-.28.45c.23,1,.48,1.9.74,2.81.12.43.25.86.38,1.28a.37.37,0,0,0,.36.27l.11,0a.38.38,0,0,0,.25-.47C108.26,138.4,108.13,138,108,137.55Z"/><path class="cls-3" d="M109.78,133.63a.37.37,0,0,0-.45-.27.38.38,0,0,0-.27.46l.76,2.9a.36.36,0,0,0,.36.28l.09,0a.36.36,0,0,0,.27-.45Z"/><path class="cls-3" d="M158.67,119.89a2,2,0,0,0,.34,0,1.83,1.83,0,0,0,1.28-1.36,4.2,4.2,0,0,0,0-1.69c-.11-.85-.26-1.7-.44-2.54a.38.38,0,0,0-.74.17c.19.81.33,1.64.44,2.46a3.86,3.86,0,0,1,0,1.4,1.13,1.13,0,0,1-.73.83,1.29,1.29,0,0,1-1.18-.56,3.21,3.21,0,0,1-.55-2.25,12,12,0,0,1,1.07-3.53.38.38,0,1,0-.68-.32,12.72,12.72,0,0,0-1.14,3.79,4,4,0,0,0,.71,2.77A2.11,2.11,0,0,0,158.67,119.89Z"/><path class="cls-3" d="M170.72,127.11a.38.38,0,0,0-.23.48,1.58,1.58,0,0,1,.09.94,1,1,0,0,1-.42.55.55.55,0,0,1-.43.07.75.75,0,0,1-.45-.47,2.34,2.34,0,0,1-.11-.86,6.49,6.49,0,0,1,.34-1.9.38.38,0,0,0-.72-.24,7.67,7.67,0,0,0-.37,2.12,3.11,3.11,0,0,0,.16,1.16,1.5,1.5,0,0,0,.95.91,1,1,0,0,0,.33,0,1.26,1.26,0,0,0,.67-.19,1.7,1.7,0,0,0,.78-1,2.43,2.43,0,0,0-.11-1.37A.37.37,0,0,0,170.72,127.11Z"/><path class="cls-2" d="M152.06,145.3c2.47-.89,3.31-2.53,2.4-5a4.51,4.51,0,0,0-6.09-2.87c-2.72,1.18-3.16,3.7-2.37,5.89C146.9,145.8,149.58,146.19,152.06,145.3Z"/><path class="cls-2" d="M93,152.37c2.39,1.09,5.28,0,6.06-2a4.34,4.34,0,0,0-2.37-5.89,4.67,4.67,0,0,0-6.3,2.86C89.71,149.66,90.83,151.38,93,152.37Z"/><path class="cls-2" d="M152.28,146.43c-6.59.78-6.6,4.39-5,6.48,1.91,2.51,5.48,4.14,8.37,3.32s5.89-5.81,3.56-9.52C158,144.79,155.63,146,152.28,146.43Z"/><path class="cls-2" d="M94.17,154.11c-3.21-.58-7-1.84-7.5.86-.79,4.28,1.34,7.75,4.11,8.62,3.38,1.06,6.49-.8,8.37-3.32C101.25,157.46,100.93,155.33,94.17,154.11Z"/><path class="cls-3" d="M60.5,30.92c2.71,1.6,5.84,1.87,8.86,2.12,1.17.1,2.38.21,3.52.39a6.16,6.16,0,0,1,2.6.86,2.06,2.06,0,0,1,1,1.84,3.77,3.77,0,0,1-.75,1.44,5.75,5.75,0,0,0-1,1.85A4.66,4.66,0,0,0,76.39,44a17,17,0,0,0,1.72,1.31,15.4,15.4,0,0,1,1.57,1.2,3.09,3.09,0,0,1,1.16,2.78v0A4.43,4.43,0,0,1,79.49,51a.88.88,0,0,0,0,1.24.87.87,0,0,0,.64.27.83.83,0,0,0,.59-.23,5.89,5.89,0,0,0,1.83-2.5c1-2.64-.87-5.39-2.43-6.42-1-.64-1.92-1.62-1.64-2.44a3.11,3.11,0,0,1,1.2-1.24A3.89,3.89,0,0,0,81.5,37.2a4.5,4.5,0,0,0-.41-2.15c-.24-.64-.38-1.06-.22-1.24a1.5,1.5,0,0,1,.53-.24,23.92,23.92,0,0,1,4.49-.73c.88-.09,1.8-.18,2.7-.32,3.26-.53,5.6-1.77,7-3.69,1.52-2.16,1.58-4.89,1.52-7.49A18.12,18.12,0,0,0,96,14.51a19,19,0,0,0-4.78-6c-3.27-3.1-7-6.62-11.78-7.93A21.7,21.7,0,0,0,69.61.52a18,18,0,0,0-6.16,2.13,12.87,12.87,0,0,0-5.63,8.43c-.1.53-.17,1.07-.24,1.6a15,15,0,0,1-.48,2.52c-.17.5-.39,1-.62,1.51s-.39.86-.56,1.3A10.93,10.93,0,0,0,60.5,30.92Zm-2.94-12.3c.15-.4.33-.79.51-1.19a17,17,0,0,0,.69-1.69,16.05,16.05,0,0,0,.55-2.83c.07-.5.14-1,.23-1.49a11.08,11.08,0,0,1,4.83-7.28,16.36,16.36,0,0,1,5.55-1.9,27.74,27.74,0,0,1,4.85-.49,16,16,0,0,1,4.16.52c4.37,1.2,7.91,4.56,11,7.52a17.76,17.76,0,0,1,4.37,5.41,16.45,16.45,0,0,1,1,6.18c0,2.32,0,4.72-1.2,6.45-1.07,1.51-3,2.51-5.8,3-.85.14-1.74.22-2.6.31a25.84,25.84,0,0,0-4.8.79,2.76,2.76,0,0,0-1.35.75c-.88,1-.43,2.16-.11,3A3.36,3.36,0,0,1,79.77,37c-.06.43-.49.78-1.18,1.29a4.51,4.51,0,0,0-1.81,2.1,2.57,2.57,0,0,0-.13,1.13,2.18,2.18,0,0,1-.27-1.62,4.77,4.77,0,0,1,.73-1.3,5,5,0,0,0,1.06-2.19,3.75,3.75,0,0,0-1.69-3.53,7.75,7.75,0,0,0-3.32-1.16c-1.21-.19-2.45-.3-3.65-.4-3-.25-5.76-.49-8.12-1.89A9.26,9.26,0,0,1,57.56,18.62Z"/><path class="cls-2" d="M65.38,21.05a7.67,7.67,0,0,0,2.69,4A7.42,7.42,0,0,0,73,26.27a13.53,13.53,0,0,0,4.79-1.44c1.25-.61,3.2-2.13,3.63-3.58a8,8,0,0,0-.09-3.67,9.51,9.51,0,0,0-4.16-5.12,6,6,0,0,0-7.41.77,6.77,6.77,0,0,0-.19,8.18,5.44,5.44,0,0,0,7.32.68A3.78,3.78,0,0,0,78,20.69a3.64,3.64,0,0,0-.34-3.4,4.73,4.73,0,0,0-2.81-1.91,2.92,2.92,0,0,0-3.32,1,2.54,2.54,0,0,0-.22,1.7A2.68,2.68,0,0,0,72.62,20,1.91,1.91,0,0,0,75,19.58a1.57,1.57,0,0,0,.29-1.35,1.41,1.41,0,0,0-.75-1,.39.39,0,0,0-.5.18.37.37,0,0,0,.18.5.66.66,0,0,1,.34.47.83.83,0,0,1-.14.71,1.19,1.19,0,0,1-1.41.23A1.94,1.94,0,0,1,72,18a1.74,1.74,0,0,1,.14-1.19,2.19,2.19,0,0,1,2.47-.68A4,4,0,0,1,77,17.7a2.84,2.84,0,0,1,.28,2.68,3.15,3.15,0,0,1-.9,1.13,4.72,4.72,0,0,1-6.28-.59,6.11,6.11,0,0,1,.17-7.17,5.19,5.19,0,0,1,6.44-.66,8.76,8.76,0,0,1,3.86,4.69,7.46,7.46,0,0,1,.1,3.25c-.35,1.18-2.11,2.57-3.25,3.12a12.47,12.47,0,0,1-4.52,1.37,6.6,6.6,0,0,1-4.4-1.11,7,7,0,0,1-2.42-3.59,16.28,16.28,0,0,1-.59-4.47A8.18,8.18,0,0,1,65.71,14c.44-1.51,1.68-2.8,3.9-4.05a12.28,12.28,0,0,1,2.75-1.2,8.77,8.77,0,0,1,6,.58,9.77,9.77,0,0,1,4.37,4.3c1.24,2.36,2.54,7.44.79,11a6.86,6.86,0,0,1-5.34,3.67.37.37,0,0,0-.3.43.37.37,0,0,0,.37.31h.06A7.57,7.57,0,0,0,84.24,25c1.89-3.83.56-9.08-.79-11.68a10.56,10.56,0,0,0-4.72-4.63A9.54,9.54,0,0,0,72.16,8a13.06,13.06,0,0,0-2.91,1.27c-2.41,1.35-3.77,2.78-4.26,4.5a8.84,8.84,0,0,0-.24,2.57A17,17,0,0,0,65.38,21.05Z"/></g></g></svg>