<svg xmlns="http://www.w3.org/2000/svg" viewBox="0 0 204.16 264.68"><defs><style>.cls-1{fill:#ec008c;}.cls-2,.cls-3,.cls-4,.cls-5,.cls-6,.cls-7,.cls-8{fill:none;stroke-miterlimit:10;}.cls-2,.cls-3,.cls-4,.cls-5,.cls-6,.cls-7{stroke:#3760f4;}.cls-2,.cls-3,.cls-4,.cls-5,.cls-8{stroke-linecap:round;}.cls-2{stroke-width:2px;}.cls-4,.cls-6{stroke-width:0.69px;}.cls-5{stroke-width:1.37px;}.cls-8{stroke:#ec008c;}</style></defs><g id="Layer_2" data-name="Layer 2"><g id="Layer_3" data-name="Layer 3"><path class="cls-1" d="M179.77,89.1c1.16-9.9-4.08-19.53-9.71-27.86-5-7.33-9.38-14.36-14.77-21.39A2.61,2.61,0,0,0,154,38.76c-.58-.13-1.3.36-1.13.93l.19.91c2.95,7.21,6.91,16.64,9,24.15,1.19,4.38,2.1,8.93,4.48,12.78,3,4.8,8.07,8.32,10.77,13.09Z"/><path class="cls-1" d="M13.59,90c1.45,1.45.52.64,2,2.07,5.19,5,11.89,8.32,17,13.46a14.89,14.89,0,0,1,3.38,4.8,33.53,33.53,0,0,1,1.2,4.66,21.43,21.43,0,0,0,.64,2.21v.42c-1.55.5-2.25.49-3.22,1.42a7.8,7.8,0,0,0-3.48.06,2.09,2.09,0,0,0-1.17.57,2,2,0,0,0,0,2c.79,1.89,2.35,3.39,3,5.33.31.9.41,1.87.68,2.79a8.8,8.8,0,0,0,2.34,3.74l.72.65c-1.86-.47-4.19,1.14-5.91.28a4.61,4.61,0,0,1-1.43-1.32C20.84,122.71,14,110.33,11.79,97.05c-.45-2.69-2.29-6.35-1.25-7.39s2.33-.2,2.94.25Z"/><path class="cls-2" d="M175.14,184.49c15.07-11.32,23.73-27.11,21.42-43.51a50.16,50.16,0,0,0-10.19-23.78"/><path class="cls-2" d="M128,201.13a93.25,93.25,0,0,0,31.69-7.63"/><path class="cls-2" d="M44.08,152.58a28.75,28.75,0,0,1-7.89,1.65c-1.46.09-3.21.24-3.89,1.53a3.11,3.11,0,0,0,.22,2.82,8.12,8.12,0,0,0,6.13,3.94,18,18,0,0,0,6.43-.64c-.68.91-2.47,1.86-4.11,3.09a2.52,2.52,0,0,0-.83.89c-.45,1,.5,2.07,1.48,2.55,2.9,1.41,8.68-.44,10.36-2,8.37,22.77,30.92,34.84,64.74,35.07"/><path class="cls-2" d="M189,120.75a17.77,17.77,0,0,0,8.45-2.48,4.57,4.57,0,0,1,2.91-.89,3.1,3.1,0,0,1,1.92,1.47,6.69,6.69,0,0,1-.43,7.17c-.92,1.36-4.65,3.66-4.65,3.66s1.07.07,1.37.12a4.09,4.09,0,0,1,2.51,1.31,3.1,3.1,0,0,1-1,3.92,6.76,6.76,0,0,1-4.26,1"/><path class="cls-2" d="M166,102.07A6.1,6.1,0,0,1,171.12,92a1.07,1.07,0,0,1,.6.19,1.15,1.15,0,0,1,.3.72l.6,3.47a10.9,10.9,0,0,1,5.8-5.47,25.63,25.63,0,0,1,8-1.76,1.57,1.57,0,0,1,1.26.25,1.76,1.76,0,0,1,.35,1.18c.21,2.51,1.68,4.73,2.25,7.18a10.41,10.41,0,0,1-2.06,8.85c1.86-.32,4.27.3,6.13.66.22,0,.72,0,.88.31a1,1,0,0,1,0,.92c-.56,2-1.45,4.73-2.89,6.09a11.22,11.22,0,0,1-6.94,2.7"/><path class="cls-2" d="M60.07,121.52a8.06,8.06,0,0,0,.91-4.35,5.63,5.63,0,0,0-3.6-4.08,12,12,0,0,0-5.62-.51.36.36,0,0,0-.42.46,18.45,18.45,0,0,0,.49,3.85,6.3,6.3,0,0,0,2,3.28"/><path class="cls-2" d="M51.57,117.05a18.07,18.07,0,0,0-12.22-.42c-1.56.5-4.26,1.49-5.22,2.42a7.8,7.8,0,0,0-3.48.06,2,2,0,0,0-1.17.57,2,2,0,0,0,0,2c.79,1.89,2.36,3.39,3,5.33.31.9.41,1.87.68,2.79,1,3.34,4.15,5.58,7.37,6.92a24,24,0,0,0-3.14,4.82,39.47,39.47,0,0,0,7.39,3c2.64.56,5.72-.26,7.16-2.54"/><path class="cls-2" d="M103.48,156.67c-1.81,6.61-7.51,10.82-12.73,9.39s-8-7.95-6.17-14.57a14,14,0,0,1,5.71-8.14,25.84,25.84,0,0,0,6.26-1.42,6.85,6.85,0,0,1,.76.16C102.53,143.52,105.29,150.05,103.48,156.67Z"/><path class="cls-2" d="M157.34,158.3c-5,2.12-11.19-1.26-13.89-7.58s-.84-13.15,4.14-15.28l0,0a6.58,6.58,0,0,0,3.09-.61c4.21,0,8.6,3.19,10.74,8.22C164.17,149.34,162.32,156.18,157.34,158.3Z"/><path class="cls-1" d="M154.88,139.86c1,2.7.08,4.49-2.63,5.47s-5.66.55-6.64-2.16c-.87-2.4-.39-5.16,2.59-6.46A5,5,0,0,1,154.88,139.86Z"/><path class="cls-1" d="M90.32,146.88c-.71,2.51.51,4.4,2.87,5.48,2.62,1.21,5.78,0,6.64-2.15a4.77,4.77,0,0,0-2.6-6.47A5.14,5.14,0,0,0,90.32,146.88Z"/><path class="cls-1" d="M160.09,146.87c2.55,4.08-.86,9.59-3.91,10.45s-7.09-.89-9.18-3.64c-1.74-2.3-1.73-6.25,5.5-7.11C156.17,146.13,158.77,144.78,160.09,146.87Z"/><path class="cls-1" d="M86.43,153.8c-2.65,4.36,1.32,9.91,4.36,10.87,3.7,1.16,7.1-.88,9.17-3.65,2.31-3.07,2-6.06-5.46-6.74C90.82,153.94,87.8,151.55,86.43,153.8Z"/><path class="cls-2" d="M131.72,165a5.08,5.08,0,0,0-10,1.89"/><path class="cls-3" d="M196.36,152.8a15.5,15.5,0,0,0-6.63-4.76,20.93,20.93,0,0,0-12-.81,17.55,17.55,0,0,0-6.7,3.23,15.6,15.6,0,0,0-5.19,7.68,20,20,0,0,0,4.95,20,19.24,19.24,0,0,0,6.84,4.26"/><path class="cls-3" d="M55.31,173.64a14.38,14.38,0,0,1,2.47-4.12c3.8-4.39,10-6.35,15.76-5.7A20,20,0,0,1,88.86,174a17.32,17.32,0,0,1-1.21,18.08,14.89,14.89,0,0,1-4.38,3.87"/><path class="cls-3" d="M103.82,138.06a3.66,3.66,0,0,1-.93,2.72,1.32,1.32,0,0,1-.85.48c-.88.05-1.37-1.34-2.25-1.25a1.57,1.57,0,0,0-.51.19,24.73,24.73,0,0,1-3,1.27"/><path class="cls-3" d="M87.15,143a26.37,26.37,0,0,0,2.95-.14"/><path class="cls-3" d="M107.34,134.88c.22.94.47,1.87.73,2.79.12.43.25.86.38,1.28"/><path class="cls-3" d="M109.84,133.75l.76,2.89"/><path class="cls-4" d="M143.31,132.81a6.58,6.58,0,0,0,4,1.93l.32,0"/><path class="cls-4" d="M151.62,133.57a6.77,6.77,0,0,1-.9.52"/><path class="cls-2" d="M37.35,117.21c-.25-.73-.47-1.46-.65-2.21a32.15,32.15,0,0,0-1.19-4.66,14.77,14.77,0,0,0-3.39-4.8c-5.07-5.14-11.77-8.43-17-13.46-1.47-1.43-2.81-3-4.26-4.44A42.42,42.42,0,0,0,6.75,84"/><path class="cls-2" d="M186.37,89.11A65,65,0,0,0,181,71.3a73.5,73.5,0,0,0-4.39-7.78c-9.92-15.88-21.07-31.39-36.49-42a1.22,1.22,0,0,0-1.24-.26,1.51,1.51,0,0,0-.71,1.4c0,.7,0,2.54-.13,3.15C124.61,42.74,115.39,65,111.12,86.2a5.35,5.35,0,0,0-3-2,23.69,23.69,0,0,0-.1,5.39,81.33,81.33,0,0,0-14.18,3.28,39.42,39.42,0,0,1-3-6.6c-2.16-5-3.3,3.3-3.3,3.3-1.48-3-2.39-2.5-2.39-2.5-1,.57-.57,2.84-.57,2.84-25-16.38-52.23-17.18-52.23-17.18a208.48,208.48,0,0,0-23.9,0c-3.64-.28-5.75-2.45-7.3-1.08-.77,1.37,1.16,4.5,1.16,4.5C3.88,79,3.59,85.6,5.75,96.3,13,130.09,33.54,146,33.54,146c3.29,3,5.84,5,7.83,7"/><path class="cls-5" d="M119.23,89.26a37.22,37.22,0,0,0,5.47-5.47c.13-.15.3-.33.49-.27a.5.5,0,0,1,.21.17,3.36,3.36,0,0,1,.74,1.79,6.7,6.7,0,0,1-.82,3.24,9.18,9.18,0,0,1,2.54-1.13,2.52,2.52,0,0,1,1.46-.06,1.49,1.49,0,0,1,1,1.8A3.77,3.77,0,0,1,129,90.69"/><path class="cls-2" d="M177.23,91.37c-2.7-4.76-7.81-8.28-10.77-13.08-2.38-3.86-3.29-8.41-4.48-12.78a193.61,193.61,0,0,0-8-21.94c-1.19-2.91-2.4-6-2.13-9.1"/><path class="cls-2" d="M113.21,209.75c-1.83,3.94-1.69,8.46-2.28,12.76s-2,8.67-2.94,13-1.41,8.94-.16,13.22,4.52,8.17,8.86,9.13a9.26,9.26,0,0,0,5.85,2.28,9.42,9.42,0,1,0-5.56-17"/><path class="cls-2" d="M149.61,244.06a9.42,9.42,0,1,1,7,15.68,14.1,14.1,0,0,1-2.59-.21,31.48,31.48,0,0,1-7.15-2.51,3.27,3.27,0,0,0-.71-.28,2.29,2.29,0,0,0-.9.1,40.77,40.77,0,0,1-16.13.58"/><path class="cls-2" d="M135,206.63c4.29,3,5.46,9.08,9.49,12.46,1.18,1,2.56,1.71,3.83,2.58a19.07,19.07,0,0,1,7.84,19.14"/><path class="cls-3" d="M147.06,227.42c1.7,7.79-1.73,12.35-9.61,14.45-7.71,2-18.58-2.75-18.58-11.62,0-8,4.28-14.77,12.26-14.77S145.33,219.52,147.06,227.42Z"/><path class="cls-2" d="M171.41,200.54a8,8,0,0,1-8.91-1.74,11.09,11.09,0,0,1-2.91-8.9,9.69,9.69,0,0,1,1-3.55c1.76-3.43,6.13-5,9.89-4.2s6.74,3.78,8.61,7.15c4,7.13.77,20.73-13.44,25.26a27.84,27.84,0,0,1-18.74-.57c-1.79-.7-7.3-3.06-9.88-5.49"/><path class="cls-2" d="M164.63,200.33c-.82,2-3.73,5-10.78,5.94-4.29.55-10.07.55-15.46-2.27-2.66-1.4-7.08-3.26-8.31-3"/><circle class="cls-2" cx="92.66" cy="259.13" r="4.54"/><path class="cls-2" d="M89.7,255.73a6.52,6.52,0,0,1,1.85-6.92A12.76,12.76,0,0,1,99,245.87a26.19,26.19,0,0,1,8.33.4"/><path class="cls-2" d="M89.8,231.85a121,121,0,0,0,15.58-20.68,34.7,34.7,0,0,1,2.3-3.34,20.9,20.9,0,0,1,9-6.36"/><path class="cls-2" d="M90.67,230.66a13.73,13.73,0,0,0-4.28-.42,5.57,5.57,0,0,0-3.83,1.61,6.85,6.85,0,0,0-1.93,3.46,9.7,9.7,0,0,0-.25,4.18,4.7,4.7,0,0,0,2.37,3.33,7.44,7.44,0,0,0,3.22.49c2.54,0,6-.24,8.57-.31a6,6,0,0,0,2-.25,5.25,5.25,0,0,0,1.5-1.08c8.28-7.47,10.37-21.84,14.7-30.84"/><path class="cls-1" d="M128.18,253.45a3,3,0,0,1-2.7,3.55,3.26,3.26,0,1,1-.74-6.48A3.1,3.1,0,0,1,128.18,253.45Z"/><path class="cls-1" d="M125.44,247.89a1.15,1.15,0,0,1-.91,1.45c-.66.08-1.29,0-1.49-.74a1.28,1.28,0,0,1,1-1.52A1.19,1.19,0,0,1,125.44,247.89Z"/><path class="cls-1" d="M129.28,249.16a1,1,0,0,1-1.19,1,1.34,1.34,0,0,1-1.17-1.37,1,1,0,0,1,1.31-.88A1.2,1.2,0,0,1,129.28,249.16Z"/><path class="cls-1" d="M121.92,249.89c.08.66-.23.91-.84,1.16a1.14,1.14,0,0,1-1.53-.67,1.24,1.24,0,0,1,.8-1.52A1.3,1.3,0,0,1,121.92,249.89Z"/><path class="cls-1" d="M162,253.84a3.08,3.08,0,0,1-3.67,2.81,3.21,3.21,0,0,1-2.74-3.54,3.08,3.08,0,0,1,3.56-2.71A3,3,0,0,1,162,253.84Z"/><path class="cls-1" d="M160.64,247.88a1.15,1.15,0,0,1-1.22,1.21c-.66-.07-1.26-.27-1.28-1.06a1.33,1.33,0,0,1,1.34-1.28A1.2,1.2,0,0,1,160.64,247.88Z"/><path class="cls-1" d="M163.91,250a1.09,1.09,0,0,1-1.4.62,1.22,1.22,0,0,1-.71-1.63,1.11,1.11,0,0,1,1.66-.49A1.23,1.23,0,0,1,163.91,250Z"/><path class="cls-1" d="M156.69,248.72c.16.83-.59,1.25-1.24,1.35a1,1,0,0,1-1.21-1,1.23,1.23,0,0,1,1-1.38A1.26,1.26,0,0,1,156.69,248.72Z"/><path class="cls-3" d="M92.47,228.91a7.09,7.09,0,0,0,4.17,7.66,7.89,7.89,0,0,0,5,.69"/><path class="cls-3" d="M176.15,207.77a5.57,5.57,0,0,1-4.94.78,9.86,9.86,0,0,1-7.53-6.66"/><path class="cls-3" d="M137.61,26.38a64.41,64.41,0,0,0-3.47,9.26l-1.8,5.69a59.67,59.67,0,0,0-2.37,9.1,5.55,5.55,0,0,0,.17,3.08c.42,1,1.78.4,2.51,1.35.72.5-.43,2.26-.61,3.39a.88.88,0,0,0,.05.6c.25.43.9.18,1.39.18a1.64,1.64,0,0,1,1.45,1.63,5.14,5.14,0,0,1-.61,2.31,43.49,43.49,0,0,0-2.79,11.42,2.8,2.8,0,0,0,.76,2.69,1.63,1.63,0,0,1,.46.36c.23.36,0,.82-.29,1.18a5.13,5.13,0,0,0-1.23,3.68c1-.52,2.75-.33,3,.53-.27,1.18-2.45,1.13-2.55,2.33-.06.72.71,1.18,1.34,1.53s1.31,1,1,1.67c-1.2-.16-2.7-.49-3.87-.63"/><path class="cls-6" d="M122.05,87c-1.89.06-7.38,2.22-9.88,1.45a7.48,7.48,0,0,1-1-2.24"/><path class="cls-7" d="M18.74,72.26a133.65,133.65,0,0,1,28.93,5.9A74.79,74.79,0,0,1,72.58,91.91.75.75,0,0,1,72.66,93c-.23.24-1,1.3-.27,2.12.5.5,1.41,0,2.25-.32a16.63,16.63,0,0,1,3.86-1.35c.36,0,.87.17.61.89-.54,1.5-1.9,3.93-1,4.46.55.32,1.23-.13,1.67-.42,3.48-2.26,8.26-4,14.12-5.52"/><path class="cls-3" d="M158,112.74a12.58,12.58,0,0,0-1.11,3.66,3.64,3.64,0,0,0,.64,2.51,1.61,1.61,0,0,0,1.55.69,1.49,1.49,0,0,0,1-1.09,4,4,0,0,0,0-1.55c-.11-.84-.25-1.67-.44-2.5"/><path class="cls-3" d="M169.28,125.92a7.26,7.26,0,0,0-.35,2,2.6,2.6,0,0,0,.13,1,1,1,0,0,0,2-.2,2,2,0,0,0-.09-1.15"/><path class="cls-2" d="M80.22,51.76a5,5,0,0,0,1.59-2.14A3.83,3.83,0,0,0,80.4,46c-1-.94-2.27-1.58-3.29-2.52a3.87,3.87,0,0,1-1.44-3.66c.33-1.24,1.57-2.12,1.77-3.39a2.9,2.9,0,0,0-1.33-2.68,7,7,0,0,0-3-1c-4.09-.64-8.51-.29-12.08-2.39a10.12,10.12,0,0,1-4.2-11.85c.36-1,.87-1.87,1.19-2.85a35.15,35.15,0,0,0,.75-4.22A11.92,11.92,0,0,1,64,3.52a16.72,16.72,0,0,1,5.86-2,21.11,21.11,0,0,1,9.39,0c4.48,1.22,8,4.53,11.41,7.73A18.22,18.22,0,0,1,95.28,15a17.38,17.38,0,0,1,1,6.5c.06,2.41,0,5-1.36,7S91,31.38,88.58,31.77s-4.93.38-7.29,1.08a1.91,1.91,0,0,0-.94.5c-.91,1,.59,2.52.41,3.86-.2,1.58-2.52,2-3,3.55s.8,2.66,2,3.45,2.92,3.18,2.08,5.41"/><path class="cls-8" d="M74.46,17.72a1.18,1.18,0,0,1,.33,1.75,1.56,1.56,0,0,1-1.87.32,2.26,2.26,0,0,1-1.13-1.62A2.16,2.16,0,0,1,72,16.73a2.58,2.58,0,0,1,2.9-.87,4.33,4.33,0,0,1,2.58,1.75,3.26,3.26,0,0,1,.32,3.05,3.47,3.47,0,0,1-1,1.26A5.07,5.07,0,0,1,70,21.29a6.44,6.44,0,0,1,.18-7.68,5.58,5.58,0,0,1,6.92-.72,9.33,9.33,0,0,1,4,4.91,7.78,7.78,0,0,1,.1,3.46C80.78,22.57,79,24,77.73,24.61A12.83,12.83,0,0,1,73.07,26a7,7,0,0,1-4.65-1.17,7.34,7.34,0,0,1-2.55-3.78,16.11,16.11,0,0,1-.61-4.58A8.19,8.19,0,0,1,65.48,14c.56-1.94,2.32-3.29,4.08-4.27A12.94,12.94,0,0,1,72.39,8.5a9.12,9.12,0,0,1,6.31.6,10.22,10.22,0,0,1,4.55,4.46c2,3.83,3.88,13.68-4.82,15.22"/></g></g></svg>