<svg xmlns="http://www.w3.org/2000/svg" viewBox="0 0 221.82 158.49"><defs><style>.cls-1{fill:#4664ae;}.cls-2{fill:#f38fba;}.cls-3{fill:#6fcde4;}</style></defs><g id="Layer_2" data-name="Layer 2"><g id="Layer_1-2" data-name="Layer 1"><path class="cls-1" d="M82.55,48.52a.87.87,0,1,1-1.55.81,18.79,18.79,0,0,0-3.41-4.57,26,26,0,0,0,.69,2.91l1.09,3.53-2.56-2.67A9.34,9.34,0,0,0,71.29,46a1.7,1.7,0,0,0-.42.1,1.58,1.58,0,0,0-.13.89c.21,1.8,2.15,3.2,4.29,4.6a.87.87,0,0,1,.25,1.22.88.88,0,0,1-1.21.25,20.44,20.44,0,0,1-3.17-2.41,54,54,0,0,0-12.29,4.61c-.32-.48-.63-1-.93-1.49a53.19,53.19,0,0,1,12-4.62,6.16,6.16,0,0,1-.39-.82L69,48.17c-.78-.53-1.66-1.13-1.63-2.17a2.82,2.82,0,0,1,1-1.75l.21-.22c.32-.35.7-1,.4-1.39s-.71-.29-1.19-.3h-.23a2,2,0,0,1-1.41-.59,1,1,0,0,1-.25-.8,1.65,1.65,0,0,1,.34-.73c.11-.16.22-.31.21-.41s-.17-.23-.43-.38a1.75,1.75,0,0,1-.74-.69,1.63,1.63,0,0,1-.12-.82,7.08,7.08,0,0,0-.82-3.08A51.76,51.76,0,0,0,57.57,24c-1.54-1.47-3.12-2.89-4.73-4.24a12.86,12.86,0,0,1,.84-1.61A118.29,118.29,0,0,1,75.61,42.82s0,0,0-.06l-.06-1.58,1.37.79a15.77,15.77,0,0,1,4,3.93c1.33-.11,2.76-.16,4.22-.16.07.59.11,1.18.15,1.76-1.12,0-2.21,0-3.25.08C82.2,47.88,82.38,48.2,82.55,48.52Z"/><path class="cls-1" d="M138.43,27.7q-2,.68-4.05,1.44A45,45,0,0,0,128.21,33a4.7,4.7,0,0,1-2.66,1.08l-.27,0a11.79,11.79,0,0,1-1.49-.25l-.28-.06c-1.11.53-2.22,1.07-3.33,1.64a2.8,2.8,0,0,0-.1.37,2.75,2.75,0,0,1-2,2.52,3,3,0,0,1-1,0,2.29,2.29,0,0,0-.74,0c-.35.08-.65.5-1,1a3.66,3.66,0,0,1-1,1.08,4.3,4.3,0,0,1-2.14.44,3.49,3.49,0,0,0-1.37.21,7.6,7.6,0,0,0-2.41,2.68,8.55,8.55,0,0,1-1.79,2.19,8.92,8.92,0,0,1-4.76,1.92,3.42,3.42,0,0,1-.45,0l-.16.13-1.59,1.36.15-2.09a1.77,1.77,0,0,0-.2-1.07c-.08,0-.16-.06-.18,0-.47.32-.79,2.31-.5,4.17a.88.88,0,0,1-1.73.27,10.56,10.56,0,0,1-.12-1.57A43.37,43.37,0,0,0,92.29,48c.07-.56.16-1.14.28-1.72h0a44,44,0,0,1,4.64.83,3.72,3.72,0,0,1,1.25-2.54,1.93,1.93,0,0,1,2.18,0l.16.12a2.5,2.5,0,0,1,.52.81c11.1-9.14,24.49-15.39,37.11-19.65A14.32,14.32,0,0,1,138.43,27.7Z"/><path class="cls-2" d="M185.68,30.74a.87.87,0,0,1-.87.85h0a.87.87,0,0,1-.85-.89,1.62,1.62,0,0,0-.46-1.31c-.14-.1-.46-.11-1.13.11a3,3,0,0,1,1,2.34,104.48,104.48,0,0,1-1.2,13l0,.33c-.64,4.46-1.7,11.91-7.44,25.71-.47,1.08-4.61,10.65-8.38,12.44a6,6,0,0,1-2.86.64,7.79,7.79,0,0,1-2.21-.33c-.54-.14-1.33-.3-1.58-.35a12.86,12.86,0,0,1-1.12,2.82c-.53-.24-1.05-.5-1.56-.79,1.63-2.85,1.76-7,1.2-8.53a7.18,7.18,0,0,1-.13-2.72,7,7,0,0,0,0-2,14.51,14.51,0,0,0-3.27-.64,16.37,16.37,0,0,1-2.16-.38,9.49,9.49,0,0,0-6,.11c-.12-.57-.23-1.15-.3-1.74a11.35,11.35,0,0,1,5.09-.44c.34-.54.51-1.45.09-4.41,0-.27-.11-.57-.17-.86-.42-2-.81-3.88.53-6.25C164,37.75,176.12,30.74,176.63,30.45c4.58-2.75,6.58-3.38,7.91-2.45A3.37,3.37,0,0,1,185.68,30.74Z"/><path class="cls-3" d="M189.39,27.69c-.22,3.51-.68,6.69-.72,6.91a142.48,142.48,0,0,1-16.18,53.54c-.7.07-1.39.12-2.08.15,6.87-12.35,14.06-30.31,16.53-53.9,0-.08.48-3.37.71-6.9C188.24,27.54,188.82,27.6,189.39,27.69Z"/><path class="cls-3" d="M18.12,7.08A31.88,31.88,0,0,0,15.39,14l0,.11c-3.53,8.29-6,23.39-6.3,38.73C8.49,51.34,8,49.76,7.52,48.12h0c.66-13.89,3-27,6.2-34.62a33.88,33.88,0,0,1,2.24-6,7.71,7.71,0,0,1,1.15-.28A6.78,6.78,0,0,1,18.12,7.08Z"/><path class="cls-2" d="M37.07,61.18A19.21,19.21,0,0,1,36.28,63a8.06,8.06,0,0,0-2.4-2.29,2.75,2.75,0,0,0-1.76-.53,1.9,1.9,0,0,0-1.27,1.1c-.22.5-.46,1.68-.28,4.48l.13,2.14-1.59-1.43c-.21-.19-.43-.41-.67-.65C26.62,64,23.57,61,16,62.68a14.14,14.14,0,0,0-1.56.43c-.57-.78-1.13-1.62-1.66-2.5-.64-7.08-.1-15.84.23-21.25.07-1.11.13-2,.17-2.79a91.91,91.91,0,0,1,1.95-12.18,34.73,34.73,0,0,1,2.28-6.65c.26-.61.48-1.12.6-1.48.4-1,1.29-3.23,3.29-3.23h0c-.42-.88-.79-1-1.11-1h0a1,1,0,0,0-.8.45.87.87,0,1,1-1.4-1,2.69,2.69,0,0,1,2.2-1.16h.06a3,3,0,0,1,2.66,2c.42.92.83,1.95,1.24,3h0c3.5,9.27,6.52,23.84,8.09,35.18.29,2.81-.75,4.12-2.62,6.2a8,8,0,0,0-2.05,6,13.57,13.57,0,0,1,1.18,1,7.94,7.94,0,0,1,.5-3.15,3.6,3.6,0,0,1,2.57-2.09,4.26,4.26,0,0,1,3,.76A9.66,9.66,0,0,1,37.07,61.18Z"/><path class="cls-1" d="M184.54,28c-1.33-.93-3.33-.3-7.91,2.45-.51.29-12.65,7.3-24.89,27-1.34,2.37-1,4.25-.53,6.25.06.29.12.59.17.86.42,3,.25,3.87-.09,4.41a11.35,11.35,0,0,0-5.09.44,14.87,14.87,0,0,0-4.41,2.25,4.21,4.21,0,0,0-1.12-2.21,4.61,4.61,0,0,0-3.23-1c-2.27,0-5.26,1-6.47,3.11a7.21,7.21,0,0,0-.39,7.17.88.88,0,0,0,1.18.38.86.86,0,0,0,.38-1.17,5.55,5.55,0,0,1,.35-5.51c.82-1.42,3.17-2.21,5-2.23a2.84,2.84,0,0,1,2,.52,2.92,2.92,0,0,1,.6,2.5l-1.4,3.58,2.81-2.62a14.41,14.41,0,0,1,5-3,9.49,9.49,0,0,1,6-.11,16.37,16.37,0,0,0,2.16.38,14.51,14.51,0,0,1,3.27.64,7,7,0,0,1,0,2,7.18,7.18,0,0,0,.13,2.72c.56,1.54.43,5.68-1.2,8.53a6.92,6.92,0,0,1-.75,1.08,6.64,6.64,0,0,1-3.51,2.3l-3.09.72,3,1s1.13.38,1.26,2.34a2.26,2.26,0,0,1-1.23,2,7.06,7.06,0,0,1-3,.67.87.87,0,0,0-.82.92.88.88,0,0,0,.88.82h.05a8.53,8.53,0,0,0,3.75-.88,4,4,0,0,0,2.12-3.66,5,5,0,0,0-1-2.77,9,9,0,0,0,2.87-2.31,8.94,8.94,0,0,0,1-1.42,12.86,12.86,0,0,0,1.12-2.82c.25,0,1,.21,1.58.35a7.79,7.79,0,0,0,2.21.33,6,6,0,0,0,2.86-.64c3.77-1.79,7.91-11.36,8.38-12.44,5.74-13.8,6.8-21.25,7.44-25.71l0-.33a104.48,104.48,0,0,0,1.2-13,3,3,0,0,0-1-2.34c.67-.22,1-.21,1.13-.11a1.62,1.62,0,0,1,.46,1.31.87.87,0,0,0,.85.89h0a.87.87,0,0,0,.87-.85A3.37,3.37,0,0,0,184.54,28Zm-4.16,16.57,0,.36c-.67,4.65-1.67,11.69-7.33,25.27-1.18,2.77-4.82,10.26-7.58,11.58a5.28,5.28,0,0,1-3.79.16c-.57-.15-1.37-.31-1.67-.37a11.77,11.77,0,0,0-.21-5.4,7.21,7.21,0,0,1,0-2c.09-1.44.16-2.69-.54-3.37s-2.12-.87-4.29-1.16a14.63,14.63,0,0,1-1.86-.31c.41-1,.46-2.35.07-5.09-.06-.33-.13-.64-.19-.94-.39-1.87-.67-3.23.33-5,12-19.2,24.12-26.25,24.26-26.33.78-.47,1.46-.86,2.06-1.18a1.68,1.68,0,0,1,1.52-.08,1.23,1.23,0,0,1,.46,1.12A107.8,107.8,0,0,1,180.38,44.57Z"/><path class="cls-1" d="M57.68,53.79l-.67.36a.88.88,0,0,0,.89,1.51s.26-.15.71-.38C58.29,54.8,58,54.3,57.68,53.79Zm0,0-.67.36a.88.88,0,0,0,.89,1.51s.26-.15.71-.38C58.29,54.8,58,54.3,57.68,53.79Zm0,0-.67.36a.88.88,0,0,0,.89,1.51s.26-.15.71-.38C58.29,54.8,58,54.3,57.68,53.79Zm0,0-.67.36a.88.88,0,0,0,.89,1.51s.26-.15.71-.38C58.29,54.8,58,54.3,57.68,53.79Zm0,0-.67.36a.88.88,0,0,0,.89,1.51s.26-.15.71-.38C58.29,54.8,58,54.3,57.68,53.79Zm0,0-.67.36a.88.88,0,0,0,.89,1.51s.26-.15.71-.38C58.29,54.8,58,54.3,57.68,53.79Zm164,67.46-.06-.21a4.87,4.87,0,0,0-2.74-2.56l-.82-.38a19,19,0,0,0-1.91-.69c-.81-.25-1.61-.47-2.4-.67A65.21,65.21,0,0,0,201.17,115a28.68,28.68,0,0,0-13.31-14.74c-4.28-2.45-13.35-4.68-20.68-3.28,1.7-2.57,3.5-5.51,5.31-8.84A142.48,142.48,0,0,0,188.67,34.6c0-.22.5-3.4.72-6.91a38.76,38.76,0,0,0,0-6.29,9,9,0,0,1,.74-1.69c.35-.64.79-1.44.18-2.22-.84-1.23-3.47-1.29-12.21-.25a189.48,189.48,0,0,0-39.66,8.61c-12.62,4.26-26,10.51-37.11,19.65a2.5,2.5,0,0,0-.52-.81l-.16-.12a1.93,1.93,0,0,0-2.18,0,3.72,3.72,0,0,0-1.25,2.54,44,44,0,0,0-4.64-.83h0a59.66,59.66,0,0,0-7.46-.51c-1.46,0-2.89,0-4.22.16a15.77,15.77,0,0,0-4-3.93l-1.37-.79.06,1.58s0,0,0,.06A118.29,118.29,0,0,0,53.68,18.19,96.67,96.67,0,0,0,23.51.81c-2.32-.8-4.58-1.35-5.45,0a4,4,0,0,0,.1,2.8A29.12,29.12,0,0,0,16,7.46a33.88,33.88,0,0,0-2.24,6c-3.2,7.58-5.54,20.73-6.2,34.62h0c-.78,16.44.77,33.92,6,44.51-2.7.39-8.56,1.54-11.22,3.81C.72,97.76,0,99.14,0,100.54A5.12,5.12,0,0,0,1.75,104c2.76,2.78,7.19,3.39,9.82,3.49a13.13,13.13,0,0,0-.84,1.26,2.41,2.41,0,0,0-.25,2.44c.35.68,1,1,2.33,1.22a8.9,8.9,0,0,0,1.26.09,8,8,0,0,0,4.45-1.32,25.68,25.68,0,0,0,.78,4.51c3.45,12.52,12.73,22.89,25.62,29.87a5,5,0,0,0-1.1,2.8,3.9,3.9,0,0,0,2.7,3.93l0,.08c1,1.85,3,2.23,4.73,2.23a14.93,14.93,0,0,0,1.76-.11,4.41,4.41,0,0,0,.64.36,7.53,7.53,0,0,0,3.09.58,25.88,25.88,0,0,0,7.76-1.7c.63-.21,1.18-.39,1.66-.53a95.34,95.34,0,0,0,19.65,2c1.06,0,2.13,0,3.2,0a126.53,126.53,0,0,0,14.63-1.36,3.9,3.9,0,0,0,.19.35,4.23,4.23,0,0,0,2.56,1.9c.9,1.47,3.09,1.8,4.8,1.8a15.06,15.06,0,0,0,1.8-.11,8.14,8.14,0,0,0,3.91.79,16.63,16.63,0,0,0,2.17-.14c2.49-.3,8.23-1.65,8.49-1.71a108.68,108.68,0,0,1,10.81-2.11c9.42-.76,12.68-2.81,14-4.51.38,0,.87,0,1.54,0,1.35,0,3.4-.07,6.53-.2a44.43,44.43,0,0,0,6.46-.77,7,7,0,0,0,3.21.92s6,0,14.83.4h.42a17,17,0,0,0,13.5-6.76,32.67,32.67,0,0,1,5.47,1.09,12.48,12.48,0,0,0,4.17.85,4.08,4.08,0,0,0,1.89-.36,6.61,6.61,0,0,0,4-6.64c-.16-5-4.47-7.42-4.63-7.51a24.48,24.48,0,0,0-6.61-2.79,33.9,33.9,0,0,0-.89-9.69c-.15-.62-.33-1.23-.52-1.83a71.4,71.4,0,0,1,7.81.87,47.29,47.29,0,0,1,6,1.42,16.64,16.64,0,0,1,2.46,1c1.41.7,1.76,1.26,1.85,1.54.38,1.17-.09,1.72-.55,2a5.23,5.23,0,0,0-.85-1.2,5.41,5.41,0,1,0-4,9.16h.12a5.41,5.41,0,0,0,5.41-5.3,5.65,5.65,0,0,0-.07-1A3.17,3.17,0,0,0,221.66,121.25ZM129.84,30.93c-.68.44-1.37.92-2.08,1.44a3.62,3.62,0,0,1-2.41.93l-.7-.1C126.37,32.4,128.11,31.64,129.84,30.93Zm-10.56,4.9c-.22,1-.65,1.53-1.41,1.7a2.31,2.31,0,0,1-.74,0,3.36,3.36,0,0,0-.95,0C117.21,36.94,118.24,36.38,119.28,35.83Zm-4,2.18a5.26,5.26,0,0,0-.61.78,3.26,3.26,0,0,1-.75.86,3.71,3.71,0,0,1-1.78.33H112C113.11,39.31,114.21,38.65,115.33,38Zm-7,4.39-.55.81a8.16,8.16,0,0,1-1.61,2,8.56,8.56,0,0,1-3.84,1.73C104.29,45.34,106.29,43.82,108.36,42.4ZM75.14,45.3a10.41,10.41,0,0,0-3.72-1,3.47,3.47,0,0,0-1.29.26A2.61,2.61,0,0,0,69,47.22h0c-.48-.36-.85-.72-.84-1.2a2.2,2.2,0,0,1,.78-1.26l.22-.23a1.89,1.89,0,0,0,.44-2.37,2.14,2.14,0,0,0-1.77-.58h-.22a1.26,1.26,0,0,1-.86-.33.28.28,0,0,1-.08-.21,1.15,1.15,0,0,1,.22-.4,1.35,1.35,0,0,0,.33-.93,1.32,1.32,0,0,0-.78-.94,1.2,1.2,0,0,1-.46-.37.94.94,0,0,1,0-.46v-.1a7.52,7.52,0,0,0-.89-3.32,48.66,48.66,0,0,0-3.95-7A121.65,121.65,0,0,1,75.14,45.3ZM21.39,116.52c4.14-2.59,10.62-1.55,14.4,1.23A20,20,0,0,1,44,130.84c.54,3.35-.26,8.42-2.11,10.86C31.87,135.34,24.6,126.7,21.39,116.52Zm24.86,33.57a2,2,0,0,1-.69-1.47,3,3,0,0,1,1-2.26c.45.23.91.46,1.38.68A4.12,4.12,0,0,0,46.25,150.09Zm5.43,2.71c-1.6,0-3-.17-3.55-1.23a2.81,2.81,0,0,1,1.1-3.3.88.88,0,0,0,.36-.45c.86.39,1.74.76,2.63,1.12a3.69,3.69,0,0,0-.55.95A4,4,0,0,0,51.68,152.8Zm2.72.41a2.09,2.09,0,0,1-.92-.7,2.17,2.17,0,0,1-.18-2,1.58,1.58,0,0,1,.71-.88,83.19,83.19,0,0,0,8.86,2.76C60.17,153.27,56.68,154.22,54.4,153.21Zm49.42-4a4.92,4.92,0,0,0-.65,2.84A123.56,123.56,0,0,1,89,153.37c-17.88.56-34.18-3.65-46.48-11.26,2-2.68,2.78-7.9,2.22-11.39a20.71,20.71,0,0,0-8.49-13.57c-3.92-2.89-10.56-4.09-15.08-1.38-.05-.2-.12-.39-.18-.59a27.11,27.11,0,0,1-.37-11.46.88.88,0,0,0-.69-1,.87.87,0,0,0-1,.69,26.34,26.34,0,0,0-.46,5.58,6.25,6.25,0,0,1-5.36,1.68c-.86-.13-1-.28-1-.29s0-.4.19-.73a8.39,8.39,0,0,1,1.95-2.39l2.27-1.87-2.92.32c-1.36.16-7.5.1-10.53-3a3.52,3.52,0,0,1-1.25-2.24A3.73,3.73,0,0,1,3.4,97.77c2.66-2.26,9.87-3.45,11.48-3.54a1,1,0,0,0,.35-.1h0a.87.87,0,0,0,.1-.08.64.64,0,0,0,.15-.13.67.67,0,0,0,.09-.14,1,1,0,0,0,.07-.15.51.51,0,0,0,0-.21.43.43,0,0,0,0-.11h0a.8.8,0,0,0,0-.21s0-.09,0-.13a0,0,0,0,0,0,0c-5-9.28-6.85-24.8-6.53-40.07v0c.31-15.34,2.77-30.44,6.3-38.73l0-.11a31.88,31.88,0,0,1,2.73-6.93,28.35,28.35,0,0,1,1.72-2.79l.25-.36L20,3.52a7.56,7.56,0,0,1-.37-1.74c.21-.06,1-.14,3.35.68A94.89,94.89,0,0,1,52.84,19.8C54.45,21.15,56,22.57,57.57,24a51.76,51.76,0,0,1,6.8,10.8,7.08,7.08,0,0,1,.82,3.08,1.63,1.63,0,0,0,.12.82,1.75,1.75,0,0,0,.74.69c.26.15.41.25.43.38s-.1.25-.21.41a1.65,1.65,0,0,0-.34.73,1,1,0,0,0,.25.8,2,2,0,0,0,1.41.59h.23c.48,0,1,0,1.19.3s-.08,1-.4,1.39l-.21.22a2.82,2.82,0,0,0-1,1.75c0,1,.85,1.64,1.63,2.17l.26.18a6.16,6.16,0,0,0,.39.82,53.19,53.19,0,0,0-12,4.62l-.67.36a.88.88,0,0,0,.89,1.51s.26-.15.71-.38A54,54,0,0,1,70.9,50.67a20.44,20.44,0,0,0,3.17,2.41.88.88,0,0,0,1.21-.25A.87.87,0,0,0,75,51.61c-2.14-1.4-4.08-2.8-4.29-4.6a1.58,1.58,0,0,1,.13-.89,1.7,1.7,0,0,1,.42-.1,9.34,9.34,0,0,1,5.52,2.51l2.56,2.67-1.09-3.53a26,26,0,0,1-.69-2.91A18.79,18.79,0,0,1,81,49.33a.87.87,0,1,0,1.55-.81c-.17-.32-.35-.64-.54-.94,1-.06,2.13-.09,3.25-.08a60.72,60.72,0,0,1,7,.47,43.37,43.37,0,0,1,4.82.88,10.56,10.56,0,0,0,.12,1.57A.88.88,0,0,0,99,50.15c-.29-1.86,0-3.85.5-4.17,0,0,.1,0,.18,0a1.77,1.77,0,0,1,.2,1.07l-.15,2.09,1.59-1.36.16-.13a3.42,3.42,0,0,0,.45,0,8.92,8.92,0,0,0,4.76-1.92,8.55,8.55,0,0,0,1.79-2.19,7.6,7.6,0,0,1,2.41-2.68,3.49,3.49,0,0,1,1.37-.21,4.3,4.3,0,0,0,2.14-.44,3.66,3.66,0,0,0,1-1.08c.31-.45.61-.87,1-1a2.29,2.29,0,0,1,.74,0,3,3,0,0,0,1,0,2.75,2.75,0,0,0,2-2.52,2.8,2.8,0,0,1,.1-.37c1.11-.57,2.22-1.11,3.33-1.64l.28.06a11.79,11.79,0,0,0,1.49.25l.27,0A4.7,4.7,0,0,0,128.21,33a45,45,0,0,1,6.17-3.84q2-.77,4.05-1.44A188.07,188.07,0,0,1,178.29,19c2.58-.31,9.31-1.1,10.52-.51-.06.11-.14.27-.22.4a10,10,0,0,0-.93,2.23l0,.17,0,.17a35.72,35.72,0,0,1,0,6c-.23,3.53-.69,6.82-.71,6.9-2.47,23.59-9.66,41.55-16.53,53.9a111.38,111.38,0,0,1-9,13.82c-.86,1.1-1.51,1.91-2.2,2.72a32.76,32.76,0,0,0-12.25-.92.88.88,0,0,0,.2,1.74c5-.57,10.67.13,13.83,1.73a8.3,8.3,0,0,1,4.44,4.71,6.72,6.72,0,0,1-.86,5.8c-3.28,4-9.32,3.13-9.38,3.12l-4.68-.92,4,2.52a8.45,8.45,0,0,1,2.62,3.63l.05.2a1.94,1.94,0,0,1,.09.43,1.79,1.79,0,0,1-1,.67,6.88,6.88,0,0,1-6.73-2.06.86.86,0,0,0-1.23-.13.88.88,0,0,0-.13,1.23,7.23,7.23,0,0,0,1.6,1.43,16.1,16.1,0,0,1-1.15,3.11,20.92,20.92,0,0,0-2.6-6.46,20.33,20.33,0,0,0-13.7-9.47,19.68,19.68,0,0,0-23.17,18.33,19.6,19.6,0,0,0,2.25,10.11C107.4,145.2,104.67,147.79,103.82,149.22Zm44.26-17c-2.48,4.39-6.44,7.64-8.29,8.37a83.71,83.71,0,0,0-26.85,2.55c-.28.08-.53.19-.8.28a18.87,18.87,0,0,1-2.22-9.83,18.93,18.93,0,0,1,22.29-17.62,19.56,19.56,0,0,1,13.19,9.12A20,20,0,0,1,148.08,132.18Zm-22.56,23.14c-1.92.43-5,1.1-6.64,1.3-2.06.27-5.16.1-5.39-1,0-.1-.7-2.46,1.16-3.3a.88.88,0,1,0-.72-1.6c-2.6,1.18-2.53,4-2.14,5.31-1.48.06-3.64-.13-4-1.12,0-.1-.7-2.46,1.16-3.31a.88.88,0,1,0-.72-1.6,4,4,0,0,0-2.33,3.8,3,3,0,0,1-.59-.66,2.86,2.86,0,0,1,0-3.07c.68-1.16,3.56-4,8.11-5.32A51.51,51.51,0,0,1,119,143.5a10.39,10.39,0,0,1,5.15,1.9,7.57,7.57,0,0,1,2.08,9A3.8,3.8,0,0,1,125.52,155.32Zm73.08-14.39a15.19,15.19,0,0,1-13.53,7.74c-8.89-.41-14.87-.41-14.88-.4a4.56,4.56,0,0,1-3.39-1.5,11.33,11.33,0,0,0-1.57-1.81.87.87,0,0,0-1.2,1.27,10.27,10.27,0,0,1,1.23,1.39,44.92,44.92,0,0,1-4.85.5c-3.16.13-5.68.16-7.06.15l.05-.13a7.62,7.62,0,0,0,.34-3.68.88.88,0,1,0-1.72.36,5.66,5.66,0,0,1-.26,2.71l-.08.2a5.05,5.05,0,0,1-.3.67l-.23,0,0,.25c-1,1.4-3.64,3.34-13,4.09-3.28.4-8.54,1.52-11,2.15l-.49.11a2.63,2.63,0,0,0,.2-.33,8.36,8.36,0,0,0-2.32-9.93,10.87,10.87,0,0,0-3.43-1.65,84.12,84.12,0,0,1,20.31-.71c1.57.17,3.2.49,3.21.5a.88.88,0,1,0,.34-1.72c-.05,0-1.05-.21-2.27-.38a24.45,24.45,0,0,0,8.66-12,9.3,9.3,0,0,0,3.35.64,7.42,7.42,0,0,0,2.05-.27,3.19,3.19,0,0,0,2.17-1.84,2.47,2.47,0,0,0-.07-1.4l0-.17a9,9,0,0,0-1.63-3c2.42-.07,6.18-.75,8.7-3.84a8.44,8.44,0,0,0,1.13-7.53,10,10,0,0,0-5.28-5.65c-.25-.13-.52-.25-.8-.37.47-.57,1-1.17,1.51-1.88a8,8,0,0,1,2.59,1.05.84.84,0,0,0,.48.14.89.89,0,0,0,.73-.39.88.88,0,0,0-.25-1.21,9.24,9.24,0,0,0-2.4-1.1c.67-.9,1.38-1.88,2.11-2.93,7-2.12,17,.2,21.28,2.65,7.22,4,11.81,9.85,13.63,17.26C203.25,129.72,199.18,140,198.6,140.93Zm4.48-10.85a23.4,23.4,0,0,1,5.86,2.53,7.92,7.92,0,0,1,3.77,6.11c0,.15.26,3.66-3,4.93l-.1,0s-1.31.62-4.72-.59A33.93,33.93,0,0,0,200,142l.13-.21A34.75,34.75,0,0,0,203.08,130.08Zm14.07-1.33a3.6,3.6,0,0,1-2.61,1,3.7,3.7,0,0,1-2.57-1.13,3.67,3.67,0,0,1,2.65-6.21h.08a3.64,3.64,0,0,1,2.57,1.14,3.56,3.56,0,0,1,1,2.61A3.63,3.63,0,0,1,217.15,128.75Zm-159.47-75-.67.36a.88.88,0,0,0,.89,1.51s.26-.15.71-.38C58.29,54.8,58,54.3,57.68,53.79Zm0,0-.67.36a.88.88,0,0,0,.89,1.51s.26-.15.71-.38C58.29,54.8,58,54.3,57.68,53.79Zm0,0-.67.36a.88.88,0,0,0,.89,1.51s.26-.15.71-.38C58.29,54.8,58,54.3,57.68,53.79Zm0,0-.67.36a.88.88,0,0,0,.89,1.51s.26-.15.71-.38C58.29,54.8,58,54.3,57.68,53.79Zm0,0-.67.36a.88.88,0,0,0,.89,1.51s.26-.15.71-.38C58.29,54.8,58,54.3,57.68,53.79Zm0,0-.67.36a.88.88,0,0,0,.89,1.51s.26-.15.71-.38C58.29,54.8,58,54.3,57.68,53.79Z"/><path class="cls-1" d="M75.44,135.42a4.27,4.27,0,0,0-1.75-1.52,2.48,2.48,0,0,0-2.7.39,2.44,2.44,0,0,0-.41,2.78,3.64,3.64,0,0,0,1.8,1.67,2.94,2.94,0,0,0,1.29.31,2.27,2.27,0,0,0,1.42-.47A2.33,2.33,0,0,0,75.44,135.42ZM74,137.21c-.19.16-.57.09-.86-.05a2,2,0,0,1-1-.84.71.71,0,0,1,.06-.77.53.53,0,0,1,.39-.13,1.14,1.14,0,0,1,.4.08,2.68,2.68,0,0,1,1,.93A.57.57,0,0,1,74,137.21Z"/><path class="cls-1" d="M37.07,61.18a9.66,9.66,0,0,0-2.28-1.94,4.26,4.26,0,0,0-3-.76,3.6,3.6,0,0,0-2.57,2.09,7.94,7.94,0,0,0-.5,3.15,13.57,13.57,0,0,0-1.18-1,8,8,0,0,1,2.05-6c1.87-2.08,2.91-3.39,2.62-6.2-1.57-11.34-4.59-25.91-8.09-35.18h0c-.41-1.08-.82-2.11-1.24-3a3,3,0,0,0-2.66-2H20.2A2.69,2.69,0,0,0,18,11.44a.87.87,0,1,0,1.4,1,1,1,0,0,1,.8-.45h0c.32,0,.69.13,1.11,1h0c-2,0-2.89,2.23-3.29,3.23-.12.36-.34.87-.6,1.48a34.73,34.73,0,0,0-2.28,6.65,91.91,91.91,0,0,0-1.95,12.18c0,.74-.1,1.68-.17,2.79-.33,5.41-.87,14.17-.23,21.25,0,.43.08.85.13,1.26a4,4,0,0,0-1.37,1.05,5.08,5.08,0,0,0-.87,2.5c-.42,3,.53,8.23,2.44,10.88a11.66,11.66,0,0,0,4,3.37c-.52.09-1,.18-1.43.29a4.57,4.57,0,0,0-2.58,1.75,2.94,2.94,0,0,0,.4,3.57A6.62,6.62,0,0,0,16.84,87a14.25,14.25,0,0,0,2.66.25,12.38,12.38,0,0,0,1.38-.07.88.88,0,0,0-.2-1.74,11.68,11.68,0,0,1-3.51-.16,5.13,5.13,0,0,1-2.33-1.16,1.25,1.25,0,0,1-.26-1.42,3,3,0,0,1,1.55-1,26.34,26.34,0,0,1,4.15-.58l2.81-.2-2.43-1.43c-.26-.15-.64-.33-1.09-.54a12.21,12.21,0,0,1-5.05-3.63c-1.48-2-2.53-6.81-2.13-9.62A3.62,3.62,0,0,1,12.91,64a3.41,3.41,0,0,1,1.52-.88A14.14,14.14,0,0,1,16,62.68C23.57,61,26.62,64,28.44,65.84c.24.24.46.46.67.65l1.59,1.43-.13-2.14c-.18-2.8.06-4,.28-4.48a1.9,1.9,0,0,1,1.27-1.1,2.75,2.75,0,0,1,1.76.53A8.06,8.06,0,0,1,36.28,63a8.71,8.71,0,0,1,1.39,7,.88.88,0,1,0,1.7.43A10.4,10.4,0,0,0,37.07,61.18ZM15.61,61c-.36.08-.7.17-1,.26-.75-7-.19-16.19.16-21.76.07-1.12.13-2.07.17-2.8a92.88,92.88,0,0,1,1.91-11.91A32.52,32.52,0,0,1,19,18.43c.28-.67.51-1.2.64-1.57.41-1,.92-2.08,1.64-2.08a.74.74,0,0,1,.57.23,5.17,5.17,0,0,1,.71,1.08c3.42,9.11,6.4,23.47,8,34.65.2,2-.37,2.8-2.18,4.81a9.58,9.58,0,0,0-2.53,6.13C23.56,60.57,20.34,59.93,15.61,61Z"/><path class="cls-1" d="M108,121.37h0a2.23,2.23,0,0,0-2.91-3c-4.67,2.24-8.73,2.32-13.15.27a2.06,2.06,0,0,0-.77-.23,1.7,1.7,0,0,0-1.59,1,2.42,2.42,0,0,0,.74,3.07,16.78,16.78,0,0,0,8.42,2.1,19.78,19.78,0,0,0,6.37-1A4.91,4.91,0,0,0,108,121.37Z"/><path class="cls-1" d="M59,116.15a2.06,2.06,0,0,0-.8.11c-4.68,1.36-8.68.67-13-2.24a2.15,2.15,0,0,0-2.57.1,2.17,2.17,0,0,0-.76,2.48l0,.05a5,5,0,0,0,2.52,2.47,19.84,19.84,0,0,0,9,2.21,15.58,15.58,0,0,0,5.74-1,2.43,2.43,0,0,0,1.2-2.93A1.71,1.71,0,0,0,59,116.15Z"/></g></g></svg>