<svg xmlns="http://www.w3.org/2000/svg" viewBox="0 0 322.43 437.72"><defs><style>.cls-1{fill:#f98fba;}.cls-2{fill:#d0ff5c;}.cls-3{fill:#275cfd;}</style></defs><g id="Layer_2" data-name="Layer 2"><g id="Layer_1-2" data-name="Layer 1"><path class="cls-1" d="M256.3,52.11c-1.45,21.78-9.08,33.29-15.22,39.11a7.16,7.16,0,0,1-5.16,2.21,12.62,12.62,0,0,1-1.48-.1l-.4,0c-.37,0-1.32-.12-1.94-.16-.3.36-.62.72-.95,1.06a18.43,18.43,0,0,1-1.92-.58A17.2,17.2,0,0,0,234.49,84a39.58,39.58,0,0,0,.51-5.45,35.32,35.32,0,0,1,.75-6.6c-1.48-.34-2.94-.73-4.37-1.12a50.16,50.16,0,0,0-10.26-2,17.2,17.2,0,0,0-5.32.56c0-.61.07-1.22.14-1.83a18.52,18.52,0,0,1,3-.44A9.22,9.22,0,0,1,220.19,63c1.61-2.52,5.18-5.49,9-8.65,2.15-1.78,4.36-3.63,6.07-5.29,1.39-1.36,2.94-2.79,4.58-4.3,3-2.77,6.12-5.64,8.68-8.46,5.81-6.39,8.18-7.1,10.53-6.16A3.23,3.23,0,0,1,261,32.46a.88.88,0,0,1-.64,1.06.87.87,0,0,1-1.06-.63,1.46,1.46,0,0,0-.88-1.17l-.33-.12a4.57,4.57,0,0,1,.77,2,10.38,10.38,0,0,1-.29,3.4A117.34,117.34,0,0,0,256.3,52.11Z"/><path class="cls-2" d="M264.22,38.35c-.31,1.84-.6,3.59-.79,5.32-.14,1.27-.28,2.53-.41,3.8-1,9.86-2.13,20-5.51,29.55a91.39,91.39,0,0,1-6.15,13.6h0c-1,.53-1.92,1-2.89,1.43a92,92,0,0,0,7.39-15.62c3.31-9.31,4.38-19.4,5.42-29.15.13-1.27.27-2.54.41-3.81.19-1.78.51-3.64.81-5.43a47.6,47.6,0,0,0,1-11.33,17.87,17.87,0,0,1,1.8.79A53.15,53.15,0,0,1,264.22,38.35Z"/><path class="cls-3" d="M200.3,29.06a133.35,133.35,0,0,0-13.65,8.23,6.82,6.82,0,0,0-2.3,3.65,8.35,8.35,0,0,1-.42,1.06c-1,1.87-3.35,3.1-6.3,3.28-1.86.12-3.62.45-4.7,3.22,0,.08-.05.19-.08.31a2.21,2.21,0,0,1-.8,1.49,2,2,0,0,1-1.11.32,4.47,4.47,0,0,1-1.29-.25,8.93,8.93,0,0,0-3.82-.47l-1.46,1.39.18-2.27A5.46,5.46,0,0,0,164,45.9a1.2,1.2,0,0,0-1-.56h0c-.18,0-.62,0-.64,1a10.73,10.73,0,0,1-.41,2.83,23.41,23.41,0,0,1,.21-5.38,2.44,2.44,0,0,1,.83-.16h0A3,3,0,0,1,165.49,45a6.12,6.12,0,0,1,.73,2.14A105.34,105.34,0,0,1,199.8,27.21,15.2,15.2,0,0,1,200.3,29.06Z"/><path class="cls-3" d="M147.59,51.22c-1.37.08-2.65.18-4,.31a.87.87,0,0,1-1.37,1.07A20.61,20.61,0,0,0,139,49.5a5.26,5.26,0,0,0-1.52-.89,5.08,5.08,0,0,0,.51,2.1l.64,1.34-4.9-.29c-.75,0-.85.08-.85.08a.47.47,0,0,0,.08.29,2.29,2.29,0,0,0,.77.56,14.85,14.85,0,0,0,2.2,1,.88.88,0,0,1,.53,1.12.87.87,0,0,1-.83.58.77.77,0,0,1-.29,0,17.09,17.09,0,0,1-2.44-1.08,4.31,4.31,0,0,1-1.12-.81,84.5,84.5,0,0,0-26.45,10.4.84.84,0,0,1-.45.13.88.88,0,0,1-.75-.43l-.24,0a14,14,0,0,1-1.69.15c-.81,0-1.48-.18-1.61-.85-.21-1,.76-1.59,1.28-1.89h0A8,8,0,0,0,98,59.35a1.3,1.3,0,0,1-1.18-1.18,1.88,1.88,0,0,1,1.38-1.88A6.29,6.29,0,0,1,99.29,56a44.11,44.11,0,0,1-3.92-5.42c-.88-1.62-1.08-2.94-.6-4A1.87,1.87,0,0,1,96,45.52a2.75,2.75,0,0,1,1.6.06c-.77-3.46.55-7,1.83-10.41.16-.42.31-.83.46-1.25a55.61,55.61,0,0,0,3-12.52.92.92,0,0,1,1.51-.61L106.14,22a30.34,30.34,0,0,1,6.77-11.39c-1-.69-2-1.39-3-2.07.63-.31,1.27-.6,1.92-.86l.11.13c17.39,12,29,26,34.66,41.71l1.83-.11C148.18,50,147.9,50.62,147.59,51.22Z"/><path class="cls-3" d="M98.77,96.83a7.15,7.15,0,0,0-6-.34c-3.18,1.24-6,4.66-7.82,9.64-3.1,8.3-1.7,16.83,3.11,19a8,8,0,0,0,3.29.73,8.12,8.12,0,0,0,3.06-.62c3.31-1.34,6.16-4.71,8-9.49C105.63,107.65,104.05,99.51,98.77,96.83Zm2.06,18.29c-1.67,4.26-4.25,7.36-7.07,8.51a6.08,6.08,0,0,1-5-.08c-3.93-1.78-4.94-9.48-2.2-16.8,1.66-4.44,4.14-7.59,6.82-8.63a5.28,5.28,0,0,1,2-.39,5.56,5.56,0,0,1,2.58.66C102.45,100.66,103.67,107.85,100.83,115.12Z"/><path class="cls-1" d="M98,100.25c-2.33-1.36-5,0-6,3.24-1,2.94-.19,4.94,2.2,6.11s5,.79,6-2.16C100.92,104.83,100.57,101.77,98,100.25Z"/><path class="cls-1" d="M93.15,111.42c-2-1.14-3.3-1.79-4.26-1.51A1.87,1.87,0,0,0,87.64,111c-2.1,4.32-.22,9.91,2.13,11s5.76-.49,7.63-3.25c1.55-2.28,1.48-4,.38-5.23C96.82,112.44,94.58,112.22,93.15,111.42Z"/><path class="cls-3" d="M161.71,113c-2.23-8-9.19-13.13-15.84-11.59a10.56,10.56,0,0,0-6.78,5.11,16.37,16.37,0,0,0-1.35,12.7c2.06,7.41,7.07,11.76,13.18,11.76a13.58,13.58,0,0,0,3-.34,10,10,0,0,0,6.46-4.83A16.66,16.66,0,0,0,161.71,113ZM158.87,125a8.29,8.29,0,0,1-5.34,4c-6.44,1.43-12-2.56-14.1-10.17a14.83,14.83,0,0,1,1.16-11.35,8.89,8.89,0,0,1,5.67-4.3,9.17,9.17,0,0,1,2-.22c5.08,0,10,4.28,11.76,10.58A14.9,14.9,0,0,1,158.87,125Z"/><path class="cls-1" d="M149.7,114.72c2.51-1.2,3.78-3.24,3-5.92a5.5,5.5,0,0,0-7.45-3.24,5.1,5.1,0,0,0-2.66,7C143.51,114.87,146.92,116.05,149.7,114.72Z"/><path class="cls-1" d="M144.3,118.23c-2.47.93-1.87,3.57,0,5.63,2.34,2.61,6,4.37,9.62,2.86,3-1.24,7.18-7.74,3.81-11.64-1.39-1.61-4.66.8-8.29,1.78C147.42,117.4,145.44,117.79,144.3,118.23Z"/><path class="cls-3" d="M181.58,154.8a22.41,22.41,0,0,0,14.13-4.91c9-7.4,10.23-18.81,2.93-27.75-6.66-8.16-19.36-8.6-28.9-1a18.79,18.79,0,0,0-7.07,12.94,19.81,19.81,0,0,0,4.48,14.65C170.55,152.75,176,154.8,181.58,154.8Zm-18.16-20.64a18.08,18.08,0,0,1,6.79-12.44,23.23,23.23,0,0,1,14.34-5.25,17.12,17.12,0,0,1,13.51,6.15c7,8.59,5.86,19.57-2.82,26.69-8.23,6.75-21.34,6.24-27.52-1.07A19,19,0,0,1,163.42,134.16Z"/><path class="cls-3" d="M120.24,125.9a13,13,0,0,1-2.9,1,7.73,7.73,0,0,1-3.12.18,3.09,3.09,0,0,1-2.17-1.33.87.87,0,1,0-1.5.9,4.8,4.8,0,0,0,3.38,2.16,8.66,8.66,0,0,0,1.37.1,10.08,10.08,0,0,0,2.5-.32c1.41-.38,3.2-.95,3.72-1.54a.89.89,0,0,0-.06-1.25A.86.86,0,0,0,120.24,125.9Z"/><path class="cls-3" d="M322.43,238.47V409.23A5.58,5.58,0,0,1,321,413.1l-24.82,23.36v0a4.85,4.85,0,0,1-3.27,1.28H275.8V436h17.1a3.13,3.13,0,0,0,3.13-3.12v-262l-.73-2,.17-.07a3.14,3.14,0,0,0-2.57-1.34l-17.1,0v-1.75l17.11,0a4.87,4.87,0,0,1,4.86,4.8l24.31,65.82A6.49,6.49,0,0,1,322.43,238.47Z"/><path class="cls-3" d="M261,32.46A3.23,3.23,0,0,0,259,30.09c-2.35-.94-4.72-.23-10.53,6.16-2.56,2.82-5.67,5.69-8.68,8.46-1.64,1.51-3.19,2.94-4.58,4.3-1.71,1.66-3.92,3.51-6.07,5.29-3.79,3.16-7.36,6.13-9,8.65a9.22,9.22,0,0,0-1.27,4.18,18.52,18.52,0,0,0-3,.44,16.55,16.55,0,0,0-4.22,1.57c.81-2.52,1.54-5.92.74-7.62a1.2,1.2,0,0,0-.38-.71,1.38,1.38,0,0,0-1.25-.24c-3.72.83-6.53,3.78-8.55,6.27a18.13,18.13,0,0,0-2.73,4.76.87.87,0,0,0,.53,1.12.89.89,0,0,0,1.12-.54,17,17,0,0,1,2.43-4.24c1.78-2.18,4.19-4.75,7.28-5.59.56,1.64-.65,6.3-1.76,8.67l-1.74,3.7,3.1-2.66a13.81,13.81,0,0,1,5.29-2.66,17.2,17.2,0,0,1,5.32-.56,50.16,50.16,0,0,1,10.26,2c1.43.39,2.89.78,4.37,1.12a35.32,35.32,0,0,0-.75,6.6,39.58,39.58,0,0,1-.51,5.45,17.2,17.2,0,0,1-5.26,9.61l-.1.09a13.87,13.87,0,0,1-5,3l-2.91,1.11,3.07.57c2.32.42,6.14,2.45,6.46,4.29a1.3,1.3,0,0,0,0,.21l-.1.12a6.49,6.49,0,0,1-5.25,1.7,7.78,7.78,0,0,1-3.47-1.18.88.88,0,1,0-1,1.45,9.7,9.7,0,0,0,4.27,1.47c.31,0,.61,0,.92,0a8,8,0,0,0,5.8-2.31,2,2,0,0,0,.46-.74,2.22,2.22,0,0,0,0-1.08c-.4-2.25-3.14-4-5.53-5a15.83,15.83,0,0,0,3.36-2.4c.3-.26.58-.54.86-.82s.65-.7.95-1.06c.62,0,1.57.12,1.94.16l.4,0a12.62,12.62,0,0,0,1.48.1,7.16,7.16,0,0,0,5.16-2.21c6.14-5.82,13.77-17.33,15.22-39.11A117.34,117.34,0,0,1,258.53,37a10.38,10.38,0,0,0,.29-3.4,4.57,4.57,0,0,0-.77-2l.33.12a1.46,1.46,0,0,1,.88,1.17.87.87,0,0,0,1.06.63A.88.88,0,0,0,261,32.46Zm-4.16,4.31A116.61,116.61,0,0,0,254.56,52c-.64,9.59-3.4,27.27-14.68,38a5.65,5.65,0,0,1-5.25,1.64l-.43,0-.86-.08a19.63,19.63,0,0,0,2.87-7.15,40.85,40.85,0,0,0,.54-5.68,29.31,29.31,0,0,1,.92-7.1l.28-.91-.94-.2c-1.73-.36-3.48-.83-5.18-1.29a51.65,51.65,0,0,0-10.63-2h-.52a7.19,7.19,0,0,1,1-3.2c1.46-2.29,5.09-5.31,8.61-8.24,2.17-1.81,4.42-3.67,6.17-5.39,1.38-1.34,2.92-2.76,4.55-4.26,3-2.8,6.18-5.7,8.79-8.58,3-3.26,4.84-4.79,6.1-5.45h0a2.31,2.31,0,0,1,1.18,1.88A9.16,9.16,0,0,1,256.8,36.77Z"/><path class="cls-3" d="M322.08,236.36l-24.31-65.82a4.87,4.87,0,0,0-4.86-4.8l-17.11,0-30,0c.1-.93.2-2.13.22-3.51a10.16,10.16,0,0,0,1.88.19,11.21,11.21,0,0,0,9-4.89,9.67,9.67,0,0,0,.66-8.62,8.06,8.06,0,0,0-.84-1.59,5.26,5.26,0,1,0-2.56,1.38,5,5,0,0,0,1.12-.39,6.7,6.7,0,0,1,.65,1.21,7.87,7.87,0,0,1-.53,7.1,9.05,9.05,0,0,1-9.38,3.81,32.79,32.79,0,0,0-2.15-11.17,21.29,21.29,0,0,0-13.07-12.78,16.25,16.25,0,0,0,1.93-.78c1.59-.77,3.26-2.34,2.72-4.23a3.94,3.94,0,0,0-2.56-2.37,13.42,13.42,0,0,0,5.17-2.52,12.71,12.71,0,0,0,4.45-8.69,4.9,4.9,0,0,0-.87-3.59c-1.45-1.75-3.92-1.5-5.92-1.08l-3.33.69c6.05-4.68,13.18-12.8,19-23.23h0A91.39,91.39,0,0,0,257.51,77c3.38-9.5,4.46-19.69,5.51-29.55.13-1.27.27-2.53.41-3.8.19-1.73.48-3.48.79-5.32a53.15,53.15,0,0,0,1.08-10.84,21.55,21.55,0,0,0-.2-2.41c.92-1.49,1.78-3.34,1.09-5a3,3,0,0,0-3-1.81,186.87,186.87,0,0,1-18.93.78,129.25,129.25,0,0,0-44.44,8.13,105.34,105.34,0,0,0-33.58,19.95,6.12,6.12,0,0,0-.73-2.14A3,3,0,0,0,163,43.59h0a2.44,2.44,0,0,0-.83.16,2.49,2.49,0,0,0-1.55,2.5,6.4,6.4,0,0,1-.72,3.27c-3.12-.21-6.32-.26-9.51-.17l-1.88.07-1.83.11C141,33.82,129.35,19.81,112,7.82l-.11-.13a13.45,13.45,0,0,1-2.61-4.27c0-.1-.06-.22-.09-.35A4,4,0,0,0,107.73.54a3.81,3.81,0,0,0-4,.07,9.65,9.65,0,0,0-3,3.28c-1.54,2.41-4.13,6.19-6.87,10.2s-5.73,8.37-7.61,11.31a94.8,94.8,0,0,0-13.54,33,58.87,58.87,0,0,0-8.52,2.65c-1.79.66-3.65,1.35-5.52,1.93l-.91.28.36.88a29.21,29.21,0,0,1,1.57,7,42.31,42.31,0,0,0,1.07,5.61,18.91,18.91,0,0,0,6.89,10.1,10,10,0,0,0,4.24,1.72c-2.44.64-4.58,2.33-4.78,4.75a2.23,2.23,0,0,0,.12,1A3.75,3.75,0,0,0,69,96.13a6.91,6.91,0,0,0,3.39.79,10.36,10.36,0,0,0,2.7-.37,49,49,0,0,0-2.62,13.76c0,.37,0,.75,0,1.15,0,1.31,0,2.54.07,3.77a49.81,49.81,0,0,0,6.7,22.34,45,45,0,0,0,14,15.34,184.11,184.11,0,0,1-22.33-8.1l-1-.42-1.1-.48c-.2-.32-.42-.63-.64-.95.46-.3.79-.5,1.15-.71a1.55,1.55,0,0,0,.74-1.17,1.57,1.57,0,0,0-.5-1.3c-16.72-15.5-23.69-23.56-25.43-25.66a1.7,1.7,0,0,0-1.26-.61,1.76,1.76,0,0,0-1.33.56,110.7,110.7,0,0,1-10,9.52l-.28.22c-1.45,1.1-2.94,2.25-4.46,3.23a.46.46,0,0,0-.07.07l-.11.09,0,0s0,0,0,0,0,.08-.07.12l-.06.12a.14.14,0,0,1,0,.06.71.71,0,0,0,0,.14s0,.07,0,.1L26.76,138a.37.37,0,0,0,0,.15.58.58,0,0,0,0,.18.77.77,0,0,0,.19.27h0a253.87,253.87,0,0,1,18.61,19.52c1.5,1.7,2.68,3,3.52,3.92a1.78,1.78,0,0,0,1.28.54h.22a1.81,1.81,0,0,0,1.35-.9l0-.09a22.37,22.37,0,0,0,4.07,3.58c.27.2.57.37.85.55H4.88A4.89,4.89,0,0,0,0,170.62V432.85a4.88,4.88,0,0,0,4.88,4.87h288a4.85,4.85,0,0,0,3.27-1.28v0L321,413.1a5.58,5.58,0,0,0,1.42-3.87V238.47A6.49,6.49,0,0,0,322.08,236.36ZM256,145.44a3.48,3.48,0,1,1,.48-2.61A3.47,3.47,0,0,1,256,145.44Zm-11.95,20.25-34.4,0a9.9,9.9,0,0,0-.08-5.81.87.87,0,1,0-1.68.46c.63,2.3.56,4.29-.18,5.33-.34.47-.7.55-1.54.7a8,8,0,0,0-2.38.71c-5.67,2.82-7.89,7-10.24,11.44a88.25,88.25,0,0,0-4.2,9.38c-1-4.19-4.49-7.6-9.47-9.13a15.61,15.61,0,0,0-10.73,1.09,28.28,28.28,0,0,1,9.11-9.87c11.85-8.61,22.79-7.59,22.9-7.58a.88.88,0,0,0,1-.78.9.9,0,0,0-.18-.64c10.32-6,17.84-14.16,22.39-24.15l.6.14a10.56,10.56,0,0,0,1.95.18H227a.58.58,0,0,0,.18.08C245.67,141.3,244.56,161.11,244.05,165.69ZM30.59,342.21a4.42,4.42,0,0,1,3.26-1.44c1.8-.09,6,.07,6.38,3.65v10.14c-1.43-1.25-3.65-1.87-6.47-1.72a6.48,6.48,0,0,0-3.72,1.3V343.47A2.73,2.73,0,0,1,30.59,342.21ZM30,340.32v-9.11a3.13,3.13,0,0,1,3.13-3.13h3.94a3.13,3.13,0,0,1,3.12,3.13v9.54c-1.42-1.25-3.64-1.87-6.47-1.72A6.47,6.47,0,0,0,30,340.32ZM30.59,356a4.35,4.35,0,0,1,3.26-1.44c1.8-.11,6,.07,6.38,3.64v10.15c-1.42-1.25-3.64-1.87-6.47-1.73A6.48,6.48,0,0,0,30,368V357.29A2.68,2.68,0,0,1,30.59,356Zm0,13.81a4.42,4.42,0,0,1,3.26-1.44c1.8-.1,6,.07,6.38,3.64v9.38a3.12,3.12,0,0,1-3.12,3.12H33.17A3.13,3.13,0,0,1,30,381.42V371.1A2.73,2.73,0,0,1,30.59,369.84ZM36,386.29h1.07A4.88,4.88,0,0,0,42,381.42V331.21a4.88,4.88,0,0,0-4.87-4.88H36V273.59h1.07A4.88,4.88,0,0,0,42,268.72V218.51a4.88,4.88,0,0,0-4.87-4.88H36v-8.72a3.13,3.13,0,0,1,3.13-3.13H164.61a12.58,12.58,0,0,0,2.44,3.28,11.72,11.72,0,0,0,8,3.05,11.45,11.45,0,0,0,6.93-2.23,14,14,0,0,0,3.56-4.1h73a3.13,3.13,0,0,1,3.13,3.13V398.56a3.13,3.13,0,0,1-3.13,3.12H39.17A3.13,3.13,0,0,1,36,398.56ZM30.59,229.51a4.42,4.42,0,0,1,3.26-1.44c1.8-.09,6,.07,6.38,3.65v10.14c-1.42-1.25-3.64-1.86-6.47-1.72a6.48,6.48,0,0,0-3.72,1.3V230.77A2.73,2.73,0,0,1,30.59,229.51ZM30,227.62v-9.11a3.13,3.13,0,0,1,3.13-3.13h3.94a3.13,3.13,0,0,1,3.12,3.13v9.54c-1.42-1.25-3.64-1.87-6.47-1.72A6.47,6.47,0,0,0,30,227.62Zm.55,15.71a4.35,4.35,0,0,1,3.26-1.44c1.8-.1,6,.07,6.38,3.64v10.15c-1.42-1.25-3.64-1.87-6.47-1.73a6.48,6.48,0,0,0-3.72,1.3V244.59A2.68,2.68,0,0,1,30.59,243.33Zm0,13.81a4.42,4.42,0,0,1,3.26-1.44c1.8-.1,6,.07,6.38,3.64v9.38a3.12,3.12,0,0,1-3.12,3.12H33.17A3.13,3.13,0,0,1,30,268.72V258.4A2.73,2.73,0,0,1,30.59,257.14ZM181,204.49a8.8,8.8,0,0,1-1.56.93,5.51,5.51,0,0,1-.82-3.83.89.89,0,0,0-.73-1,.88.88,0,0,0-1,.73,7.23,7.23,0,0,0,.86,4.73,10.72,10.72,0,0,1-5.81-.14c0-.05,0-.1-.07-.15a5.91,5.91,0,0,1-1.07-4.69.87.87,0,1,0-1.71-.35,7.68,7.68,0,0,0,.24,3.92,9.42,9.42,0,0,1-1.05-.84,12.58,12.58,0,0,1-3.59-8.46,23.83,23.83,0,0,1,1.71-9.5,37.73,37.73,0,0,1,2.1-4.77,14.58,14.58,0,0,1,11.19-1.61c5.19,1.59,8.66,5.32,9.16,9.78-.61,1.63-1.22,3.29-1.83,5C185.67,197.91,184.19,202.06,181,204.49ZM195.82,30.68c-3.86,2.19-7.22,4.29-9.61,6a7.5,7.5,0,0,0-2.57,4,8.68,8.68,0,0,1-.37.95c-1.29,2.42-4.68,2.82-5.69,2.88-1.94.13-4.11.52-5.35,3.69a4.38,4.38,0,0,0-.11.43,1.59,1.59,0,0,1-.48,1,2,2,0,0,1-1.77,0,10.57,10.57,0,0,0-3.17-.55A101.09,101.09,0,0,1,195.82,30.68Zm-51,19c-.88.07-1.76.16-2.66.26a21.93,21.93,0,0,0-2-1.81,5.84,5.84,0,0,0-2.63-1.31,1.45,1.45,0,0,0-1.26.29,1.52,1.52,0,0,0-.46,1.16,6.66,6.66,0,0,0,.21,1.88L133.86,50a2.6,2.6,0,0,0-2.41.85,1.83,1.83,0,0,0-.28.91,85.92,85.92,0,0,0-26.72,10.55.88.88,0,0,0-.36.45l-.28,0c-.72.09-2.38.32-2.47-.1s.39-.79.93-1.11c.33-.19.56-.33.58-.6v-.25l-.15-.13a8.65,8.65,0,0,0-4.56-2,.56.56,0,0,1-.54-.51,1.15,1.15,0,0,1,.89-1.1,4.87,4.87,0,0,1,1.57-.29l1,0-.67-.67A42.65,42.65,0,0,1,96,50.25c-.77-1.4-1-2.5-.57-3.37a1.08,1.08,0,0,1,.75-.64,2.27,2.27,0,0,1,1.76.34l.91.62-.34-1c-1.13-3.47.26-7.16,1.59-10.72.16-.43.32-.84.47-1.26a57.1,57.1,0,0,0,3-12.69.17.17,0,0,1,.11-.15.18.18,0,0,1,.2,0l2.62,1.84.15-.5a29.55,29.55,0,0,1,6.8-11.65C129,22.31,139.53,35.27,144.8,49.67ZM68.7,85.45a17.2,17.2,0,0,1-6.24-9.17,40.37,40.37,0,0,1-1-5.37,34.41,34.41,0,0,0-1.35-6.51c1.61-.53,3.19-1.11,4.73-1.67A62.17,62.17,0,0,1,72.4,60.3a74.74,74.74,0,0,0-.86,17.07A58.85,58.85,0,0,0,72.92,87l-.47-.1A8.55,8.55,0,0,1,68.7,85.45Zm1.14,9.14a2.18,2.18,0,0,1-1-.86,1.61,1.61,0,0,1,0-.25c.15-1.81,2.34-3.29,4.89-3.42a39.42,39.42,0,0,0,1.72,4.51C74.34,95.05,71.65,95.61,69.84,94.59Zm4.41,20.54c-.07-1.18-.09-2.36-.07-3.63a19.71,19.71,0,0,1,2.61,2.81c5.08,6.64,6.12,13.26,3.33,21.29A47.91,47.91,0,0,1,74.25,115.13ZM85.86,144a45.76,45.76,0,0,1-5.15-7.32l-.11-.22c3.12-8.47,2.1-15.68-3.22-22.63a19.17,19.17,0,0,0-3.17-3.29,1,1,0,0,0,0-.17c.5-11.45,5.22-22.59,13.67-32.21A.87.87,0,0,0,87.81,77a.88.88,0,0,0-1.24.08,59.39,59.39,0,0,0-10,15.67,48.59,48.59,0,0,1-3.27-15.45C71.88,56,80.37,37.84,87.74,26.35c1.87-2.92,4.78-7.17,7.58-11.27s5.35-7.81,6.9-10.25a8.39,8.39,0,0,1,2.41-2.73A2,2,0,0,1,106.8,2c.33.21.53,1,.65,1.47,0,.15.08.3.12.43a10.11,10.11,0,0,0,1.11,2.37.88.88,0,0,0-.21.22.86.86,0,0,0,.25,1.21l1.21.82c1,.68,2,1.38,3,2.07A30.34,30.34,0,0,0,106.14,22l-1.74-1.22a.92.92,0,0,0-1.51.61,55.61,55.61,0,0,1-3,12.52c-.15.42-.3.83-.46,1.25-1.28,3.42-2.6,6.95-1.83,10.41a2.75,2.75,0,0,0-1.6-.06,1.87,1.87,0,0,0-1.23,1.06c-.48,1.09-.28,2.41.6,4A44.11,44.11,0,0,0,99.29,56a6.29,6.29,0,0,0-1.06.26,1.88,1.88,0,0,0-1.38,1.88A1.3,1.3,0,0,0,98,59.35,8,8,0,0,1,101.9,61h0c-.52.3-1.49.88-1.28,1.89.13.67.8.85,1.61.85a14,14,0,0,0,1.69-.15l.24,0a.88.88,0,0,0,.75.43.84.84,0,0,0,.45-.13,84.5,84.5,0,0,1,26.45-10.4,4.31,4.31,0,0,0,1.12.81,17.09,17.09,0,0,0,2.44,1.08.77.77,0,0,0,.29,0,.87.87,0,0,0,.83-.58.88.88,0,0,0-.53-1.12,14.85,14.85,0,0,1-2.2-1,2.29,2.29,0,0,1-.77-.56.47.47,0,0,1-.08-.29s.1-.13.85-.08l4.9.29L138,50.71a5.08,5.08,0,0,1-.51-2.1,5.26,5.26,0,0,1,1.52.89,20.61,20.61,0,0,1,3.23,3.1.87.87,0,0,0,1.37-1.07c1.32-.13,2.6-.23,4-.31.88,0,1.8-.09,2.79-.12a96.42,96.42,0,0,1,9.79.19l.41,0,.28-.28a4.46,4.46,0,0,0,1-1.88h0v0a10.73,10.73,0,0,0,.41-2.83c0-.95.46-1,.64-1h0a1.2,1.2,0,0,1,1,.56,5.46,5.46,0,0,1,.58,3.12l-.18,2.27,1.46-1.39a8.93,8.93,0,0,1,3.82.47,4.47,4.47,0,0,0,1.29.25,2,2,0,0,0,1.11-.32,2.21,2.21,0,0,0,.8-1.49c0-.12.05-.23.08-.31,1.08-2.77,2.84-3.1,4.7-3.22,3-.18,5.31-1.41,6.3-3.28a8.35,8.35,0,0,0,.42-1.06,6.82,6.82,0,0,1,2.3-3.65,133.35,133.35,0,0,1,13.65-8.23l1.07-.57a127.85,127.85,0,0,1,42.88-7.66A188,188,0,0,0,263.36,20a1.26,1.26,0,0,1,1.22.75c.42,1-.44,2.57-1.13,3.65l-.18.28.05.32q.12.84.18,1.68a47.6,47.6,0,0,1-1,11.33c-.3,1.79-.62,3.65-.81,5.43-.14,1.27-.28,2.54-.41,3.81-1,9.75-2.11,19.84-5.42,29.15a92,92,0,0,1-7.39,15.62c-5.32,9.07-12.38,17.78-20.09,22.49a.85.85,0,0,0-.22.2l-4.73,1a.88.88,0,0,0,.35,1.72l12.32-2.58c1.51-.32,3.36-.55,4.2.48a3.24,3.24,0,0,1,.48,2.35A11.07,11.07,0,0,1,237,125.2c-2.09,1.76-5.61,2.64-8.18,2.72l-4.1.14,3.79,1.55a11.85,11.85,0,0,0,1.39.38c.63.14,1.34.31,1.88.49,1.23.41,1.9.87,2.06,1.42.23.79-.78,1.68-1.8,2.18a10.64,10.64,0,0,1-6.74,1.14,7.45,7.45,0,0,1-5-3.21.88.88,0,0,0-1.22-.21.87.87,0,0,0-.22,1.22,9.08,9.08,0,0,0,3.89,3.22C218,146.45,210,154.64,199,160.58a38.07,38.07,0,0,0-17.48,5.16h-45a1,1,0,0,0-.34-.1C109.34,163.44,91.92,151,85.86,144Zm12.37,12A94,94,0,0,0,125,165.75H80.18a.61.61,0,0,0-.13,0,.25.25,0,0,0-.12,0c-1.21.35-2.56.68-4,1a14.65,14.65,0,0,0,4.16-5.6A13.82,13.82,0,0,0,78.93,150,168.7,168.7,0,0,0,98.23,156Zm-70-26.38,3.39,2.73-3.17,3.43Zm22.9,30.13-.59,1-.1,0c-.81-.82-2-2.16-3.45-3.85-3.73-4.26-9.93-11.34-18.11-19.05l2.66-2.89,1.55,1.58,5.65-5.56-1.79-1.82-3.43,3.26s0-.07,0-.12a1.41,1.41,0,0,0-.51-1.12l-4.27-3.45c1.22-.84,2.42-1.74,3.58-2.62l.31-.24a107.57,107.57,0,0,0,10.21-9.72c1.74,2.11,8.73,10.19,25.39,25.65-.29.17-.61.37-1,.65a5.4,5.4,0,0,0-1.26-1.21,2.73,2.73,0,0,0-2.34-.37,2.46,2.46,0,0,0-.71.4l-2-3.27a.36.36,0,0,0-.51-.12.37.37,0,0,0-.12.52l2.14,3.45a3.26,3.26,0,0,0-.48,1.17.26.26,0,0,0-.09-.05,22.29,22.29,0,0,1-2.27-.77.39.39,0,0,0-.49.21.37.37,0,0,0,.21.49,21.54,21.54,0,0,0,2.35.79l.1,0a.36.36,0,0,0,.11,0c0,.13,0,.26,0,.38a15.72,15.72,0,0,0,.26,1.86C60.84,146.22,56.42,150.88,51.11,159.79ZM53,160a78.33,78.33,0,0,1,9.85-13.34.81.81,0,0,0,.38,0,.87.87,0,0,0,.71-1c0-.23-.08-.47-.13-.71a14.87,14.87,0,0,1-.28-1.94c0-.59.18-1.28.6-1.42a1,1,0,0,1,.83.18,4.17,4.17,0,0,1,1,1,25.24,25.24,0,0,1,2.5,3.89.88.88,0,0,0,.78.47,1,1,0,0,0,.4-.1.88.88,0,0,0,.45-.69l.15.07c2.38,1.05,4.94,2.1,7.56,3.11a13.1,13.1,0,0,1,1.66,11.35A13.34,13.34,0,0,1,74.28,167c-4.46.65-9.53.57-14.07-1.5a18.8,18.8,0,0,1-3.05-1.77A19.66,19.66,0,0,1,53,160ZM296,432.85A3.13,3.13,0,0,1,292.9,436H4.88a3.13,3.13,0,0,1-3.13-3.12V170.62a3.13,3.13,0,0,1,3.13-3.13H60.35a24.57,24.57,0,0,0,9.18,1.66,39.43,39.43,0,0,0,10.77-1.64l98.43,0c-.48.33-1,.66-1.45,1-7,4.48-10.68,11.57-12.56,16.73a25.8,25.8,0,0,0-1.81,10.2,16.08,16.08,0,0,0,.94,4.6H39.17a4.89,4.89,0,0,0-4.88,4.88v8.72H33.17a4.89,4.89,0,0,0-4.88,4.88V230.7a4.31,4.31,0,0,0,0,.88v12.93a4.31,4.31,0,0,0,0,.88v12.93a4.41,4.41,0,0,0,0,.89v9.51a4.88,4.88,0,0,0,4.88,4.87h1.12v52.74H33.17a4.89,4.89,0,0,0-4.88,4.88V343.4a4.31,4.31,0,0,0,0,.88v12.93a4.31,4.31,0,0,0,0,.88V371a4.41,4.41,0,0,0,0,.89v9.51a4.88,4.88,0,0,0,4.88,4.87h1.12v12.27a4.88,4.88,0,0,0,4.88,4.87H258.61a4.88,4.88,0,0,0,4.88-4.87V204.91a4.89,4.89,0,0,0-4.88-4.88H186.53a50.27,50.27,0,0,0,2.11-5.2,115.46,115.46,0,0,1,6.46-15.53c2.31-4.36,4.31-8.12,9.47-10.69a6.58,6.58,0,0,1,1.9-.56,4.44,4.44,0,0,0,1.9-.65l67.43.07,17.1,0a3.14,3.14,0,0,1,2.57,1.34l-.17.07.73,2Zm24.64-23.62a3.83,3.83,0,0,1-.9,2.62l-22,20.7V175.61L320.43,237a4.69,4.69,0,0,1,.25,1.51Z"/><path class="cls-3" d="M97,308.27a13.39,13.39,0,1,0-13.38-13.39A13.41,13.41,0,0,0,97,308.27Zm0-25a11.64,11.64,0,1,1-11.63,11.63A11.65,11.65,0,0,1,97,283.25Z"/><path class="cls-3" d="M71.25,323.34a.76.76,0,0,0,.14.11,39.26,39.26,0,0,0,15.75,11.41l.09.05.09,0a39.12,39.12,0,1,0-16.14-11.74A1,1,0,0,0,71.25,323.34Zm29-48.95a23.15,23.15,0,1,1-16.51,39.34s0-.06,0-.09a.79.79,0,0,0-.22-.19,23.12,23.12,0,0,1,16.77-39.06Zm16,42.21,8.64,10.87a37.07,37.07,0,0,1-16.17,7.62l-2.3-13.43A24.91,24.91,0,0,0,116.25,316.6ZM81.7,314.1l-9.58,7.46a37.2,37.2,0,0,1-7.12-15l11.44-1.78A25,25,0,0,0,81.7,314.1Zm-8.47,8.81,9.69-7.54a25,25,0,0,0,8.61,5.47L87,332.93A37.45,37.45,0,0,1,73.23,322.91Zm15.43,10.66,4.53-12.17a24.67,24.67,0,0,0,7.07,1,24.15,24.15,0,0,0,4.45-.41L107,335.4a38,38,0,0,1-5.58.42A37.16,37.16,0,0,1,88.66,333.57Zm37.56-7.24-8.67-10.91a24.93,24.93,0,0,0,5.86-8.73l12.83,5.14A37.32,37.32,0,0,1,126.22,326.33Zm-24.81-65.07a37.26,37.26,0,0,1,35.41,48.91L124,305a24.82,24.82,0,0,0,1.16-7.5,25.18,25.18,0,0,0-.25-3.5L131.3,292a.89.89,0,0,0,.55-1.11.87.87,0,0,0-1.1-.56l-6.15,2a24.93,24.93,0,0,0-4.91-10.3l2.69-2.39a.87.87,0,0,0-1.16-1.31l-2.66,2.37a25.15,25.15,0,0,0-9.79-6.53l.9-2.95a.87.87,0,0,0-1.67-.51l-.9,2.93a24.47,24.47,0,0,0-6.84-1,25,25,0,0,0-5.44.61L94,270.17a.87.87,0,1,0-1.69.42l.77,3.1a25,25,0,0,0-9.82,5.66l-4.74-5.11a.87.87,0,1,0-1.28,1.18l4.78,5.17a24.92,24.92,0,0,0-5.65,9.85l-10.54-3.17A37.34,37.34,0,0,1,101.41,261.26ZM65.38,289,76,292.14a24.5,24.5,0,0,0,0,10.91l-11.33,1.77A37.16,37.16,0,0,1,65.38,289Z"/><path class="cls-3" d="M190.71,309v19.09a5.37,5.37,0,0,0,10.73,0c0-5-.1-10.29-.2-15.41.65.06,1.31.1,2,.1A22.63,22.63,0,1,0,190.71,309Zm8.77,3.19c.1,5.28.21,10.73.21,15.9a3.62,3.62,0,0,1-7.23,0V286.93a3.62,3.62,0,0,1,6.82-1.68.87.87,0,0,0,1.18.37.82.82,0,0,0,.4-.46c2.56,1.21,4,2,4,2a3.62,3.62,0,0,1-1.8,6.75,3.59,3.59,0,0,1-1.92-.56l0-1a.89.89,0,0,0-.85-.91.86.86,0,0,0-.9.85C199.2,297.56,199.34,304.68,199.48,312.22Zm3.72-42.88a20.86,20.86,0,0,1,0,41.72,19,19,0,0,1-2-.11c-.11-5.75-.2-11.2-.14-15.72a5.23,5.23,0,0,0,2,.39,5.37,5.37,0,0,0,2.65-10c-.1,0-2.6-1.39-7.14-3.43h0a5.36,5.36,0,0,0-7.82,4.76v20a20.86,20.86,0,0,1,12.49-37.56Z"/><polygon class="cls-3" points="45.74 124.16 43.86 122.25 38.55 127.57 40.38 129.43 45.74 124.16"/><polygon class="cls-3" points="39.89 132.18 34.16 137.67 36.04 139.58 41.7 134.02 39.89 132.18"/><polygon class="cls-3" points="43.31 132.34 48.72 127.12 46.84 125.2 41.51 130.51 43.31 132.34"/><polygon class="cls-3" points="42.96 135.32 37.23 140.8 39.11 142.71 44.76 137.16 42.96 135.32"/><polygon class="cls-3" points="46.42 135.52 51.78 130.25 49.9 128.34 44.65 133.72 46.42 135.52"/><polygon class="cls-3" points="46.13 138.47 40.42 143.96 42.3 145.87 47.89 140.25 46.13 138.47"/><polygon class="cls-3" points="49.52 138.54 54.76 133.19 52.88 131.28 47.61 136.65 49.52 138.54"/><polygon class="cls-3" points="49.28 141.53 43.63 147.09 45.79 149.29 50.95 143.23 49.28 141.53"/><polygon class="cls-3" points="52.43 141.5 57.96 136.32 56.08 134.41 50.84 140.02 52.43 141.5"/><polygon class="cls-3" points="47.04 150.33 49.03 152.36 54.06 146.17 52.39 144.47 47.04 150.33"/><path class="cls-3" d="M59.34,140.62l.09-.6.61.15.71-.68-1.37-2.2L53.93,143l1.62,1.52,2.67-2.56a.37.37,0,0,0,.11-.32l-.14-1.1Z"/><path class="cls-3" d="M256.74,147.27a8.06,8.06,0,0,1,.84,1.59,7.59,7.59,0,0,1-1.63.61,6.7,6.7,0,0,0-.65-1.21,5,5,0,0,1-1.12.39,5.12,5.12,0,0,1-1.09.12,5.22,5.22,0,0,1-4.37-8.06,5.22,5.22,0,0,1,9.47,1.75,5.13,5.13,0,0,1-1.45,4.81Z"/></g></g></svg>