<svg width="74" height="74" fill="none" xmlns="http://www.w3.org/2000/svg"><circle cx="37" cy="37" r="35" fill="#1B53E4" stroke="#fff" stroke-width="4"/><path fill-rule="evenodd" clip-rule="evenodd" d="M37.245 60.612c-12.772 0-23.125-10.353-23.125-23.125 0-12.771 10.353-23.125 23.125-23.125 12.771 0 23.125 10.354 23.125 23.125 0 12.772-10.354 23.125-23.125 23.125Z" fill="#fff"/><path d="M29.794 33.021a2.989 2.989 0 0 1 2.989-2.989h8.925a2.989 2.989 0 0 1 2.989 2.989v8.925a2.989 2.989 0 0 1-2.989 2.989h-8.925a2.989 2.989 0 0 1-2.99-2.989v-8.925Z" fill="#1B53E4"/></svg>