<svg width="52" height="52" viewBox="0 0 52 52" fill="none" xmlns="http://www.w3.org/2000/svg">
<path fill-rule="evenodd" clip-rule="evenodd" d="M41.0897 13.6627C39.6232 12.1967 37.6351 11.3718 35.5613 11.3689C33.4866 11.3701 31.4973 12.1949 30.0307 13.6621C28.5641 15.1293 27.7404 17.1187 27.7406 19.193C27.7387 20.5006 28.0685 21.7874 28.699 22.9331C29.6755 22.1381 30.7867 21.5246 31.9799 21.1219C31.656 20.5296 31.4885 19.8646 31.4932 19.1896C31.4855 18.6506 31.585 18.1153 31.786 17.6151C31.987 17.1148 32.2854 16.6594 32.664 16.2755C33.0426 15.8915 33.4937 15.5866 33.9912 15.3785C34.4886 15.1704 35.0225 15.0633 35.5617 15.0633C36.101 15.0633 36.6349 15.1704 37.1323 15.3785C37.6298 15.5866 38.0809 15.8915 38.4595 16.2755C38.838 16.6594 39.1365 17.1148 39.3375 17.6151C39.5385 18.1153 39.638 18.6506 39.6303 19.1896C39.6284 19.8625 39.4619 20.5248 39.1453 21.1185C40.3384 21.5213 41.4496 22.1347 42.4261 22.9297C43.0567 21.7841 43.3864 20.4973 43.3845 19.1896C43.3814 17.1163 42.5562 15.1287 41.0897 13.6627ZM10.9098 38.3381C12.3761 39.8041 14.3641 40.629 16.4378 40.6319C17.4655 40.6323 18.4832 40.4304 19.4329 40.0376C20.3825 39.6448 21.2454 39.0689 21.9724 38.3426C22.6994 37.6164 23.2762 36.7542 23.6699 35.8051C24.0636 34.856 24.2664 33.8387 24.2669 32.8112H20.5101C20.5101 33.3454 20.4049 33.8744 20.2004 34.368C19.9959 34.8615 19.6962 35.31 19.3184 35.6878C18.9405 36.0655 18.492 36.3652 17.9983 36.5696C17.5046 36.7741 16.9755 36.8793 16.4412 36.8793C15.9068 36.8793 15.3777 36.7741 14.884 36.5696C14.3904 36.3652 13.9418 36.0655 13.564 35.6878C13.1861 35.31 12.8864 34.8615 12.6819 34.368C12.4775 33.8744 12.3722 33.3454 12.3722 32.8112H8.61546C8.61833 34.8845 9.4434 36.872 10.9098 38.3381ZM11.3605 28.1035C12.8629 29.1089 14.6299 29.6464 16.4378 29.6479C17.6384 29.6488 18.8273 29.4134 19.9369 28.955C21.0464 28.4965 22.0547 27.8241 22.9043 26.976C23.7538 26.1279 24.428 25.1208 24.8883 24.0123C25.3485 22.9037 25.5859 21.7154 25.5868 20.5151C25.5881 18.7075 25.0533 16.9401 24.0499 15.4364C23.0466 13.9327 21.6198 12.7603 19.95 12.0673C18.2802 11.3743 16.4423 11.1919 14.6688 11.5432C12.8953 11.8945 11.2658 12.7637 9.98642 14.0408C8.707 15.318 7.83511 16.9458 7.481 18.7183C7.12689 20.4909 7.30646 22.3286 7.997 23.9992C8.68754 25.6697 9.85804 27.098 11.3605 28.1035ZM30.4797 39.0943C31.9841 40.0981 33.7526 40.6332 35.5613 40.6319C37.9828 40.6273 40.3038 39.6635 42.016 37.9516C43.7283 36.2397 44.6922 33.9192 44.6969 31.4983C44.6982 29.6899 44.163 27.9218 43.1589 26.4177C42.1549 24.9136 40.7271 23.741 39.0563 23.0484C37.3855 22.3557 35.5468 22.1742 33.7727 22.5266C31.9987 22.8791 30.3691 23.7498 29.0901 25.0284C27.8111 26.3071 26.9403 27.9364 26.5877 29.7101C26.2352 31.4837 26.4168 33.3221 27.1096 34.9925C27.8024 36.663 28.9752 38.0904 30.4797 39.0943ZM40.0468 34.4948C40.6396 33.6078 40.956 32.565 40.956 31.4983C40.9564 30.7899 40.8172 30.0883 40.5463 29.4337C40.2753 28.7792 39.8779 28.1844 39.3769 27.6835C38.8759 27.1826 38.281 26.7853 37.6263 26.5144C36.9716 26.2435 36.2699 26.1043 35.5613 26.1047C34.4944 26.1047 33.4514 26.4211 32.5642 27.0137C31.677 27.6064 30.9856 28.4487 30.5773 29.4343C30.169 30.4198 30.0621 31.5043 30.2703 32.5505C30.4785 33.5967 30.9922 34.5578 31.7467 35.3121C32.5012 36.0664 33.4624 36.5801 34.5089 36.7882C35.5553 36.9963 36.64 36.8895 37.6258 36.4813C38.6115 36.073 39.4541 35.3817 40.0468 34.4948ZM20.9233 23.5116C21.5161 22.6246 21.8325 21.5818 21.8325 20.5151C21.8303 19.0853 21.2612 17.7147 20.25 16.7037C19.2388 15.6927 17.8679 15.1238 16.4378 15.1215C15.3709 15.1215 14.3279 15.4379 13.4407 16.0305C12.5536 16.6232 11.8621 17.4655 11.4538 18.4511C11.0455 19.4366 10.9387 20.5211 11.1468 21.5673C11.355 22.6135 11.8688 23.5746 12.6232 24.3289C13.3777 25.0832 14.3389 25.5969 15.3854 25.805C16.4319 26.0131 17.5165 25.9063 18.5023 25.4981C19.488 25.0898 20.3306 24.3985 20.9233 23.5116ZM26 52C40.3594 52 52 40.3594 52 26C52 11.6406 40.3594 0 26 0C11.6406 0 0 11.6406 0 26C0 40.3594 11.6406 52 26 52Z" fill="url(#paint0_linear_51_2640)"/>
<defs>
<linearGradient id="paint0_linear_51_2640" x1="49.3486" y1="2.65136" x2="3.36987" y2="48.6301" gradientUnits="userSpaceOnUse">
<stop stop-color="#F1D961"/>
<stop offset="1" stop-color="#CDA146"/>
</linearGradient>
</defs>
</svg>
